<svg id="Layer_1" data-name="Layer 1" xmlns="http://www.w3.org/2000/svg" viewBox="0 0 1072.18 678.41"><defs><style>.cls-1{fill:#4cc9f1;}.cls-2{fill:#7653ad;}.cls-3{fill:#ffd150;}.cls-10,.cls-11,.cls-12,.cls-13,.cls-14,.cls-15,.cls-16,.cls-18,.cls-19,.cls-20,.cls-21,.cls-22,.cls-25,.cls-26,.cls-27,.cls-28,.cls-30,.cls-33,.cls-34,.cls-35,.cls-36,.cls-37,.cls-39,.cls-4,.cls-40,.cls-41,.cls-43,.cls-44,.cls-45,.cls-46,.cls-48,.cls-49,.cls-5,.cls-50,.cls-6,.cls-7,.cls-8,.cls-9{fill:none;}.cls-10,.cls-11,.cls-12,.cls-13,.cls-14,.cls-15,.cls-16,.cls-19,.cls-4,.cls-5,.cls-8,.cls-9{stroke:#18327c;}.cls-12,.cls-13,.cls-14,.cls-15,.cls-16,.cls-18,.cls-20,.cls-22,.cls-27,.cls-28,.cls-30,.cls-33,.cls-34,.cls-36,.cls-39,.cls-4,.cls-41,.cls-44,.cls-48,.cls-50,.cls-6,.cls-7,.cls-8{stroke-linecap:round;}.cls-12,.cls-13,.cls-27,.cls-28,.cls-34,.cls-4,.cls-44,.cls-5,.cls-7{stroke-linejoin:round;}.cls-4,.cls-5{stroke-width:0.89px;}.cls-18,.cls-20,.cls-21,.cls-22,.cls-33,.cls-37,.cls-43,.cls-48,.cls-49,.cls-6,.cls-7{stroke:#fff;}.cls-10,.cls-11,.cls-14,.cls-15,.cls-16,.cls-18,.cls-19,.cls-20,.cls-21,.cls-22,.cls-25,.cls-26,.cls-30,.cls-33,.cls-35,.cls-36,.cls-37,.cls-39,.cls-40,.cls-41,.cls-43,.cls-45,.cls-46,.cls-48,.cls-49,.cls-50,.cls-6,.cls-8,.cls-9{stroke-miterlimit:10;}.cls-6,.cls-7{stroke-width:2.48px;}.cls-12,.cls-22,.cls-25,.cls-44,.cls-8{stroke-width:1.65px;}.cls-9{stroke-width:1.18px;}.cls-10{stroke-width:1.23px;}.cls-11{stroke-width:1.33px;}.cls-13{stroke-width:1.8px;}.cls-14,.cls-19{stroke-width:0.87px;}.cls-15{stroke-width:0.99px;}.cls-16{stroke-width:0.74px;}.cls-17{fill:#fff;}.cls-18{stroke-width:4.13px;}.cls-20{stroke-width:4.27px;}.cls-21{stroke-width:2.28px;}.cls-23{fill:#ea3b5d;}.cls-24{fill:#b3e1ff;}.cls-25,.cls-44{stroke:#b3e1ff;}.cls-26{stroke:#ffd150;stroke-width:0.62px;}.cls-27,.cls-28,.cls-34,.cls-39,.cls-40,.cls-41{stroke:#0b132d;}.cls-27{stroke-width:0.66px;}.cls-28{stroke-width:0.85px;}.cls-29{fill:#def8ff;}.cls-30,.cls-45,.cls-46{stroke:#222854;}.cls-30,.cls-45{stroke-width:0.8px;}.cls-31{fill:#fca575;}.cls-32{fill:#24375b;}.cls-33,.cls-35,.cls-49{stroke-width:0.83px;}.cls-34,.cls-39{stroke-width:0.71px;}.cls-35,.cls-36{stroke:#24375b;}.cls-36{stroke-width:3.31px;}.cls-37{stroke-width:0.62px;}.cls-38{fill:#0b132d;}.cls-40{stroke-width:0.83px;}.cls-41{stroke-width:0.83px;}.cls-42{fill:#14143a;}.cls-43{stroke-width:0.68px;}.cls-46{stroke-width:0.78px;}.cls-47{fill:#212035;}.cls-48{stroke-width:1.23px;}.cls-50{stroke:#212035;stroke-width:0.87px;}</style></defs><path class="cls-1" d="M591.94,662.77C613.53,613.53,630.8,533,711.84,468.46c77-61.29,158.65-51.21,223.24-42.17,110.39,15.46,177.08-20.15,259.64-79.38s137.22-118.83,265.41-73.59c56.23,19.85,94.64,62.94,100,150.49,4,64.23-18.84,166.81-95.08,262.11C1405.56,760.34,1338,804.25,1227.79,829c-136.43,30.59-212.5,62.84-455.59,0-76.21-19.7-135.61-43-210.85,53.74-64.72,83.21-98.61,24.26-49.61-54.57C568.79,736.36,566,722,591.94,662.77Z" transform="translate(-488.44 -255.57)"/><rect class="cls-2" x="253.99" y="657.74" width="669.75" height="20.67" rx="10.34"/><rect class="cls-3" x="595.84" y="630.04" width="173.64" height="20.67" rx="10.34"/><path class="cls-4" d="M634.62,638.76l.15-1.4a6.24,6.24,0,0,1,6.2-5.55h47.9L680,712.6H669.83" transform="translate(-488.44 -255.57)"/><polygon class="cls-4" points="304.2 377.69 294.57 458.47 302.33 458.47 312.76 377.69 304.2 377.69"/><polygon class="cls-4" points="203.55 376.86 194.46 455.97 203.55 455.97 211.57 376.86 203.55 376.86"/><polygon class="cls-4" points="291.1 458.47 237.61 458.47 246.53 377.69 300.01 377.69 291.1 458.47"/><polygon class="cls-5" points="280.51 402.77 257.11 402.77 258.51 390.52 281.91 390.52 280.51 402.77"/><polygon class="cls-4" points="315.59 389.43 338.45 388.83 332.13 458.88 305.27 458.47 315.59 389.43"/><line class="cls-4" x1="346.25" y1="382.68" x2="337.34" y2="458.45"/><line class="cls-4" x1="352.34" y1="379.34" x2="341.79" y2="458.45"/><line class="cls-4" x1="355.69" y1="390.4" x2="346.84" y2="458.53"/><polygon class="cls-4" points="222.92 335.64 192.49 335.64 197.56 289.69 227.99 289.69 222.92 335.64"/><polygon class="cls-4" points="216.9 303.96 203.59 303.96 204.38 296.99 217.69 296.99 216.9 303.96"/><polygon class="cls-4" points="236.85 296.37 249.86 296.03 246.26 335.88 230.98 335.64 236.85 296.37"/><path class="cls-6" d="M1546.54,356.42c-67-25.63-114.93-4.13-133,16.62-21.54,24.81-37.49,39.82-52,35.68s-25.8-2.48-36.68,9.1-15.1,22.14-28.7,20.58-26.13,24.72-10.35,28.12c11.8,2.53,211.68-1.81,271.4-2.61" transform="translate(-488.44 -255.57)"/><path class="cls-6" d="M1068.62,396.11" transform="translate(-488.44 -255.57)"/><path class="cls-6" d="M1191.27,350.74c15.53,12.3,20.55,13.7,33.34,11.76s16.78-2,25.94,4.63,15.51,9.43,27.64,8.87,19.35.75,19.46,8.36-2.49,10.1-16.08,10.1c-8.37,0-108.93.83-164.16.83" transform="translate(-488.44 -255.57)"/><path class="cls-7" d="M1454.41,385.39c-7.91,2.78-16.23,7-22.09,13.2-14.77,15.71-25.94,29.8-41.85,29.79s-43.53-1.05-50,7.74" transform="translate(-488.44 -255.57)"/><path class="cls-7" d="M1488.17,399.1a55.7,55.7,0,0,0-16,5.85,295.29,295.29,0,0,0-25.6,17" transform="translate(-488.44 -255.57)"/><path class="cls-7" d="M1164.4,367.94c12.75,9.36,26.12,16.63,39.82,11.92,15.3-5.25,24.4-3,29.77,0" transform="translate(-488.44 -255.57)"/><path class="cls-7" d="M1481.22,373s21.5-3.31,38.86,0c13.76,2.62,35.64,15.16,35.64,15.16" transform="translate(-488.44 -255.57)"/><path class="cls-8" d="M1033.58,411.58q2.57-.6,5.13-1.28" transform="translate(-488.44 -255.57)"/><path class="cls-8" d="M1014.62,415q5.24-.66,10.47-1.62" transform="translate(-488.44 -255.57)"/><path class="cls-8" d="M649.59,686.29c-13.5-27.43-20.48-60.52-19.78-100.43,1-57,50.1-141.24,155.45-172,73.06-21.32,148.14,8.26,220.7,2" transform="translate(-488.44 -255.57)"/><path class="cls-8" d="M659.49,703.67q-2.58-3.95-5-8.07" transform="translate(-488.44 -255.57)"/><path class="cls-8" d="M666.51,713.59c-1.08-1.41-2.13-2.84-3.17-4.28" transform="translate(-488.44 -255.57)"/><path class="cls-8" d="M722.77,762.27c-1.46-.85-2.89-1.72-4.32-2.6" transform="translate(-488.44 -255.57)"/><path class="cls-8" d="M742.53,772.76q-6.33-3-12.4-6.32" transform="translate(-488.44 -255.57)"/><path class="cls-8" d="M1518.22,497.56c-4.66,35.47-16.39,71.53-35.1,105.67C1374.8,800.85,1223.59,814.1,1040.81,816.16c-95.07,1.06-204.07-3.28-285.94-37.86" transform="translate(-488.44 -255.57)"/><path class="cls-8" d="M1520.45,457.18q.24,11-.46,22.12" transform="translate(-488.44 -255.57)"/><path class="cls-8" d="M1519,435.46c.32,2.86.59,5.74.81,8.62" transform="translate(-488.44 -255.57)"/><path class="cls-8" d="M1462.25,313.87c1.83,1.79,3.61,3.62,5.35,5.47" transform="translate(-488.44 -255.57)"/><path class="cls-8" d="M1447.29,300.72q5.24,4.11,10.07,8.53" transform="translate(-488.44 -255.57)"/><path class="cls-8" d="M1175.31,317.48c57-46,104.3-73.24,186.26-55.74,29.52,6.3,54.89,17.3,76.13,31.91" transform="translate(-488.44 -255.57)"/><path class="cls-8" d="M1146.17,341.56q7.41-6.21,14.53-12.12" transform="translate(-488.44 -255.57)"/><path class="cls-8" d="M1130.43,354.68l6.93-5.76" transform="translate(-488.44 -255.57)"/><path class="cls-9" d="M1370.88,659.58c-9.64-7.18-24.63-40.52-14.12-61.74s21.64-8,24.12-24-4.81-30.19,10.28-40.53,26.19-12.57,29.27-24.17,10.13-18.8,26.46-28.66,39.81,5.79,30.75,23.3c-7.65,14.76-5.75,33.85-1.22,44.14s8.91,18.8-2.43,31.17-23.38,17.06-22.31,34.81,11.87,25.66-8.56,38.93C1415.37,670.88,1386.61,671.31,1370.88,659.58Z" transform="translate(-488.44 -255.57)"/><path class="cls-9" d="M1463.86,478s-22.06,32-50.34,90.75c-23.4,48.6-25.77,97.91-25.77,97.91" transform="translate(-488.44 -255.57)"/><path class="cls-9" d="M1368.18,585.23c2.24,18.42,21.86,61.22,21.86,61.22" transform="translate(-488.44 -255.57)"/><path class="cls-9" d="M1391.16,533.33a96.7,96.7,0,0,1,6.93,23.15,308.06,308.06,0,0,0,7.57,30.5s12.65-14,30.58-18.31l43.49-10.57" transform="translate(-488.44 -255.57)"/><path class="cls-9" d="M1429.2,493.66s4.94,9.46,3.94,17.88a139.92,139.92,0,0,0-.45,19.3" transform="translate(-488.44 -255.57)"/><path class="cls-9" d="M1433.85,528.68s12.09-7.63,19.37-12.48,22-6.62,22-6.62" transform="translate(-488.44 -255.57)"/><path class="cls-9" d="M1389.86,644.59s22.9-12,33.14-18.1,29.13-8.27,29.13-8.27" transform="translate(-488.44 -255.57)"/><path class="cls-9" d="M1352.13,698.27c4.52-6.71,6.6-31.2-4.79-42.33s-15.51-.24-20.64-9.84-3.68-20.23-15.56-23.43-19.42-2.15-24-8.82-10.62-9.67-23.18-12.3-24,12.54-14.32,21.63c8.14,7.67,11.19,20.21,10.6,27.74s-1.47,13.92,8.48,19.24,18.64,5.62,21.92,17.13-1.82,18.92,14.1,22.79C1326.41,715.34,1344.76,709.21,1352.13,698.27Z" transform="translate(-488.44 -255.57)"/><path class="cls-9" d="M1253.64,604.34s20.16,14.78,51.19,45.76c25.68,25.63,38.16,56.39,38.16,56.39" transform="translate(-488.44 -255.57)"/><path class="cls-9" d="M1337.28,650.48s-1.88,2.28-1.09,13.57.86,30.15.86,30.15" transform="translate(-488.44 -255.57)"/><path class="cls-9" d="M1311.14,622.67a65.09,65.09,0,0,0,.76,16.23,208.7,208.7,0,0,1,2,21s-11.14-6-23.48-4.81l-30,3" transform="translate(-488.44 -255.57)"/><path class="cls-9" d="M1278.17,606s-1,7.11,1.48,12.23a95,95,0,0,1,4.59,12.15" transform="translate(-488.44 -255.57)"/><path class="cls-9" d="M1283,629.22s-9.37-2.15-15.07-3.6-15.41.69-15.41.69" transform="translate(-488.44 -255.57)"/><path class="cls-9" d="M1336.75,693s-17.21-2.53-25.07-4.1-20.32,1.24-20.32,1.24" transform="translate(-488.44 -255.57)"/><path class="cls-9" d="M1342.58,705.71s4.39,7.8,8.56,15.35,12.94,22.9,12.94,22.9" transform="translate(-488.44 -255.57)"/><path class="cls-10" d="M1388,666.62s-2.6,13-5.19,30.5c-1.23,8.29-1.93,21.92-2.33,34" transform="translate(-488.44 -255.57)"/><path class="cls-9" d="M1195.24,414.15s12.39-1,23,5.11,7.28,10.6,7.28,10.6S1210.66,430.11,1195.24,414.15Z" transform="translate(-488.44 -255.57)"/><path class="cls-9" d="M1226.14,429.6s3.3-9.1,11.57-13.23l14.88-7.44A37.31,37.31,0,0,1,1226.14,429.6Z" transform="translate(-488.44 -255.57)"/><circle class="cls-11" cx="796.82" cy="263.74" r="8.68"/><circle class="cls-11" cx="847.67" cy="246.79" r="4.55"/><circle class="cls-11" cx="838.99" cy="300.95" r="16.54"/><path class="cls-9" d="M1200.76,457.59a19.93,19.93,0,0,1,10.42,2.32c4.82,2.78,3.29,4.79,3.29,4.79S1207.73,464.81,1200.76,457.59Z" transform="translate(-488.44 -255.57)"/><path class="cls-9" d="M1214.73,464.58a11.94,11.94,0,0,1,5.24-6l6.73-3.37A16.88,16.88,0,0,1,1214.73,464.58Z" transform="translate(-488.44 -255.57)"/><path class="cls-9" d="M1239.37,439.29s8-.67,14.94,3.33,4.73,6.87,4.73,6.87S1249.36,449.65,1239.37,439.29Z" transform="translate(-488.44 -255.57)"/><path class="cls-9" d="M1259.41,449.32s2.14-5.9,7.51-8.58l9.65-4.83A24.21,24.21,0,0,1,1259.41,449.32Z" transform="translate(-488.44 -255.57)"/><polygon class="cls-12" points="525.5 86.5 505.86 85.68 505.07 85.39 503.24 68.5 474.83 110.79 525.5 86.5"/><polyline class="cls-13" points="510.31 94.65 509.75 98.37 474.76 111.19 505.35 85.56"/><path class="cls-14" d="M828,568.51H755.24a11.16,11.16,0,0,1-11.16-11.16h0a11.16,11.16,0,0,1,11.16-11.16H828" transform="translate(-488.44 -255.57)"/><path class="cls-14" d="M825.93,564.38H755.29a6.91,6.91,0,0,1-6.9-6.91h0a6.9,6.9,0,0,1,6.9-6.9h70.64" transform="translate(-488.44 -255.57)"/><path class="cls-14" d="M825.48,562.8a7.45,7.45,0,0,1,.57-9.89" transform="translate(-488.44 -255.57)"/><path class="cls-14" d="M825.53,544.49H753a6.88,6.88,0,0,1-6.88-6.88h0a6.88,6.88,0,0,1,6.88-6.89H824.7" transform="translate(-488.44 -255.57)"/><path class="cls-14" d="M825.53,541.94H753a4.26,4.26,0,0,1-4.26-4.26h0a4.25,4.25,0,0,1,4.26-4.25h73.36" transform="translate(-488.44 -255.57)"/><path class="cls-14" d="M786.35,541a4.6,4.6,0,0,1,.35-6.1" transform="translate(-488.44 -255.57)"/><path class="cls-14" d="M822,541a4.59,4.59,0,0,1,.35-6.09" transform="translate(-488.44 -255.57)"/><path class="cls-15" d="M795.57,510.59h72.76c6.17,0,11.17-6.45,11.17-14.4h0c0-7.95-5-14.4-11.17-14.4H795.57" transform="translate(-488.44 -255.57)"/><path class="cls-15" d="M797.65,505.26h70.63c3.82,0,6.91-4,6.91-8.91h0c0-4.92-3.09-8.91-6.91-8.91H797.65" transform="translate(-488.44 -255.57)"/><path class="cls-15" d="M798.1,503.22a11.49,11.49,0,0,0,1.6-6,11.17,11.17,0,0,0-2.17-6.79" transform="translate(-488.44 -255.57)"/><path class="cls-15" d="M843.23,502.17a11.4,11.4,0,0,0,1.61-6,11.11,11.11,0,0,0-2.18-6.79" transform="translate(-488.44 -255.57)"/><path class="cls-15" d="M804.6,481.69h54.64c4.63,0,8.38-4.84,8.38-10.81h0c0-6-3.75-10.81-8.38-10.81H804.6" transform="translate(-488.44 -255.57)"/><path class="cls-16" d="M806.16,477.69h53c2.87,0,5.19-3,5.19-6.69h0c0-3.7-2.32-6.69-5.19-6.69h-53" transform="translate(-488.44 -255.57)"/><path class="cls-16" d="M806.5,476.16a8.65,8.65,0,0,0,1.2-4.48,8.38,8.38,0,0,0-1.63-5.1" transform="translate(-488.44 -255.57)"/><path class="cls-16" d="M840.39,475.37a8.56,8.56,0,0,0,1.21-4.48A8.33,8.33,0,0,0,840,465.8" transform="translate(-488.44 -255.57)"/><line class="cls-16" x1="317.06" y1="241.06" x2="350.14" y2="241.06"/><line class="cls-16" x1="311.01" y1="244.88" x2="335.44" y2="244.88"/><line class="cls-16" x1="310.63" y1="237.29" x2="327.17" y2="237.29"/><line class="cls-16" x1="325.51" y1="214.13" x2="344.53" y2="214.13"/><line class="cls-16" x1="330.47" y1="217.44" x2="347.84" y2="217.44"/><line class="cls-16" x1="356.11" y1="237.29" x2="371.82" y2="237.29"/><line class="cls-16" x1="360.24" y1="243.9" x2="380.91" y2="243.9"/><line class="cls-16" x1="356.93" y1="214.13" x2="366.86" y2="214.13"/><line class="cls-16" x1="356.93" y1="217.44" x2="371.82" y2="217.44"/><path class="cls-14" d="M780.67,562.57a8.17,8.17,0,0,1,.6-10.6" transform="translate(-488.44 -255.57)"/><circle class="cls-17" cx="835.4" cy="91.99" r="17.23"/><rect class="cls-2" x="304.09" y="257.37" width="96.18" height="6.78" rx="3.39"/><circle class="cls-17" cx="270.53" cy="242.66" r="7.44"/><circle class="cls-17" cx="374.3" cy="310.87" r="3.72"/><circle class="cls-17" cx="344.12" cy="183.95" r="3.31"/><rect class="cls-2" x="253.61" y="313.67" width="96.18" height="6.78" rx="3.39"/><rect class="cls-2" x="313.97" y="356.66" width="96.18" height="6.78" rx="3.39"/><line class="cls-18" x1="169.65" y1="338.57" x2="287.48" y2="338.99"/><rect class="cls-19" x="331.72" y="349.32" width="66.97" height="7.44"/><line class="cls-20" x1="183.71" y1="461.13" x2="355.69" y2="461.13"/><polygon class="cls-19" points="388.35 349.17 334.38 349.17 334.38 343.18 386.7 343.18 388.35 349.17"/><polygon class="cls-19" points="376.79 342.66 339.98 342.66 339.98 338.57 375.67 338.57 376.79 342.66"/><path class="cls-17" d="M922.35,615.64a4.82,4.82,0,0,0-4.76,5.64c2.46,13.89,11.21,24.16,21.63,24.16s19.16-10.27,21.63-24.16a4.83,4.83,0,0,0-4.77-5.64Z" transform="translate(-488.44 -255.57)"/><path class="cls-17" d="M918.73,643a47.49,47.49,0,0,0,9.12,7.33h23c.6-.46,1.24-.91,1.9-1.38,2.07-2,4.24-4,6.33-6Z" transform="translate(-488.44 -255.57)"/><ellipse class="cls-21" cx="921.58" cy="630.78" rx="5.98" ry="8.83" transform="translate(-597.98 804.16) rotate(-56.98)"/><path class="cls-22" d="M930.55,542.4a14.67,14.67,0,0,1,.63,8.58,43.46,43.46,0,0,1-2.8,8.26" transform="translate(-488.44 -255.57)"/><path class="cls-22" d="M926.22,566.85a27.9,27.9,0,0,0-2.15,9.7" transform="translate(-488.44 -255.57)"/><path class="cls-22" d="M924.3,582.8a20.72,20.72,0,0,0,1.83,7" transform="translate(-488.44 -255.57)"/><path class="cls-22" d="M928,594.13A15.18,15.18,0,0,0,930.9,598" transform="translate(-488.44 -255.57)"/><path class="cls-22" d="M930.3,522.5c3.08,2.7,4.56,6.74,5.92,10.6" transform="translate(-488.44 -255.57)"/><path class="cls-22" d="M938.93,542.9c.11,10-3.07,19.77-6.22,29.3" transform="translate(-488.44 -255.57)"/><path class="cls-22" d="M932.29,578.63a19.75,19.75,0,0,0,1.46,8.32" transform="translate(-488.44 -255.57)"/><path class="cls-22" d="M935.45,593.39a26,26,0,0,0,4.68,6.66" transform="translate(-488.44 -255.57)"/><path class="cls-22" d="M941.59,605.42a12.27,12.27,0,0,1-.58,5.51" transform="translate(-488.44 -255.57)"/><path class="cls-22" d="M943.88,560.77a53,53,0,0,1-2,8.34" transform="translate(-488.44 -255.57)"/><path class="cls-22" d="M939.92,580.81a23.71,23.71,0,0,0,1.17,7.75" transform="translate(-488.44 -255.57)"/><path class="cls-23" d="M1239.78,697.5h-16.11c-4.09-5.08-8-31.55-1.31-39.69H1239a5.38,5.38,0,1,0,0-10.75H926.69a31.32,31.32,0,0,0-31.29,31.35h0a31.32,31.32,0,0,0,31.29,31.35H1231.4a9.65,9.65,0,0,0-1.16-3.17h9.54a4.55,4.55,0,1,0,0-9.09Z" transform="translate(-488.44 -255.57)"/><ellipse class="cls-24" cx="609.12" cy="423.33" rx="11.99" ry="7.03"/><ellipse class="cls-25" cx="608.74" cy="423.55" rx="18.72" ry="10.97"/><ellipse class="cls-24" cx="576.05" cy="424.15" rx="4.55" ry="2.89"/><ellipse class="cls-24" cx="559.51" cy="424.15" rx="4.55" ry="2.89"/><path class="cls-25" d="M943.77,647s-19.43,5.15-19.43,30c0,14.58,8,30,20.77,30" transform="translate(-488.44 -255.57)"/><path class="cls-25" d="M962.68,646.23s-19.43,5.15-19.43,30c0,14.59,8,30,20.77,30" transform="translate(-488.44 -255.57)"/><path class="cls-26" d="M1151.28,648.88s-13.62,5-13.62,28.94c0,14,5.64,28.94,14.56,28.94" transform="translate(-488.44 -255.57)"/><path class="cls-27" d="M1168.56,648.11s-14.36,5-14.36,28.94c0,14.06,5.94,28.94,15.35,28.94" transform="translate(-488.44 -255.57)"/><path class="cls-2" d="M1267.24,706.21H888.48c-1.83,0-6.73.38-6.73.38-6.16,0-11.16,3.35-11.16,9.51h0c0,6.17,5,9.51,11.16,9.51l3.72.83a139.63,139.63,0,0,1,4.76,16.95,146.49,146.49,0,0,1,3.09,22.74H876c-3.89,0-7,5.62-7,9.51h0a7,7,0,0,0,7,7h17.34c0,.28,0,.56,0,.83h374a38.64,38.64,0,0,0,38.64-38.64h0A38.64,38.64,0,0,0,1267.24,706.21Z" transform="translate(-488.44 -255.57)"/><path class="cls-24" d="M1161.09,706.19h-23.33v.35A38.63,38.63,0,0,1,1172.64,745h0a38.64,38.64,0,0,1-35.14,38.48h23.59a38.64,38.64,0,0,0,38.64-38.64h0A38.64,38.64,0,0,0,1161.09,706.19Z" transform="translate(-488.44 -255.57)"/><path class="cls-24" d="M1243.55,706.25h-23.33v.35a38.65,38.65,0,0,1,34.88,38.46h0A38.63,38.63,0,0,1,1220,783.53h23.59a38.64,38.64,0,0,0,38.64-38.64h0A38.64,38.64,0,0,0,1243.55,706.25Z" transform="translate(-488.44 -255.57)"/><path class="cls-28" d="M1100,706.18s37.21,4.13,37.21,35.56c0,19.84-14.88,40.51-47.13,40.51" transform="translate(-488.44 -255.57)"/><path class="cls-28" d="M1195.71,706.73s37.2,4.13,37.2,35.55c0,19.85-14.88,40.52-47.13,40.52" transform="translate(-488.44 -255.57)"/><path class="cls-28" d="M1260.86,706.46s37.21,4.14,37.21,35.56c0,19.84-14.88,40.51-47.13,40.51" transform="translate(-488.44 -255.57)"/><path class="cls-29" d="M1079.92,725.61H881.63c.81,13.66.33,27.69-4,40.52h202.32a20.39,20.39,0,0,0,20.53-20.26h0A20.39,20.39,0,0,0,1079.92,725.61Z" transform="translate(-488.44 -255.57)"/><path class="cls-29" d="M1170.62,657.81h62.76c-.26,13.38-.11,27.12,1.27,39.69h-64c-3.59,0-6.5-8.89-6.5-19.85h0C1164.12,666.69,1167,657.81,1170.62,657.81Z" transform="translate(-488.44 -255.57)"/><line class="cls-30" x1="392.9" y1="482.45" x2="450.78" y2="482.45"/><line class="cls-30" x1="465.25" y1="482.03" x2="486.75" y2="482.03"/><line class="cls-30" x1="500.81" y1="482.03" x2="544.63" y2="482.03"/><line class="cls-30" x1="557.03" y1="482.03" x2="576.88" y2="482.03"/><line class="cls-30" x1="589.28" y1="482.03" x2="611.6" y2="482.03"/><line class="cls-30" x1="393.32" y1="491.95" x2="406.54" y2="491.95"/><line class="cls-30" x1="417.29" y1="491.95" x2="471.87" y2="491.95"/><line class="cls-30" x1="476.83" y1="491.95" x2="498.33" y2="491.95"/><line class="cls-30" x1="504.94" y1="491.95" x2="563.65" y2="491.95"/><line class="cls-30" x1="571.91" y1="491.95" x2="611.6" y2="491.95"/><line class="cls-30" x1="391.66" y1="502.7" x2="444.58" y2="502.7"/><line class="cls-30" x1="456.16" y1="502.7" x2="495.84" y2="502.7"/><line class="cls-30" x1="507.42" y1="502.7" x2="607.47" y2="502.7"/><line class="cls-28" x1="684.37" y1="435.73" x2="703.1" y2="435.73"/><line class="cls-28" x1="715.6" y1="435.73" x2="727.53" y2="435.73"/><line class="cls-28" x1="679.41" y1="426.63" x2="699.48" y2="426.63"/><line class="cls-28" x1="706.69" y1="426.63" x2="729.84" y2="426.63"/><line class="cls-28" x1="734.8" y1="426.63" x2="745.55" y2="426.63"/><line class="cls-28" x1="731.5" y1="435.73" x2="745.55" y2="435.73"/><line class="cls-28" x1="745.55" y1="421.67" x2="724.06" y2="421.67"/><line class="cls-28" x1="719.92" y1="421.67" x2="713.31" y2="421.67"/><line class="cls-28" x1="710.83" y1="421.67" x2="678.58" y2="421.67"/><line class="cls-28" x1="680.23" y1="415.88" x2="691.81" y2="415.88"/><line class="cls-28" x1="695.94" y1="415.88" x2="715.79" y2="415.88"/><line class="cls-28" x1="718.27" y1="415.88" x2="739.77" y2="415.88"/><line class="cls-28" x1="742.25" y1="415.88" x2="744.73" y2="415.88"/><line class="cls-28" x1="744.73" y1="410.92" x2="719.92" y2="410.92"/><line class="cls-28" x1="716.61" y1="410.92" x2="700.9" y2="410.92"/><line class="cls-28" x1="697.6" y1="410.92" x2="681.06" y2="410.92"/><line class="cls-28" x1="690.15" y1="406.79" x2="706.69" y2="406.79"/><line class="cls-28" x1="712.48" y1="406.79" x2="734.8" y2="406.79"/><path class="cls-2" d="M1217.24,521.28c-26.66-61.09-66.35-78.45-66.35-78.45v.09a27.21,27.21,0,0,0-8.82-3.14c-18.62-3.39-27.55-4.72-36.38-4.45-7.59.24-26.7.84-35.58.5-13.48-.5-42.15,4.17-50.24,12.22,0,0-39.31,25.37-60.81,75.81-14.52,34.07,2.38,45.49,62.84,48a85.73,85.73,0,0,0,12.38-.41c.64,3.47,1.16,6.34,1.5,8.39,6.37,37.55,92.87,37.75,101.84,1.27,1-4.1,2.05-8.23,3.12-12.38a85.38,85.38,0,0,0,13.66.55C1214.86,566.77,1232.06,555.23,1217.24,521.28Z" transform="translate(-488.44 -255.57)"/><path class="cls-31" d="M1112.75,434.65,1105,391.27l-34.27,6L1066,435.14a111.2,111.2,0,0,0-14,2.39c1.25,11.14,16.81,20,35.83,20,19.65,0,35.61-9.41,35.9-21.07C1119.88,435.63,1116,435.21,1112.75,434.65Z" transform="translate(-488.44 -255.57)"/><path class="cls-32" d="M1095.83,424a77.38,77.38,0,0,0,12.27-14.41l-3.26-18.33-34.27,6L1066,434C1076.23,435.86,1087.4,431.53,1095.83,424Z" transform="translate(-488.44 -255.57)"/><path class="cls-33" d="M1045.28,438.26s8.28,22.3,32.85,25.24,40.93-2.89,54.16-25.22" transform="translate(-488.44 -255.57)"/><line class="cls-33" x1="599.82" y1="208.67" x2="601.03" y2="231.28"/><circle class="cls-17" cx="608.3" cy="215.79" r="2.89"/><circle class="cls-17" cx="608.3" cy="228.19" r="2.89"/><path class="cls-28" d="M991.91,515.59s6.64,4.29,26.59,13.72,29.37,10.35,29.37,10.35" transform="translate(-488.44 -255.57)"/><path class="cls-28" d="M1018.1,479.21s.86,13.3,7.52,23.57,8,22.7,8,22.7" transform="translate(-488.44 -255.57)"/><path class="cls-28" d="M1184.4,513s-6.65,4.29-26.59,13.72-29.37,10.35-29.37,10.35" transform="translate(-488.44 -255.57)"/><path class="cls-28" d="M1158.21,476.63s-.86,13.3-7.53,23.57-8,22.7-8,22.7" transform="translate(-488.44 -255.57)"/><path class="cls-31" d="M1122.73,374.9c-2.9-1.08-6.24.05-9,2.63-3-16.42-13.88-28.61-26.91-28.61s-24.19,12.46-27,29.15c-2.77-2.59-6.1-3.71-9-2.63-4.83,1.79-6.64,8.94-4,16s8.63,11.27,13.46,9.48a6.67,6.67,0,0,0,1.64-.89c5.67,14,18.66,23.85,24.94,24,7.82.14,20.13-10,25.29-24.21a6.41,6.41,0,0,0,1.2.6c4.83,1.8,10.86-2.45,13.47-9.48S1127.57,376.69,1122.73,374.9Z" transform="translate(-488.44 -255.57)"/><path class="cls-17" d="M1078.13,405.62c.09,2.59,4.12,4.68,9.09,4.68s9-2.09,9.09-4.68c0,0-2.47,1.22-9.91,1.22A26.14,26.14,0,0,1,1078.13,405.62Z" transform="translate(-488.44 -255.57)"/><line class="cls-34" x1="595.89" y1="159.4" x2="600.44" y2="159.15"/><path class="cls-32" d="M1114.47,342.19c-8-7.61-16.17-9.15-28.07-9.33-25.38-.38-39.58,11.81-34.73,33.9,2,9,8.59,21.45,8.59,21.45-.5.87-.63-14.38,3.25-21.16,5.37.8,11.27.42,19.42-1.32s15.39-4.56,20-7.54c2,.13,3.77,2.6,5.3,4.77,3.5,5,5.59,28.08,5.59,28.08s7-17.83,7.36-24.28C1121.84,355,1119.47,346.91,1114.47,342.19Z" transform="translate(-488.44 -255.57)"/><path class="cls-35" d="M1108.31,353.94s-11.58,11.58-28.11,14.89a167.77,167.77,0,0,1-22.33,2.48" transform="translate(-488.44 -255.57)"/><path class="cls-36" d="M1065.31,377.92s3-3.77,6.86-4.36a16.53,16.53,0,0,1,6.16,0" transform="translate(-488.44 -255.57)"/><path class="cls-36" d="M1105.15,374.57s-3-3.77-6.85-4.36a16.51,16.51,0,0,0-6.16,0" transform="translate(-488.44 -255.57)"/><path class="cls-37" d="M1050.43,358.9s12.4,5.79,32.25,0a208.28,208.28,0,0,0,34.6-13.27" transform="translate(-488.44 -255.57)"/><path class="cls-37" d="M1053.28,347.26s13.74,6.93,27.74,5a114.68,114.68,0,0,0,33.45-10.1" transform="translate(-488.44 -255.57)"/><path class="cls-34" d="M1083.71,379.43s1.06,9.7-.36,14.23-2.33,7.41-2.33,7.41l5,.83" transform="translate(-488.44 -255.57)"/><ellipse class="cls-38" cx="584.97" cy="131.07" rx="2.06" ry="3.13"/><ellipse class="cls-38" cx="610.55" cy="130.39" rx="2.06" ry="3.13"/><path class="cls-39" d="M1069.61,384.1a3.37,3.37,0,0,1,3.15-2,3.72,3.72,0,0,1,3.52,1.94" transform="translate(-488.44 -255.57)"/><path class="cls-39" d="M1102.32,383.44a3.4,3.4,0,0,0-3.15-2,3.73,3.73,0,0,0-3.52,1.94" transform="translate(-488.44 -255.57)"/><circle class="cls-40" cx="583.48" cy="130.61" r="10.76"/><circle class="cls-40" cx="610.79" cy="130.86" r="10.76"/><path class="cls-41" d="M1082.68,384.54a3.82,3.82,0,0,1,2.94-.83,5.15,5.15,0,0,1,3,.93" transform="translate(-488.44 -255.57)"/><path class="cls-8" d="M964.14,391.62c15.28.72,25.19.75,25.19.75" transform="translate(-488.44 -255.57)"/><path class="cls-8" d="M915.89,386.87c9.52,1.21,18.1,2.17,25.86,2.9" transform="translate(-488.44 -255.57)"/><path class="cls-8" d="M843.88,379.28a255.21,255.21,0,0,1,37.46,2.77" transform="translate(-488.44 -255.57)"/><path class="cls-8" d="M765.41,390.35a291.31,291.31,0,0,1,51.43-9.76" transform="translate(-488.44 -255.57)"/><path class="cls-8" d="M725.81,404.83q7.82-3.56,16-6.67" transform="translate(-488.44 -255.57)"/><path class="cls-8" d="M683.9,430.69a179.55,179.55,0,0,1,25.82-17.84" transform="translate(-488.44 -255.57)"/><path class="cls-8" d="M658,455.58c2.23-2.46,4.59-5,7.08-7.53" transform="translate(-488.44 -255.57)"/><path class="cls-8" d="M646.33,469.3c1-1.33,2.17-2.72,3.36-4.15" transform="translate(-488.44 -255.57)"/><path class="cls-8" d="M634.11,486s.94-1.47,2.73-4" transform="translate(-488.44 -255.57)"/><path class="cls-8" d="M826.54,349.79a225.1,225.1,0,0,1,32.09,2.29" transform="translate(-488.44 -255.57)"/><path class="cls-8" d="M759.32,359a257.68,257.68,0,0,1,44.06-8.09" transform="translate(-488.44 -255.57)"/><path class="cls-8" d="M725.4,371q6.71-3,13.73-5.53" transform="translate(-488.44 -255.57)"/><path class="cls-8" d="M689.51,392.39a152.84,152.84,0,0,1,22.11-14.78" transform="translate(-488.44 -255.57)"/><path class="cls-8" d="M1376.88,781.64q-3.72,2.1-7.52,4.07" transform="translate(-488.44 -255.57)"/><path class="cls-8" d="M1396.78,768.9q-5.51,3.93-11.24,7.55" transform="translate(-488.44 -255.57)"/><path class="cls-8" d="M1447.07,729.57a256.09,256.09,0,0,1-34,29.2" transform="translate(-488.44 -255.57)"/><path class="cls-8" d="M1470.5,705.75q-4.83,5.49-10.11,10.81" transform="translate(-488.44 -255.57)"/><path class="cls-8" d="M1485.39,684.63c-1.92,3.11-4,6.18-6.15,9.17" transform="translate(-488.44 -255.57)"/><path class="cls-8" d="M1492.89,671q-1.55,3.15-3.25,6.29" transform="translate(-488.44 -255.57)"/><path class="cls-8" d="M1458.56,752.07c-5.35,5.52-11,10.85-16.88,15.91" transform="translate(-488.44 -255.57)"/><path class="cls-8" d="M1473,735.91q-3.73,4.58-7.73,9" transform="translate(-488.44 -255.57)"/><path class="cls-8" d="M1412.82,790.12q-7,4.39-14.23,8.35" transform="translate(-488.44 -255.57)"/><path class="cls-8" d="M1435.92,773.71q-5.82,4.63-12,9" transform="translate(-488.44 -255.57)"/><path class="cls-42" d="M1065.07,312.59v25s6,1.87,17.24,1.87,24.26-3,24.26-3V312.59Z" transform="translate(-488.44 -255.57)"/><rect class="cls-42" x="546.7" y="51.91" width="100.26" height="5.8" rx="2.9"/><line class="cls-43" x1="576.05" y1="57.86" x2="618.63" y2="57.86"/><polygon class="cls-2" points="558.27 96.31 554.14 92.17 550.58 96.31 550.58 57.35 558.27 57.35 558.27 96.31"/><path class="cls-23" d="M375.35,527.12H675.58a0,0,0,0,1,0,0V658.56a0,0,0,0,1,0,0H375.35a58.83,58.83,0,0,1-58.83-58.83V586A58.83,58.83,0,0,1,375.35,527.12Z"/><path class="cls-24" d="M847.46,855.33V841.54a58.83,58.83,0,0,1,52.42-58.47h32.46c1.18-.09,2.37-.15,3.57-.16v0H879.36a58.83,58.83,0,0,0-52.42,58.48v13.78A58.83,58.83,0,0,0,885.77,914H902A58.82,58.82,0,0,1,847.46,855.33Z" transform="translate(-488.44 -255.57)"/><path class="cls-24" d="M907.64,855.41V841.62a58.82,58.82,0,0,1,52.42-58.47h32.46c1.18-.09,2.37-.15,3.57-.16v0H939.54a58.83,58.83,0,0,0-52.43,58.48v13.78a58.83,58.83,0,0,0,58.83,58.83h16.18A58.81,58.81,0,0,1,907.64,855.41Z" transform="translate(-488.44 -255.57)"/><path class="cls-25" d="M941.57,854.91V841.13A58.83,58.83,0,0,1,994,782.65h32.45c1.18-.08,2.37-.15,3.57-.16v0H973.47A58.83,58.83,0,0,0,921.05,841v13.78a58.83,58.83,0,0,0,58.83,58.83h16.18A58.82,58.82,0,0,1,941.57,854.91Z" transform="translate(-488.44 -255.57)"/><path class="cls-44" d="M876.84,855.37V841.59a58.83,58.83,0,0,1,52.43-58.48h32.46c1.18-.08,2.37-.14,3.57-.16H908.75a58.83,58.83,0,0,0-52.43,58.47V855.2A58.83,58.83,0,0,0,915.15,914h16.18A58.83,58.83,0,0,1,876.84,855.37Z" transform="translate(-488.44 -255.57)"/><path class="cls-42" d="M1286.24,828.5c.43-8.41,1.76-16.87,5.73-24.17h41.56a10.82,10.82,0,0,0,0-21.64h-310a63.13,63.13,0,0,0-63.13,63.13v.33a68,68,0,0,0,68,68h301.63a10.82,10.82,0,1,0,0-21.64h-36.68a54,54,0,0,1-2.8-6.93c-3.16-7.56-5.57-15.65-5.19-23.53-.06-.3-.14-.6-.19-.9-1.28-6.42-2.32-14.42-.41-21.17A63.15,63.15,0,0,1,1286.24,828.5Z" transform="translate(-488.44 -255.57)"/><path class="cls-29" d="M1311.63,841.76c.19-12.55,1.62-25.76,6.22-37.6H1030.08c-25.07,0-45.39,19.81-45.39,44.24h0c0,24.43,20.32,44.24,45.39,44.24h286.38C1312.13,876.12,1311.37,858.76,1311.63,841.76Z" transform="translate(-488.44 -255.57)"/><path class="cls-45" d="M1292.28,818.21" transform="translate(-488.44 -255.57)"/><path class="cls-45" d="M993.1,822.38" transform="translate(-488.44 -255.57)"/><line class="cls-46" x1="528.09" y1="624.25" x2="601.68" y2="624.25"/><line class="cls-46" x1="622.35" y1="624.25" x2="639.72" y2="624.25"/><line class="cls-46" x1="662.04" y1="624.25" x2="734.8" y2="624.25"/><line class="cls-46" x1="758.78" y1="624.25" x2="804.26" y2="624.25"/><line class="cls-45" x1="507.42" y1="605.23" x2="565.3" y2="605.23"/><line class="cls-45" x1="581.84" y1="605.23" x2="710.83" y2="605.23"/><line class="cls-45" x1="721.57" y1="605.23" x2="823.28" y2="605.23"/><line class="cls-45" x1="498.74" y1="590.35" x2="648.81" y2="590.35"/><line class="cls-45" x1="659.56" y1="590.35" x2="684.37" y2="590.35"/><line class="cls-45" x1="694.29" y1="590.35" x2="772.84" y2="590.35"/><line class="cls-45" x1="783.59" y1="590.35" x2="823.28" y2="590.35"/><line class="cls-45" x1="504.94" y1="573.81" x2="565.3" y2="573.81"/><line class="cls-45" x1="576.88" y1="573.81" x2="664.52" y2="573.81"/><line class="cls-45" x1="671.96" y1="573.81" x2="738.11" y2="573.81"/><line class="cls-45" x1="746.38" y1="573.81" x2="786.07" y2="573.81"/><line class="cls-45" x1="795.99" y1="573.81" x2="823.28" y2="573.81"/><line class="cls-30" x1="523.13" y1="560.58" x2="635.58" y2="560.58"/><line class="cls-45" x1="644.68" y1="560.58" x2="696.77" y2="560.58"/><line class="cls-45" x1="705.04" y1="560.58" x2="824.93" y2="560.58"/><path class="cls-17" d="M962,610.28s36.4,34.61,51.51,43.7,60.11-4.76,60.11-4.76-5.12-41.23-35.44-42.68S962,610.28,962,610.28Z" transform="translate(-488.44 -255.57)"/><path class="cls-17" d="M1193.06,624.74s-9.92,10.74-44,21.76c-15.66,5.06-60.11-3.4-60.11-3.4s5.12-29.49,35.44-30.53S1193.06,624.74,1193.06,624.74Z" transform="translate(-488.44 -255.57)"/><ellipse class="cls-47" cx="1187.14" cy="656.85" rx="15.5" ry="32.7" transform="translate(-519.58 998.4) rotate(-55.07)"/><line class="cls-48" x1="688.2" y1="393.79" x2="684.6" y2="400.81"/><line class="cls-48" x1="695.37" y1="396.5" x2="690.88" y2="403.92"/><line class="cls-48" x1="702.39" y1="400" x2="698.33" y2="406.48"/><path class="cls-17" d="M1169.62,632.78c-32-18.28-74.71-43.2-108.47-54.07-52.39-16.87-96.94-25.43-106.78,5.11s26,42.65,94.11,57.61c35.48,7.79,65.76,7.79,115.93,14.53C1169.7,649.66,1170.49,639.7,1169.62,632.78Z" transform="translate(-488.44 -255.57)"/><rect class="cls-42" x="533.47" y="328.65" width="134.78" height="9.92" rx="4.96"/><rect class="cls-42" x="533.47" y="239.41" width="134.78" height="89.24" rx="8.18"/><path class="cls-49" d="M1021.49,509.11a8.17,8.17,0,0,1,8.18-8.17h118.42a8.17,8.17,0,0,1,8.18,8.17" transform="translate(-488.44 -255.57)"/><path class="cls-47" d="M1028.51,649.92c6.07,13.67-23.54,25.76-39.79,31.49s-31.75,3.78-34.61-4.35,8-19.36,24.24-25.08S1021,632.91,1028.51,649.92Z" transform="translate(-488.44 -255.57)"/><line class="cls-48" x1="505.77" y1="400.68" x2="508.45" y2="408.1"/><line class="cls-48" x1="512.63" y1="397.28" x2="515.01" y2="405.62"/><line class="cls-48" x1="519.97" y1="394.53" x2="521.96" y2="401.91"/><path class="cls-17" d="M1201.64,594.7c-6.31-27.13-32.23-35.28-107.3-1.73-23.72,10.6-59.87,32.67-81.34,47.52-.86,2.59,2.77,18,8.62,26,43.26-8.65,70.4-12.12,96.95-17.26C1165.49,640.13,1210.29,631.91,1201.64,594.7Z" transform="translate(-488.44 -255.57)"/><path class="cls-50" d="M969.31,616.77s41.8,15.7,51,19" transform="translate(-488.44 -255.57)"/><path class="cls-50" d="M1107.75,585.62a451.46,451.46,0,0,0-40.67,21.63c-19.9,12.11-54.55,33.67-54.55,33.67" transform="translate(-488.44 -255.57)"/><path class="cls-50" d="M1170.92,637.54s-64.9,15.57-149.7,28.55" transform="translate(-488.44 -255.57)"/><circle class="cls-25" cx="599.49" cy="284.49" r="17.76"/><path class="cls-28" d="M1049.85,381.4a7.48,7.48,0,0,1,5,3.28,33.06,33.06,0,0,1,3.32,7.66" transform="translate(-488.44 -255.57)"/><path class="cls-28" d="M1123.68,380.87a7.48,7.48,0,0,0-5,3.28,33.06,33.06,0,0,0-3.32,7.65" transform="translate(-488.44 -255.57)"/></svg>