<svg id="Layer_1" data-name="Layer 1" xmlns="http://www.w3.org/2000/svg" xmlns:xlink="http://www.w3.org/1999/xlink" viewBox="0 0 2000.05 257.43"><defs><style>.cls-1,.cls-2,.cls-3{opacity:0.5;}.cls-1{fill:url(#linear-gradient);}.cls-2{fill:url(#linear-gradient-2);}.cls-3{fill:url(#linear-gradient-3);}.cls-4{fill:#7e64b2;}</style><linearGradient id="linear-gradient" x1="-114.49" y1="231.87" x2="2013.36" y2="231.87" gradientTransform="translate(-80.05)" gradientUnits="userSpaceOnUse"><stop offset="0" stop-color="#fff" stop-opacity="0"/><stop offset="0.24" stop-color="#cbeffb" stop-opacity="0.29"/><stop offset="0.51" stop-color="#95dff7" stop-opacity="0.59"/><stop offset="0.74" stop-color="#6dd3f4" stop-opacity="0.81"/><stop offset="0.91" stop-color="#55ccf2" stop-opacity="0.95"/><stop offset="1" stop-color="#4cc9f1"/></linearGradient><linearGradient id="linear-gradient-2" x1="-114.49" y1="265.56" x2="2013.36" y2="265.56" xlink:href="#linear-gradient"/><linearGradient id="linear-gradient-3" x1="-173.37" y1="265.56" x2="2083.84" y2="265.56" gradientTransform="translate(-80.05)" gradientUnits="userSpaceOnUse"><stop offset="0" stop-color="#fff" stop-opacity="0"/><stop offset="0.05" stop-color="#f6effa" stop-opacity="0.06"/><stop offset="0.39" stop-color="#bd8ddd" stop-opacity="0.46"/><stop offset="0.67" stop-color="#9446c8" stop-opacity="0.75"/><stop offset="0.88" stop-color="#7b1abb" stop-opacity="0.93"/><stop offset="1" stop-color="#7109b6"/></linearGradient></defs><path class="cls-1" d="M1393.19,257.33c-439-61.17-692.58-97.75-1061.34-106.18C139.8,146.76,5,146.49-80,147.23v35.84c80.47-1.15,226.17-1.59,448.92,3.5,368.77,8.42,622.36,45,1061.35,106.17C1620.31,319.23,1827,318,1920,315.7V279.12C1861,281.4,1615.71,288.33,1393.19,257.33Z" transform="translate(80.05 -146.91)"/><path class="cls-2" d="M1430.22,292.74C991.23,231.58,737.64,195,368.87,186.57,146.12,181.48.42,181.92-80,183.07v32.12c78.14-1.25,226.61-2,458.77,3.35,368.77,8.42,622.35,45,1061.35,106.17,183.64,25.59,382.77,25.34,479.93,23.19V315.7C1827,318,1620.31,319.23,1430.22,292.74Z" transform="translate(80.05 -146.91)"/><path class="cls-3" d="M1430.22,292.74C991.23,231.58,737.64,195,368.87,186.57,146.12,181.48.42,181.92-80,183.07v32.12c78.14-1.25,226.61-2,458.77,3.35,368.77,8.42,622.35,45,1061.35,106.17,183.64,25.59,382.77,25.34,479.93,23.19V315.7C1827,318,1620.31,319.23,1430.22,292.74Z" transform="translate(80.05 -146.91)"/><path class="cls-4" d="M1440.07,324.71c-439-61.16-692.58-97.75-1061.35-106.17C146.56,213.23-1.91,213.94-80,215.19V404.34H1920V347.9C1822.84,350.05,1623.71,350.3,1440.07,324.71Zm454.71,65.87c-93.45,1.56-323.65-3.15-430.08-22.43-133-24.11-682.17-88.58-785.82-94.22C429.64,260.37,185.29,254-62.8,257.29c248.09-3.25,492.44,3.08,741.68,16.64,103.65,5.64,652.78,70.11,785.82,94.22C1571.13,387.43,1801.33,392.14,1894.78,390.58Z" transform="translate(80.05 -146.91)"/></svg>