<svg id="Layer_1" data-name="Layer 1" xmlns="http://www.w3.org/2000/svg" xmlns:xlink="http://www.w3.org/1999/xlink" viewBox="0 0 2000 200.73"><defs><style>.cls-1,.cls-3{opacity:0.5;}.cls-1{fill:url(#linear-gradient);}.cls-2{fill:#7e64b2;}.cls-3{fill:url(#linear-gradient-2);}</style><linearGradient id="linear-gradient" x1="1678.24" y1="403.58" x2="-449.56" y2="403.58" gradientTransform="translate(1800.14 807.16) rotate(180)" gradientUnits="userSpaceOnUse"><stop offset="0" stop-color="#fff" stop-opacity="0"/><stop offset="0.24" stop-color="#cbeffb" stop-opacity="0.29"/><stop offset="0.51" stop-color="#95dff7" stop-opacity="0.59"/><stop offset="0.74" stop-color="#6dd3f4" stop-opacity="0.81"/><stop offset="0.91" stop-color="#55ccf2" stop-opacity="0.95"/><stop offset="1" stop-color="#4cc9f1"/></linearGradient><linearGradient id="linear-gradient-2" x1="-119.86" y1="394.55" x2="1880.14" y2="394.55" gradientTransform="translate(1800.14 807.16) rotate(180)" gradientUnits="userSpaceOnUse"><stop offset="0" stop-color="#fff" stop-opacity="0"/><stop offset="0.05" stop-color="#f6effa" stop-opacity="0.06"/><stop offset="0.39" stop-color="#bd8ddd" stop-opacity="0.46"/><stop offset="0.67" stop-color="#9446c8" stop-opacity="0.75"/><stop offset="0.88" stop-color="#7b1abb" stop-opacity="0.93"/><stop offset="1" stop-color="#7109b6"/></linearGradient></defs><path class="cls-1" d="M1920,398.39c-81.77.76-225.49,1-442-2.55-368.76-6-622.34-32-1061.32-75.5C221.73,301,9.35,302.41-80,304.14V499l2000,4.93Z" transform="translate(80 -303.22)"/><path class="cls-2" d="M1920,503.94V427.09c-115,.88-311.48,1.35-541.91-2.4-368.76-6-622.34-32-1061.32-75.5C176,335.24,26.07,332.09-80,332.07V503.94Z" transform="translate(80 -303.22)"/><path class="cls-3" d="M1920,503.94V416.65c-84.69.57-221.22.44-417.69-2.75-368.75-6-622.33-32-1061.32-75.5C225.15,317-12.09,321-80,322.75V503.94Z" transform="translate(80 -303.22)"/></svg>