<svg xmlns="http://www.w3.org/2000/svg" viewBox="0 0 1120.5 418.26"><path d="M921.58,589.45c13.22-30.16,23.8-79.5,73.42-119,47.16-37.54,97.16-31.37,136.72-25.83,67.59,9.47,108.44-12.34,159-48.61s84-72.77,162.54-45.06c34.43,12.15,58,38.54,61.26,92.15,2.43,39.34-11.53,102.15-58.23,160.52-36.45,45.57-77.82,72.46-145.32,87.59-83.54,18.74-130.13,38.49-279,0-46.67-12.06-83-26.33-129.12,32.92-39.63,51-60.39,14.85-30.38-33.42C907.41,634.51,905.68,625.72,921.58,589.45Z" transform="translate(-394.27 -338.93)" fill="#4cc9f1"/><rect x="619.46" y="403.94" width="410.14" height="12.66" rx="6.06" fill="#7653ad"/><rect x="828.81" y="386.98" width="106.33" height="12.66" rx="6.06" fill="#ffd150"/><path d="M947.72,574.75l.09-.86a3.83,3.83,0,0,1,3.8-3.4h29.33L975.48,620h-6.2" transform="translate(-394.27 -338.93)" fill="none" stroke="#18327c" stroke-linecap="round" stroke-linejoin="round" stroke-width="0.55"/><polygon points="650.21 232.44 644.32 281.91 649.07 281.91 655.45 232.44 650.21 232.44" fill="none" stroke="#18327c" stroke-linecap="round" stroke-linejoin="round" stroke-width="0.55"/><polygon points="588.58 231.93 583.01 280.38 588.58 280.38 593.49 231.93 588.58 231.93" fill="none" stroke="#18327c" stroke-linecap="round" stroke-linejoin="round" stroke-width="0.55"/><polygon points="642.19 281.91 609.44 281.91 614.89 232.44 647.65 232.44 642.19 281.91" fill="none" stroke="#18327c" stroke-linecap="round" stroke-linejoin="round" stroke-width="0.55"/><polygon points="635.71 247.8 621.38 247.8 622.24 240.3 636.56 240.3 635.71 247.8" fill="none" stroke="#18327c" stroke-linejoin="round" stroke-width="0.55"/><polygon points="657.19 239.63 671.19 239.26 667.32 282.16 650.87 281.91 657.19 239.63" fill="none" stroke="#18327c" stroke-linecap="round" stroke-linejoin="round" stroke-width="0.55"/><line x1="675.96" y1="235.5" x2="670.5" y2="281.9" fill="none" stroke="#18327c" stroke-linecap="round" stroke-linejoin="round" stroke-width="0.55"/><line x1="679.69" y1="233.45" x2="673.23" y2="281.9" fill="none" stroke="#18327c" stroke-linecap="round" stroke-linejoin="round" stroke-width="0.55"/><line x1="681.75" y1="240.23" x2="676.32" y2="281.95" fill="none" stroke="#18327c" stroke-linecap="round" stroke-linejoin="round" stroke-width="0.55"/><polygon points="600.44 206.69 581.8 206.69 584.91 178.55 603.54 178.55 600.44 206.69" fill="none" stroke="#18327c" stroke-linecap="round" stroke-linejoin="round" stroke-width="0.55"/><polygon points="596.75 187.29 588.6 187.29 589.09 183.02 597.24 183.02 596.75 187.29" fill="none" stroke="#18327c" stroke-linecap="round" stroke-linejoin="round" stroke-width="0.55"/><polygon points="608.97 182.64 616.93 182.43 614.73 206.84 605.37 206.69 608.97 182.64" fill="none" stroke="#18327c" stroke-linecap="round" stroke-linejoin="round" stroke-width="0.55"/><path d="M1506.16,401.85c-41-15.7-70.38-2.53-81.42,10.18-13.19,15.19-23,24.38-31.82,21.84s-15.8-1.52-22.46,5.57-9.25,13.56-17.58,12.61-16,15.14-6.34,17.22c7.23,1.55,129.63-1.11,166.2-1.6" transform="translate(-394.27 -338.93)" fill="none" stroke="#fff" stroke-linecap="round" stroke-miterlimit="10" stroke-width="1.52"/><path d="M1213.49,426.15" transform="translate(-394.27 -338.93)" fill="none" stroke="#fff" stroke-linecap="round" stroke-miterlimit="10" stroke-width="1.52"/><path d="M1288.6,398.37c9.51,7.53,12.59,8.39,20.41,7.2s10.28-1.24,15.89,2.83,9.5,5.78,16.92,5.44,11.86.45,11.92,5.12-1.52,6.18-9.84,6.18c-5.13,0-66.71.51-100.53.51" transform="translate(-394.27 -338.93)" fill="none" stroke="#fff" stroke-linecap="round" stroke-miterlimit="10" stroke-width="1.52"/><path d="M1449.74,419.58c-4.84,1.71-9.94,4.28-13.53,8.09-9,9.62-15.88,18.25-25.63,18.24s-26.65-.64-30.6,4.74" transform="translate(-394.27 -338.93)" fill="none" stroke="#fff" stroke-linecap="round" stroke-linejoin="round" stroke-width="1.52"/><path d="M1470.42,428a34.31,34.31,0,0,0-9.81,3.58A180.37,180.37,0,0,0,1444.93,442" transform="translate(-394.27 -338.93)" fill="none" stroke="#fff" stroke-linecap="round" stroke-linejoin="round" stroke-width="1.52"/><path d="M1272.15,408.9c7.81,5.73,16,10.18,24.38,7.3,9.37-3.21,14.94-1.85,18.23,0" transform="translate(-394.27 -338.93)" fill="none" stroke="#fff" stroke-linecap="round" stroke-linejoin="round" stroke-width="1.52"/><path d="M1466.16,412s13.16-2,23.8,0c8.42,1.61,21.82,9.29,21.82,9.29" transform="translate(-394.27 -338.93)" fill="none" stroke="#fff" stroke-linecap="round" stroke-linejoin="round" stroke-width="1.52"/><path d="M1192,435.63c1-.25,2.1-.51,3.15-.79" transform="translate(-394.27 -338.93)" fill="none" stroke="#18327c" stroke-linecap="round" stroke-miterlimit="10" stroke-width="1.01"/><path d="M1180.42,437.7q3.21-.4,6.41-1" transform="translate(-394.27 -338.93)" fill="none" stroke="#18327c" stroke-linecap="round" stroke-miterlimit="10" stroke-width="1.01"/><path d="M956.88,603.85c-8.26-16.79-12.53-37.06-12.11-61.5.61-34.93,30.68-86.49,95.2-105.32,44.74-13,90.71,5.06,135.15,1.24" transform="translate(-394.27 -338.93)" fill="none" stroke="#18327c" stroke-linecap="round" stroke-miterlimit="10" stroke-width="1.01"/><path d="M963,614.49c-1.06-1.61-2.06-3.25-3-4.94" transform="translate(-394.27 -338.93)" fill="none" stroke="#18327c" stroke-linecap="round" stroke-miterlimit="10" stroke-width="1.01"/><path d="M967.25,620.57c-.66-.87-1.31-1.74-1.94-2.62" transform="translate(-394.27 -338.93)" fill="none" stroke="#18327c" stroke-linecap="round" stroke-miterlimit="10" stroke-width="1.01"/><path d="M1001.7,650.38c-.89-.52-1.77-1-2.65-1.59" transform="translate(-394.27 -338.93)" fill="none" stroke="#18327c" stroke-linecap="round" stroke-miterlimit="10" stroke-width="1.01"/><path d="M1013.8,656.8q-3.87-1.84-7.59-3.87" transform="translate(-394.27 -338.93)" fill="none" stroke="#18327c" stroke-linecap="round" stroke-miterlimit="10" stroke-width="1.01"/><path d="M1488.81,488.28A185.41,185.41,0,0,1,1467.32,553C1401,674,1308.39,682.12,1196.46,683.38c-58.22.65-125-2-175.11-23.18" transform="translate(-394.27 -338.93)" fill="none" stroke="#18327c" stroke-linecap="round" stroke-miterlimit="10" stroke-width="1.01"/><path d="M1490.18,463.55q.15,6.72-.28,13.55" transform="translate(-394.27 -338.93)" fill="none" stroke="#18327c" stroke-linecap="round" stroke-miterlimit="10" stroke-width="1.01"/><path d="M1489.3,450.25c.19,1.75.36,3.51.49,5.28" transform="translate(-394.27 -338.93)" fill="none" stroke="#18327c" stroke-linecap="round" stroke-miterlimit="10" stroke-width="1.01"/><path d="M1454.54,375.79c1.12,1.1,2.21,2.21,3.28,3.35" transform="translate(-394.27 -338.93)" fill="none" stroke="#18327c" stroke-linecap="round" stroke-miterlimit="10" stroke-width="1.01"/><path d="M1445.38,367.74q3.19,2.5,6.17,5.22" transform="translate(-394.27 -338.93)" fill="none" stroke="#18327c" stroke-linecap="round" stroke-miterlimit="10" stroke-width="1.01"/><path d="M1278.82,378c34.94-28.15,63.87-44.85,114.07-34.13,18.08,3.86,33.61,10.59,46.62,19.54" transform="translate(-394.27 -338.93)" fill="none" stroke="#18327c" stroke-linecap="round" stroke-miterlimit="10" stroke-width="1.01"/><path d="M1261,392.75q4.55-3.81,8.9-7.42" transform="translate(-394.27 -338.93)" fill="none" stroke="#18327c" stroke-linecap="round" stroke-miterlimit="10" stroke-width="1.01"/><path d="M1251.34,400.78l4.25-3.53" transform="translate(-394.27 -338.93)" fill="none" stroke="#18327c" stroke-linecap="round" stroke-miterlimit="10" stroke-width="1.01"/><path d="M1398.59,587.5c-5.9-4.4-15.08-24.82-8.65-37.81s13.26-4.89,14.77-14.69-2.94-18.49,6.3-24.82,16-7.7,17.92-14.8,6.21-11.51,16.21-17.55,24.38,3.54,18.82,14.27c-4.68,9-3.52,20.73-.74,27s5.45,11.51-1.49,19.08-14.32,10.46-13.66,21.33,7.27,15.71-5.24,23.84C1425.84,594.41,1408.22,594.68,1398.59,587.5Z" transform="translate(-394.27 -338.93)" fill="none" stroke="#18327c" stroke-miterlimit="10" stroke-width="0.73"/><path d="M1455.52,476.28s-13.5,19.6-30.82,55.57c-14.33,29.77-15.78,60-15.78,60" transform="translate(-394.27 -338.93)" fill="none" stroke="#18327c" stroke-miterlimit="10" stroke-width="0.73"/><path d="M1396.94,542c1.37,11.28,13.38,37.5,13.38,37.5" transform="translate(-394.27 -338.93)" fill="none" stroke="#18327c" stroke-miterlimit="10" stroke-width="0.73"/><path d="M1411,510.18a59.3,59.3,0,0,1,4.24,14.18,190.33,190.33,0,0,0,4.63,18.68s7.76-8.55,18.73-11.22l26.64-6.47" transform="translate(-394.27 -338.93)" fill="none" stroke="#18327c" stroke-miterlimit="10" stroke-width="0.73"/><path d="M1434.3,485.89s3,5.79,2.42,10.95a85.38,85.38,0,0,0-.28,11.82" transform="translate(-394.27 -338.93)" fill="none" stroke="#18327c" stroke-miterlimit="10" stroke-width="0.73"/><path d="M1437.15,507.33s7.4-4.67,11.86-7.64,13.45-4.05,13.45-4.05" transform="translate(-394.27 -338.93)" fill="none" stroke="#18327c" stroke-miterlimit="10" stroke-width="0.73"/><path d="M1410.21,578.32s14-7.37,20.3-11.09,17.84-5.06,17.84-5.06" transform="translate(-394.27 -338.93)" fill="none" stroke="#18327c" stroke-miterlimit="10" stroke-width="0.73"/><path d="M1387.11,611.19c2.76-4.11,4-19.11-2.94-25.92s-9.5-.15-12.64-6-2.25-12.39-9.52-14.35-11.9-1.31-14.67-5.4-6.51-5.92-14.2-7.53-14.68,7.68-8.77,13.25c5,4.69,6.85,12.37,6.49,17s-.89,8.52,5.2,11.78,11.42,3.45,13.42,10.49-1.11,11.59,8.63,14C1371.36,621.64,1382.59,617.89,1387.11,611.19Z" transform="translate(-394.27 -338.93)" fill="none" stroke="#18327c" stroke-miterlimit="10" stroke-width="0.73"/><path d="M1326.79,553.67s12.35,9.05,31.35,28a117.05,117.05,0,0,1,23.37,34.53" transform="translate(-394.27 -338.93)" fill="none" stroke="#18327c" stroke-miterlimit="10" stroke-width="0.73"/><path d="M1378,581.92s-1.15,1.4-.66,8.31.52,18.47.52,18.47" transform="translate(-394.27 -338.93)" fill="none" stroke="#18327c" stroke-miterlimit="10" stroke-width="0.73"/><path d="M1362,564.89a39.86,39.86,0,0,0,.46,9.94,127,127,0,0,1,1.22,12.88s-6.82-3.69-14.38-2.94L1331,586.6" transform="translate(-394.27 -338.93)" fill="none" stroke="#18327c" stroke-miterlimit="10" stroke-width="0.73"/><path d="M1341.81,554.66s-.63,4.35.91,7.49a58.53,58.53,0,0,1,2.81,7.44" transform="translate(-394.27 -338.93)" fill="none" stroke="#18327c" stroke-miterlimit="10" stroke-width="0.73"/><path d="M1344.78,568.9s-5.73-1.31-9.23-2.2-9.43.42-9.43.42" transform="translate(-394.27 -338.93)" fill="none" stroke="#18327c" stroke-miterlimit="10" stroke-width="0.73"/><path d="M1377.69,608s-10.54-1.55-15.35-2.52-12.45.76-12.45.76" transform="translate(-394.27 -338.93)" fill="none" stroke="#18327c" stroke-miterlimit="10" stroke-width="0.73"/><path d="M1381.26,615.74s2.68,4.78,5.24,9.4,7.92,14,7.92,14" transform="translate(-394.27 -338.93)" fill="none" stroke="#18327c" stroke-miterlimit="10" stroke-width="0.73"/><path d="M1409.09,591.81s-1.59,7.94-3.18,18.67c-.75,5.08-1.18,13.43-1.43,20.82" transform="translate(-394.27 -338.93)" fill="none" stroke="#18327c" stroke-miterlimit="10" stroke-width="0.75"/><path d="M1291,437.2a27,27,0,0,1,14.11,3.13c6.52,3.77,4.46,6.49,4.46,6.49S1300.47,447,1291,437.2Z" transform="translate(-394.27 -338.93)" fill="none" stroke="#18327c" stroke-miterlimit="10" stroke-width="0.73"/><path d="M1310,446.66s2-5.57,7.09-8.1l9.11-4.56A22.86,22.86,0,0,1,1310,446.66Z" transform="translate(-394.27 -338.93)" fill="none" stroke="#18327c" stroke-miterlimit="10" stroke-width="0.73"/><circle cx="951.88" cy="162.66" r="5.32" fill="none" stroke="#18327c" stroke-miterlimit="10" stroke-width="0.81"/><circle cx="983.02" cy="152.28" r="2.78" fill="none" stroke="#18327c" stroke-miterlimit="10" stroke-width="0.81"/><circle cx="977.7" cy="185.45" r="10.13" fill="none" stroke="#18327c" stroke-miterlimit="10" stroke-width="0.81"/><path d="M1294.41,463.8a12.18,12.18,0,0,1,6.38,1.42c3,1.7,2,2.94,2,2.94S1298.68,468.22,1294.41,463.8Z" transform="translate(-394.27 -338.93)" fill="none" stroke="#18327c" stroke-miterlimit="10" stroke-width="0.73"/><path d="M1303,468.08a7.25,7.25,0,0,1,3.2-3.66l4.13-2.06A10.35,10.35,0,0,1,1303,468.08Z" transform="translate(-394.27 -338.93)" fill="none" stroke="#18327c" stroke-miterlimit="10" stroke-width="0.73"/><path d="M1318.05,452.6a17.56,17.56,0,0,1,9.15,2c4.24,2.44,2.9,4.21,2.9,4.21S1324.18,458.94,1318.05,452.6Z" transform="translate(-394.27 -338.93)" fill="none" stroke="#18327c" stroke-miterlimit="10" stroke-width="0.73"/><path d="M1330.33,458.74a10.45,10.45,0,0,1,4.59-5.26l5.92-3A14.86,14.86,0,0,1,1330.33,458.74Z" transform="translate(-394.27 -338.93)" fill="none" stroke="#18327c" stroke-miterlimit="10" stroke-width="0.73"/><polygon points="785.73 54.13 773.71 53.62 773.22 53.45 772.1 43.1 754.7 69 785.73 54.13" fill="none" stroke="#18327c" stroke-linecap="round" stroke-linejoin="round" stroke-width="1.01"/><polyline points="776.43 59.12 776.09 61.4 754.66 69.24 773.39 53.55" fill="none" stroke="#18327c" stroke-linecap="round" stroke-linejoin="round" stroke-width="1.1"/><path d="M1066.14,531.73h-44.55a6.84,6.84,0,0,1-6.84-6.84h0a6.84,6.84,0,0,1,6.84-6.84h44.55" transform="translate(-394.27 -338.93)" fill="none" stroke="#18327c" stroke-linecap="round" stroke-miterlimit="10" stroke-width="0.53"/><path d="M1064.87,529.19h-43.25a4.22,4.22,0,0,1-4.23-4.22h0a4.23,4.23,0,0,1,4.23-4.23h43.25" transform="translate(-394.27 -338.93)" fill="none" stroke="#18327c" stroke-linecap="round" stroke-miterlimit="10" stroke-width="0.53"/><path d="M1064.6,528.23a4.55,4.55,0,0,1,.35-6.06" transform="translate(-394.27 -338.93)" fill="none" stroke="#18327c" stroke-linecap="round" stroke-miterlimit="10" stroke-width="0.53"/><path d="M1064.63,517h-44.44a4.22,4.22,0,0,1-4.22-4.22h0a4.21,4.21,0,0,1,4.22-4.21h43.93" transform="translate(-394.27 -338.93)" fill="none" stroke="#18327c" stroke-linecap="round" stroke-miterlimit="10" stroke-width="0.53"/><path d="M1064.63,515.45h-44.42a2.6,2.6,0,0,1-2.61-2.6h0a2.61,2.61,0,0,1,2.61-2.61h44.92" transform="translate(-394.27 -338.93)" fill="none" stroke="#18327c" stroke-linecap="round" stroke-miterlimit="10" stroke-width="0.53"/><path d="M1040.63,514.86a2.81,2.81,0,0,1-.6-1.75,2.77,2.77,0,0,1,.82-2" transform="translate(-394.27 -338.93)" fill="none" stroke="#18327c" stroke-linecap="round" stroke-miterlimit="10" stroke-width="0.53"/><path d="M1062.44,514.9a2.81,2.81,0,0,1,.22-3.74" transform="translate(-394.27 -338.93)" fill="none" stroke="#18327c" stroke-linecap="round" stroke-miterlimit="10" stroke-width="0.53"/><path d="M1046.28,496.26h44.56c3.77,0,6.84-3.95,6.84-8.82h0c0-4.87-3.07-8.82-6.84-8.82h-44.56" transform="translate(-394.27 -338.93)" fill="none" stroke="#18327c" stroke-linecap="round" stroke-miterlimit="10" stroke-width="0.6"/><path d="M1047.55,493h43.26c2.33,0,4.23-2.44,4.23-5.45h0c0-3-1.9-5.46-4.23-5.46h-43.26" transform="translate(-394.27 -338.93)" fill="none" stroke="#18327c" stroke-linecap="round" stroke-miterlimit="10" stroke-width="0.6"/><path d="M1047.83,491.74a7,7,0,0,0,1-3.65,6.87,6.87,0,0,0-1.33-4.16" transform="translate(-394.27 -338.93)" fill="none" stroke="#18327c" stroke-linecap="round" stroke-miterlimit="10" stroke-width="0.6"/><path d="M1075.47,491.1a7,7,0,0,0,1-3.65,6.87,6.87,0,0,0-1.33-4.16" transform="translate(-394.27 -338.93)" fill="none" stroke="#18327c" stroke-linecap="round" stroke-miterlimit="10" stroke-width="0.6"/><path d="M1051.81,478.56h33.46c2.84,0,5.13-3,5.13-6.62h0c0-3.66-2.29-6.62-5.13-6.62h-33.46" transform="translate(-394.27 -338.93)" fill="none" stroke="#18327c" stroke-linecap="round" stroke-miterlimit="10" stroke-width="0.6"/><path d="M1052.76,476.11h32.49c1.75,0,3.17-1.84,3.17-4.1h0c0-2.26-1.42-4.09-3.17-4.09h-32.49" transform="translate(-394.27 -338.93)" fill="none" stroke="#18327c" stroke-linecap="round" stroke-miterlimit="10" stroke-width="0.45"/><path d="M1053,475.17a5.28,5.28,0,0,0,.74-2.74,5.1,5.1,0,0,0-1-3.12" transform="translate(-394.27 -338.93)" fill="none" stroke="#18327c" stroke-linecap="round" stroke-miterlimit="10" stroke-width="0.45"/><path d="M1073.73,474.69a5.31,5.31,0,0,0,.74-2.74,5.15,5.15,0,0,0-1-3.12" transform="translate(-394.27 -338.93)" fill="none" stroke="#18327c" stroke-linecap="round" stroke-miterlimit="10" stroke-width="0.45"/><line x1="658.09" y1="148.77" x2="678.35" y2="148.77" fill="none" stroke="#18327c" stroke-linecap="round" stroke-miterlimit="10" stroke-width="0.45"/><line x1="654.38" y1="151.11" x2="669.34" y2="151.11" fill="none" stroke="#18327c" stroke-linecap="round" stroke-miterlimit="10" stroke-width="0.45"/><line x1="654.15" y1="146.46" x2="664.28" y2="146.46" fill="none" stroke="#18327c" stroke-linecap="round" stroke-miterlimit="10" stroke-width="0.45"/><line x1="663.26" y1="132.28" x2="674.91" y2="132.28" fill="none" stroke="#18327c" stroke-linecap="round" stroke-miterlimit="10" stroke-width="0.45"/><line x1="666.3" y1="134.31" x2="676.94" y2="134.31" fill="none" stroke="#18327c" stroke-linecap="round" stroke-miterlimit="10" stroke-width="0.45"/><line x1="682" y1="146.46" x2="691.62" y2="146.46" fill="none" stroke="#18327c" stroke-linecap="round" stroke-miterlimit="10" stroke-width="0.45"/><line x1="684.53" y1="150.51" x2="697.19" y2="150.51" fill="none" stroke="#18327c" stroke-linecap="round" stroke-miterlimit="10" stroke-width="0.45"/><line x1="682.51" y1="132.28" x2="688.58" y2="132.28" fill="none" stroke="#18327c" stroke-linecap="round" stroke-miterlimit="10" stroke-width="0.45"/><line x1="682.51" y1="134.31" x2="691.62" y2="134.31" fill="none" stroke="#18327c" stroke-linecap="round" stroke-miterlimit="10" stroke-width="0.45"/><path d="M1037.16,528.09a5,5,0,0,1-1-3,4.92,4.92,0,0,1,1.39-3.45" transform="translate(-394.27 -338.93)" fill="none" stroke="#18327c" stroke-linecap="round" stroke-miterlimit="10" stroke-width="0.53"/><circle cx="975.5" cy="57.49" r="10.55" fill="#fff"/><rect x="650.14" y="158.76" width="58.9" height="4.15" rx="1.99" fill="#7653ad"/><circle cx="629.59" cy="149.75" r="4.56" fill="#fff"/><circle cx="693.14" cy="191.53" r="2.28" fill="#fff"/><circle cx="674.66" cy="113.8" r="2.03" fill="#fff"/><rect x="619.23" y="193.24" width="58.9" height="4.15" rx="1.99" fill="#7653ad"/><rect x="656.2" y="219.57" width="58.9" height="4.15" rx="1.99" fill="#7653ad"/><line x1="567.82" y1="208.49" x2="639.97" y2="208.74" fill="none" stroke="#fff" stroke-linecap="round" stroke-miterlimit="10" stroke-width="2.53"/><rect x="667.06" y="215.07" width="41.01" height="4.56" fill="none" stroke="#18327c" stroke-miterlimit="10" stroke-width="0.53"/><line x1="576.43" y1="283.54" x2="681.75" y2="283.54" fill="none" stroke="#fff" stroke-linecap="round" stroke-miterlimit="10" stroke-width="2.61"/><polygon points="701.75 214.98 668.69 214.98 668.69 211.31 700.73 211.31 701.75 214.98" fill="none" stroke="#18327c" stroke-miterlimit="10" stroke-width="0.53"/><polygon points="694.67 210.99 672.12 210.99 672.12 208.49 693.98 208.49 694.67 210.99" fill="none" stroke="#18327c" stroke-miterlimit="10" stroke-width="0.53"/><path d="M1123.92,560.59A3,3,0,0,0,1121,564c1.51,8.5,6.87,14.8,13.25,14.8s11.73-6.3,13.24-14.8a3,3,0,0,0-2.91-3.45Z" transform="translate(-394.27 -338.93)" fill="#fff"/><path d="M1121.7,577.37a29,29,0,0,0,5.59,4.48h14.07l1.16-.84c1.27-1.23,2.6-2.42,3.88-3.64Z" transform="translate(-394.27 -338.93)" fill="#fff"/><ellipse cx="1123.45" cy="569.86" rx="3.66" ry="5.41" transform="translate(-360.87 862.33) rotate(-56.98)" fill="none" stroke="#fff" stroke-miterlimit="10" stroke-width="1.4"/><path d="M1128.94,515.73a9,9,0,0,1,.39,5.26,27.69,27.69,0,0,1-1.72,5.06" transform="translate(-394.27 -338.93)" fill="none" stroke="#fff" stroke-linecap="round" stroke-miterlimit="10" stroke-width="1.01"/><path d="M1126.29,530.71a17.09,17.09,0,0,0-1.32,5.94" transform="translate(-394.27 -338.93)" fill="none" stroke="#fff" stroke-linecap="round" stroke-miterlimit="10" stroke-width="1.01"/><path d="M1125.11,540.48a12.57,12.57,0,0,0,1.13,4.28" transform="translate(-394.27 -338.93)" fill="none" stroke="#fff" stroke-linecap="round" stroke-miterlimit="10" stroke-width="1.01"/><path d="M1127.39,547.41a9.45,9.45,0,0,0,1.76,2.35" transform="translate(-394.27 -338.93)" fill="none" stroke="#fff" stroke-linecap="round" stroke-miterlimit="10" stroke-width="1.01"/><path d="M1128.79,503.55c1.88,1.65,2.79,4.13,3.62,6.49" transform="translate(-394.27 -338.93)" fill="none" stroke="#fff" stroke-linecap="round" stroke-miterlimit="10" stroke-width="1.01"/><path d="M1134.07,516c.07,6.14-1.88,12.11-3.81,17.94" transform="translate(-394.27 -338.93)" fill="none" stroke="#fff" stroke-linecap="round" stroke-miterlimit="10" stroke-width="1.01"/><path d="M1130,537.92a12,12,0,0,0,.89,5.1" transform="translate(-394.27 -338.93)" fill="none" stroke="#fff" stroke-linecap="round" stroke-miterlimit="10" stroke-width="1.01"/><path d="M1131.94,547a15.88,15.88,0,0,0,2.86,4.08" transform="translate(-394.27 -338.93)" fill="none" stroke="#fff" stroke-linecap="round" stroke-miterlimit="10" stroke-width="1.01"/><path d="M1135.7,554.33a7.43,7.43,0,0,1-.36,3.37" transform="translate(-394.27 -338.93)" fill="none" stroke="#fff" stroke-linecap="round" stroke-miterlimit="10" stroke-width="1.01"/><path d="M1137.1,527a31.79,31.79,0,0,1-1.21,5.1" transform="translate(-394.27 -338.93)" fill="none" stroke="#fff" stroke-linecap="round" stroke-miterlimit="10" stroke-width="1.01"/><path d="M1134.68,539.26a14.35,14.35,0,0,0,.71,4.74" transform="translate(-394.27 -338.93)" fill="none" stroke="#fff" stroke-linecap="round" stroke-miterlimit="10" stroke-width="1.01"/><path d="M1318.31,610.72h-9.87c-2.5-3.12-4.91-19.32-.8-24.31h10.16a3.29,3.29,0,0,0,0-6.58H1126.58A19.18,19.18,0,0,0,1107.41,599h0a19.18,19.18,0,0,0,19.17,19.2h186.59a5.74,5.74,0,0,0-.71-1.93h5.85a2.79,2.79,0,0,0,0-5.57Z" transform="translate(-394.27 -338.93)" fill="#ea3b5d"/><ellipse cx="836.94" cy="260.39" rx="7.34" ry="4.3" fill="#b3e1ff"/><ellipse cx="836.71" cy="260.53" rx="11.46" ry="6.72" fill="none" stroke="#b3e1ff" stroke-miterlimit="10" stroke-width="1.01"/><ellipse cx="816.69" cy="260.9" rx="2.78" ry="1.77" fill="#b3e1ff"/><ellipse cx="806.56" cy="260.9" rx="2.78" ry="1.77" fill="#b3e1ff"/><path d="M1137,579.76s-11.91,3.15-11.91,18.39c0,8.93,4.93,18.39,12.73,18.39" transform="translate(-394.27 -338.93)" fill="none" stroke="#b3e1ff" stroke-miterlimit="10" stroke-width="1.01"/><path d="M1148.62,579.32s-11.9,3.15-11.9,18.39c0,8.93,4.92,18.39,12.72,18.39" transform="translate(-394.27 -338.93)" fill="none" stroke="#b3e1ff" stroke-miterlimit="10" stroke-width="1.01"/><path d="M1264.11,580.94s-8.34,3-8.34,17.72c0,8.61,3.45,17.72,8.91,17.72" transform="translate(-394.27 -338.93)" fill="none" stroke="#ffd150" stroke-miterlimit="10" stroke-width="0.38"/><path d="M1274.69,580.47s-8.79,3-8.79,17.73c0,8.6,3.64,17.72,9.4,17.72" transform="translate(-394.27 -338.93)" fill="none" stroke="#0b132d" stroke-linecap="round" stroke-linejoin="round" stroke-width="0.4"/><path d="M1335.12,616.05H1103.18c-1.12,0-4.12.24-4.12.24-3.78,0-6.84,2-6.84,5.82h0c0,3.77,3.06,5.82,6.84,5.82l2.27.51a84.29,84.29,0,0,1,2.92,10.38,90,90,0,0,1,1.89,13.92h-10.63c-2.37,0-4.3,3.45-4.3,5.82h0a4.31,4.31,0,0,0,4.3,4.31h10.62c0,.17,0,.34,0,.51h229a23.67,23.67,0,0,0,23.67-23.67h0A23.66,23.66,0,0,0,1335.12,616.05Z" transform="translate(-394.27 -338.93)" fill="#7653ad"/><path d="M1270.12,616h-14.29v.21a23.66,23.66,0,0,1,21.36,23.55h0a23.66,23.66,0,0,1-21.52,23.56h14.45a23.66,23.66,0,0,0,23.66-23.66h0A23.66,23.66,0,0,0,1270.12,616Z" transform="translate(-394.27 -338.93)" fill="#b3e1ff"/><path d="M1320.61,616.08h-14.28v.21a23.67,23.67,0,0,1,21.36,23.55h0a23.66,23.66,0,0,1-21.52,23.56h14.44a23.66,23.66,0,0,0,23.66-23.66h0A23.66,23.66,0,0,0,1320.61,616.08Z" transform="translate(-394.27 -338.93)" fill="#b3e1ff"/><path d="M1232.73,616s22.79,2.53,22.79,21.77c0,12.16-9.12,24.82-28.86,24.82" transform="translate(-394.27 -338.93)" fill="none" stroke="#0b132d" stroke-linecap="round" stroke-linejoin="round" stroke-width="0.52"/><path d="M1291.32,616.37s22.78,2.53,22.78,21.77c0,12.15-9.11,24.81-28.86,24.81" transform="translate(-394.27 -338.93)" fill="none" stroke="#0b132d" stroke-linecap="round" stroke-linejoin="round" stroke-width="0.52"/><path d="M1331.22,616.2S1354,618.74,1354,638c0,12.15-9.11,24.81-28.86,24.81" transform="translate(-394.27 -338.93)" fill="none" stroke="#0b132d" stroke-linecap="round" stroke-linejoin="round" stroke-width="0.52"/><path d="M1220.41,627.93H1099c.5,8.36.2,17-2.46,24.81h123.89a12.49,12.49,0,0,0,12.58-12.4h0A12.5,12.5,0,0,0,1220.41,627.93Z" transform="translate(-394.27 -338.93)" fill="#def8ff"/><path d="M1276,586.41h38.44a192.5,192.5,0,0,0,.78,24.31H1276c-2.19,0-4-5.45-4-12.16h0C1272,591.85,1273.76,586.41,1276,586.41Z" transform="translate(-394.27 -338.93)" fill="#def8ff"/><line x1="704.53" y1="296.59" x2="739.98" y2="296.59" fill="none" stroke="#222854" stroke-linecap="round" stroke-miterlimit="10" stroke-width="0.49"/><line x1="748.84" y1="296.34" x2="762" y2="296.34" fill="none" stroke="#222854" stroke-linecap="round" stroke-miterlimit="10" stroke-width="0.49"/><line x1="770.61" y1="296.34" x2="797.45" y2="296.34" fill="none" stroke="#222854" stroke-linecap="round" stroke-miterlimit="10" stroke-width="0.49"/><line x1="805.04" y1="296.34" x2="817.19" y2="296.34" fill="none" stroke="#222854" stroke-linecap="round" stroke-miterlimit="10" stroke-width="0.49"/><line x1="824.79" y1="296.34" x2="838.46" y2="296.34" fill="none" stroke="#222854" stroke-linecap="round" stroke-miterlimit="10" stroke-width="0.49"/><line x1="704.78" y1="302.42" x2="712.89" y2="302.42" fill="none" stroke="#222854" stroke-linecap="round" stroke-miterlimit="10" stroke-width="0.49"/><line x1="719.47" y1="302.42" x2="752.89" y2="302.42" fill="none" stroke="#222854" stroke-linecap="round" stroke-miterlimit="10" stroke-width="0.49"/><line x1="755.93" y1="302.42" x2="769.09" y2="302.42" fill="none" stroke="#222854" stroke-linecap="round" stroke-miterlimit="10" stroke-width="0.49"/><line x1="773.14" y1="302.42" x2="809.09" y2="302.42" fill="none" stroke="#222854" stroke-linecap="round" stroke-miterlimit="10" stroke-width="0.49"/><line x1="814.15" y1="302.42" x2="838.46" y2="302.42" fill="none" stroke="#222854" stroke-linecap="round" stroke-miterlimit="10" stroke-width="0.49"/><line x1="703.77" y1="309" x2="736.18" y2="309" fill="none" stroke="#222854" stroke-linecap="round" stroke-miterlimit="10" stroke-width="0.49"/><line x1="743.27" y1="309" x2="767.57" y2="309" fill="none" stroke="#222854" stroke-linecap="round" stroke-miterlimit="10" stroke-width="0.49"/><line x1="774.66" y1="309" x2="835.93" y2="309" fill="none" stroke="#222854" stroke-linecap="round" stroke-miterlimit="10" stroke-width="0.49"/><line x1="883.02" y1="267.98" x2="894.49" y2="267.98" fill="none" stroke="#0b132d" stroke-linecap="round" stroke-linejoin="round" stroke-width="0.52"/><line x1="902.15" y1="267.98" x2="909.45" y2="267.98" fill="none" stroke="#0b132d" stroke-linecap="round" stroke-linejoin="round" stroke-width="0.52"/><line x1="879.98" y1="262.41" x2="892.27" y2="262.41" fill="none" stroke="#0b132d" stroke-linecap="round" stroke-linejoin="round" stroke-width="0.52"/><line x1="896.69" y1="262.41" x2="910.87" y2="262.41" fill="none" stroke="#0b132d" stroke-linecap="round" stroke-linejoin="round" stroke-width="0.52"/><line x1="913.9" y1="262.41" x2="920.49" y2="262.41" fill="none" stroke="#0b132d" stroke-linecap="round" stroke-linejoin="round" stroke-width="0.52"/><line x1="911.88" y1="267.98" x2="920.49" y2="267.98" fill="none" stroke="#0b132d" stroke-linecap="round" stroke-linejoin="round" stroke-width="0.52"/><line x1="920.49" y1="259.38" x2="907.32" y2="259.38" fill="none" stroke="#0b132d" stroke-linecap="round" stroke-linejoin="round" stroke-width="0.52"/><line x1="904.79" y1="259.38" x2="900.74" y2="259.38" fill="none" stroke="#0b132d" stroke-linecap="round" stroke-linejoin="round" stroke-width="0.52"/><line x1="899.22" y1="259.38" x2="879.47" y2="259.38" fill="none" stroke="#0b132d" stroke-linecap="round" stroke-linejoin="round" stroke-width="0.52"/><line x1="880.49" y1="255.83" x2="887.57" y2="255.83" fill="none" stroke="#0b132d" stroke-linecap="round" stroke-linejoin="round" stroke-width="0.52"/><line x1="890.11" y1="255.83" x2="902.26" y2="255.83" fill="none" stroke="#0b132d" stroke-linecap="round" stroke-linejoin="round" stroke-width="0.52"/><line x1="903.78" y1="255.83" x2="916.94" y2="255.83" fill="none" stroke="#0b132d" stroke-linecap="round" stroke-linejoin="round" stroke-width="0.52"/><line x1="918.46" y1="255.83" x2="919.98" y2="255.83" fill="none" stroke="#0b132d" stroke-linecap="round" stroke-linejoin="round" stroke-width="0.52"/><line x1="919.98" y1="252.79" x2="904.79" y2="252.79" fill="none" stroke="#0b132d" stroke-linecap="round" stroke-linejoin="round" stroke-width="0.52"/><line x1="902.77" y1="252.79" x2="893.14" y2="252.79" fill="none" stroke="#0b132d" stroke-linecap="round" stroke-linejoin="round" stroke-width="0.52"/><line x1="891.12" y1="252.79" x2="880.99" y2="252.79" fill="none" stroke="#0b132d" stroke-linecap="round" stroke-linejoin="round" stroke-width="0.52"/><line x1="886.56" y1="250.26" x2="896.69" y2="250.26" fill="none" stroke="#0b132d" stroke-linecap="round" stroke-linejoin="round" stroke-width="0.52"/><line x1="900.23" y1="250.26" x2="913.9" y2="250.26" fill="none" stroke="#0b132d" stroke-linecap="round" stroke-linejoin="round" stroke-width="0.52"/><path d="M1304.51,502.8c-16.33-37.41-40.64-48-40.64-48v.06a16.74,16.74,0,0,0-5.4-1.93c-11.4-2.07-16.87-2.89-22.28-2.72-4.65.14-16.35.51-21.79.31-8.25-.31-25.81,2.55-30.76,7.48,0,0-24.07,15.54-37.24,46.42-8.89,20.87,1.46,27.86,38.48,29.37a51.22,51.22,0,0,0,7.58-.25c.39,2.12.71,3.89.92,5.14,3.9,23,56.87,23.12,62.36.78.62-2.51,1.26-5,1.92-7.58a52.35,52.35,0,0,0,8.36.33C1303.05,530.66,1313.58,523.59,1304.51,502.8Z" transform="translate(-394.27 -338.93)" fill="#7653ad"/><path d="M1240.52,449.75l-4.72-26.56-21,3.66-2.9,23.2a66.21,66.21,0,0,0-8.55,1.47c.76,6.82,10.29,12.21,21.94,12.21,12,0,21.8-5.76,22-12.9C1244.88,450.35,1242.53,450.09,1240.52,449.75Z" transform="translate(-394.27 -338.93)" fill="#fca575"/><path d="M1230.15,443.25a47.33,47.33,0,0,0,7.52-8.82l-2-11.22-21,3.66-2.8,22.46C1218.15,450.49,1225,447.84,1230.15,443.25Z" transform="translate(-394.27 -338.93)" fill="#24375b"/><path d="M1199.2,452s5.07,13.66,20.11,15.46,25.07-1.77,33.17-15.44" transform="translate(-394.27 -338.93)" fill="none" stroke="#fff" stroke-linecap="round" stroke-miterlimit="10" stroke-width="0.51"/><line x1="831.24" y1="128.94" x2="831.98" y2="142.79" fill="none" stroke="#fff" stroke-linecap="round" stroke-miterlimit="10" stroke-width="0.51"/><circle cx="836.43" cy="133.3" r="1.77" fill="#fff"/><circle cx="836.43" cy="140.89" r="1.77" fill="#fff"/><path d="M1166.51,499.32s4.07,2.63,16.29,8.4,18,6.34,18,6.34" transform="translate(-394.27 -338.93)" fill="none" stroke="#0b132d" stroke-linecap="round" stroke-linejoin="round" stroke-width="0.52"/><path d="M1182.55,477s.53,8.14,4.61,14.43a35.65,35.65,0,0,1,4.87,13.9" transform="translate(-394.27 -338.93)" fill="none" stroke="#0b132d" stroke-linecap="round" stroke-linejoin="round" stroke-width="0.52"/><path d="M1284.39,497.74s-4.07,2.63-16.28,8.4-18,6.34-18,6.34" transform="translate(-394.27 -338.93)" fill="none" stroke="#0b132d" stroke-linecap="round" stroke-linejoin="round" stroke-width="0.52"/><path d="M1268.35,475.46s-.52,8.14-4.61,14.43a35.67,35.67,0,0,0-4.87,13.91" transform="translate(-394.27 -338.93)" fill="none" stroke="#0b132d" stroke-linecap="round" stroke-linejoin="round" stroke-width="0.52"/><path d="M1246.63,413.16c-1.78-.66-3.83,0-5.52,1.61-1.81-10-8.5-17.52-16.48-17.52s-14.81,7.63-16.53,17.85c-1.7-1.58-3.74-2.27-5.52-1.61-3,1.1-4.07,5.48-2.47,9.78s5.29,6.9,8.24,5.81a4.11,4.11,0,0,0,1-.55c3.47,8.56,11.42,14.61,15.27,14.68,4.79.08,12.33-6.13,15.49-14.83a4.54,4.54,0,0,0,.73.37c3,1.1,6.65-1.5,8.25-5.81S1249.59,414.26,1246.63,413.16Z" transform="translate(-394.27 -338.93)" fill="#fca575"/><path d="M1219.31,432c.06,1.58,2.53,2.86,5.57,2.86s5.51-1.28,5.57-2.86c0,0-1.51.74-6.07.74A16.19,16.19,0,0,1,1219.31,432Z" transform="translate(-394.27 -338.93)" fill="#fff"/><line x1="828.84" y1="98.77" x2="831.62" y2="98.61" fill="none" stroke="#0b132d" stroke-linecap="round" stroke-linejoin="round" stroke-width="0.43"/><path d="M1241.57,393.13c-4.92-4.66-9.9-5.6-17.19-5.71-15.54-.24-24.24,7.23-21.27,20.76,1.21,5.48,5.26,13.13,5.26,13.13-.31.53-.39-8.81,2-13,3.29.5,6.9.27,11.89-.8a37.91,37.91,0,0,0,12.22-4.62c1.21.08,2.31,1.59,3.25,2.92,2.14,3,3.42,17.19,3.42,17.19s4.27-10.91,4.51-14.86C1246.08,401,1244.63,396,1241.57,393.13Z" transform="translate(-394.27 -338.93)" fill="#24375b"/><path d="M1237.8,400.33a37.37,37.37,0,0,1-17.22,9.11,103,103,0,0,1-13.67,1.52" transform="translate(-394.27 -338.93)" fill="none" stroke="#24375b" stroke-miterlimit="10" stroke-width="0.51"/><path d="M1211.47,415a7.73,7.73,0,0,1,4.19-2.67,10.09,10.09,0,0,1,3.78,0" transform="translate(-394.27 -338.93)" fill="none" stroke="#24375b" stroke-linecap="round" stroke-miterlimit="10" stroke-width="2.03"/><path d="M1235.86,413a7.73,7.73,0,0,0-4.2-2.67,10,10,0,0,0-3.77,0" transform="translate(-394.27 -338.93)" fill="none" stroke="#24375b" stroke-linecap="round" stroke-miterlimit="10" stroke-width="2.03"/><path d="M1202.35,403.37s7.6,3.54,19.75,0a127.53,127.53,0,0,0,21.19-8.13" transform="translate(-394.27 -338.93)" fill="none" stroke="#fff" stroke-miterlimit="10" stroke-width="0.38"/><path d="M1204.09,396.24s8.42,4.24,17,3.08a70.08,70.08,0,0,0,20.48-6.19" transform="translate(-394.27 -338.93)" fill="none" stroke="#fff" stroke-miterlimit="10" stroke-width="0.38"/><path d="M1222.73,415.94s.65,5.94-.22,8.71-1.42,4.54-1.42,4.54l3,.51" transform="translate(-394.27 -338.93)" fill="none" stroke="#0b132d" stroke-linecap="round" stroke-linejoin="round" stroke-width="0.43"/><ellipse cx="822.15" cy="81.42" rx="1.26" ry="1.92" fill="#0b132d"/><ellipse cx="837.81" cy="81" rx="1.26" ry="1.92" fill="#0b132d"/><path d="M1214.09,418.79a2.09,2.09,0,0,1,1.93-1.25,2.28,2.28,0,0,1,2.16,1.19" transform="translate(-394.27 -338.93)" fill="none" stroke="#0b132d" stroke-linecap="round" stroke-miterlimit="10" stroke-width="0.43"/><path d="M1234.13,418.39a2.08,2.08,0,0,0-1.93-1.25,2.28,2.28,0,0,0-2.16,1.19" transform="translate(-394.27 -338.93)" fill="none" stroke="#0b132d" stroke-linecap="round" stroke-miterlimit="10" stroke-width="0.43"/><circle cx="821.24" cy="81.14" r="6.59" fill="none" stroke="#0b132d" stroke-miterlimit="10" stroke-width="0.51"/><circle cx="837.96" cy="81.29" r="6.59" fill="none" stroke="#0b132d" stroke-miterlimit="10" stroke-width="0.51"/><path d="M1222.1,419.06a2.37,2.37,0,0,1,1.8-.5,3.16,3.16,0,0,1,1.81.57" transform="translate(-394.27 -338.93)" fill="none" stroke="#0b132d" stroke-linecap="round" stroke-miterlimit="10" stroke-width="0.51"/><path d="M1149.51,423.4c9.36.44,15.43.46,15.43.46" transform="translate(-394.27 -338.93)" fill="none" stroke="#18327c" stroke-linecap="round" stroke-miterlimit="10" stroke-width="1.01"/><path d="M1120,420.49c5.83.74,11.09,1.33,15.84,1.78" transform="translate(-394.27 -338.93)" fill="none" stroke="#18327c" stroke-linecap="round" stroke-miterlimit="10" stroke-width="1.01"/><path d="M1075.87,415.85a154.31,154.31,0,0,1,22.93,1.69" transform="translate(-394.27 -338.93)" fill="none" stroke="#18327c" stroke-linecap="round" stroke-miterlimit="10" stroke-width="1.01"/><path d="M1027.81,422.62a177.77,177.77,0,0,1,31.5-6" transform="translate(-394.27 -338.93)" fill="none" stroke="#18327c" stroke-linecap="round" stroke-miterlimit="10" stroke-width="1.01"/><path d="M1003.56,431.49c3.19-1.45,6.47-2.81,9.81-4.09" transform="translate(-394.27 -338.93)" fill="none" stroke="#18327c" stroke-linecap="round" stroke-miterlimit="10" stroke-width="1.01"/><path d="M977.9,447.33a108.87,108.87,0,0,1,15.81-10.93" transform="translate(-394.27 -338.93)" fill="none" stroke="#18327c" stroke-linecap="round" stroke-miterlimit="10" stroke-width="1.01"/><path d="M962,462.57c1.36-1.51,2.81-3.05,4.33-4.61" transform="translate(-394.27 -338.93)" fill="none" stroke="#18327c" stroke-linecap="round" stroke-miterlimit="10" stroke-width="1.01"/><path d="M954.89,471c.64-.81,1.33-1.66,2.05-2.54" transform="translate(-394.27 -338.93)" fill="none" stroke="#18327c" stroke-linecap="round" stroke-miterlimit="10" stroke-width="1.01"/><path d="M947.41,481.21s.57-.9,1.67-2.47" transform="translate(-394.27 -338.93)" fill="none" stroke="#18327c" stroke-linecap="round" stroke-miterlimit="10" stroke-width="1.01"/><path d="M1065.25,397.78a137.43,137.43,0,0,1,19.65,1.41" transform="translate(-394.27 -338.93)" fill="none" stroke="#18327c" stroke-linecap="round" stroke-miterlimit="10" stroke-width="1.01"/><path d="M1024.08,403.4a157.35,157.35,0,0,1,27-4.95" transform="translate(-394.27 -338.93)" fill="none" stroke="#18327c" stroke-linecap="round" stroke-miterlimit="10" stroke-width="1.01"/><path d="M1003.31,410.75q4.11-1.8,8.41-3.39" transform="translate(-394.27 -338.93)" fill="none" stroke="#18327c" stroke-linecap="round" stroke-miterlimit="10" stroke-width="1.01"/><path d="M981.33,423.87a94.17,94.17,0,0,1,13.54-9.05" transform="translate(-394.27 -338.93)" fill="none" stroke="#18327c" stroke-linecap="round" stroke-miterlimit="10" stroke-width="1.01"/><path d="M1402.26,662.24q-2.28,1.29-4.6,2.49" transform="translate(-394.27 -338.93)" fill="none" stroke="#18327c" stroke-linecap="round" stroke-miterlimit="10" stroke-width="1.01"/><path d="M1414.45,654.44q-3.37,2.41-6.88,4.62" transform="translate(-394.27 -338.93)" fill="none" stroke="#18327c" stroke-linecap="round" stroke-miterlimit="10" stroke-width="1.01"/><path d="M1445.25,630.36a158.4,158.4,0,0,1-20.8,17.88" transform="translate(-394.27 -338.93)" fill="none" stroke="#18327c" stroke-linecap="round" stroke-miterlimit="10" stroke-width="1.01"/><path d="M1459.59,615.77q-3,3.36-6.18,6.62" transform="translate(-394.27 -338.93)" fill="none" stroke="#18327c" stroke-linecap="round" stroke-miterlimit="10" stroke-width="1.01"/><path d="M1468.71,602.83c-1.17,1.91-2.43,3.79-3.76,5.62" transform="translate(-394.27 -338.93)" fill="none" stroke="#18327c" stroke-linecap="round" stroke-miterlimit="10" stroke-width="1.01"/><path d="M1473.31,594.47c-.63,1.29-1.3,2.57-2,3.85" transform="translate(-394.27 -338.93)" fill="none" stroke="#18327c" stroke-linecap="round" stroke-miterlimit="10" stroke-width="1.01"/><path d="M1452.28,644.13q-4.92,5.08-10.33,9.75" transform="translate(-394.27 -338.93)" fill="none" stroke="#18327c" stroke-linecap="round" stroke-miterlimit="10" stroke-width="1.01"/><path d="M1461.09,634.24q-2.28,2.81-4.73,5.52" transform="translate(-394.27 -338.93)" fill="none" stroke="#18327c" stroke-linecap="round" stroke-miterlimit="10" stroke-width="1.01"/><path d="M1424.27,667.44q-4.26,2.68-8.71,5.11" transform="translate(-394.27 -338.93)" fill="none" stroke="#18327c" stroke-linecap="round" stroke-miterlimit="10" stroke-width="1.01"/><path d="M1438.42,657.38q-3.57,2.85-7.34,5.51" transform="translate(-394.27 -338.93)" fill="none" stroke="#18327c" stroke-linecap="round" stroke-miterlimit="10" stroke-width="1.01"/><path d="M1211.31,375v15.31a38.81,38.81,0,0,0,10.57,1.15,78.61,78.61,0,0,0,14.85-1.82V375Z" transform="translate(-394.27 -338.93)" fill="#14143a"/><rect x="798.71" y="32.94" width="61.4" height="3.55" rx="1.7" fill="#14143a"/><line x1="816.69" y1="36.58" x2="842.76" y2="36.58" fill="none" stroke="#fff" stroke-miterlimit="10" stroke-width="0.42"/><polygon points="805.8 60.13 803.27 57.6 801.09 60.13 801.09 36.28 805.8 36.28 805.8 60.13" fill="#7653ad"/><path d="M696.29,324H877.64a0,0,0,0,1,0,0v80.49a0,0,0,0,1,0,0H696.29a38.53,38.53,0,0,1-38.53-38.53v-3.43A38.53,38.53,0,0,1,696.29,324Z" fill="#ea3b5d"/><path d="M1078.06,707.37v-8.44a36,36,0,0,1,32.1-35.81H1130c.72-.06,1.45-.09,2.18-.1h-34.63a36,36,0,0,0-32.1,35.81v8.44a36,36,0,0,0,36,36h9.91A36,36,0,0,1,1078.06,707.37Z" transform="translate(-394.27 -338.93)" fill="#b3e1ff"/><path d="M1114.91,707.42V699a36,36,0,0,1,32.1-35.81h19.88c.72,0,1.45-.09,2.18-.09h-34.62a36,36,0,0,0-32.11,35.81v8.44a36,36,0,0,0,36,36h9.9A36,36,0,0,1,1114.91,707.42Z" transform="translate(-394.27 -338.93)" fill="#b3e1ff"/><path d="M1135.69,707.11v-8.44a36,36,0,0,1,32.1-35.81h19.88c.72-.05,1.45-.09,2.18-.1h-34.62a36,36,0,0,0-32.11,35.81V707a36,36,0,0,0,36,36h9.9A36,36,0,0,1,1135.69,707.11Z" transform="translate(-394.27 -338.93)" fill="none" stroke="#b3e1ff" stroke-miterlimit="10" stroke-width="1.01"/><path d="M1096.05,707.39V699a36,36,0,0,1,32.11-35.81H1148c.72,0,1.45-.09,2.19-.09h-34.63a36,36,0,0,0-32.11,35.8v8.45a36,36,0,0,0,36,36h9.91A36,36,0,0,1,1096.05,707.39Z" transform="translate(-394.27 -338.93)" fill="none" stroke="#b3e1ff" stroke-linecap="round" stroke-linejoin="round" stroke-width="1.01"/><path d="M1346.75,690.94c.27-5.15,1.09-10.33,3.52-14.8h25.45a6.63,6.63,0,0,0,0-13.26H1185.91a38.66,38.66,0,0,0-38.66,38.66v.2a41.63,41.63,0,0,0,41.63,41.64h184.71a6.63,6.63,0,0,0,0-13.25h-22.46a33.33,33.33,0,0,1-1.72-4.24c-1.93-4.63-3.4-9.59-3.17-14.41,0-.19-.09-.37-.12-.55-.78-3.94-1.42-8.83-.25-13A38.51,38.51,0,0,1,1346.75,690.94Z" transform="translate(-394.27 -338.93)" fill="#14143a"/><path d="M1362.3,699.06c.12-7.69,1-15.77,3.82-23H1189.89c-15.35,0-27.8,12.13-27.8,27.09h0c0,15,12.45,27.09,27.8,27.09h175.37C1362.61,720.1,1362.15,709.47,1362.3,699.06Z" transform="translate(-394.27 -338.93)" fill="#def8ff"/><path d="M1350.46,684.64" transform="translate(-394.27 -338.93)" fill="none" stroke="#222854" stroke-miterlimit="10" stroke-width="0.49"/><path d="M1167.25,687.19" transform="translate(-394.27 -338.93)" fill="none" stroke="#222854" stroke-miterlimit="10" stroke-width="0.49"/><line x1="787.32" y1="383.43" x2="832.38" y2="383.43" fill="none" stroke="#222854" stroke-miterlimit="10" stroke-width="0.48"/><line x1="845.04" y1="383.43" x2="855.68" y2="383.43" fill="none" stroke="#222854" stroke-miterlimit="10" stroke-width="0.48"/><line x1="869.35" y1="383.43" x2="913.9" y2="383.43" fill="none" stroke="#222854" stroke-miterlimit="10" stroke-width="0.48"/><line x1="928.59" y1="383.43" x2="956.44" y2="383.43" fill="none" stroke="#222854" stroke-miterlimit="10" stroke-width="0.48"/><line x1="774.66" y1="371.78" x2="810.1" y2="371.78" fill="none" stroke="#222854" stroke-miterlimit="10" stroke-width="0.49"/><line x1="820.23" y1="371.78" x2="899.22" y2="371.78" fill="none" stroke="#222854" stroke-miterlimit="10" stroke-width="0.49"/><line x1="905.8" y1="371.78" x2="968.08" y2="371.78" fill="none" stroke="#222854" stroke-miterlimit="10" stroke-width="0.49"/><line x1="769.34" y1="362.67" x2="861.24" y2="362.67" fill="none" stroke="#222854" stroke-miterlimit="10" stroke-width="0.49"/><line x1="867.83" y1="362.67" x2="883.02" y2="362.67" fill="none" stroke="#222854" stroke-miterlimit="10" stroke-width="0.49"/><line x1="889.09" y1="362.67" x2="937.2" y2="362.67" fill="none" stroke="#222854" stroke-miterlimit="10" stroke-width="0.49"/><line x1="943.78" y1="362.67" x2="968.08" y2="362.67" fill="none" stroke="#222854" stroke-miterlimit="10" stroke-width="0.49"/><line x1="773.14" y1="352.54" x2="810.1" y2="352.54" fill="none" stroke="#222854" stroke-miterlimit="10" stroke-width="0.49"/><line x1="817.19" y1="352.54" x2="870.87" y2="352.54" fill="none" stroke="#222854" stroke-miterlimit="10" stroke-width="0.49"/><line x1="875.42" y1="352.54" x2="915.93" y2="352.54" fill="none" stroke="#222854" stroke-miterlimit="10" stroke-width="0.49"/><line x1="920.99" y1="352.54" x2="945.3" y2="352.54" fill="none" stroke="#222854" stroke-miterlimit="10" stroke-width="0.49"/><line x1="951.37" y1="352.54" x2="968.08" y2="352.54" fill="none" stroke="#222854" stroke-miterlimit="10" stroke-width="0.49"/><line x1="784.28" y1="344.44" x2="853.14" y2="344.44" fill="none" stroke="#222854" stroke-linecap="round" stroke-miterlimit="10" stroke-width="0.49"/><line x1="858.71" y1="344.44" x2="890.61" y2="344.44" fill="none" stroke="#222854" stroke-miterlimit="10" stroke-width="0.49"/><line x1="895.68" y1="344.44" x2="969.1" y2="344.44" fill="none" stroke="#222854" stroke-miterlimit="10" stroke-width="0.49"/><path d="M1148.17,557.3s22.29,21.2,31.54,26.76,36.81-2.91,36.81-2.91-3.13-25.25-21.7-26.14S1148.17,557.3,1148.17,557.3Z" transform="translate(-394.27 -338.93)" fill="#fff"/><path d="M1289.7,566.16s-6.08,6.58-27,13.33c-9.59,3.09-36.81-2.09-36.81-2.09s3.13-18,21.7-18.69S1289.7,566.16,1289.7,566.16Z" transform="translate(-394.27 -338.93)" fill="#fff"/><ellipse cx="1286.07" cy="585.82" rx="9.49" ry="20.03" transform="translate(-324.9 965.78) rotate(-55.07)" fill="#212035"/><line x1="885.37" y1="242.3" x2="883.16" y2="246.6" fill="none" stroke="#fff" stroke-linecap="round" stroke-miterlimit="10" stroke-width="0.75"/><line x1="889.76" y1="243.96" x2="887.01" y2="248.51" fill="none" stroke="#fff" stroke-linecap="round" stroke-miterlimit="10" stroke-width="0.75"/><line x1="894.05" y1="246.11" x2="891.57" y2="250.08" fill="none" stroke="#fff" stroke-linecap="round" stroke-miterlimit="10" stroke-width="0.75"/><path d="M1275.34,571.08c-19.58-11.19-45.75-26.45-66.42-33.11-32.08-10.33-59.37-15.57-65.39,3.13s15.88,26.12,57.63,35.28c21.72,4.77,40.27,4.77,71,8.9C1275.39,581.42,1275.87,575.32,1275.34,571.08Z" transform="translate(-394.27 -338.93)" fill="#fff"/><rect x="790.61" y="202.41" width="82.53" height="6.08" rx="2.91" fill="#14143a"/><rect x="790.61" y="147.76" width="82.53" height="54.65" rx="8.18" fill="#14143a"/><path d="M1184.63,495.35a5,5,0,0,1,5-5h72.52a5,5,0,0,1,5,5" transform="translate(-394.27 -338.93)" fill="none" stroke="#fff" stroke-miterlimit="10" stroke-width="0.51"/><path d="M1188.93,581.58c3.72,8.37-14.42,15.78-24.37,19.28s-19.44,2.32-21.19-2.66,4.89-11.85,14.84-15.36S1184.3,571.16,1188.93,581.58Z" transform="translate(-394.27 -338.93)" fill="#212035"/><line x1="773.65" y1="246.52" x2="775.29" y2="251.07" fill="none" stroke="#fff" stroke-linecap="round" stroke-miterlimit="10" stroke-width="0.75"/><line x1="777.85" y1="244.44" x2="779.31" y2="249.55" fill="none" stroke="#fff" stroke-linecap="round" stroke-miterlimit="10" stroke-width="0.75"/><line x1="782.35" y1="242.75" x2="783.56" y2="247.28" fill="none" stroke="#fff" stroke-linecap="round" stroke-miterlimit="10" stroke-width="0.75"/><path d="M1295,547.77c-3.87-16.62-19.73-21.61-65.71-1.06-14.52,6.49-36.66,20-49.81,29.09-.53,1.59,1.7,11,5.28,15.92,26.49-5.3,43.11-7.42,59.37-10.57C1272.81,575.59,1300.25,570.55,1295,547.77Z" transform="translate(-394.27 -338.93)" fill="#fff"/><path d="M1152.67,561.28s25.6,9.61,31.22,11.63" transform="translate(-394.27 -338.93)" fill="none" stroke="#212035" stroke-linecap="round" stroke-miterlimit="10" stroke-width="0.53"/><path d="M1237.46,542.2a275.28,275.28,0,0,0-24.91,13.25c-12.19,7.42-33.41,20.62-33.41,20.62" transform="translate(-394.27 -338.93)" fill="none" stroke="#212035" stroke-linecap="round" stroke-miterlimit="10" stroke-width="0.53"/><path d="M1276.14,574s-39.74,9.54-91.67,17.49" transform="translate(-394.27 -338.93)" fill="none" stroke="#212035" stroke-linecap="round" stroke-miterlimit="10" stroke-width="0.53"/><circle cx="831.04" cy="175.37" r="10.87" fill="none" stroke="#b3e1ff" stroke-miterlimit="10" stroke-width="1.01"/><path d="M1202,417.14a4.57,4.57,0,0,1,3.08,2,20.32,20.32,0,0,1,2,4.69" transform="translate(-394.27 -338.93)" fill="none" stroke="#0b132d" stroke-linecap="round" stroke-linejoin="round" stroke-width="0.52"/><path d="M1247.21,416.82a4.57,4.57,0,0,0-3.08,2,19.85,19.85,0,0,0-2,4.68" transform="translate(-394.27 -338.93)" fill="none" stroke="#0b132d" stroke-linecap="round" stroke-linejoin="round" stroke-width="0.52"/><line x1="30.24" y1="153.83" x2="349.18" y2="153.83" fill="none" stroke="#4cc9f1" stroke-miterlimit="10" stroke-width="1.25"/><text transform="translate(30.5 184.36) scale(1.09 1)" font-size="20" fill="#17143f" font-family="Gilroy-Regular" style="isolation:isolate">Hãy v<tspan x="51.72" y="0" font-family="MyriadPro-Regular, Myriad Pro" letter-spacing="0em">ượ</tspan><tspan x="73.8" y="0">t qua n</tspan><tspan x="139.06" y="0" font-family="MyriadPro-Regular, Myriad Pro">ỗ</tspan><tspan x="150.04" y="0">i s</tspan><tspan x="168.24" y="0" font-family="MyriadPro-Regular, Myriad Pro">ợ</tspan><tspan x="179.3" y="0" xml:space="preserve"> cua ban khi nói ti</tspan><tspan x="340" y="0" font-family="MyriadPro-Regular, Myriad Pro">ế</tspan><tspan x="350.02" y="0">ng Anh!</tspan><tspan x="418.41" y="0" font-family="Gilroy-Light" font-weight="300"> </tspan></text><text transform="translate(30.5 217.09) scale(1.09 1)" font-size="20" fill="#17143f" font-family="Gilroy-Regular"><tspan letter-spacing="-0.02em">R</tspan><tspan x="11.7" y="0" letter-spacing="0em">èn luy</tspan><tspan x="65.02" y="0" font-family="MyriadPro-Regular, Myriad Pro">ệ</tspan><tspan x="75.04" y="0">n s</tspan><tspan x="100.28" y="0" font-family="MyriadPro-Regular, Myriad Pro" letter-spacing="0em">ự</tspan><tspan x="111.3" y="0" xml:space="preserve"> t</tspan><tspan x="123.8" y="0" font-family="MyriadPro-Regular, Myriad Pro">ự</tspan><tspan x="134.82" y="0" xml:space="preserve"> tin! </tspan></text><text transform="translate(30.5 249.61) scale(1.09 1)" font-size="20" fill="#17143f" font-family="Gilroy-Regular">H<tspan x="13.6" y="0" font-family="MyriadPro-Regular, Myriad Pro">ọ</tspan><tspan x="24.58" y="0">c nh</tspan><tspan x="62.94" y="0" font-family="MyriadPro-Regular, Myriad Pro" letter-spacing="0em">ữ</tspan><tspan x="73.96" y="0">ng gì B</tspan><tspan x="137.08" y="0" font-family="MyriadPro-Regular, Myriad Pro">Ạ</tspan><tspan x="149.32" y="0">N mu</tspan><tspan x="196.04" y="0" font-family="MyriadPro-Regular, Myriad Pro" letter-spacing="0em">ố</tspan><tspan x="207.02" y="0" letter-spacing="0em">n h</tspan><tspan x="234.34" y="0" font-family="MyriadPro-Regular, Myriad Pro">ọ</tspan><tspan x="245.32" y="0">c! </tspan></text><text transform="translate(30.5 315.28) scale(1.09 1)" font-size="20" fill="#17143f" font-family="Gilroy-Regular">Đ<tspan x="14.8" y="0" font-family="MyriadPro-Regular, Myriad Pro">ừ</tspan><tspan x="25.82" y="0">ng lãng phí th</tspan><tspan x="152.08" y="0" font-family="MyriadPro-Regular, Myriad Pro">ờ</tspan><tspan x="163.14" y="0">i gian v</tspan><tspan x="228.18" y="0" font-family="MyriadPro-Regular, Myriad Pro">ớ</tspan><tspan x="239.24" y="0">i </tspan><tspan x="248.36" y="0" letter-spacing="0em">c</tspan><tspan x="259.3" y="0">ác l</tspan><tspan x="292.18" y="0" font-family="MyriadPro-Regular, Myriad Pro">ớ</tspan><tspan x="303.24" y="0">p h</tspan><tspan x="332.12" y="0" font-family="MyriadPro-Regular, Myriad Pro">ọ</tspan><tspan x="343.1" y="0">c nhóm.</tspan></text><text transform="translate(30.5 348.01) scale(1.09 1)" font-size="20" fill="#17143f" font-family="Gilroy-Regular">H<tspan x="13.6" y="0" font-family="MyriadPro-Regular, Myriad Pro">ọ</tspan><tspan x="24.58" y="0">c t</tspan><tspan x="48.12" y="0" font-family="MyriadPro-Regular, Myriad Pro">ạ</tspan><tspan x="57.76" y="0" xml:space="preserve">i NHÀ!  </tspan></text><text transform="translate(30.5 380.53) scale(1.09 1)" font-size="20" fill="#17143f" font-family="Gilroy-Regular">H<tspan x="13.6" y="0" font-family="MyriadPro-Regular, Myriad Pro">ọ</tspan><tspan x="24.58" y="0">c cùng v</tspan><tspan x="101.9" y="0" font-family="MyriadPro-Regular, Myriad Pro">ớ</tspan><tspan x="112.96" y="0">i giáo viên n</tspan><tspan x="222.08" y="0" font-family="MyriadPro-Regular, Myriad Pro" letter-spacing="0em">ướ</tspan><tspan x="244.16" y="0">c ngoài! </tspan></text><text transform="translate(30.5 413.26) scale(1.09 1)" font-size="20" fill="#17143f" font-family="Gilroy-Regular">H<tspan x="13.6" y="0" font-family="MyriadPro-Regular, Myriad Pro">ọ</tspan><tspan x="24.58" y="0">c cùng v</tspan><tspan x="101.9" y="0" font-family="MyriadPro-Regular, Myriad Pro">ớ</tspan><tspan x="112.96" y="0">i M</tspan><tspan x="138.08" y="0" letter-spacing="-0.02em">A</tspan><tspan x="150.28" y="0" letter-spacing="-0.02em">S</tspan><tspan x="161.3" y="0" letter-spacing="0em">TER 1! </tspan></text><text transform="translate(30.5 282.34) scale(1.09 1)" font-size="20" fill="#17143f" font-family="Gilroy-Regular">H<tspan x="13.6" y="0" font-family="MyriadPro-Regular, Myriad Pro">ọ</tspan><tspan x="24.58" y="0">c </tspan><tspan x="40.62" y="0" letter-spacing="-0.02em">v</tspan><tspan x="50.42" y="0">ào th</tspan><tspan x="98.92" y="0" font-family="MyriadPro-Regular, Myriad Pro" letter-spacing="0em">ờ</tspan><tspan x="109.98" y="0" letter-spacing="0em">i gian B</tspan><tspan x="177.22" y="0" font-family="MyriadPro-Regular, Myriad Pro">Ạ</tspan><tspan x="189.46" y="0">N mu</tspan><tspan x="236.18" y="0" font-family="MyriadPro-Regular, Myriad Pro" letter-spacing="0em">ố</tspan><tspan x="247.16" y="0" letter-spacing="0em">n! </tspan></text><rect width="379.41" height="137.72" fill="#774fa3"/><path d="M538,431.22l-2.78-7.86h-18l-2.62,7.86h-9.3l15.29-43.69h10.68l15.41,43.69ZM520.1,415.31h12.3l-6.31-17.85Z" transform="translate(-394.27 -338.93)" fill="#fdfffd"/><path d="M568,432.1a19.53,19.53,0,0,1-10.92-2.9,15.59,15.59,0,0,1-6.24-7.9l7.36-4.31q2.57,6.69,10,6.68c2.42,0,4.18-.44,5.31-1.31a4.13,4.13,0,0,0-.38-6.9,32.05,32.05,0,0,0-7.36-2.77,45.17,45.17,0,0,1-5-1.75,20.87,20.87,0,0,1-4.06-2.34,9.65,9.65,0,0,1-3.09-3.71,12.15,12.15,0,0,1-1.06-5.25,11.68,11.68,0,0,1,4.21-9.45A15.29,15.29,0,0,1,567,386.66a16.87,16.87,0,0,1,9.34,2.59,17.46,17.46,0,0,1,6.27,7.21l-7.24,4.18Q572.78,395,567,395a6.59,6.59,0,0,0-4.21,1.22,3.84,3.84,0,0,0-1.53,3.15,4,4,0,0,0,1.72,3.34,23.77,23.77,0,0,0,6.58,2.78l3,1c.69.23,1.62.58,2.81,1.06a16.85,16.85,0,0,1,2.75,1.34,22.29,22.29,0,0,1,2.21,1.69,8.37,8.37,0,0,1,1.9,2.18,12,12,0,0,1,1.13,2.71,12.39,12.39,0,0,1,.47,3.47,11.72,11.72,0,0,1-4.4,9.61Q575.08,432.1,568,432.1Z" transform="translate(-394.27 -338.93)" fill="#fdfffd"/><path d="M620,387.53v8.24H608.17v35.45h-8.62V395.77H587.82v-8.24Z" transform="translate(-394.27 -338.93)" fill="#fdfffd"/><path d="M636.5,423h18.41v8.23h-27V387.53H654.6v8.24H636.5v9.3H653v8.12H636.5Z" transform="translate(-394.27 -338.93)" fill="#fdfffd"/><path d="M688.05,431.22l-8.83-15.16H672.7v15.16h-8.61V387.53h17.47A14.51,14.51,0,0,1,696.11,402a13.31,13.31,0,0,1-2.31,7.53,14.56,14.56,0,0,1-6.12,5.21l9.67,16.47ZM672.7,395.59v12.92h8.86a5.5,5.5,0,0,0,4.19-1.91,6.57,6.57,0,0,0,1.74-4.59,6.45,6.45,0,0,0-1.74-4.55,5.53,5.53,0,0,0-4.19-1.87Z" transform="translate(-394.27 -338.93)" fill="#fdfffd"/><path d="M724.15,387.72a97.49,97.49,0,0,0-18.68,27.07c-1.67,3.53,3.86,6.1,5.51,2.55a90.59,90.59,0,0,1,11.59-18.67l-6.27,60.86c-.4,3.86,5.57,5,6,1.07q3.65-35.34,7.31-70.67C729.91,386.69,726.15,385.67,724.15,387.72Z" transform="translate(-394.27 -338.93)" fill="#fdfffd"/><path d="M489.17,387.53,476.7,408.16l-8.57-14.11c-3.79,1.16-8.23,2.3-12.82,3.54v33.63h8.62V403l12.26,20.19,1,0,12.32-20.27v28.33h8.55V387.53Z" transform="translate(-394.27 -338.93)" fill="#fdfffd"/><path d="M479.62,382.32l-.47-.37-.61-.58.17-.12-.58-.09-.63-.49.07.39-.23,0a1.56,1.56,0,0,0-.25,0,1.56,1.56,0,0,1-.33-.05,1.8,1.8,0,0,0-1.13.07,1.82,1.82,0,0,0-1.15-.34h-.18c-.76-.06-1.53-.15-2.29-.24l-.35,0a4.86,4.86,0,0,1-.55-.1,3.44,3.44,0,0,0-1.64-.06,3,3,0,0,1-.43.08l-.4-.18v.14h0a7.59,7.59,0,0,0-1.82-.19,2.23,2.23,0,0,1-.34,0l-.47-.38-.35.32-.06.06-.64,0h-.55v-.76l-.66.66s-.06,0-.1,0l-1.11-.11-.82-.08c-.48-.05-1-.1-1.43-.19a6,6,0,0,1-.61-.13,4.7,4.7,0,0,0-.51-.12.83.83,0,0,0-.54.08.85.85,0,0,0-.22.09s-.06,0,0,0a7.7,7.7,0,0,1-1.1-.14,2.32,2.32,0,0,0-1.54.35l-.32-.06.11.2a2.14,2.14,0,0,0-.51.48,1.18,1.18,0,0,1-.58.4,2.23,2.23,0,0,0-1.07.58l-.31.32a7.11,7.11,0,0,1-.94.89,1.66,1.66,0,0,0-.37.39.82.82,0,0,1-.14.16c-.18.15-.36.28-.55.41a7.51,7.51,0,0,0-.72.54c-.23.19-.44.39-.66.6a7.41,7.41,0,0,1-.72.65c-.5.39-1,.75-1.57,1.1l-.34.23a1.54,1.54,0,0,0-.75,1,.7.7,0,0,0-.3.13c-.24.18-.49.35-.74.51a8.38,8.38,0,0,0-2,1.67,1.8,1.8,0,0,1-.48.32l-.4.23a1.91,1.91,0,0,0-.38.36,1.66,1.66,0,0,0-.16.21.59.59,0,0,1-.09.11l-.71.62-.82.71a1.14,1.14,0,0,0-.15.17c-1,.23-1.12,1-1.14,1.82a1.71,1.71,0,0,0,1.25,1.45c.51.08,1,.13,1.62.17s.91,0,1.38,0c0,.06,0,.14,0,.21a1.7,1.7,0,0,0,.4,1.1v0a1.07,1.07,0,0,0,.08.36.59.59,0,0,0,.1.17,5.88,5.88,0,0,0,.25,1.49,5.44,5.44,0,0,1,.2.92l0,.39.23.06a1.22,1.22,0,0,0,.18.66l.16.23h-.18l.26.46,0,.21.22.09.32.55-.19.61.06,0c0,.06,0,.11,0,.17s0,.14,0,.17c-.08.21-.17.42-.26.63s-.13.31-.2.46a1.87,1.87,0,0,0-.08.34c0,.12-.07.23-.11.35l-.11.31-.18.55a.75.75,0,0,0,.25.76,1,1,0,0,0,.65.23,1.07,1.07,0,0,0,.25,0,1,1,0,0,0,.67-.51,2.35,2.35,0,0,0,.17-.58l.08-.32a.24.24,0,0,1,0-.09.83.83,0,0,1,.08-.12,1.43,1.43,0,0,0,.14-.2l.25.09-.53.71,1.12-.51.34.07.14-.29,1.64-.75-.37-.47,1-1.34-1.49.72-.18-.23-.15-.06-.33-.1a1.23,1.23,0,0,1-.35-.13,1.77,1.77,0,0,1-.81-1.47.86.86,0,0,0-.28-.73c-.21-.17-.19-.22-.1-.39l.2-.37-.28-.3a2.18,2.18,0,0,1-.44-1.35l-.08-.56-.2,0a.09.09,0,0,0,0-.05c-.05-.19-.12-.37-.18-.55a3.3,3.3,0,0,1-.13-.37c-.1-.33-.19-.65-.28-1l0-.11.72.08a9.55,9.55,0,0,0,1.07,0l.77,0,.41-.77,1.72,1.13-.27-1.47a3.37,3.37,0,0,0-.12-.53,1,1,0,0,0,0-.1.73.73,0,0,0,.13-.23,1.79,1.79,0,0,1,1-1l.12-.06a3,3,0,0,0,.81-.51l.26-.28a1.91,1.91,0,0,1,.4-.38l.07,0v0a.42.42,0,0,1,.16,0l.32-.05.15-.24c0-.06.13-.1.33-.18a1.93,1.93,0,0,0,.66-.35,3.65,3.65,0,0,1,.43-.31l.41.83.25-1.17.36-.14c.55-.22,1.12-.38,1.72-.56l.81-.23.3-.2a.81.81,0,0,1,.15-.13l.15,0,.26-.06.71-.25.93-.31.14,0,.14,0a1,1,0,0,0,.87-.09,1.75,1.75,0,0,1,.6-.24,4.79,4.79,0,0,0,.64-.21l.24,0,.35,0a3.76,3.76,0,0,0,.89-.17,5.87,5.87,0,0,1,2-.22,1.63,1.63,0,0,0,1.11-.31l.18.05,1.35.17.42.05a.79.79,0,0,0,.31,0,1.5,1.5,0,0,1,1,.29.86.86,0,0,1,.34.8,1.18,1.18,0,0,0,.05.43l.46,1.42c.18.58.37,1.15.55,1.72l.27.87a1.94,1.94,0,0,0-.7-.13,4.28,4.28,0,0,0-.72,0,4.35,4.35,0,0,1-.72,0,13,13,0,0,0-2.19.19c-.3,0-.59.11-.89.18a6.55,6.55,0,0,1-.77.15c-.57.09-1.14.14-1.71.18l-.31,0a1.32,1.32,0,0,0-1,.55,1.06,1.06,0,0,0-.31,0c-.82.17-1.64.35-2.45.54a.92.92,0,0,0-.41.25l-.49.11-.48.1a1,1,0,0,0-.42.23l-.2.14-.74.32-.88.37a.86.86,0,0,0-.2.13,1.82,1.82,0,0,0-1.08.33,2,2,0,0,1-.33.16,8.63,8.63,0,0,0-2.42,1.35l-.15.11-.48.33a5.52,5.52,0,0,0-2,2,2.32,2.32,0,0,0-.34,1.23v1.09l.89-.63.22-.14a2.33,2.33,0,0,0,.57-.46,5.33,5.33,0,0,1,1.45-1.29,8.12,8.12,0,0,0,.76-.47l.41-.27.41-.23.94-.53c.43-.26.87-.51,1.31-.75a3.24,3.24,0,0,1,.33-.13,2.72,2.72,0,0,0,.62-.27,1.71,1.71,0,0,0,.25-.22h0a.87.87,0,0,0,.72-.14l.32-.16.32-.17a1.34,1.34,0,0,0,1.17-.48h.07a1.38,1.38,0,0,0,.52,0,1.19,1.19,0,0,0,.75-.23,1.54,1.54,0,0,0,1-.22l1.49-.32a.72.72,0,0,0,.37-.13c.24-.16.3-.16.38-.13a1.5,1.5,0,0,0,.76,0l.62-.14.5-.12H467a1,1,0,0,0,.74-.24c.05-.05.14,0,.37,0a2.17,2.17,0,0,0,1.23-.14c.07,0,.17-.07.13-.08a2.21,2.21,0,0,0,.8,0,1.86,1.86,0,0,1,.41,0l.53.1a5,5,0,0,1,.91.2,4.16,4.16,0,0,0,.67.18v0c0,.12-.07.25-.1.39a1.41,1.41,0,0,0-.71.59l-.55.43-.3.26a2.65,2.65,0,0,1-.5.38l-.14.06a4,4,0,0,0-1,.65l-.58-1-.35,1.47-.18.08-.19,0a1.88,1.88,0,0,0-.85.39L467,399l-.25.45a1,1,0,0,0-1.14.52,1.27,1.27,0,0,0-.55.17h0l-1.23-.64.4,1a1.34,1.34,0,0,0-.93.64,6.35,6.35,0,0,1-.76.13,1.17,1.17,0,0,0-.82.39l-2.16.39-.41.14,0,.31-.2,0-.28,0-.23.24-.18-.36-2,.62.27.28-.09.05.41.28.26.27.12.08-.35.36.69-.11.12.09.13-.12.91-.14.52-.09a1.42,1.42,0,0,0,.35-.14l.1,0a3.7,3.7,0,0,1,.55-.14h.31a2.9,2.9,0,0,0,.63-.06l1.2-.31q.57-.16,1.14-.3l.36-.08a3.24,3.24,0,0,0,1.54-.62l.12-.1.06-.06.5.05-.08-.19a7,7,0,0,0,1.26-.48l.33-.15.16.22.6-.54.13-.11.14-.07.25-.12.4-.25.3.57.28-.91.78-.46,1.28-.74,1.6-.93a.83.83,0,0,0,.39-.75l.05,0a2,2,0,0,0,.52-2.26l-.41-.66,0-.05v0a4.86,4.86,0,0,0,.1-.71,1.59,1.59,0,0,0-.14-.58.78.78,0,0,1-.05-.14c-.12-.46-.23-.91-.34-1.36l-.17-.74a3.47,3.47,0,0,0-.16-.55c-.09-.23-.19-.46-.29-.68l-.31-.75a3.37,3.37,0,0,1-.09-.34,2.05,2.05,0,0,0-.36-.93,1.15,1.15,0,0,0-.44-.89.74.74,0,0,0-.57-.15.1.1,0,0,0,0-.05,1.09,1.09,0,0,0-1.27-.44.68.68,0,0,0-.37-.21c-.37-.07-.75-.12-1.21-.19a1,1,0,0,0-.61.05l.37-.54-1.57.48-.32.12-.11,0a1.71,1.71,0,0,0-1.25.06l-.16,0h-.33a1.18,1.18,0,0,0-.66.17.42.42,0,0,1-.35.05,1.23,1.23,0,0,0-.67,0l-.65.27v-.07l-.8.24-.22.08-.27.08a4.21,4.21,0,0,0-1.54.46l-.23.13a.88.88,0,0,1-.18.1,1.69,1.69,0,0,0-1.12.44.87.87,0,0,0-.39,0v0l-1.06.44-.21.09-.26.14a1.09,1.09,0,0,1-.33.16,2.69,2.69,0,0,0-.94.39l0-.07-.5.25-.29.17-.18.12a1,1,0,0,0-.49.08l.17-.48-.68.49h0l-.46.36-.1.05-.36.18a.66.66,0,0,0-.27.31,1.16,1.16,0,0,0-.22.1l-.31.19-.58.37h0l-.15.21c-.09.13-.16.27-.24.41l-.07.12-.05.1-.45.24-.4.22-.06.24-.06.31a.77.77,0,0,1,0,.15.64.64,0,0,0-.13.15l-.41-.11-.69,1.84a1.17,1.17,0,0,0-.48-.26,15.49,15.49,0,0,0-1.69-.23l-.94-.07c-.45,0-.89-.05-1.33-.11l-.43-.06c-.47-.06-.94-.13-1.47-.15l.1-.08.09-.08.33-.3.2-.21a1.92,1.92,0,0,1,.19-.2l.12-.05a1.45,1.45,0,0,0,.37-.17,2.77,2.77,0,0,0,.4-.36l.57-.56.53-.32a.8.8,0,0,0,.34-.43,1.54,1.54,0,0,0,.63-.3.93.93,0,0,1,.16-.11.58.58,0,0,0,.41-.34l.08-.1a2.54,2.54,0,0,0,1.18-.95,3.11,3.11,0,0,1,.23-.28.91.91,0,0,0,.66-.39l.17.12.09-.12h0l.2-.27,1-.21-.46-.37.08-.07.31-.19a4.28,4.28,0,0,0,.57-.37c.35-.28.68-.57,1-.87l.41-.36.11-.14,0,0a1,1,0,0,0,.46-.4,1.22,1.22,0,0,0,.85-.57c.11-.11.2-.24.3-.36a2.27,2.27,0,0,1,.53-.54,2.14,2.14,0,0,0,.41-.37h.12a.76.76,0,0,0,.52-.41,2.3,2.3,0,0,0,.22-.2l.1-.1.46-.36c.31-.25.62-.49.91-.75a5.39,5.39,0,0,0,.61-.65l.07-.07A2.38,2.38,0,0,0,458,381a1.67,1.67,0,0,0,1.48.22h0l1.21.15c.41,0,.82.1,1.22.13h.15a4.12,4.12,0,0,0,1.11,0l-.08,1.15,1.06-1a.63.63,0,0,0,.52,0,1.22,1.22,0,0,0,1.27.12l.15.44.42-.25h0a1.06,1.06,0,0,0,1.32.11.93.93,0,0,0,.41.08,2.39,2.39,0,0,0,.67.08l.4,0,.05.14.81-.19.75-.17a.71.71,0,0,1,.23,0,3.39,3.39,0,0,1,.44.08,2.45,2.45,0,0,0,1.61-.08,1.29,1.29,0,0,1,.49-.07l0,.31,2.39.31.1-.27h.29a.64.64,0,0,0,.58,0l.35.2a.92.92,0,0,0,.23.12.88.88,0,0,0,.57.43l1.05,1.27L479,383Zm-31.57,12.77,0,.22-.27-.2-.1-.09Zm3.59-9.68-.36-.38.48.32Z" transform="translate(-394.27 -338.93)" fill="#fff"/></svg>