<svg xmlns="http://www.w3.org/2000/svg" viewBox="0 0 656.58 882.19"><path d="M695.09,348.49c13.23-30.16,23.8-79.5,73.42-119,47.16-37.54,97.16-31.37,136.72-25.83,67.6,9.47,108.44-12.34,159-48.61s84-72.77,162.54-45.06c34.43,12.15,58,38.54,61.27,92.15,2.43,39.34-11.54,102.15-58.23,160.51-36.46,45.58-77.83,72.47-145.33,87.6-83.54,18.74-130.13,38.48-279,0-46.67-12.06-83-26.33-129.12,32.92C636.73,534.13,616,498,646,449.76,680.92,393.55,679.19,384.76,695.09,348.49Z" transform="translate(-631.71 -99.12)" fill="#4cc9f1"/><rect x="157.21" y="402.79" width="410.14" height="12.66" rx="6.06" fill="#71519f"/><rect x="364.88" y="385.82" width="106.33" height="12.66" rx="6.06" fill="#ffd150"/><path d="M721.23,333.78l.09-.85a3.82,3.82,0,0,1,3.8-3.4h29.33L749,379h-6.2" transform="translate(-631.71 -99.12)" fill="none" stroke="#18327c" stroke-linecap="round" stroke-linejoin="round" stroke-width="0.55"/><polygon points="186.29 231.29 180.39 280.76 185.14 280.76 191.53 231.29 186.29 231.29" fill="none" stroke="#18327c" stroke-linecap="round" stroke-linejoin="round" stroke-width="0.55"/><polygon points="124.65 230.78 119.08 279.23 124.65 279.23 129.56 230.78 124.65 230.78" fill="none" stroke="#18327c" stroke-linecap="round" stroke-linejoin="round" stroke-width="0.55"/><polygon points="178.26 280.76 145.51 280.76 150.97 231.29 183.72 231.29 178.26 280.76" fill="none" stroke="#18327c" stroke-linecap="round" stroke-linejoin="round" stroke-width="0.55"/><polygon points="171.78 246.65 157.45 246.65 158.31 239.14 172.64 239.14 171.78 246.65" fill="none" stroke="#18327c" stroke-linejoin="round" stroke-width="0.55"/><polygon points="193.26 238.48 207.26 238.11 203.39 281.01 186.94 280.76 193.26 238.48" fill="none" stroke="#18327c" stroke-linecap="round" stroke-linejoin="round" stroke-width="0.55"/><line x1="212.04" y1="234.35" x2="206.58" y2="280.75" fill="none" stroke="#18327c" stroke-linecap="round" stroke-linejoin="round" stroke-width="0.55"/><line x1="215.76" y1="232.3" x2="209.31" y2="280.75" fill="none" stroke="#18327c" stroke-linecap="round" stroke-linejoin="round" stroke-width="0.55"/><line x1="217.82" y1="239.07" x2="212.4" y2="280.79" fill="none" stroke="#18327c" stroke-linecap="round" stroke-linejoin="round" stroke-width="0.55"/><polygon points="136.51 205.54 117.88 205.54 120.98 177.4 139.62 177.4 136.51 205.54" fill="none" stroke="#18327c" stroke-linecap="round" stroke-linejoin="round" stroke-width="0.55"/><polygon points="132.82 186.14 124.67 186.14 125.16 181.87 133.31 181.87 132.82 186.14" fill="none" stroke="#18327c" stroke-linecap="round" stroke-linejoin="round" stroke-width="0.55"/><polygon points="145.04 181.49 153.01 181.28 150.8 205.69 141.45 205.54 145.04 181.49" fill="none" stroke="#18327c" stroke-linecap="round" stroke-linejoin="round" stroke-width="0.55"/><path d="M1279.67,160.89c-41-15.7-70.38-2.54-81.42,10.17-13.19,15.2-23,24.38-31.82,21.85s-15.8-1.52-22.46,5.57-9.25,13.56-17.58,12.6-16,15.15-6.34,17.22c7.23,1.56,129.63-1.1,166.2-1.59" transform="translate(-631.71 -99.12)" fill="none" stroke="#fff" stroke-linecap="round" stroke-miterlimit="10" stroke-width="1.52"/><path d="M987,185.19" transform="translate(-631.71 -99.12)" fill="none" stroke="#fff" stroke-linecap="round" stroke-miterlimit="10" stroke-width="1.52"/><path d="M1062.11,157.4c9.51,7.54,12.59,8.4,20.41,7.21s10.29-1.24,15.9,2.83,9.49,5.78,16.92,5.44,11.85.45,11.91,5.12-1.52,6.18-9.84,6.18c-5.12,0-66.71.5-100.53.5" transform="translate(-631.71 -99.12)" fill="none" stroke="#fff" stroke-linecap="round" stroke-miterlimit="10" stroke-width="1.52"/><path d="M1223.25,178.62c-4.84,1.71-9.94,4.27-13.53,8.09-9,9.62-15.88,18.25-25.62,18.24s-26.66-.64-30.61,4.74" transform="translate(-631.71 -99.12)" fill="none" stroke="#fff" stroke-linecap="round" stroke-linejoin="round" stroke-width="1.52"/><path d="M1243.93,187a34.13,34.13,0,0,0-9.81,3.58A180.37,180.37,0,0,0,1218.44,201" transform="translate(-631.71 -99.12)" fill="none" stroke="#fff" stroke-linecap="round" stroke-linejoin="round" stroke-width="1.52"/><path d="M1045.66,167.94c7.81,5.73,16,10.18,24.38,7.3,9.37-3.21,14.94-1.85,18.23,0" transform="translate(-631.71 -99.12)" fill="none" stroke="#fff" stroke-linecap="round" stroke-linejoin="round" stroke-width="1.52"/><path d="M1239.67,171s13.16-2,23.8,0c8.42,1.61,21.82,9.29,21.82,9.29" transform="translate(-631.71 -99.12)" fill="none" stroke="#fff" stroke-linecap="round" stroke-linejoin="round" stroke-width="1.52"/><path d="M965.54,194.66q1.58-.36,3.15-.78" transform="translate(-631.71 -99.12)" fill="none" stroke="#18327c" stroke-linecap="round" stroke-miterlimit="10" stroke-width="1.01"/><path d="M953.93,196.74q3.21-.41,6.41-1" transform="translate(-631.71 -99.12)" fill="none" stroke="#18327c" stroke-linecap="round" stroke-miterlimit="10" stroke-width="1.01"/><path d="M730.4,362.89c-8.27-16.8-12.54-37.06-12.12-61.5.61-34.93,30.68-86.49,95.2-105.32,44.74-13.06,90.72,5.06,135.15,1.24" transform="translate(-631.71 -99.12)" fill="none" stroke="#18327c" stroke-linecap="round" stroke-miterlimit="10" stroke-width="1.01"/><path d="M736.46,373.53c-1.05-1.61-2.06-3.25-3-4.94" transform="translate(-631.71 -99.12)" fill="none" stroke="#18327c" stroke-linecap="round" stroke-miterlimit="10" stroke-width="1.01"/><path d="M740.76,379.61c-.66-.87-1.31-1.74-1.94-2.63" transform="translate(-631.71 -99.12)" fill="none" stroke="#18327c" stroke-linecap="round" stroke-miterlimit="10" stroke-width="1.01"/><path d="M775.21,409.42q-1.34-.78-2.64-1.59" transform="translate(-631.71 -99.12)" fill="none" stroke="#18327c" stroke-linecap="round" stroke-miterlimit="10" stroke-width="1.01"/><path d="M787.31,415.84q-3.87-1.84-7.59-3.87" transform="translate(-631.71 -99.12)" fill="none" stroke="#18327c" stroke-linecap="round" stroke-miterlimit="10" stroke-width="1.01"/><path d="M1262.33,247.32a185.52,185.52,0,0,1-21.5,64.7C1174.5,433,1081.9,441.16,970,442.42c-58.22.65-125-2-175.1-23.18" transform="translate(-631.71 -99.12)" fill="none" stroke="#18327c" stroke-linecap="round" stroke-miterlimit="10" stroke-width="1.01"/><path d="M1263.69,222.59q.15,6.72-.28,13.55" transform="translate(-631.71 -99.12)" fill="none" stroke="#18327c" stroke-linecap="round" stroke-miterlimit="10" stroke-width="1.01"/><path d="M1262.81,209.29c.19,1.75.36,3.51.49,5.28" transform="translate(-631.71 -99.12)" fill="none" stroke="#18327c" stroke-linecap="round" stroke-miterlimit="10" stroke-width="1.01"/><path d="M1228.06,134.83q1.67,1.63,3.27,3.35" transform="translate(-631.71 -99.12)" fill="none" stroke="#18327c" stroke-linecap="round" stroke-miterlimit="10" stroke-width="1.01"/><path d="M1218.89,126.77c2.14,1.68,4.19,3.42,6.17,5.23" transform="translate(-631.71 -99.12)" fill="none" stroke="#18327c" stroke-linecap="round" stroke-miterlimit="10" stroke-width="1.01"/><path d="M1052.34,137c34.93-28.15,63.87-44.85,114.06-34.14,18.08,3.86,33.61,10.6,46.62,19.55" transform="translate(-631.71 -99.12)" fill="none" stroke="#18327c" stroke-linecap="round" stroke-miterlimit="10" stroke-width="1.01"/><path d="M1034.49,151.78l8.9-7.42" transform="translate(-631.71 -99.12)" fill="none" stroke="#18327c" stroke-linecap="round" stroke-miterlimit="10" stroke-width="1.01"/><path d="M1024.85,159.82l4.25-3.53" transform="translate(-631.71 -99.12)" fill="none" stroke="#18327c" stroke-linecap="round" stroke-miterlimit="10" stroke-width="1.01"/><path d="M1172.1,346.54c-5.9-4.4-15.08-24.82-8.65-37.81s13.26-4.89,14.77-14.69-2.94-18.49,6.3-24.82,16-7.7,17.92-14.8,6.21-11.51,16.21-17.55,24.38,3.54,18.83,14.26c-4.69,9.05-3.52,20.74-.75,27s5.46,11.51-1.48,19.08-14.33,10.46-13.67,21.32,7.27,15.72-5.24,23.84C1199.35,353.45,1181.73,353.71,1172.1,346.54Z" transform="translate(-631.71 -99.12)" fill="none" stroke="#18327c" stroke-miterlimit="10" stroke-width="0.73"/><path d="M1229,235.32s-13.51,19.6-30.83,55.57c-14.33,29.76-15.78,60-15.78,60" transform="translate(-631.71 -99.12)" fill="none" stroke="#18327c" stroke-miterlimit="10" stroke-width="0.73"/><path d="M1170.45,301c1.37,11.28,13.38,37.49,13.38,37.49" transform="translate(-631.71 -99.12)" fill="none" stroke="#18327c" stroke-miterlimit="10" stroke-width="0.73"/><path d="M1184.52,269.22a59.56,59.56,0,0,1,4.25,14.18,187.18,187.18,0,0,0,4.63,18.68s7.75-8.55,18.72-11.22l26.64-6.47" transform="translate(-631.71 -99.12)" fill="none" stroke="#18327c" stroke-miterlimit="10" stroke-width="0.73"/><path d="M1207.81,244.92s3,5.8,2.42,11a85.38,85.38,0,0,0-.28,11.82" transform="translate(-631.71 -99.12)" fill="none" stroke="#18327c" stroke-miterlimit="10" stroke-width="0.73"/><path d="M1210.66,266.37s7.4-4.67,11.86-7.64,13.45-4.05,13.45-4.05" transform="translate(-631.71 -99.12)" fill="none" stroke="#18327c" stroke-miterlimit="10" stroke-width="0.73"/><path d="M1183.72,337.36s14-7.37,20.3-11.09,17.84-5.06,17.84-5.06" transform="translate(-631.71 -99.12)" fill="none" stroke="#18327c" stroke-miterlimit="10" stroke-width="0.73"/><path d="M1160.62,370.22c2.76-4.1,4-19.1-2.93-25.91s-9.5-.15-12.65-6-2.25-12.39-9.52-14.35-11.89-1.32-14.67-5.4-6.5-5.93-14.19-7.53-14.69,7.68-8.78,13.24c5,4.7,6.86,12.38,6.5,17s-.9,8.52,5.19,11.78S1121,356.46,1123,363.5s-1.11,11.59,8.64,14C1144.87,380.68,1156.1,376.92,1160.62,370.22Z" transform="translate(-631.71 -99.12)" fill="none" stroke="#18327c" stroke-miterlimit="10" stroke-width="0.73"/><path d="M1100.3,312.71s12.35,9.05,31.35,28A116.92,116.92,0,0,1,1155,375.26" transform="translate(-631.71 -99.12)" fill="none" stroke="#18327c" stroke-miterlimit="10" stroke-width="0.73"/><path d="M1151.52,341s-1.15,1.39-.66,8.31.52,18.46.52,18.46" transform="translate(-631.71 -99.12)" fill="none" stroke="#18327c" stroke-miterlimit="10" stroke-width="0.73"/><path d="M1135.52,323.93a39.86,39.86,0,0,0,.46,9.94,127,127,0,0,1,1.22,12.88s-6.82-3.69-14.38-2.94l-18.34,1.82" transform="translate(-631.71 -99.12)" fill="none" stroke="#18327c" stroke-miterlimit="10" stroke-width="0.73"/><path d="M1115.33,313.7s-.63,4.35.9,7.49a56.42,56.42,0,0,1,2.81,7.43" transform="translate(-631.71 -99.12)" fill="none" stroke="#18327c" stroke-miterlimit="10" stroke-width="0.73"/><path d="M1118.3,327.94s-5.74-1.31-9.23-2.21-9.44.43-9.44.43" transform="translate(-631.71 -99.12)" fill="none" stroke="#18327c" stroke-miterlimit="10" stroke-width="0.73"/><path d="M1151.2,367s-10.54-1.55-15.35-2.52-12.45.76-12.45.76" transform="translate(-631.71 -99.12)" fill="none" stroke="#18327c" stroke-miterlimit="10" stroke-width="0.73"/><path d="M1154.77,374.78s2.69,4.78,5.24,9.4,7.93,14,7.93,14" transform="translate(-631.71 -99.12)" fill="none" stroke="#18327c" stroke-miterlimit="10" stroke-width="0.73"/><path d="M1182.6,350.85s-1.59,7.94-3.18,18.67c-.75,5.08-1.18,13.43-1.43,20.82" transform="translate(-631.71 -99.12)" fill="none" stroke="#18327c" stroke-miterlimit="10" stroke-width="0.75"/><path d="M1064.54,196.23a27.05,27.05,0,0,1,14.11,3.14c6.53,3.77,4.46,6.49,4.46,6.49S1074,206,1064.54,196.23Z" transform="translate(-631.71 -99.12)" fill="none" stroke="#18327c" stroke-miterlimit="10" stroke-width="0.73"/><path d="M1083.46,205.7s2-5.57,7.09-8.1l9.11-4.56A22.86,22.86,0,0,1,1083.46,205.7Z" transform="translate(-631.71 -99.12)" fill="none" stroke="#18327c" stroke-miterlimit="10" stroke-width="0.73"/><circle cx="487.95" cy="161.51" r="5.32" fill="none" stroke="#18327c" stroke-miterlimit="10" stroke-width="0.81"/><circle cx="519.1" cy="151.13" r="2.78" fill="none" stroke="#18327c" stroke-miterlimit="10" stroke-width="0.81"/><circle cx="513.78" cy="184.3" r="10.13" fill="none" stroke="#18327c" stroke-miterlimit="10" stroke-width="0.81"/><path d="M1067.92,222.84a12.18,12.18,0,0,1,6.38,1.42c3,1.7,2,2.93,2,2.93S1072.19,227.26,1067.92,222.84Z" transform="translate(-631.71 -99.12)" fill="none" stroke="#18327c" stroke-miterlimit="10" stroke-width="0.73"/><path d="M1076.48,227.12a7.3,7.3,0,0,1,3.21-3.66l4.12-2.07A10.32,10.32,0,0,1,1076.48,227.12Z" transform="translate(-631.71 -99.12)" fill="none" stroke="#18327c" stroke-miterlimit="10" stroke-width="0.73"/><path d="M1091.56,211.63a17.55,17.55,0,0,1,9.16,2c4.23,2.44,2.89,4.21,2.89,4.21S1097.69,218,1091.56,211.63Z" transform="translate(-631.71 -99.12)" fill="none" stroke="#18327c" stroke-miterlimit="10" stroke-width="0.73"/><path d="M1103.84,217.77a10.44,10.44,0,0,1,4.6-5.25l5.91-3A14.83,14.83,0,0,1,1103.84,217.77Z" transform="translate(-631.71 -99.12)" fill="none" stroke="#18327c" stroke-miterlimit="10" stroke-width="0.73"/><polygon points="321.81 52.97 309.78 52.47 309.3 52.29 308.17 41.95 290.78 67.84 321.81 52.97" fill="none" stroke="#18327c" stroke-linecap="round" stroke-linejoin="round" stroke-width="1.01"/><polyline points="312.51 57.96 312.16 60.24 290.73 68.09 309.47 52.39" fill="none" stroke="#18327c" stroke-linecap="round" stroke-linejoin="round" stroke-width="1.1"/><path d="M839.66,290.76H795.1a6.83,6.83,0,0,1-6.84-6.83h0a6.84,6.84,0,0,1,6.84-6.84h44.56" transform="translate(-631.71 -99.12)" fill="none" stroke="#18327c" stroke-linecap="round" stroke-miterlimit="10" stroke-width="0.53"/><path d="M838.39,288.23H795.13A4.23,4.23,0,0,1,790.9,284h0a4.22,4.22,0,0,1,4.23-4.22h43.26" transform="translate(-631.71 -99.12)" fill="none" stroke="#18327c" stroke-linecap="round" stroke-miterlimit="10" stroke-width="0.53"/><path d="M838.11,287.26a4.54,4.54,0,0,1,.35-6.05" transform="translate(-631.71 -99.12)" fill="none" stroke="#18327c" stroke-linecap="round" stroke-miterlimit="10" stroke-width="0.53"/><path d="M838.14,276.05H793.7a4.21,4.21,0,0,1-4.22-4.21h0a4.22,4.22,0,0,1,4.22-4.22h43.93" transform="translate(-631.71 -99.12)" fill="none" stroke="#18327c" stroke-linecap="round" stroke-miterlimit="10" stroke-width="0.53"/><path d="M838.14,274.49H793.72a2.6,2.6,0,0,1-2.61-2.6h0a2.61,2.61,0,0,1,2.61-2.61h44.92" transform="translate(-631.71 -99.12)" fill="none" stroke="#18327c" stroke-linecap="round" stroke-miterlimit="10" stroke-width="0.53"/><path d="M814.14,273.9a2.84,2.84,0,0,1,.22-3.74" transform="translate(-631.71 -99.12)" fill="none" stroke="#18327c" stroke-linecap="round" stroke-miterlimit="10" stroke-width="0.53"/><path d="M836,273.94a2.84,2.84,0,0,1,.22-3.74" transform="translate(-631.71 -99.12)" fill="none" stroke="#18327c" stroke-linecap="round" stroke-miterlimit="10" stroke-width="0.53"/><path d="M819.79,255.29h44.56c3.78,0,6.84-3.94,6.84-8.81h0c0-4.87-3.06-8.82-6.84-8.82H819.79" transform="translate(-631.71 -99.12)" fill="none" stroke="#18327c" stroke-linecap="round" stroke-miterlimit="10" stroke-width="0.6"/><path d="M821.06,252h43.26c2.34,0,4.23-2.44,4.23-5.46h0c0-3-1.89-5.45-4.23-5.45H821.06" transform="translate(-631.71 -99.12)" fill="none" stroke="#18327c" stroke-linecap="round" stroke-miterlimit="10" stroke-width="0.6"/><path d="M821.34,250.78a7,7,0,0,0,1-3.65A6.87,6.87,0,0,0,821,243" transform="translate(-631.71 -99.12)" fill="none" stroke="#18327c" stroke-linecap="round" stroke-miterlimit="10" stroke-width="0.6"/><path d="M849,250.14a7,7,0,0,0,1-3.65,6.87,6.87,0,0,0-1.33-4.16" transform="translate(-631.71 -99.12)" fill="none" stroke="#18327c" stroke-linecap="round" stroke-miterlimit="10" stroke-width="0.6"/><path d="M825.32,237.6h33.46c2.84,0,5.14-3,5.14-6.62h0c0-3.66-2.3-6.63-5.14-6.63H825.32" transform="translate(-631.71 -99.12)" fill="none" stroke="#18327c" stroke-linecap="round" stroke-miterlimit="10" stroke-width="0.6"/><path d="M826.28,235.15h32.48c1.75,0,3.17-1.84,3.17-4.1h0c0-2.26-1.42-4.1-3.17-4.1H826.28" transform="translate(-631.71 -99.12)" fill="none" stroke="#18327c" stroke-linecap="round" stroke-miterlimit="10" stroke-width="0.45"/><path d="M826.48,234.21a5.21,5.21,0,0,0,.74-2.74,5.08,5.08,0,0,0-1-3.12" transform="translate(-631.71 -99.12)" fill="none" stroke="#18327c" stroke-linecap="round" stroke-miterlimit="10" stroke-width="0.45"/><path d="M847.24,233.73A5.31,5.31,0,0,0,848,231a5.13,5.13,0,0,0-1-3.13" transform="translate(-631.71 -99.12)" fill="none" stroke="#18327c" stroke-linecap="round" stroke-miterlimit="10" stroke-width="0.45"/><line x1="194.16" y1="147.62" x2="214.42" y2="147.62" fill="none" stroke="#18327c" stroke-linecap="round" stroke-miterlimit="10" stroke-width="0.45"/><line x1="190.45" y1="149.96" x2="205.41" y2="149.96" fill="none" stroke="#18327c" stroke-linecap="round" stroke-miterlimit="10" stroke-width="0.45"/><line x1="190.22" y1="145.31" x2="200.35" y2="145.31" fill="none" stroke="#18327c" stroke-linecap="round" stroke-miterlimit="10" stroke-width="0.45"/><line x1="199.34" y1="131.13" x2="210.98" y2="131.13" fill="none" stroke="#18327c" stroke-linecap="round" stroke-miterlimit="10" stroke-width="0.45"/><line x1="202.38" y1="133.16" x2="213.01" y2="133.16" fill="none" stroke="#18327c" stroke-linecap="round" stroke-miterlimit="10" stroke-width="0.45"/><line x1="218.07" y1="145.31" x2="227.69" y2="145.31" fill="none" stroke="#18327c" stroke-linecap="round" stroke-miterlimit="10" stroke-width="0.45"/><line x1="220.6" y1="149.36" x2="233.26" y2="149.36" fill="none" stroke="#18327c" stroke-linecap="round" stroke-miterlimit="10" stroke-width="0.45"/><line x1="218.58" y1="131.13" x2="224.66" y2="131.13" fill="none" stroke="#18327c" stroke-linecap="round" stroke-miterlimit="10" stroke-width="0.45"/><line x1="218.58" y1="133.16" x2="227.69" y2="133.16" fill="none" stroke="#18327c" stroke-linecap="round" stroke-miterlimit="10" stroke-width="0.45"/><path d="M810.67,287.13a5,5,0,0,1,.36-6.49" transform="translate(-631.71 -99.12)" fill="none" stroke="#18327c" stroke-linecap="round" stroke-miterlimit="10" stroke-width="0.53"/><circle cx="511.58" cy="56.33" r="10.55" fill="#fff"/><rect x="186.22" y="157.61" width="58.9" height="4.15" rx="1.99" fill="#7653ad"/><circle cx="165.67" cy="148.6" r="4.56" fill="#fff"/><circle cx="229.21" cy="190.37" r="2.28" fill="#fff"/><circle cx="210.73" cy="112.65" r="2.03" fill="#fff"/><rect x="155.31" y="192.08" width="58.9" height="4.15" rx="1.99" fill="#7653ad"/><rect x="192.27" y="218.41" width="58.9" height="4.15" rx="1.99" fill="#7653ad"/><line x1="103.89" y1="207.34" x2="176.05" y2="207.59" fill="none" stroke="#fff" stroke-linecap="round" stroke-miterlimit="10" stroke-width="2.53"/><rect x="203.14" y="213.92" width="41.01" height="4.56" fill="none" stroke="#18327c" stroke-miterlimit="10" stroke-width="0.53"/><line x1="112.5" y1="282.39" x2="217.82" y2="282.39" fill="none" stroke="#fff" stroke-linecap="round" stroke-miterlimit="10" stroke-width="2.61"/><polygon points="237.82 213.83 204.77 213.83 204.77 210.15 236.81 210.15 237.82 213.83" fill="none" stroke="#18327c" stroke-miterlimit="10" stroke-width="0.53"/><polygon points="230.74 209.84 208.2 209.84 208.2 207.34 230.05 207.34 230.74 209.84" fill="none" stroke="#18327c" stroke-miterlimit="10" stroke-width="0.53"/><path d="M897.43,319.63a2.94,2.94,0,0,0-2.91,3.45c1.5,8.5,6.86,14.79,13.24,14.79s11.74-6.29,13.24-14.79a2.94,2.94,0,0,0-2.91-3.45Z" transform="translate(-631.71 -99.12)" fill="#fff"/><path d="M895.21,336.41a29,29,0,0,0,5.59,4.48h14.07q.55-.42,1.17-.84c1.26-1.23,2.59-2.42,3.87-3.64Z" transform="translate(-631.71 -99.12)" fill="#fff"/><ellipse cx="896.96" cy="328.9" rx="3.66" ry="5.41" transform="matrix(0.54, -0.84, 0.84, 0.54, -499.34, 802.59)" fill="none" stroke="#fff" stroke-miterlimit="10" stroke-width="1.4"/><path d="M902.45,274.77a9,9,0,0,1,.39,5.26,27,27,0,0,1-1.72,5.06" transform="translate(-631.71 -99.12)" fill="none" stroke="#fff" stroke-linecap="round" stroke-miterlimit="10" stroke-width="1.01"/><path d="M899.8,289.75a17.09,17.09,0,0,0-1.32,5.94" transform="translate(-631.71 -99.12)" fill="none" stroke="#fff" stroke-linecap="round" stroke-miterlimit="10" stroke-width="1.01"/><path d="M898.62,299.52a12.46,12.46,0,0,0,1.13,4.27" transform="translate(-631.71 -99.12)" fill="none" stroke="#fff" stroke-linecap="round" stroke-miterlimit="10" stroke-width="1.01"/><path d="M900.91,306.45a9.17,9.17,0,0,0,1.75,2.35" transform="translate(-631.71 -99.12)" fill="none" stroke="#fff" stroke-linecap="round" stroke-miterlimit="10" stroke-width="1.01"/><path d="M902.3,262.59c1.88,1.65,2.79,4.12,3.62,6.49" transform="translate(-631.71 -99.12)" fill="none" stroke="#fff" stroke-linecap="round" stroke-miterlimit="10" stroke-width="1.01"/><path d="M907.58,275.08c.07,6.14-1.88,12.11-3.81,17.94" transform="translate(-631.71 -99.12)" fill="none" stroke="#fff" stroke-linecap="round" stroke-miterlimit="10" stroke-width="1.01"/><path d="M903.52,297a12,12,0,0,0,.89,5.1" transform="translate(-631.71 -99.12)" fill="none" stroke="#fff" stroke-linecap="round" stroke-miterlimit="10" stroke-width="1.01"/><path d="M905.45,306a15.92,15.92,0,0,0,2.87,4.08" transform="translate(-631.71 -99.12)" fill="none" stroke="#fff" stroke-linecap="round" stroke-miterlimit="10" stroke-width="1.01"/><path d="M909.21,313.37a7.56,7.56,0,0,1-.35,3.37" transform="translate(-631.71 -99.12)" fill="none" stroke="#fff" stroke-linecap="round" stroke-miterlimit="10" stroke-width="1.01"/><path d="M910.62,286a33.32,33.32,0,0,1-1.22,5.11" transform="translate(-631.71 -99.12)" fill="none" stroke="#fff" stroke-linecap="round" stroke-miterlimit="10" stroke-width="1.01"/><path d="M908.19,298.3a14.44,14.44,0,0,0,.72,4.74" transform="translate(-631.71 -99.12)" fill="none" stroke="#fff" stroke-linecap="round" stroke-miterlimit="10" stroke-width="1.01"/><path d="M1091.82,369.75H1082c-2.5-3.11-4.9-19.31-.8-24.3h10.16a3.29,3.29,0,0,0,0-6.58H900.09a19.18,19.18,0,0,0-19.17,19.19h0a19.19,19.19,0,0,0,19.17,19.2h186.6a6.14,6.14,0,0,0-.72-1.94h5.85a2.79,2.79,0,0,0,0-5.57Z" transform="translate(-631.71 -99.12)" fill="#ea3b5d"/><ellipse cx="373.01" cy="259.24" rx="7.34" ry="4.3" fill="#b3e1ff"/><ellipse cx="372.78" cy="259.37" rx="11.46" ry="6.72" fill="none" stroke="#b3e1ff" stroke-miterlimit="10" stroke-width="1.01"/><ellipse cx="352.76" cy="259.74" rx="2.78" ry="1.77" fill="#b3e1ff"/><ellipse cx="342.63" cy="259.74" rx="2.78" ry="1.77" fill="#b3e1ff"/><path d="M910.55,338.8s-11.9,3.15-11.9,18.39c0,8.93,4.92,18.39,12.72,18.39" transform="translate(-631.71 -99.12)" fill="none" stroke="#b3e1ff" stroke-miterlimit="10" stroke-width="1.01"/><path d="M922.13,338.36s-11.9,3.15-11.9,18.39c0,8.93,4.92,18.39,12.72,18.39" transform="translate(-631.71 -99.12)" fill="none" stroke="#b3e1ff" stroke-miterlimit="10" stroke-width="1.01"/><path d="M1037.62,340s-8.34,3-8.34,17.72c0,8.61,3.45,17.72,8.92,17.72" transform="translate(-631.71 -99.12)" fill="none" stroke="#ffd150" stroke-miterlimit="10" stroke-width="0.38"/><path d="M1048.2,339.51s-8.79,3-8.79,17.72c0,8.61,3.64,17.73,9.4,17.73" transform="translate(-631.71 -99.12)" fill="none" stroke="#0b132d" stroke-linecap="round" stroke-linejoin="round" stroke-width="0.4"/><path d="M1108.63,375.09H876.69c-1.12,0-4.12.23-4.12.23-3.78,0-6.84,2.05-6.84,5.83h0c0,3.77,3.06,5.82,6.84,5.82l2.28.51a86,86,0,0,1,2.91,10.38,90,90,0,0,1,1.89,13.92H869c-2.37,0-4.3,3.45-4.3,5.82h0a4.31,4.31,0,0,0,4.3,4.31h10.63l0,.5h229a23.66,23.66,0,0,0,23.67-23.66h0A23.66,23.66,0,0,0,1108.63,375.09Z" transform="translate(-631.71 -99.12)" fill="#71519f"/><path d="M1043.63,375.07h-14.29v.22a23.66,23.66,0,0,1,21.36,23.55h0a23.66,23.66,0,0,1-21.51,23.56h14.44a23.66,23.66,0,0,0,23.66-23.66h0A23.66,23.66,0,0,0,1043.63,375.07Z" transform="translate(-631.71 -99.12)" fill="#b3e1ff"/><path d="M1094.12,375.11h-14.28v.22a23.66,23.66,0,0,1,21.36,23.55h0a23.66,23.66,0,0,1-21.52,23.56h14.44a23.66,23.66,0,0,0,23.67-23.66h0A23.67,23.67,0,0,0,1094.12,375.11Z" transform="translate(-631.71 -99.12)" fill="#b3e1ff"/><path d="M1006.24,375.07S1029,377.6,1029,396.84c0,12.16-9.11,24.81-28.86,24.81" transform="translate(-631.71 -99.12)" fill="none" stroke="#0b132d" stroke-linecap="round" stroke-linejoin="round" stroke-width="0.52"/><path d="M1064.83,375.4s22.78,2.54,22.78,21.78c0,12.15-9.11,24.81-28.86,24.81" transform="translate(-631.71 -99.12)" fill="none" stroke="#0b132d" stroke-linecap="round" stroke-linejoin="round" stroke-width="0.52"/><path d="M1104.73,375.24s22.78,2.53,22.78,21.78c0,12.15-9.11,24.81-28.86,24.81" transform="translate(-631.71 -99.12)" fill="none" stroke="#0b132d" stroke-linecap="round" stroke-linejoin="round" stroke-width="0.52"/><path d="M993.93,387H872.49c.5,8.36.2,17-2.46,24.81h123.9a12.49,12.49,0,0,0,12.57-12.41h0A12.49,12.49,0,0,0,993.93,387Z" transform="translate(-631.71 -99.12)" fill="#def8ff"/><path d="M1049.46,345.45h38.44a192.28,192.28,0,0,0,.78,24.3h-39.22c-2.19,0-4-5.44-4-12.15h0C1045.49,350.89,1047.27,345.45,1049.46,345.45Z" transform="translate(-631.71 -99.12)" fill="#def8ff"/><line x1="240.61" y1="295.44" x2="276.05" y2="295.44" fill="none" stroke="#222854" stroke-linecap="round" stroke-miterlimit="10" stroke-width="0.49"/><line x1="284.91" y1="295.19" x2="298.08" y2="295.19" fill="none" stroke="#222854" stroke-linecap="round" stroke-miterlimit="10" stroke-width="0.49"/><line x1="306.68" y1="295.19" x2="333.52" y2="295.19" fill="none" stroke="#222854" stroke-linecap="round" stroke-miterlimit="10" stroke-width="0.49"/><line x1="341.11" y1="295.19" x2="353.27" y2="295.19" fill="none" stroke="#222854" stroke-linecap="round" stroke-miterlimit="10" stroke-width="0.49"/><line x1="360.86" y1="295.19" x2="374.53" y2="295.19" fill="none" stroke="#222854" stroke-linecap="round" stroke-miterlimit="10" stroke-width="0.49"/><line x1="240.86" y1="301.26" x2="248.96" y2="301.26" fill="none" stroke="#222854" stroke-linecap="round" stroke-miterlimit="10" stroke-width="0.49"/><line x1="255.54" y1="301.26" x2="288.96" y2="301.26" fill="none" stroke="#222854" stroke-linecap="round" stroke-miterlimit="10" stroke-width="0.49"/><line x1="292" y1="301.26" x2="305.16" y2="301.26" fill="none" stroke="#222854" stroke-linecap="round" stroke-miterlimit="10" stroke-width="0.49"/><line x1="309.21" y1="301.26" x2="345.17" y2="301.26" fill="none" stroke="#222854" stroke-linecap="round" stroke-miterlimit="10" stroke-width="0.49"/><line x1="350.23" y1="301.26" x2="374.53" y2="301.26" fill="none" stroke="#222854" stroke-linecap="round" stroke-miterlimit="10" stroke-width="0.49"/><line x1="239.85" y1="307.85" x2="272.25" y2="307.85" fill="none" stroke="#222854" stroke-linecap="round" stroke-miterlimit="10" stroke-width="0.49"/><line x1="279.34" y1="307.85" x2="303.65" y2="307.85" fill="none" stroke="#222854" stroke-linecap="round" stroke-miterlimit="10" stroke-width="0.49"/><line x1="310.73" y1="307.85" x2="372" y2="307.85" fill="none" stroke="#222854" stroke-linecap="round" stroke-miterlimit="10" stroke-width="0.49"/><line x1="419.09" y1="266.83" x2="430.57" y2="266.83" fill="none" stroke="#0b132d" stroke-linecap="round" stroke-linejoin="round" stroke-width="0.52"/><line x1="438.22" y1="266.83" x2="445.52" y2="266.83" fill="none" stroke="#0b132d" stroke-linecap="round" stroke-linejoin="round" stroke-width="0.52"/><line x1="416.05" y1="261.26" x2="428.35" y2="261.26" fill="none" stroke="#0b132d" stroke-linecap="round" stroke-linejoin="round" stroke-width="0.52"/><line x1="432.76" y1="261.26" x2="446.94" y2="261.26" fill="none" stroke="#0b132d" stroke-linecap="round" stroke-linejoin="round" stroke-width="0.52"/><line x1="449.98" y1="261.26" x2="456.56" y2="261.26" fill="none" stroke="#0b132d" stroke-linecap="round" stroke-linejoin="round" stroke-width="0.52"/><line x1="447.95" y1="266.83" x2="456.56" y2="266.83" fill="none" stroke="#0b132d" stroke-linecap="round" stroke-linejoin="round" stroke-width="0.52"/><line x1="456.56" y1="258.22" x2="443.4" y2="258.22" fill="none" stroke="#0b132d" stroke-linecap="round" stroke-linejoin="round" stroke-width="0.52"/><line x1="440.86" y1="258.22" x2="436.81" y2="258.22" fill="none" stroke="#0b132d" stroke-linecap="round" stroke-linejoin="round" stroke-width="0.52"/><line x1="435.29" y1="258.22" x2="415.55" y2="258.22" fill="none" stroke="#0b132d" stroke-linecap="round" stroke-linejoin="round" stroke-width="0.52"/><line x1="416.56" y1="254.68" x2="423.65" y2="254.68" fill="none" stroke="#0b132d" stroke-linecap="round" stroke-linejoin="round" stroke-width="0.52"/><line x1="426.18" y1="254.68" x2="438.33" y2="254.68" fill="none" stroke="#0b132d" stroke-linecap="round" stroke-linejoin="round" stroke-width="0.52"/><line x1="439.85" y1="254.68" x2="453.02" y2="254.68" fill="none" stroke="#0b132d" stroke-linecap="round" stroke-linejoin="round" stroke-width="0.52"/><line x1="454.54" y1="254.68" x2="456.06" y2="254.68" fill="none" stroke="#0b132d" stroke-linecap="round" stroke-linejoin="round" stroke-width="0.52"/><line x1="456.06" y1="251.64" x2="440.86" y2="251.64" fill="none" stroke="#0b132d" stroke-linecap="round" stroke-linejoin="round" stroke-width="0.52"/><line x1="438.84" y1="251.64" x2="429.22" y2="251.64" fill="none" stroke="#0b132d" stroke-linecap="round" stroke-linejoin="round" stroke-width="0.52"/><line x1="427.19" y1="251.64" x2="417.07" y2="251.64" fill="none" stroke="#0b132d" stroke-linecap="round" stroke-linejoin="round" stroke-width="0.52"/><line x1="422.64" y1="249.11" x2="432.76" y2="249.11" fill="none" stroke="#0b132d" stroke-linecap="round" stroke-linejoin="round" stroke-width="0.52"/><line x1="436.31" y1="249.11" x2="449.98" y2="249.11" fill="none" stroke="#0b132d" stroke-linecap="round" stroke-linejoin="round" stroke-width="0.52"/><path d="M1078,261.84c-16.33-37.41-40.64-48-40.64-48v.06a16.74,16.74,0,0,0-5.4-1.93c-11.4-2.07-16.87-2.89-22.28-2.72-4.65.14-16.34.51-21.79.31-8.25-.31-25.81,2.54-30.76,7.48,0,0-24.07,15.53-37.24,46.42-8.89,20.87,1.46,27.86,38.48,29.37a51.22,51.22,0,0,0,7.58-.25c.4,2.12.71,3.88.92,5.14,3.9,23,56.87,23.11,62.36.78.62-2.51,1.26-5,1.92-7.59a51.19,51.19,0,0,0,8.36.34C1076.56,289.7,1087.09,282.63,1078,261.84Z" transform="translate(-631.71 -99.12)" fill="#71519f"/><path d="M1014,208.79l-4.72-26.57-21,3.67-2.9,23.2a67.93,67.93,0,0,0-8.55,1.46c.76,6.83,10.29,12.22,21.94,12.22,12,0,21.81-5.76,22-12.9C1018.39,209.39,1016,209.13,1014,208.79Z" transform="translate(-631.71 -99.12)" fill="#fca575"/><path d="M1003.66,202.29a47.33,47.33,0,0,0,7.52-8.82l-2-11.22-21,3.66-2.8,22.46C991.66,209.53,998.5,206.88,1003.66,202.29Z" transform="translate(-631.71 -99.12)" fill="#24375b"/><path d="M972.71,211s5.07,13.66,20.12,15.46,25.06-1.77,33.16-15.45" transform="translate(-631.71 -99.12)" fill="none" stroke="#fff" stroke-linecap="round" stroke-miterlimit="10" stroke-width="0.51"/><line x1="367.32" y1="127.79" x2="368.06" y2="141.63" fill="none" stroke="#fff" stroke-linecap="round" stroke-miterlimit="10" stroke-width="0.51"/><circle cx="372.51" cy="132.14" r="1.77" fill="#fff"/><circle cx="372.51" cy="139.74" r="1.77" fill="#fff"/><path d="M940,258.36s4.08,2.63,16.29,8.4,18,6.34,18,6.34" transform="translate(-631.71 -99.12)" fill="none" stroke="#0b132d" stroke-linecap="round" stroke-linejoin="round" stroke-width="0.52"/><path d="M956.07,236.08s.52,8.14,4.6,14.43a35.65,35.65,0,0,1,4.87,13.9" transform="translate(-631.71 -99.12)" fill="none" stroke="#0b132d" stroke-linecap="round" stroke-linejoin="round" stroke-width="0.52"/><path d="M1057.91,256.78s-4.08,2.63-16.29,8.4-18,6.34-18,6.34" transform="translate(-631.71 -99.12)" fill="none" stroke="#0b132d" stroke-linecap="round" stroke-linejoin="round" stroke-width="0.52"/><path d="M1041.86,234.5s-.52,8.14-4.6,14.43a35.65,35.65,0,0,0-4.87,13.9" transform="translate(-631.71 -99.12)" fill="none" stroke="#0b132d" stroke-linecap="round" stroke-linejoin="round" stroke-width="0.52"/><path d="M1020.14,172.2c-1.78-.66-3.82,0-5.52,1.61-1.81-10.05-8.5-17.52-16.48-17.52s-14.81,7.63-16.53,17.85c-1.7-1.58-3.74-2.27-5.52-1.61-3,1.1-4.07,5.47-2.47,9.78s5.29,6.9,8.25,5.81a4.24,4.24,0,0,0,1-.55c3.47,8.56,11.42,14.6,15.27,14.67,4.79.09,12.33-6.12,15.49-14.82a4.54,4.54,0,0,0,.73.37c3,1.1,6.65-1.5,8.25-5.81S1023.1,173.3,1020.14,172.2Z" transform="translate(-631.71 -99.12)" fill="#fca575"/><path d="M992.83,191c0,1.59,2.52,2.87,5.56,2.87s5.51-1.28,5.57-2.87c0,0-1.51.75-6.07.75A15.89,15.89,0,0,1,992.83,191Z" transform="translate(-631.71 -99.12)" fill="#fff"/><line x1="364.91" y1="97.62" x2="367.7" y2="97.46" fill="none" stroke="#0b132d" stroke-linecap="round" stroke-linejoin="round" stroke-width="0.43"/><path d="M1015.08,152.17c-4.92-4.66-9.9-5.6-17.19-5.71-15.54-.24-24.24,7.23-21.27,20.76,1.21,5.48,5.26,13.13,5.26,13.13-.3.53-.39-8.81,2-13,3.29.5,6.9.26,11.89-.8A38.14,38.14,0,0,0,1008,162c1.21.08,2.31,1.59,3.25,2.92,2.14,3,3.42,17.19,3.42,17.19s4.27-10.92,4.51-14.86C1019.59,160,1018.14,155.06,1015.08,152.17Z" transform="translate(-631.71 -99.12)" fill="#24375b"/><path d="M1011.31,159.37a37.37,37.37,0,0,1-17.22,9.11A103,103,0,0,1,980.42,170" transform="translate(-631.71 -99.12)" fill="none" stroke="#24375b" stroke-miterlimit="10" stroke-width="0.51"/><path d="M985,174.05a7.73,7.73,0,0,1,4.2-2.67,10,10,0,0,1,3.77,0" transform="translate(-631.71 -99.12)" fill="none" stroke="#24375b" stroke-linecap="round" stroke-miterlimit="10" stroke-width="2.03"/><path d="M1009.37,172a7.73,7.73,0,0,0-4.19-2.67,10.09,10.09,0,0,0-3.78,0" transform="translate(-631.71 -99.12)" fill="none" stroke="#24375b" stroke-linecap="round" stroke-miterlimit="10" stroke-width="2.03"/><path d="M975.86,162.41s7.6,3.54,19.75,0a127.56,127.56,0,0,0,21.19-8.14" transform="translate(-631.71 -99.12)" fill="none" stroke="#fff" stroke-miterlimit="10" stroke-width="0.38"/><path d="M977.61,155.27s8.42,4.25,17,3.08a70.25,70.25,0,0,0,20.48-6.18" transform="translate(-631.71 -99.12)" fill="none" stroke="#fff" stroke-miterlimit="10" stroke-width="0.38"/><path d="M996.24,175s.65,5.94-.21,8.71-1.43,4.54-1.43,4.54l3,.51" transform="translate(-631.71 -99.12)" fill="none" stroke="#0b132d" stroke-linecap="round" stroke-linejoin="round" stroke-width="0.43"/><ellipse cx="358.22" cy="80.26" rx="1.26" ry="1.92" fill="#0b132d"/><ellipse cx="373.89" cy="79.85" rx="1.26" ry="1.92" fill="#0b132d"/><path d="M987.61,177.83a2.07,2.07,0,0,1,1.92-1.25,2.28,2.28,0,0,1,2.16,1.19" transform="translate(-631.71 -99.12)" fill="none" stroke="#0b132d" stroke-linecap="round" stroke-miterlimit="10" stroke-width="0.43"/><path d="M1007.64,177.43a2.08,2.08,0,0,0-1.93-1.25,2.28,2.28,0,0,0-2.16,1.19" transform="translate(-631.71 -99.12)" fill="none" stroke="#0b132d" stroke-linecap="round" stroke-miterlimit="10" stroke-width="0.43"/><circle cx="357.31" cy="79.98" r="6.59" fill="none" stroke="#0b132d" stroke-miterlimit="10" stroke-width="0.51"/><circle cx="374.03" cy="80.14" r="6.59" fill="none" stroke="#0b132d" stroke-miterlimit="10" stroke-width="0.51"/><path d="M995.61,178.1a2.37,2.37,0,0,1,1.8-.5,3.14,3.14,0,0,1,1.81.57" transform="translate(-631.71 -99.12)" fill="none" stroke="#0b132d" stroke-linecap="round" stroke-miterlimit="10" stroke-width="0.51"/><path d="M923,182.44c9.36.44,15.43.46,15.43.46" transform="translate(-631.71 -99.12)" fill="none" stroke="#18327c" stroke-linecap="round" stroke-miterlimit="10" stroke-width="1.01"/><path d="M893.47,179.53c5.83.74,11.09,1.33,15.84,1.78" transform="translate(-631.71 -99.12)" fill="none" stroke="#18327c" stroke-linecap="round" stroke-miterlimit="10" stroke-width="1.01"/><path d="M849.38,174.88a155.91,155.91,0,0,1,22.94,1.7" transform="translate(-631.71 -99.12)" fill="none" stroke="#18327c" stroke-linecap="round" stroke-miterlimit="10" stroke-width="1.01"/><path d="M801.32,181.66a177.94,177.94,0,0,1,31.5-6" transform="translate(-631.71 -99.12)" fill="none" stroke="#18327c" stroke-linecap="round" stroke-miterlimit="10" stroke-width="1.01"/><path d="M777.07,190.53c3.19-1.45,6.47-2.82,9.81-4.09" transform="translate(-631.71 -99.12)" fill="none" stroke="#18327c" stroke-linecap="round" stroke-miterlimit="10" stroke-width="1.01"/><path d="M751.41,206.37a108.87,108.87,0,0,1,15.81-10.93" transform="translate(-631.71 -99.12)" fill="none" stroke="#18327c" stroke-linecap="round" stroke-miterlimit="10" stroke-width="1.01"/><path d="M735.53,221.61c1.36-1.51,2.81-3.05,4.33-4.61" transform="translate(-631.71 -99.12)" fill="none" stroke="#18327c" stroke-linecap="round" stroke-miterlimit="10" stroke-width="1.01"/><path d="M728.4,230c.65-.82,1.33-1.66,2.06-2.54" transform="translate(-631.71 -99.12)" fill="none" stroke="#18327c" stroke-linecap="round" stroke-miterlimit="10" stroke-width="1.01"/><path d="M720.92,240.25s.57-.9,1.67-2.47" transform="translate(-631.71 -99.12)" fill="none" stroke="#18327c" stroke-linecap="round" stroke-miterlimit="10" stroke-width="1.01"/><path d="M838.76,156.82a137.43,137.43,0,0,1,19.65,1.41" transform="translate(-631.71 -99.12)" fill="none" stroke="#18327c" stroke-linecap="round" stroke-miterlimit="10" stroke-width="1.01"/><path d="M797.6,162.44a156.1,156.1,0,0,1,27-4.95" transform="translate(-631.71 -99.12)" fill="none" stroke="#18327c" stroke-linecap="round" stroke-miterlimit="10" stroke-width="1.01"/><path d="M776.82,169.79c2.74-1.21,5.55-2.34,8.41-3.39" transform="translate(-631.71 -99.12)" fill="none" stroke="#18327c" stroke-linecap="round" stroke-miterlimit="10" stroke-width="1.01"/><path d="M754.84,182.91a93.72,93.72,0,0,1,13.55-9" transform="translate(-631.71 -99.12)" fill="none" stroke="#18327c" stroke-linecap="round" stroke-miterlimit="10" stroke-width="1.01"/><path d="M1175.77,421.28q-2.28,1.29-4.6,2.49" transform="translate(-631.71 -99.12)" fill="none" stroke="#18327c" stroke-linecap="round" stroke-miterlimit="10" stroke-width="1.01"/><path d="M1188,413.48c-2.25,1.6-4.54,3.15-6.88,4.62" transform="translate(-631.71 -99.12)" fill="none" stroke="#18327c" stroke-linecap="round" stroke-miterlimit="10" stroke-width="1.01"/><path d="M1218.76,389.4a158.51,158.51,0,0,1-20.8,17.88" transform="translate(-631.71 -99.12)" fill="none" stroke="#18327c" stroke-linecap="round" stroke-miterlimit="10" stroke-width="1.01"/><path d="M1233.1,374.8q-3,3.38-6.18,6.63" transform="translate(-631.71 -99.12)" fill="none" stroke="#18327c" stroke-linecap="round" stroke-miterlimit="10" stroke-width="1.01"/><path d="M1242.22,361.87c-1.17,1.91-2.43,3.79-3.76,5.62" transform="translate(-631.71 -99.12)" fill="none" stroke="#18327c" stroke-linecap="round" stroke-miterlimit="10" stroke-width="1.01"/><path d="M1246.82,353.51c-.63,1.28-1.3,2.57-2,3.85" transform="translate(-631.71 -99.12)" fill="none" stroke="#18327c" stroke-linecap="round" stroke-miterlimit="10" stroke-width="1.01"/><path d="M1225.79,403.17q-4.92,5.08-10.33,9.75" transform="translate(-631.71 -99.12)" fill="none" stroke="#18327c" stroke-linecap="round" stroke-miterlimit="10" stroke-width="1.01"/><path d="M1234.61,393.28c-1.53,1.86-3.11,3.71-4.74,5.52" transform="translate(-631.71 -99.12)" fill="none" stroke="#18327c" stroke-linecap="round" stroke-miterlimit="10" stroke-width="1.01"/><path d="M1197.78,426.47q-4.26,2.68-8.71,5.11" transform="translate(-631.71 -99.12)" fill="none" stroke="#18327c" stroke-linecap="round" stroke-miterlimit="10" stroke-width="1.01"/><path d="M1211.93,416.42q-3.57,2.85-7.34,5.5" transform="translate(-631.71 -99.12)" fill="none" stroke="#18327c" stroke-linecap="round" stroke-miterlimit="10" stroke-width="1.01"/><path d="M984.83,134v15.32a38.68,38.68,0,0,0,10.56,1.15,78.61,78.61,0,0,0,14.85-1.82V134Z" transform="translate(-631.71 -99.12)" fill="#14143a"/><rect x="334.79" y="31.79" width="61.4" height="3.55" rx="1.7" fill="#14143a"/><line x1="352.76" y1="35.43" x2="378.84" y2="35.43" fill="none" stroke="#fff" stroke-miterlimit="10" stroke-width="0.42"/><polygon points="341.87 58.98 339.34 56.45 337.16 58.98 337.16 35.12 341.87 35.12 341.87 58.98" fill="#71519f"/><path d="M232.36,322.8H413.71a0,0,0,0,1,0,0v80.49a0,0,0,0,1,0,0H232.36a38.53,38.53,0,0,1-38.53-38.53v-3.43a38.53,38.53,0,0,1,38.53-38.53Z" fill="#ea3b5d"/><path d="M851.57,466.41V458a36,36,0,0,1,32.1-35.8h19.88c.72-.06,1.45-.09,2.18-.1H871.11A36,36,0,0,0,839,457.86v8.44a36,36,0,0,0,36,36h9.9A36,36,0,0,1,851.57,466.41Z" transform="translate(-631.71 -99.12)" fill="#b3e1ff"/><path d="M888.42,466.45V458a36,36,0,0,1,32.1-35.81H940.4c.72-.05,1.45-.09,2.18-.09v0H908a36,36,0,0,0-32.11,35.81v8.45a36,36,0,0,0,36,36h9.91A36,36,0,0,1,888.42,466.45Z" transform="translate(-631.71 -99.12)" fill="#b3e1ff"/><path d="M909.2,466.15v-8.44a36,36,0,0,1,32.1-35.81h19.88c.72,0,1.45-.09,2.19-.1H928.74a36,36,0,0,0-32.11,35.81V466a36,36,0,0,0,36,36h9.91A36,36,0,0,1,909.2,466.15Z" transform="translate(-631.71 -99.12)" fill="none" stroke="#b3e1ff" stroke-miterlimit="10" stroke-width="1.01"/><path d="M869.56,466.43V458a36,36,0,0,1,32.11-35.81h19.87c.73-.05,1.45-.09,2.19-.1H889.1A36,36,0,0,0,857,457.88v8.45a36,36,0,0,0,36,36h9.91A36,36,0,0,1,869.56,466.43Z" transform="translate(-631.71 -99.12)" fill="none" stroke="#b3e1ff" stroke-linecap="round" stroke-linejoin="round" stroke-width="1.01"/><path d="M1120.27,450c.26-5.15,1.08-10.34,3.51-14.8h25.45a6.63,6.63,0,0,0,0-13.26H959.42a38.66,38.66,0,0,0-38.66,38.66v.2a41.63,41.63,0,0,0,41.63,41.64H1147.1a6.63,6.63,0,1,0,0-13.25h-22.46a33.26,33.26,0,0,1-1.71-4.24c-1.94-4.63-3.41-9.59-3.18-14.41,0-.19-.09-.37-.12-.55-.78-3.94-1.42-8.84-.25-13A38.53,38.53,0,0,1,1120.27,450Z" transform="translate(-631.71 -99.12)" fill="#14143a"/><path d="M1135.81,458.1c.12-7.69,1-15.78,3.82-23H963.4c-15.35,0-27.8,12.13-27.8,27.09h0c0,15,12.45,27.09,27.8,27.09h175.37C1136.12,479.14,1135.66,468.51,1135.81,458.1Z" transform="translate(-631.71 -99.12)" fill="#def8ff"/><path d="M1124,443.67" transform="translate(-631.71 -99.12)" fill="none" stroke="#222854" stroke-miterlimit="10" stroke-width="0.49"/><path d="M940.76,446.23" transform="translate(-631.71 -99.12)" fill="none" stroke="#222854" stroke-miterlimit="10" stroke-width="0.49"/><line x1="323.39" y1="382.28" x2="368.46" y2="382.28" fill="none" stroke="#222854" stroke-miterlimit="10" stroke-width="0.48"/><line x1="381.12" y1="382.28" x2="391.75" y2="382.28" fill="none" stroke="#222854" stroke-miterlimit="10" stroke-width="0.48"/><line x1="405.42" y1="382.28" x2="449.98" y2="382.28" fill="none" stroke="#222854" stroke-miterlimit="10" stroke-width="0.48"/><line x1="464.66" y1="382.28" x2="492.51" y2="382.28" fill="none" stroke="#222854" stroke-miterlimit="10" stroke-width="0.48"/><line x1="310.73" y1="370.63" x2="346.18" y2="370.63" fill="none" stroke="#222854" stroke-miterlimit="10" stroke-width="0.49"/><line x1="356.31" y1="370.63" x2="435.29" y2="370.63" fill="none" stroke="#222854" stroke-miterlimit="10" stroke-width="0.49"/><line x1="441.88" y1="370.63" x2="504.16" y2="370.63" fill="none" stroke="#222854" stroke-miterlimit="10" stroke-width="0.49"/><line x1="305.42" y1="361.52" x2="397.32" y2="361.52" fill="none" stroke="#222854" stroke-miterlimit="10" stroke-width="0.49"/><line x1="403.9" y1="361.52" x2="419.09" y2="361.52" fill="none" stroke="#222854" stroke-miterlimit="10" stroke-width="0.49"/><line x1="425.17" y1="361.52" x2="473.27" y2="361.52" fill="none" stroke="#222854" stroke-miterlimit="10" stroke-width="0.49"/><line x1="479.85" y1="361.52" x2="504.16" y2="361.52" fill="none" stroke="#222854" stroke-miterlimit="10" stroke-width="0.49"/><line x1="309.21" y1="351.39" x2="346.18" y2="351.39" fill="none" stroke="#222854" stroke-miterlimit="10" stroke-width="0.49"/><line x1="353.27" y1="351.39" x2="406.94" y2="351.39" fill="none" stroke="#222854" stroke-miterlimit="10" stroke-width="0.49"/><line x1="411.5" y1="351.39" x2="452" y2="351.39" fill="none" stroke="#222854" stroke-miterlimit="10" stroke-width="0.49"/><line x1="457.07" y1="351.39" x2="481.37" y2="351.39" fill="none" stroke="#222854" stroke-miterlimit="10" stroke-width="0.49"/><line x1="487.45" y1="351.39" x2="504.16" y2="351.39" fill="none" stroke="#222854" stroke-miterlimit="10" stroke-width="0.49"/><line x1="320.35" y1="343.29" x2="389.22" y2="343.29" fill="none" stroke="#222854" stroke-linecap="round" stroke-miterlimit="10" stroke-width="0.49"/><line x1="394.79" y1="343.29" x2="426.69" y2="343.29" fill="none" stroke="#222854" stroke-miterlimit="10" stroke-width="0.49"/><line x1="431.75" y1="343.29" x2="505.17" y2="343.29" fill="none" stroke="#222854" stroke-miterlimit="10" stroke-width="0.49"/><path d="M921.68,316.34s22.29,21.2,31.54,26.76S990,340.19,990,340.19s-3.14-25.25-21.71-26.14S921.68,316.34,921.68,316.34Z" transform="translate(-631.71 -99.12)" fill="#fff"/><path d="M1063.21,325.2s-6.08,6.58-27,13.33c-9.59,3.09-36.81-2.09-36.81-2.09s3.14-18.06,21.7-18.69S1063.21,325.2,1063.21,325.2Z" transform="translate(-631.71 -99.12)" fill="#fff"/><ellipse cx="1059.58" cy="344.86" rx="9.49" ry="20.03" transform="translate(-461.59 916.93) rotate(-55.07)" fill="#212035"/><line x1="421.44" y1="241.15" x2="419.23" y2="245.45" fill="none" stroke="#fff" stroke-linecap="round" stroke-miterlimit="10" stroke-width="0.75"/><line x1="425.83" y1="242.81" x2="423.08" y2="247.35" fill="none" stroke="#fff" stroke-linecap="round" stroke-miterlimit="10" stroke-width="0.75"/><line x1="430.13" y1="244.95" x2="427.64" y2="248.92" fill="none" stroke="#fff" stroke-linecap="round" stroke-miterlimit="10" stroke-width="0.75"/><path d="M1048.85,330.12c-19.58-11.19-45.75-26.45-66.42-33.11-32.08-10.33-59.37-15.57-65.39,3.13s15.89,26.11,57.63,35.28c21.72,4.77,40.27,4.77,71,8.89C1048.9,340.46,1049.38,334.36,1048.85,330.12Z" transform="translate(-631.71 -99.12)" fill="#fff"/><rect x="326.68" y="201.26" width="82.53" height="6.08" rx="2.91" fill="#14143a"/><rect x="326.68" y="146.61" width="82.53" height="54.65" rx="8.18" fill="#14143a"/><path d="M958.14,254.39a5,5,0,0,1,5-5h72.52a5,5,0,0,1,5,5" transform="translate(-631.71 -99.12)" fill="none" stroke="#fff" stroke-miterlimit="10" stroke-width="0.51"/><path d="M962.44,340.62c3.72,8.37-14.41,15.77-24.37,19.28s-19.44,2.31-21.19-2.66,4.89-11.86,14.84-15.36S957.81,330.2,962.44,340.62Z" transform="translate(-631.71 -99.12)" fill="#212035"/><line x1="309.72" y1="245.37" x2="311.36" y2="249.91" fill="none" stroke="#fff" stroke-linecap="round" stroke-miterlimit="10" stroke-width="0.75"/><line x1="313.92" y1="243.29" x2="315.38" y2="248.39" fill="none" stroke="#fff" stroke-linecap="round" stroke-miterlimit="10" stroke-width="0.75"/><line x1="318.42" y1="241.6" x2="319.64" y2="246.12" fill="none" stroke="#fff" stroke-linecap="round" stroke-miterlimit="10" stroke-width="0.75"/><path d="M1068.46,306.8c-3.87-16.61-19.73-21.6-65.71-1.06-14.52,6.5-36.66,20-49.81,29.1-.53,1.59,1.7,11,5.28,15.92,26.49-5.3,43.11-7.43,59.37-10.57C1046.33,334.63,1073.76,329.59,1068.46,306.8Z" transform="translate(-631.71 -99.12)" fill="#fff"/><path d="M926.19,320.32s25.59,9.61,31.21,11.63" transform="translate(-631.71 -99.12)" fill="none" stroke="#212035" stroke-linecap="round" stroke-miterlimit="10" stroke-width="0.53"/><path d="M1011,301.24a275.28,275.28,0,0,0-24.91,13.25c-12.19,7.42-33.4,20.62-33.4,20.62" transform="translate(-631.71 -99.12)" fill="none" stroke="#212035" stroke-linecap="round" stroke-miterlimit="10" stroke-width="0.53"/><path d="M1049.65,333s-39.74,9.54-91.67,17.49" transform="translate(-631.71 -99.12)" fill="none" stroke="#212035" stroke-linecap="round" stroke-miterlimit="10" stroke-width="0.53"/><circle cx="367.11" cy="174.21" r="10.87" fill="none" stroke="#b3e1ff" stroke-miterlimit="10" stroke-width="1.01"/><path d="M975.51,176.18a4.57,4.57,0,0,1,3.08,2,20.32,20.32,0,0,1,2,4.69" transform="translate(-631.71 -99.12)" fill="none" stroke="#0b132d" stroke-linecap="round" stroke-linejoin="round" stroke-width="0.52"/><path d="M1020.72,175.86a4.54,4.54,0,0,0-3.08,2,20.32,20.32,0,0,0-2,4.69" transform="translate(-631.71 -99.12)" fill="none" stroke="#0b132d" stroke-linecap="round" stroke-linejoin="round" stroke-width="0.52"/><line x1="203.93" y1="584.77" x2="522.87" y2="584.77" fill="none" stroke="#4cc9f1" stroke-miterlimit="10" stroke-width="1.25"/><text transform="translate(160.99 615.3) scale(1.09 1)" font-size="20" fill="#17143f" font-family="Gilroy-Regular" style="isolation:isolate">O<tspan x="16.08" y="0" letter-spacing="-0.02em">v</tspan><tspan x="25.88" y="0">e</tspan><tspan x="37.56" y="0" letter-spacing="-0.03em">r</tspan><tspan x="43.24" y="0" letter-spacing="0em">c</tspan><tspan x="54.18" y="0">ome </tspan><tspan x="99.94" y="0" letter-spacing="-0.02em">y</tspan><tspan x="109.74" y="0">our </tspan><tspan x="144.3" y="0" letter-spacing="-0.03em">f</tspan><tspan x="150.1" y="0" letter-spacing="0em">ear </tspan><tspan x="185.78" y="0" letter-spacing="-0.02em">o</tspan><tspan x="197.5" y="0">f speaking Engli</tspan><tspan x="340.7" y="0" letter-spacing="-0.01em">s</tspan><tspan x="349.68" y="0">h!</tspan><tspan x="365.44" y="0" font-family="Gilroy-Light" font-weight="300"> </tspan></text><text transform="translate(275.45 648.03) scale(1.09 1)" font-size="20" fill="#17143f" font-family="Gilroy-Regular">Gain <tspan x="48.78" y="0" letter-spacing="0em">c</tspan><tspan x="59.72" y="0" letter-spacing="0em">onfiden</tspan><tspan x="128.88" y="0" letter-spacing="0em">c</tspan><tspan x="139.82" y="0" letter-spacing="0em">e! </tspan></text><text transform="translate(249.25 680.55) scale(1.09 1)" font-size="20" fill="#17143f" font-family="Gilroy-Regular"><tspan letter-spacing="-0.02em">L</tspan><tspan x="9.3" y="0" letter-spacing="0em">earn what </tspan><tspan x="107.92" y="0" font-family="Gilroy-Bold" font-weight="700" letter-spacing="-0.05em">Y</tspan><tspan x="119.32" y="0" font-family="Gilroy-Bold" font-weight="700" letter-spacing="-0.01em">O</tspan><tspan x="135.06" y="0" font-family="Gilroy-Bold" font-weight="700" letter-spacing="0em">U</tspan><tspan x="148.12" y="0"> </tspan><tspan x="153.12" y="0" letter-spacing="-0.02em">w</tspan><tspan x="168.12" y="0">ant! </tspan></text><line x1="309.79" y1="683.34" x2="364.13" y2="683.34" fill="none" stroke="#17143f" stroke-miterlimit="10"/><text transform="translate(154.72 746.22) scale(1.09 1)" font-size="20" fill="#17143f" font-family="Gilroy-Regular"><tspan letter-spacing="-0.01em">S</tspan><tspan x="11.22" y="0" letter-spacing="-0.03em">t</tspan><tspan x="18.12" y="0">op </tspan><tspan x="47.96" y="0" letter-spacing="-0.02em">w</tspan><tspan x="62.96" y="0" letter-spacing="0em">a</tspan><tspan x="75.68" y="0" letter-spacing="-0.02em">s</tspan><tspan x="84.36" y="0" letter-spacing="0em">ting </tspan><tspan x="124.86" y="0" letter-spacing="-0.02em">y</tspan><tspan x="134.66" y="0">our time on g</tspan><tspan x="255.48" y="0" letter-spacing="-0.03em">r</tspan><tspan x="261.16" y="0">oup cla</tspan><tspan x="330.04" y="0" letter-spacing="-0.03em">s</tspan><tspan x="338.52" y="0" letter-spacing="-0.02em">s</tspan><tspan x="347.3" y="0" letter-spacing="-0.02em">e</tspan><tspan x="358.58" y="0" xml:space="preserve">s!  </tspan></text><text transform="translate(198.53 778.95) scale(1.09 1)" font-size="20" fill="#17143f" font-family="Gilroy-Regular"><tspan letter-spacing="-0.01em">S</tspan><tspan x="11.22" y="0" letter-spacing="-0.03em">t</tspan><tspan x="18.12" y="0">op </tspan><tspan x="47.96" y="0" letter-spacing="-0.02em">w</tspan><tspan x="62.96" y="0" letter-spacing="0em">a</tspan><tspan x="75.68" y="0" letter-spacing="-0.02em">s</tspan><tspan x="84.36" y="0">ting </tspan><tspan x="124.86" y="0" letter-spacing="-0.02em">y</tspan><tspan x="134.66" y="0">our time in t</tspan><tspan x="242.26" y="0" letter-spacing="-0.03em">r</tspan><tspan x="247.94" y="0" xml:space="preserve" letter-spacing="0em">affic!  </tspan></text><text transform="translate(263.95 811.47) scale(1.09 1)" font-size="20" fill="#17143f" font-family="Gilroy-Regular"><tspan letter-spacing="-0.02em">L</tspan><tspan x="9.3" y="0" letter-spacing="0em">earn </tspan><tspan x="56.14" y="0" font-family="Gilroy-Bold" font-weight="700">F</tspan><tspan x="66.52" y="0" font-family="Gilroy-Bold" font-weight="700" letter-spacing="-0.01em">R</tspan><tspan x="78.64" y="0" font-family="Gilroy-Bold" font-weight="700">OM HOME!</tspan><tspan x="177.18" y="0"> </tspan></text><text transform="translate(220.76 844.2) scale(1.09 1)" font-size="20" fill="#17143f" font-family="Gilroy-Regular"><tspan letter-spacing="-0.02em">L</tspan><tspan x="9.3" y="0" letter-spacing="0em">earn with </tspan><tspan x="99.32" y="0" font-family="Gilroy-Bold" font-weight="700" letter-spacing="-0.02em">f</tspan><tspan x="105.5" y="0" font-family="Gilroy-Bold" font-weight="700" letter-spacing="0em">o</tspan><tspan x="117.38" y="0" font-family="Gilroy-Bold" font-weight="700" letter-spacing="-0.02em">r</tspan><tspan x="124.12" y="0" font-family="Gilroy-Bold" font-weight="700">eign </tspan><tspan x="169.74" y="0" font-family="Gilroy-Bold" font-weight="700" letter-spacing="-0.02em">t</tspan><tspan x="176.98" y="0" font-family="Gilroy-Bold" font-weight="700" letter-spacing="0em">e</tspan><tspan x="188.52" y="0" font-family="Gilroy-Bold" font-weight="700" letter-spacing="0em">a</tspan><tspan x="201.04" y="0" font-family="Gilroy-Bold" font-weight="700" letter-spacing="0em">c</tspan><tspan x="211.68" y="0" font-family="Gilroy-Bold" font-weight="700">he</tspan><tspan x="234.84" y="0" font-family="Gilroy-Bold" font-weight="700" letter-spacing="-0.02em">r</tspan><tspan x="241.64" y="0" font-family="Gilroy-Bold" font-weight="700" letter-spacing="0em">s!</tspan><tspan x="256.3" y="0"> </tspan></text><text transform="translate(253.34 876.93) scale(1.09 1)" font-size="20" fill="#17143f" font-family="Gilroy-Regular"><tspan letter-spacing="-0.02em">L</tspan><tspan x="9.3" y="0" letter-spacing="0em">earn with </tspan><tspan x="99.32" y="0" font-family="Gilroy-Bold" font-weight="700">M</tspan><tspan x="115.62" y="0" font-family="Gilroy-Bold" font-weight="700" letter-spacing="-0.02em">A</tspan><tspan x="128.66" y="0" font-family="Gilroy-Bold" font-weight="700" letter-spacing="-0.02em">S</tspan><tspan x="139.82" y="0" font-family="Gilroy-Bold" font-weight="700">TER 1!</tspan><tspan x="191.6" y="0" xml:space="preserve">  </tspan></text><text transform="translate(247.82 713.28) scale(1.09 1)" font-size="20" fill="#17143f" font-family="Gilroy-Regular"><tspan letter-spacing="-0.02em">L</tspan><tspan x="9.3" y="0" letter-spacing="0em">earn when </tspan><tspan x="110.54" y="0" font-family="Gilroy-Bold" font-weight="700" letter-spacing="-0.05em">Y</tspan><tspan x="121.94" y="0" font-family="Gilroy-Bold" font-weight="700" letter-spacing="0em">O</tspan><tspan x="137.68" y="0" font-family="Gilroy-Bold" font-weight="700" letter-spacing="0em">U</tspan><tspan x="150.74" y="0"> </tspan><tspan x="155.74" y="0" letter-spacing="-0.02em">w</tspan><tspan x="170.74" y="0">ant! </tspan></text><line x1="308.51" y1="715.07" x2="365.4" y2="715.07" fill="none" stroke="#17143f" stroke-miterlimit="10"/><rect x="173.69" y="430.94" width="379.41" height="137.72" fill="#71519f"/><path d="M949.15,622.36l-2.78-7.86h-18l-2.62,7.86h-9.3l15.29-43.69h10.67l15.42,43.69Zm-17.92-15.92h12.29l-6.3-17.85Z" transform="translate(-631.71 -99.12)" fill="#fdfffd"/><path d="M979.16,623.23a19.45,19.45,0,0,1-10.92-2.9,15.42,15.42,0,0,1-6.24-7.89l7.36-4.31q2.57,6.68,10,6.68,3.62,0,5.31-1.31a4.13,4.13,0,0,0-.38-6.9,32,32,0,0,0-7.36-2.78,46.35,46.35,0,0,1-5-1.74,21.71,21.71,0,0,1-4-2.35,9.42,9.42,0,0,1-3.09-3.71,12.1,12.1,0,0,1-1.06-5.24,11.7,11.7,0,0,1,4.21-9.46,15.29,15.29,0,0,1,10.14-3.52,16.82,16.82,0,0,1,9.33,2.59,17.35,17.35,0,0,1,6.28,7.21l-7.24,4.18q-2.62-5.62-8.37-5.62a6.59,6.59,0,0,0-4.21,1.22,3.84,3.84,0,0,0-1.53,3.15,4,4,0,0,0,1.72,3.34,23.83,23.83,0,0,0,6.58,2.77l3,1c.68.23,1.62.59,2.81,1.06A16.6,16.6,0,0,1,989.3,600a19.66,19.66,0,0,1,2.22,1.68,8.56,8.56,0,0,1,1.9,2.19,12.26,12.26,0,0,1,1.59,6.17,11.71,11.71,0,0,1-4.4,9.62Q986.21,623.23,979.16,623.23Z" transform="translate(-631.71 -99.12)" fill="#fdfffd"/><path d="M1031.09,578.67v8.24h-11.8v35.45h-8.61V586.91H999v-8.24Z" transform="translate(-631.71 -99.12)" fill="#fdfffd"/><path d="M1047.63,614.12H1066v8.24h-27V578.67h26.71v8.24h-18.1v9.3h16.54v8.11h-16.54Z" transform="translate(-631.71 -99.12)" fill="#fdfffd"/><path d="M1099.18,622.36l-8.83-15.17h-6.52v15.17h-8.61V578.67h17.47a14.48,14.48,0,0,1,14.54,14.48,13.34,13.34,0,0,1-2.3,7.52,14.42,14.42,0,0,1-6.12,5.21l9.67,16.48Zm-15.35-35.64v12.92h8.86a5.47,5.47,0,0,0,4.18-1.9,6.53,6.53,0,0,0,1.75-4.59,6.42,6.42,0,0,0-1.75-4.56,5.54,5.54,0,0,0-4.18-1.87Z" transform="translate(-631.71 -99.12)" fill="#fdfffd"/><path d="M1135.28,578.85a97.39,97.39,0,0,0-18.68,27.08c-1.67,3.53,3.86,6.09,5.51,2.55a90.59,90.59,0,0,1,11.59-18.67q-3.14,30.42-6.28,60.86c-.4,3.86,5.58,5,6,1.07q3.64-35.34,7.3-70.68C1141,577.83,1137.28,576.81,1135.28,578.85Z" transform="translate(-631.71 -99.12)" fill="#fdfffd"/><path d="M900.3,578.67,887.83,599.3l-8.57-14.12c-3.79,1.16-8.24,2.31-12.82,3.55v33.63h8.61V594.13l12.27,20.2,1,0L900.64,594v28.34h8.55V578.67Z" transform="translate(-631.71 -99.12)" fill="#fdfffd"/><path d="M890.74,573.45l-.46-.36-.62-.58.17-.12-.57-.1-.63-.49.06.4-.22,0a.79.79,0,0,0-.25,0,2.43,2.43,0,0,1-.33,0,1.67,1.67,0,0,0-1.13.07,1.91,1.91,0,0,0-1.15-.35h-.18c-.77-.06-1.53-.14-2.3-.23l-.34,0a5.48,5.48,0,0,1-.56-.1,3.31,3.31,0,0,0-1.64-.06,2.57,2.57,0,0,1-.43.08l-.39-.19v.15h0a6.74,6.74,0,0,0-1.82-.19,1.55,1.55,0,0,1-.35-.05l-.46-.37-.36.32,0,0h-1.19v-.77l-.65.66s-.06,0-.1,0l-1.11-.12-.82-.08c-.48-.05-1-.1-1.43-.18l-.61-.14-.51-.12a1,1,0,0,0-.55.08l-.21.09s-.06,0,0,0a9.46,9.46,0,0,1-1.1-.14,2.29,2.29,0,0,0-1.55.35l-.31-.07.1.2a2.59,2.59,0,0,0-.5.49,1.25,1.25,0,0,1-.58.4,2.13,2.13,0,0,0-1.08.57l-.31.33a7,7,0,0,1-.93.89,2,2,0,0,0-.38.39l-.13.16-.55.4q-.37.26-.72.54c-.23.19-.44.4-.66.61a9,9,0,0,1-.72.65c-.5.39-1,.75-1.57,1.1l-.34.22a1.53,1.53,0,0,0-.75,1,.68.68,0,0,0-.3.12c-.24.18-.49.35-.74.52a8.57,8.57,0,0,0-2,1.66,1.73,1.73,0,0,1-.48.32l-.4.24a1.91,1.91,0,0,0-.38.35l-.16.21-.09.12c-.23.21-.47.41-.71.61l-.82.72a.8.8,0,0,0-.15.17c-1,.22-1.12,1-1.14,1.82A1.71,1.71,0,0,0,851.3,587a16.08,16.08,0,0,0,1.63.16c.45,0,.91,0,1.37,0a1.52,1.52,0,0,1,0,.21,1.65,1.65,0,0,0,.39,1.1v0a1.18,1.18,0,0,0,.08.37.42.42,0,0,0,.1.17,6,6,0,0,0,.25,1.49,8.48,8.48,0,0,1,.2.92l0,.38.23.06a1.27,1.27,0,0,0,.18.67,1.77,1.77,0,0,0,.16.22h-.18l.26.46,0,.22.23.08.32.56-.19.61.06,0c0,.05,0,.11,0,.16a.65.65,0,0,1,0,.17c-.08.22-.17.43-.26.64l-.19.45a2,2,0,0,0-.08.35c0,.11-.07.23-.11.35l-.11.31-.18.55a.74.74,0,0,0,.25.75,1,1,0,0,0,.65.23,1.07,1.07,0,0,0,.25,0,.91.91,0,0,0,.67-.51,3,3,0,0,0,.17-.57l.08-.32s0-.07,0-.09l.09-.12a1.91,1.91,0,0,0,.14-.21l.25.1-.54.71,1.13-.51.34.07.14-.29,1.64-.75-.37-.48,1-1.34-1.49.73-.18-.24-.15,0-.33-.11a1.14,1.14,0,0,1-.36-.13,1.75,1.75,0,0,1-.8-1.46.87.87,0,0,0-.28-.74c-.21-.16-.19-.22-.1-.39l.2-.36-.28-.3a2.3,2.3,0,0,1-.45-1.35l-.07-.57-.2,0s0,0,0-.06c0-.18-.12-.36-.19-.55s-.09-.24-.13-.37l-.27-1,0-.12a6.1,6.1,0,0,0,.72.08c.35,0,.71,0,1.07,0l.76,0,.42-.77,1.71,1.12-.26-1.46a3.49,3.49,0,0,0-.12-.54.41.41,0,0,0,0-.09.63.63,0,0,0,.14-.24,1.85,1.85,0,0,1,1-1l.12-.06a2.7,2.7,0,0,0,.8-.51l.27-.28a2.23,2.23,0,0,1,.39-.38l.08,0h0a.43.43,0,0,1,.16,0l.32,0,.15-.24c0-.07.13-.11.33-.18a2.36,2.36,0,0,0,.66-.35,3.65,3.65,0,0,1,.43-.31l.41.82.25-1.16.36-.15c.55-.21,1.12-.37,1.72-.55l.81-.24.3-.2.15-.13.14,0,.27-.07.71-.24.93-.32.14,0,.14,0a1,1,0,0,0,.86-.09,1.69,1.69,0,0,1,.61-.24,3.72,3.72,0,0,0,.64-.22l.24,0,.34,0a4.38,4.38,0,0,0,.9-.16,6.13,6.13,0,0,1,2-.23,1.67,1.67,0,0,0,1.11-.3l.18,0c.45.07.9.12,1.35.17l.42.05a.8.8,0,0,0,.31,0,1.46,1.46,0,0,1,1,.29.87.87,0,0,1,.34.8,1.11,1.11,0,0,0,0,.42l.45,1.43c.19.57.38,1.15.56,1.72l.27.87a1.75,1.75,0,0,0-.7-.13,2.88,2.88,0,0,0-.72,0,5.79,5.79,0,0,1-.72,0,12.93,12.93,0,0,0-2.19.18c-.3.05-.6.11-.89.18s-.51.12-.77.16c-.57.08-1.14.13-1.71.18l-.31,0a1.32,1.32,0,0,0-1,.56.79.79,0,0,0-.31,0c-.82.17-1.64.35-2.45.55a.91.91,0,0,0-.41.24l-.5.11-.47.1a1.28,1.28,0,0,0-.42.23l-.2.15-.74.31-.88.37a1,1,0,0,0-.2.13,2,2,0,0,0-1.08.33,1.79,1.79,0,0,1-.34.17,8.72,8.72,0,0,0-2.41,1.35l-.15.11-.48.33a5.57,5.57,0,0,0-2,2,2.35,2.35,0,0,0-.34,1.23v1.09l.89-.62.22-.15a2,2,0,0,0,.56-.45,5.41,5.41,0,0,1,1.46-1.3,6.78,6.78,0,0,0,.76-.47l.41-.26.41-.23.94-.54,1.31-.74a1.89,1.89,0,0,1,.33-.13,2.78,2.78,0,0,0,.62-.28,1.64,1.64,0,0,0,.25-.21h0a1,1,0,0,0,.73-.14l.32-.17.32-.16a1.34,1.34,0,0,0,1.17-.48h.07a1.37,1.37,0,0,0,.52,0,1.09,1.09,0,0,0,.75-.23,1.51,1.51,0,0,0,1-.21l1.5-.32a1,1,0,0,0,.37-.13c.23-.17.3-.16.38-.14a1.51,1.51,0,0,0,.76,0l.61-.14.51-.12h.13a1,1,0,0,0,.75-.24s.14,0,.37,0a1.87,1.87,0,0,0,.94,0l.29-.11c.06,0,.16-.06.13-.08a2,2,0,0,0,.8,0,1.4,1.4,0,0,1,.41,0c.17,0,.35.06.53.09a4.32,4.32,0,0,1,.91.21,4.11,4.11,0,0,0,.67.17v0a3.69,3.69,0,0,0-.1.39,1.33,1.33,0,0,0-.71.59l-.55.43-.3.25a2.28,2.28,0,0,1-.5.38l-.14.07a3.76,3.76,0,0,0-1,.65l-.58-1-.35,1.46a.71.71,0,0,1-.18.08l-.19.05a1.65,1.65,0,0,0-.85.39l-.29-.31-.25.45a.9.9,0,0,0-.61,0,1,1,0,0,0-.53.49,1.45,1.45,0,0,0-.55.16h0l-1.23-.64.39,1a1.34,1.34,0,0,0-.92.64,6.33,6.33,0,0,1-.76.12,1.21,1.21,0,0,0-.82.39l-2.16.4-.41.13,0,.32-.2,0-.29,0-.23.23-.17-.36-2,.62.28.29-.1,0,.42.28.26.27.12.09-.35.35.68-.1.13.09.13-.13.91-.13.52-.09a2.35,2.35,0,0,0,.34-.14l.11,0a2.78,2.78,0,0,1,.55-.14l.31,0a2.72,2.72,0,0,0,.62-.05l1.2-.32c.38-.1.76-.21,1.15-.3L875,594a3.24,3.24,0,0,0,1.54-.62l.12-.1.06-.06.5,0-.08-.2a6.61,6.61,0,0,0,1.25-.47l.34-.15.16.22.6-.55a1.27,1.27,0,0,1,.13-.11l.14-.07a1.42,1.42,0,0,0,.25-.12l.4-.24.29.57.29-.92.77-.45L883,590c.54-.3,1.07-.61,1.6-.92a.83.83,0,0,0,.38-.76l.06,0a2,2,0,0,0,.52-2.27l-.41-.66,0,0v0a3.91,3.91,0,0,0,.11-.71,1.5,1.5,0,0,0-.14-.58l-.06-.15-.33-1.35-.18-.74a3.56,3.56,0,0,0-.15-.56c-.09-.23-.19-.45-.29-.68s-.22-.49-.31-.75a3.18,3.18,0,0,1-.09-.33,2.16,2.16,0,0,0-.37-.94,1.11,1.11,0,0,0-.43-.89.7.7,0,0,0-.57-.14l0-.06A1.1,1.1,0,0,0,881,577a.66.66,0,0,0-.37-.21l-1.21-.2a1,1,0,0,0-.61.05l.37-.54-1.57.49a2.39,2.39,0,0,0-.32.11l-.12.05a1.75,1.75,0,0,0-1.24.07h-.16l-.21,0h-.12a1.13,1.13,0,0,0-.66.16.43.43,0,0,1-.36,0,1.19,1.19,0,0,0-.66.06l-.65.26v-.07l-.8.25-.23.08-.26.08a4,4,0,0,0-1.54.46l-.23.12-.18.11a1.67,1.67,0,0,0-1.12.44,1.06,1.06,0,0,0-.39,0v0l-1.06.45a1,1,0,0,0-.21.09l-.26.14a1.4,1.4,0,0,1-.33.16,2.69,2.69,0,0,0-.94.39l0-.07-.5.25-.29.16-.18.12a1.16,1.16,0,0,0-.49.09l.17-.49-.68.5h0l-.46.36-.1.05c-.12.06-.24.11-.36.18a.69.69,0,0,0-.27.3c-.09,0-.17.08-.22.1a3.28,3.28,0,0,0-.31.2l-.58.36v0l-.15.21a3.26,3.26,0,0,0-.24.4l-.08.13,0,.09-.45.25-.4.22-.06.24c0,.1,0,.21-.06.31s0,.1,0,.14l-.14.15-.4-.1-.69,1.83a1.15,1.15,0,0,0-.48-.25,13.62,13.62,0,0,0-1.69-.23l-.94-.07c-.45,0-.89-.06-1.33-.11l-.44-.06c-.46-.06-.93-.13-1.47-.15l.11-.09.09-.07.33-.31a1.29,1.29,0,0,0,.19-.21,1.65,1.65,0,0,1,.2-.19.22.22,0,0,1,.11,0,2,2,0,0,0,.37-.17,2.36,2.36,0,0,0,.4-.36l.58-.56.53-.32a.83.83,0,0,0,.33-.43,1.53,1.53,0,0,0,.64-.31l.16-.1a.63.63,0,0,0,.41-.34l.07-.11a2.43,2.43,0,0,0,1.18-.94l.24-.29a.89.89,0,0,0,.65-.38l.18.11.09-.11h0l.2-.28,1-.2-.45-.37.08-.07.31-.19a5.65,5.65,0,0,0,.57-.38c.35-.27.68-.57,1-.86l.4-.36.12-.14,0,0a1,1,0,0,0,.47-.41,1.2,1.2,0,0,0,.85-.56l.3-.36a2.1,2.1,0,0,1,.53-.54,2.14,2.14,0,0,0,.41-.37H865a.75.75,0,0,0,.53-.41,2.3,2.3,0,0,0,.22-.2l.1-.09.46-.37c.31-.24.62-.48.91-.74a6.36,6.36,0,0,0,.61-.66l.06-.07a2.42,2.42,0,0,0,1.27-.05,1.63,1.63,0,0,0,1.48.22v0l1.21.14,1.22.14h.15a4.14,4.14,0,0,0,1.11,0l-.08,1.16,1.06-1a.67.67,0,0,0,.52,0,1.18,1.18,0,0,0,1.26.11l.16.44.42-.25h0a1,1,0,0,0,1.32.1.82.82,0,0,0,.41.09,2.83,2.83,0,0,0,.67.08l.4,0,0,.13.81-.19.75-.17h.23a3.35,3.35,0,0,1,.44.07,2.38,2.38,0,0,0,1.61-.07,1.08,1.08,0,0,1,.49-.07l0,.3,2.39.32.1-.28h.29a.71.71,0,0,0,.58,0l.35.2.23.12a.82.82,0,0,0,.56.42l1,1.28-.22-1.4Zm-31.56,12.78,0,.21-.26-.19-.11-.1Zm3.59-9.69-.36-.38.48.32A.22.22,0,0,1,862.77,576.54Z" transform="translate(-631.71 -99.12)" fill="#fff"/></svg>