<svg xmlns="http://www.w3.org/2000/svg" viewBox="0 0 710.27 747.65"><path d="M1222.35,297.66c.11,4.48,0,9-.27,13.54" transform="translate(-599.69 -165.41)" fill="none" stroke="#18327c" stroke-linecap="round" stroke-miterlimit="10" stroke-width="1.01"/><path d="M1221.47,284.36c.19,1.75.36,3.51.49,5.28" transform="translate(-599.69 -165.41)" fill="none" stroke="#18327c" stroke-linecap="round" stroke-miterlimit="10" stroke-width="1.01"/><path d="M663.08,414.77c13.22-30.15,23.79-79.5,73.42-119,47.15-37.54,97.15-31.36,136.71-25.83,67.6,9.47,108.44-12.34,159-48.6s84-72.78,162.54-45.07c34.43,12.15,58,38.54,61.27,92.16,2.43,39.33-11.54,102.14-58.23,160.51-36.46,45.57-77.83,72.46-145.32,87.6-83.55,18.73-130.14,38.48-279,0-46.67-12.07-83-26.33-129.12,32.91C604.71,600.41,584,564.31,614,516,648.9,459.83,647.17,451.05,663.08,414.77Z" transform="translate(-599.69 -165.41)" fill="#4cc9f1"/><rect x="155.54" y="402.79" width="410.14" height="12.66" rx="6.06" fill="#71519f"/><rect x="364.88" y="385.82" width="106.33" height="12.66" rx="6.06" fill="#ffd150"/><path d="M689.21,400.07l.09-.86a3.83,3.83,0,0,1,3.8-3.4h29.33L717,445.28h-6.2" transform="translate(-599.69 -165.41)" fill="none" stroke="#18327c" stroke-linecap="round" stroke-linejoin="round" stroke-width="0.55"/><polygon points="186.29 231.29 180.39 280.76 185.14 280.76 191.53 231.29 186.29 231.29" fill="none" stroke="#18327c" stroke-linecap="round" stroke-linejoin="round" stroke-width="0.55"/><polygon points="124.65 230.78 119.08 279.23 124.65 279.23 129.56 230.78 124.65 230.78" fill="none" stroke="#18327c" stroke-linecap="round" stroke-linejoin="round" stroke-width="0.55"/><polygon points="178.26 280.76 145.51 280.76 150.97 231.29 183.72 231.29 178.26 280.76" fill="none" stroke="#18327c" stroke-linecap="round" stroke-linejoin="round" stroke-width="0.55"/><polygon points="171.78 246.65 157.45 246.65 158.31 239.14 172.64 239.14 171.78 246.65" fill="none" stroke="#18327c" stroke-linejoin="round" stroke-width="0.55"/><polygon points="193.26 238.48 207.26 238.11 203.39 281.01 186.94 280.76 193.26 238.48" fill="none" stroke="#18327c" stroke-linecap="round" stroke-linejoin="round" stroke-width="0.55"/><line x1="212.04" y1="234.35" x2="206.58" y2="280.75" fill="none" stroke="#18327c" stroke-linecap="round" stroke-linejoin="round" stroke-width="0.55"/><line x1="215.76" y1="232.3" x2="209.31" y2="280.75" fill="none" stroke="#18327c" stroke-linecap="round" stroke-linejoin="round" stroke-width="0.55"/><line x1="217.82" y1="239.07" x2="212.4" y2="280.79" fill="none" stroke="#18327c" stroke-linecap="round" stroke-linejoin="round" stroke-width="0.55"/><polygon points="136.51 205.54 117.88 205.54 120.98 177.4 139.62 177.4 136.51 205.54" fill="none" stroke="#18327c" stroke-linecap="round" stroke-linejoin="round" stroke-width="0.55"/><polygon points="132.82 186.14 124.67 186.14 125.16 181.87 133.31 181.87 132.82 186.14" fill="none" stroke="#18327c" stroke-linecap="round" stroke-linejoin="round" stroke-width="0.55"/><polygon points="145.04 181.49 153.01 181.28 150.8 205.69 141.45 205.54 145.04 181.49" fill="none" stroke="#18327c" stroke-linecap="round" stroke-linejoin="round" stroke-width="0.55"/><path d="M1247.65,227.17c-41-15.7-70.38-2.53-81.42,10.18-13.19,15.19-23,24.38-31.82,21.84s-15.8-1.51-22.46,5.57-9.25,13.56-17.57,12.61-16,15.14-6.35,17.22c7.23,1.55,129.63-1.11,166.2-1.6" transform="translate(-599.69 -165.41)" fill="none" stroke="#fff" stroke-linecap="round" stroke-miterlimit="10" stroke-width="1.52"/><path d="M955,251.47" transform="translate(-599.69 -165.41)" fill="none" stroke="#fff" stroke-linecap="round" stroke-miterlimit="10" stroke-width="1.52"/><path d="M1030.09,223.69c9.51,7.53,12.59,8.39,20.42,7.2s10.28-1.24,15.89,2.84,9.49,5.77,16.92,5.43,11.85.45,11.91,5.12-1.51,6.18-9.84,6.18c-5.12,0-66.71.51-100.53.51" transform="translate(-599.69 -165.41)" fill="none" stroke="#fff" stroke-linecap="round" stroke-miterlimit="10" stroke-width="1.52"/><path d="M1191.23,244.9c-4.84,1.71-9.94,4.28-13.52,8.09-9,9.62-15.89,18.25-25.63,18.24s-26.66-.64-30.61,4.74" transform="translate(-599.69 -165.41)" fill="none" stroke="#fff" stroke-linecap="round" stroke-linejoin="round" stroke-width="1.52"/><path d="M1211.91,253.3a34.54,34.54,0,0,0-9.81,3.58,182.31,182.31,0,0,0-15.68,10.44" transform="translate(-599.69 -165.41)" fill="none" stroke="#fff" stroke-linecap="round" stroke-linejoin="round" stroke-width="1.52"/><path d="M1013.64,234.22c7.81,5.73,16,10.18,24.38,7.3,9.37-3.21,14.94-1.84,18.23,0" transform="translate(-599.69 -165.41)" fill="none" stroke="#fff" stroke-linecap="round" stroke-linejoin="round" stroke-width="1.52"/><path d="M1207.65,237.3s13.17-2,23.8,0c8.42,1.6,21.82,9.28,21.82,9.28" transform="translate(-599.69 -165.41)" fill="none" stroke="#fff" stroke-linecap="round" stroke-linejoin="round" stroke-width="1.52"/><path d="M933.53,261c1-.25,2.09-.51,3.14-.79" transform="translate(-599.69 -165.41)" fill="none" stroke="#18327c" stroke-linecap="round" stroke-miterlimit="10" stroke-width="1.01"/><path d="M921.91,263q3.21-.4,6.41-1" transform="translate(-599.69 -165.41)" fill="none" stroke="#18327c" stroke-linecap="round" stroke-miterlimit="10" stroke-width="1.01"/><path d="M698.38,429.17c-8.27-16.79-12.54-37.06-12.11-61.5.6-34.93,30.67-86.49,95.19-105.32,44.74-13.05,90.72,5.06,135.15,1.24" transform="translate(-599.69 -165.41)" fill="none" stroke="#18327c" stroke-linecap="round" stroke-miterlimit="10" stroke-width="1.01"/><path d="M704.44,439.81q-1.58-2.42-3-4.93" transform="translate(-599.69 -165.41)" fill="none" stroke="#18327c" stroke-linecap="round" stroke-miterlimit="10" stroke-width="1.01"/><path d="M708.74,445.89c-.66-.86-1.31-1.74-1.94-2.62" transform="translate(-599.69 -165.41)" fill="none" stroke="#18327c" stroke-linecap="round" stroke-miterlimit="10" stroke-width="1.01"/><path d="M743.19,475.7q-1.34-.78-2.64-1.59" transform="translate(-599.69 -165.41)" fill="none" stroke="#18327c" stroke-linecap="round" stroke-miterlimit="10" stroke-width="1.01"/><path d="M755.29,482.12q-3.87-1.85-7.59-3.87" transform="translate(-599.69 -165.41)" fill="none" stroke="#18327c" stroke-linecap="round" stroke-miterlimit="10" stroke-width="1.01"/><path d="M1230.31,313.6a185.64,185.64,0,0,1-21.5,64.71c-66.33,121-158.93,129.13-270.86,130.39-58.21.65-125-2-175.1-23.18" transform="translate(-599.69 -165.41)" fill="none" stroke="#18327c" stroke-linecap="round" stroke-miterlimit="10" stroke-width="1.01"/><path d="M1196,201.11c1.11,1.1,2.21,2.21,3.27,3.35" transform="translate(-599.69 -165.41)" fill="none" stroke="#18327c" stroke-linecap="round" stroke-miterlimit="10" stroke-width="1.01"/><path d="M1186.88,193.06c2.13,1.67,4.18,3.42,6.16,5.22" transform="translate(-599.69 -165.41)" fill="none" stroke="#18327c" stroke-linecap="round" stroke-miterlimit="10" stroke-width="1.01"/><path d="M1020.32,203.32c34.94-28.15,63.87-44.85,114.06-34.13,18.08,3.86,33.61,10.59,46.62,19.54" transform="translate(-599.69 -165.41)" fill="none" stroke="#18327c" stroke-linecap="round" stroke-miterlimit="10" stroke-width="1.01"/><path d="M1002.47,218.07q4.54-3.81,8.9-7.42" transform="translate(-599.69 -165.41)" fill="none" stroke="#18327c" stroke-linecap="round" stroke-miterlimit="10" stroke-width="1.01"/><path d="M992.84,226.1q2.14-1.77,4.24-3.53" transform="translate(-599.69 -165.41)" fill="none" stroke="#18327c" stroke-linecap="round" stroke-miterlimit="10" stroke-width="1.01"/><path d="M1140.08,412.82c-5.9-4.4-15.08-24.82-8.65-37.81s13.26-4.89,14.77-14.69-2.94-18.48,6.3-24.82,16-7.7,17.92-14.8,6.21-11.51,16.21-17.55,24.38,3.54,18.83,14.27c-4.69,9-3.52,20.73-.75,27s5.46,11.51-1.48,19.08-14.33,10.46-13.67,21.33,7.27,15.71-5.24,23.84C1167.33,419.73,1149.71,420,1140.08,412.82Z" transform="translate(-599.69 -165.41)" fill="none" stroke="#18327c" stroke-miterlimit="10" stroke-width="0.73"/><path d="M1197,301.6s-13.51,19.6-30.83,55.57c-14.33,29.77-15.78,60-15.78,60" transform="translate(-599.69 -165.41)" fill="none" stroke="#18327c" stroke-miterlimit="10" stroke-width="0.73"/><path d="M1138.43,367.28c1.37,11.29,13.38,37.5,13.38,37.5" transform="translate(-599.69 -165.41)" fill="none" stroke="#18327c" stroke-miterlimit="10" stroke-width="0.73"/><path d="M1152.5,335.5a59.56,59.56,0,0,1,4.25,14.18,187.18,187.18,0,0,0,4.63,18.68s7.75-8.55,18.72-11.22l26.64-6.47" transform="translate(-599.69 -165.41)" fill="none" stroke="#18327c" stroke-miterlimit="10" stroke-width="0.73"/><path d="M1175.79,311.21s3,5.79,2.42,11a85.38,85.38,0,0,0-.28,11.82" transform="translate(-599.69 -165.41)" fill="none" stroke="#18327c" stroke-miterlimit="10" stroke-width="0.73"/><path d="M1178.64,332.65S1186,328,1190.5,325,1204,321,1204,321" transform="translate(-599.69 -165.41)" fill="none" stroke="#18327c" stroke-miterlimit="10" stroke-width="0.73"/><path d="M1151.71,403.64s14-7.37,20.29-11.09,17.84-5.06,17.84-5.06" transform="translate(-599.69 -165.41)" fill="none" stroke="#18327c" stroke-miterlimit="10" stroke-width="0.73"/><path d="M1128.6,436.51c2.76-4.11,4-19.11-2.93-25.92s-9.5-.15-12.65-6-2.25-12.39-9.52-14.35-11.89-1.31-14.67-5.4-6.5-5.92-14.19-7.53-14.69,7.68-8.77,13.25c5,4.69,6.85,12.37,6.49,17s-.9,8.51,5.19,11.78,11.42,3.44,13.42,10.48-1.11,11.59,8.64,14C1112.85,447,1124.09,443.21,1128.6,436.51Z" transform="translate(-599.69 -165.41)" fill="none" stroke="#18327c" stroke-miterlimit="10" stroke-width="0.73"/><path d="M1068.28,379s12.35,9.05,31.36,28A117.14,117.14,0,0,1,1123,441.54" transform="translate(-599.69 -165.41)" fill="none" stroke="#18327c" stroke-miterlimit="10" stroke-width="0.73"/><path d="M1119.51,407.24s-1.16,1.4-.67,8.32.52,18.46.52,18.46" transform="translate(-599.69 -165.41)" fill="none" stroke="#18327c" stroke-miterlimit="10" stroke-width="0.73"/><path d="M1103.5,390.21a39.86,39.86,0,0,0,.46,9.94,127.07,127.07,0,0,1,1.22,12.89s-6.82-3.7-14.38-3l-18.34,1.83" transform="translate(-599.69 -165.41)" fill="none" stroke="#18327c" stroke-miterlimit="10" stroke-width="0.73"/><path d="M1083.31,380s-.63,4.35.9,7.49a56.87,56.87,0,0,1,2.81,7.44" transform="translate(-599.69 -165.41)" fill="none" stroke="#18327c" stroke-miterlimit="10" stroke-width="0.73"/><path d="M1086.28,394.22s-5.74-1.31-9.23-2.2-9.44.42-9.44.42" transform="translate(-599.69 -165.41)" fill="none" stroke="#18327c" stroke-miterlimit="10" stroke-width="0.73"/><path d="M1119.18,433.27s-10.54-1.55-15.35-2.51-12.45.75-12.45.75" transform="translate(-599.69 -165.41)" fill="none" stroke="#18327c" stroke-miterlimit="10" stroke-width="0.73"/><path d="M1122.75,441.06s2.69,4.78,5.24,9.4,7.93,14,7.93,14" transform="translate(-599.69 -165.41)" fill="none" stroke="#18327c" stroke-miterlimit="10" stroke-width="0.73"/><path d="M1150.58,417.13s-1.59,7.94-3.18,18.68c-.75,5.07-1.18,13.42-1.42,20.81" transform="translate(-599.69 -165.41)" fill="none" stroke="#18327c" stroke-miterlimit="10" stroke-width="0.75"/><path d="M1032.53,262.52a27,27,0,0,1,14.1,3.13c6.53,3.77,4.46,6.49,4.46,6.49S1042,272.29,1032.53,262.52Z" transform="translate(-599.69 -165.41)" fill="none" stroke="#18327c" stroke-miterlimit="10" stroke-width="0.73"/><path d="M1051.44,272s2-5.57,7.09-8.1l9.12-4.56A22.86,22.86,0,0,1,1051.44,272Z" transform="translate(-599.69 -165.41)" fill="none" stroke="#18327c" stroke-miterlimit="10" stroke-width="0.73"/><circle cx="487.95" cy="161.51" r="5.32" fill="none" stroke="#18327c" stroke-miterlimit="10" stroke-width="0.81"/><circle cx="519.1" cy="151.13" r="2.78" fill="none" stroke="#18327c" stroke-miterlimit="10" stroke-width="0.81"/><circle cx="513.78" cy="184.3" r="10.13" fill="none" stroke="#18327c" stroke-miterlimit="10" stroke-width="0.81"/><path d="M1035.9,289.12a12.29,12.29,0,0,1,6.38,1.42c3,1.7,2,2.94,2,2.94S1040.17,293.55,1035.9,289.12Z" transform="translate(-599.69 -165.41)" fill="none" stroke="#18327c" stroke-miterlimit="10" stroke-width="0.73"/><path d="M1044.46,293.4a7.3,7.3,0,0,1,3.21-3.66l4.12-2.06A10.32,10.32,0,0,1,1044.46,293.4Z" transform="translate(-599.69 -165.41)" fill="none" stroke="#18327c" stroke-miterlimit="10" stroke-width="0.73"/><path d="M1059.54,277.92a17.6,17.6,0,0,1,9.16,2c4.23,2.44,2.89,4.21,2.89,4.21S1065.67,284.26,1059.54,277.92Z" transform="translate(-599.69 -165.41)" fill="none" stroke="#18327c" stroke-miterlimit="10" stroke-width="0.73"/><path d="M1071.82,284.06a10.44,10.44,0,0,1,4.6-5.26l5.91-3A14.86,14.86,0,0,1,1071.82,284.06Z" transform="translate(-599.69 -165.41)" fill="none" stroke="#18327c" stroke-miterlimit="10" stroke-width="0.73"/><polygon points="321.81 52.97 309.78 52.47 309.3 52.29 308.17 41.95 290.78 67.84 321.81 52.97" fill="none" stroke="#18327c" stroke-linecap="round" stroke-linejoin="round" stroke-width="1.01"/><polyline points="312.51 57.96 312.16 60.24 290.73 68.09 309.47 52.39" fill="none" stroke="#18327c" stroke-linecap="round" stroke-linejoin="round" stroke-width="1.1"/><path d="M807.64,357.05H763.08a6.84,6.84,0,0,1-6.84-6.84h0a6.84,6.84,0,0,1,6.84-6.84h44.56" transform="translate(-599.69 -165.41)" fill="none" stroke="#18327c" stroke-linecap="round" stroke-miterlimit="10" stroke-width="0.53"/><path d="M806.37,354.51H763.11a4.22,4.22,0,0,1-4.23-4.22h0a4.23,4.23,0,0,1,4.23-4.23h43.26" transform="translate(-599.69 -165.41)" fill="none" stroke="#18327c" stroke-linecap="round" stroke-miterlimit="10" stroke-width="0.53"/><path d="M806.09,353.55a4.52,4.52,0,0,1-1-2.83,4.58,4.58,0,0,1,1.33-3.23" transform="translate(-599.69 -165.41)" fill="none" stroke="#18327c" stroke-linecap="round" stroke-miterlimit="10" stroke-width="0.53"/><path d="M806.12,342.34H761.68a4.22,4.22,0,0,1-4.22-4.22h0a4.21,4.21,0,0,1,4.22-4.21h43.93" transform="translate(-599.69 -165.41)" fill="none" stroke="#18327c" stroke-linecap="round" stroke-miterlimit="10" stroke-width="0.53"/><path d="M806.12,340.78H761.7a2.61,2.61,0,0,1-2.61-2.61h0a2.61,2.61,0,0,1,2.61-2.61h44.92" transform="translate(-599.69 -165.41)" fill="none" stroke="#18327c" stroke-linecap="round" stroke-miterlimit="10" stroke-width="0.53"/><path d="M782.13,340.18a2.81,2.81,0,0,1,.21-3.73" transform="translate(-599.69 -165.41)" fill="none" stroke="#18327c" stroke-linecap="round" stroke-miterlimit="10" stroke-width="0.53"/><path d="M803.93,340.22a2.81,2.81,0,0,1-.6-1.75,2.77,2.77,0,0,1,.82-2" transform="translate(-599.69 -165.41)" fill="none" stroke="#18327c" stroke-linecap="round" stroke-miterlimit="10" stroke-width="0.53"/><path d="M787.77,321.58h44.56c3.78,0,6.84-3.95,6.84-8.82h0c0-4.87-3.06-8.82-6.84-8.82H787.77" transform="translate(-599.69 -165.41)" fill="none" stroke="#18327c" stroke-linecap="round" stroke-miterlimit="10" stroke-width="0.6"/><path d="M789,318.31H832.3c2.34,0,4.23-2.44,4.23-5.45h0c0-3-1.89-5.46-4.23-5.46H789" transform="translate(-599.69 -165.41)" fill="none" stroke="#18327c" stroke-linecap="round" stroke-miterlimit="10" stroke-width="0.6"/><path d="M789.32,317.06a7,7,0,0,0,1-3.65,6.76,6.76,0,0,0-1.34-4.15" transform="translate(-599.69 -165.41)" fill="none" stroke="#18327c" stroke-linecap="round" stroke-miterlimit="10" stroke-width="0.6"/><path d="M817,316.42a7,7,0,0,0,1-3.65,6.81,6.81,0,0,0-1.34-4.16" transform="translate(-599.69 -165.41)" fill="none" stroke="#18327c" stroke-linecap="round" stroke-miterlimit="10" stroke-width="0.6"/><path d="M793.3,303.88h33.46c2.84,0,5.14-3,5.14-6.62h0c0-3.66-2.3-6.62-5.14-6.62H793.3" transform="translate(-599.69 -165.41)" fill="none" stroke="#18327c" stroke-linecap="round" stroke-miterlimit="10" stroke-width="0.6"/><path d="M794.26,301.43h32.48c1.75,0,3.18-1.84,3.18-4.1h0c0-2.26-1.43-4.09-3.18-4.09H794.26" transform="translate(-599.69 -165.41)" fill="none" stroke="#18327c" stroke-linecap="round" stroke-miterlimit="10" stroke-width="0.45"/><path d="M794.46,300.49a5.19,5.19,0,0,0,.74-2.74,5.1,5.1,0,0,0-1-3.12" transform="translate(-599.69 -165.41)" fill="none" stroke="#18327c" stroke-linecap="round" stroke-miterlimit="10" stroke-width="0.45"/><path d="M815.22,300a5.28,5.28,0,0,0,.74-2.74,5.1,5.1,0,0,0-1-3.12" transform="translate(-599.69 -165.41)" fill="none" stroke="#18327c" stroke-linecap="round" stroke-miterlimit="10" stroke-width="0.45"/><line x1="194.16" y1="147.62" x2="214.42" y2="147.62" fill="none" stroke="#18327c" stroke-linecap="round" stroke-miterlimit="10" stroke-width="0.45"/><line x1="190.45" y1="149.96" x2="205.41" y2="149.96" fill="none" stroke="#18327c" stroke-linecap="round" stroke-miterlimit="10" stroke-width="0.45"/><line x1="190.22" y1="145.31" x2="200.35" y2="145.31" fill="none" stroke="#18327c" stroke-linecap="round" stroke-miterlimit="10" stroke-width="0.45"/><line x1="199.34" y1="131.13" x2="210.98" y2="131.13" fill="none" stroke="#18327c" stroke-linecap="round" stroke-miterlimit="10" stroke-width="0.45"/><line x1="202.38" y1="133.16" x2="213.01" y2="133.16" fill="none" stroke="#18327c" stroke-linecap="round" stroke-miterlimit="10" stroke-width="0.45"/><line x1="218.07" y1="145.31" x2="227.69" y2="145.31" fill="none" stroke="#18327c" stroke-linecap="round" stroke-miterlimit="10" stroke-width="0.45"/><line x1="220.6" y1="149.36" x2="233.26" y2="149.36" fill="none" stroke="#18327c" stroke-linecap="round" stroke-miterlimit="10" stroke-width="0.45"/><line x1="218.58" y1="131.13" x2="224.66" y2="131.13" fill="none" stroke="#18327c" stroke-linecap="round" stroke-miterlimit="10" stroke-width="0.45"/><line x1="218.58" y1="133.16" x2="227.69" y2="133.16" fill="none" stroke="#18327c" stroke-linecap="round" stroke-miterlimit="10" stroke-width="0.45"/><path d="M778.65,353.41a5,5,0,0,1,.36-6.49" transform="translate(-599.69 -165.41)" fill="none" stroke="#18327c" stroke-linecap="round" stroke-miterlimit="10" stroke-width="0.53"/><circle cx="511.58" cy="56.33" r="10.55" fill="#fff"/><rect x="186.22" y="157.61" width="58.9" height="4.15" rx="1.99" fill="#7653ad"/><circle cx="165.67" cy="148.6" r="4.56" fill="#fff"/><circle cx="229.21" cy="190.37" r="2.28" fill="#fff"/><circle cx="210.73" cy="112.65" r="2.03" fill="#fff"/><rect x="155.31" y="192.08" width="58.9" height="4.15" rx="1.99" fill="#7653ad"/><rect x="192.27" y="218.41" width="58.9" height="4.15" rx="1.99" fill="#7653ad"/><line x1="103.89" y1="207.34" x2="176.05" y2="207.59" fill="none" stroke="#fff" stroke-linecap="round" stroke-miterlimit="10" stroke-width="2.53"/><rect x="203.14" y="213.92" width="41.01" height="4.56" fill="none" stroke="#18327c" stroke-miterlimit="10" stroke-width="0.53"/><line x1="112.5" y1="282.39" x2="217.82" y2="282.39" fill="none" stroke="#fff" stroke-linecap="round" stroke-miterlimit="10" stroke-width="2.61"/><polygon points="237.82 213.83 204.77 213.83 204.77 210.15 236.81 210.15 237.82 213.83" fill="none" stroke="#18327c" stroke-miterlimit="10" stroke-width="0.53"/><polygon points="230.74 209.84 208.2 209.84 208.2 207.34 230.05 207.34 230.74 209.84" fill="none" stroke="#18327c" stroke-miterlimit="10" stroke-width="0.53"/><path d="M865.41,385.91a3,3,0,0,0-2.91,3.45c1.51,8.51,6.86,14.8,13.24,14.8s11.74-6.29,13.24-14.8a3,3,0,0,0-2.91-3.45Z" transform="translate(-599.69 -165.41)" fill="#fff"/><path d="M863.19,402.69a29,29,0,0,0,5.59,4.48h14.07l1.17-.84c1.26-1.23,2.59-2.42,3.87-3.64Z" transform="translate(-599.69 -165.41)" fill="#fff"/><ellipse cx="864.94" cy="395.18" rx="3.66" ry="5.41" transform="translate(-537.46 739.63) rotate(-56.98)" fill="none" stroke="#fff" stroke-miterlimit="10" stroke-width="1.4"/><path d="M870.43,341.05a9,9,0,0,1,.39,5.26,27,27,0,0,1-1.72,5.06" transform="translate(-599.69 -165.41)" fill="none" stroke="#fff" stroke-linecap="round" stroke-miterlimit="10" stroke-width="1.01"/><path d="M867.78,356a16.86,16.86,0,0,0-1.31,5.94" transform="translate(-599.69 -165.41)" fill="none" stroke="#fff" stroke-linecap="round" stroke-miterlimit="10" stroke-width="1.01"/><path d="M866.6,365.8a12.51,12.51,0,0,0,1.13,4.28" transform="translate(-599.69 -165.41)" fill="none" stroke="#fff" stroke-linecap="round" stroke-miterlimit="10" stroke-width="1.01"/><path d="M868.89,372.73a9.65,9.65,0,0,0,1.75,2.36" transform="translate(-599.69 -165.41)" fill="none" stroke="#fff" stroke-linecap="round" stroke-miterlimit="10" stroke-width="1.01"/><path d="M870.28,328.87c1.89,1.65,2.79,4.13,3.62,6.49" transform="translate(-599.69 -165.41)" fill="none" stroke="#fff" stroke-linecap="round" stroke-miterlimit="10" stroke-width="1.01"/><path d="M875.56,341.36c.07,6.15-1.88,12.11-3.8,17.94" transform="translate(-599.69 -165.41)" fill="none" stroke="#fff" stroke-linecap="round" stroke-miterlimit="10" stroke-width="1.01"/><path d="M871.5,363.24a12,12,0,0,0,.89,5.1" transform="translate(-599.69 -165.41)" fill="none" stroke="#fff" stroke-linecap="round" stroke-miterlimit="10" stroke-width="1.01"/><path d="M873.43,372.28a16.17,16.17,0,0,0,2.87,4.08" transform="translate(-599.69 -165.41)" fill="none" stroke="#fff" stroke-linecap="round" stroke-miterlimit="10" stroke-width="1.01"/><path d="M877.2,379.65a7.7,7.7,0,0,1-.36,3.37" transform="translate(-599.69 -165.41)" fill="none" stroke="#fff" stroke-linecap="round" stroke-miterlimit="10" stroke-width="1.01"/><path d="M878.6,352.31a32.92,32.92,0,0,1-1.22,5.1" transform="translate(-599.69 -165.41)" fill="none" stroke="#fff" stroke-linecap="round" stroke-miterlimit="10" stroke-width="1.01"/><path d="M876.17,364.58a14.36,14.36,0,0,0,.72,4.74" transform="translate(-599.69 -165.41)" fill="none" stroke="#fff" stroke-linecap="round" stroke-miterlimit="10" stroke-width="1.01"/><path d="M1059.8,436h-9.87c-2.5-3.11-4.9-19.32-.8-24.31h10.16a3.29,3.29,0,0,0,0-6.58H868.07a19.19,19.19,0,0,0-19.17,19.2h0a19.18,19.18,0,0,0,19.17,19.19h186.6a6,6,0,0,0-.71-1.93h5.84a2.79,2.79,0,0,0,0-5.57Z" transform="translate(-599.69 -165.41)" fill="#ea3b5d"/><ellipse cx="373.01" cy="259.24" rx="7.34" ry="4.3" fill="#b3e1ff"/><ellipse cx="372.78" cy="259.37" rx="11.46" ry="6.72" fill="none" stroke="#b3e1ff" stroke-miterlimit="10" stroke-width="1.01"/><ellipse cx="352.76" cy="259.74" rx="2.78" ry="1.77" fill="#b3e1ff"/><ellipse cx="342.63" cy="259.74" rx="2.78" ry="1.77" fill="#b3e1ff"/><path d="M878.53,405.08s-11.9,3.15-11.9,18.39c0,8.93,4.92,18.39,12.72,18.39" transform="translate(-599.69 -165.41)" fill="none" stroke="#b3e1ff" stroke-miterlimit="10" stroke-width="1.01"/><path d="M890.11,404.64s-11.9,3.16-11.9,18.39c0,8.93,4.92,18.39,12.72,18.39" transform="translate(-599.69 -165.41)" fill="none" stroke="#b3e1ff" stroke-miterlimit="10" stroke-width="1.01"/><path d="M1005.6,406.26s-8.34,3-8.34,17.72c0,8.61,3.45,17.72,8.92,17.72" transform="translate(-599.69 -165.41)" fill="none" stroke="#ffd150" stroke-miterlimit="10" stroke-width="0.38"/><path d="M1016.18,405.79s-8.79,3-8.79,17.73c0,8.6,3.64,17.72,9.4,17.72" transform="translate(-599.69 -165.41)" fill="none" stroke="#0b132d" stroke-linecap="round" stroke-linejoin="round" stroke-width="0.4"/><path d="M1076.62,441.37H844.67c-1.12,0-4.12.24-4.12.24-3.78,0-6.84,2-6.84,5.82h0c0,3.77,3.06,5.82,6.84,5.82l2.28.51a86.56,86.56,0,0,1,2.91,10.38,88.77,88.77,0,0,1,1.89,13.92H837c-2.38,0-4.31,3.45-4.31,5.83h0a4.31,4.31,0,0,0,4.31,4.3h10.62l0,.51h229A23.67,23.67,0,0,0,1100.28,465h0A23.67,23.67,0,0,0,1076.62,441.37Z" transform="translate(-599.69 -165.41)" fill="#71519f"/><path d="M1011.61,441.36H997.32v.21a23.66,23.66,0,0,1,21.36,23.55h0a23.65,23.65,0,0,1-21.51,23.56h14.44A23.66,23.66,0,0,0,1035.27,465h0A23.66,23.66,0,0,0,1011.61,441.36Z" transform="translate(-599.69 -165.41)" fill="#b3e1ff"/><path d="M1062.1,441.4h-14.28v.21a23.66,23.66,0,0,1,21.36,23.55h0a23.66,23.66,0,0,1-21.52,23.56h14.44a23.66,23.66,0,0,0,23.67-23.66h0A23.66,23.66,0,0,0,1062.1,441.4Z" transform="translate(-599.69 -165.41)" fill="#b3e1ff"/><path d="M974.23,441.35S997,443.88,997,463.13c0,12.15-9.11,24.81-28.86,24.81" transform="translate(-599.69 -165.41)" fill="none" stroke="#0b132d" stroke-linecap="round" stroke-linejoin="round" stroke-width="0.52"/><path d="M1032.81,441.69s22.78,2.53,22.78,21.77c0,12.15-9.11,24.81-28.86,24.81" transform="translate(-599.69 -165.41)" fill="none" stroke="#0b132d" stroke-linecap="round" stroke-linejoin="round" stroke-width="0.52"/><path d="M1072.71,441.52s22.78,2.54,22.78,21.78c0,12.15-9.11,24.81-28.86,24.81" transform="translate(-599.69 -165.41)" fill="none" stroke="#0b132d" stroke-linecap="round" stroke-linejoin="round" stroke-width="0.52"/><path d="M961.91,453.25H840.47c.5,8.36.21,17-2.46,24.81h123.9a12.49,12.49,0,0,0,12.57-12.4h0A12.49,12.49,0,0,0,961.91,453.25Z" transform="translate(-599.69 -165.41)" fill="#def8ff"/><path d="M1017.45,411.73h38.43a192.5,192.5,0,0,0,.78,24.31h-39.21c-2.2,0-4-5.44-4-12.16h0C1013.47,417.17,1015.25,411.73,1017.45,411.73Z" transform="translate(-599.69 -165.41)" fill="#def8ff"/><line x1="240.61" y1="295.44" x2="276.05" y2="295.44" fill="none" stroke="#222854" stroke-linecap="round" stroke-miterlimit="10" stroke-width="0.49"/><line x1="284.91" y1="295.19" x2="298.08" y2="295.19" fill="none" stroke="#222854" stroke-linecap="round" stroke-miterlimit="10" stroke-width="0.49"/><line x1="306.68" y1="295.19" x2="333.52" y2="295.19" fill="none" stroke="#222854" stroke-linecap="round" stroke-miterlimit="10" stroke-width="0.49"/><line x1="341.11" y1="295.19" x2="353.27" y2="295.19" fill="none" stroke="#222854" stroke-linecap="round" stroke-miterlimit="10" stroke-width="0.49"/><line x1="360.86" y1="295.19" x2="374.53" y2="295.19" fill="none" stroke="#222854" stroke-linecap="round" stroke-miterlimit="10" stroke-width="0.49"/><line x1="240.86" y1="301.26" x2="248.96" y2="301.26" fill="none" stroke="#222854" stroke-linecap="round" stroke-miterlimit="10" stroke-width="0.49"/><line x1="255.54" y1="301.26" x2="288.96" y2="301.26" fill="none" stroke="#222854" stroke-linecap="round" stroke-miterlimit="10" stroke-width="0.49"/><line x1="292" y1="301.26" x2="305.16" y2="301.26" fill="none" stroke="#222854" stroke-linecap="round" stroke-miterlimit="10" stroke-width="0.49"/><line x1="309.21" y1="301.26" x2="345.17" y2="301.26" fill="none" stroke="#222854" stroke-linecap="round" stroke-miterlimit="10" stroke-width="0.49"/><line x1="350.23" y1="301.26" x2="374.53" y2="301.26" fill="none" stroke="#222854" stroke-linecap="round" stroke-miterlimit="10" stroke-width="0.49"/><line x1="239.85" y1="307.85" x2="272.25" y2="307.85" fill="none" stroke="#222854" stroke-linecap="round" stroke-miterlimit="10" stroke-width="0.49"/><line x1="279.34" y1="307.85" x2="303.65" y2="307.85" fill="none" stroke="#222854" stroke-linecap="round" stroke-miterlimit="10" stroke-width="0.49"/><line x1="310.73" y1="307.85" x2="372" y2="307.85" fill="none" stroke="#222854" stroke-linecap="round" stroke-miterlimit="10" stroke-width="0.49"/><line x1="419.09" y1="266.83" x2="430.57" y2="266.83" fill="none" stroke="#0b132d" stroke-linecap="round" stroke-linejoin="round" stroke-width="0.52"/><line x1="438.22" y1="266.83" x2="445.52" y2="266.83" fill="none" stroke="#0b132d" stroke-linecap="round" stroke-linejoin="round" stroke-width="0.52"/><line x1="416.05" y1="261.26" x2="428.35" y2="261.26" fill="none" stroke="#0b132d" stroke-linecap="round" stroke-linejoin="round" stroke-width="0.52"/><line x1="432.76" y1="261.26" x2="446.94" y2="261.26" fill="none" stroke="#0b132d" stroke-linecap="round" stroke-linejoin="round" stroke-width="0.52"/><line x1="449.98" y1="261.26" x2="456.56" y2="261.26" fill="none" stroke="#0b132d" stroke-linecap="round" stroke-linejoin="round" stroke-width="0.52"/><line x1="447.95" y1="266.83" x2="456.56" y2="266.83" fill="none" stroke="#0b132d" stroke-linecap="round" stroke-linejoin="round" stroke-width="0.52"/><line x1="456.56" y1="258.22" x2="443.4" y2="258.22" fill="none" stroke="#0b132d" stroke-linecap="round" stroke-linejoin="round" stroke-width="0.52"/><line x1="440.86" y1="258.22" x2="436.81" y2="258.22" fill="none" stroke="#0b132d" stroke-linecap="round" stroke-linejoin="round" stroke-width="0.52"/><line x1="435.29" y1="258.22" x2="415.55" y2="258.22" fill="none" stroke="#0b132d" stroke-linecap="round" stroke-linejoin="round" stroke-width="0.52"/><line x1="416.56" y1="254.68" x2="423.65" y2="254.68" fill="none" stroke="#0b132d" stroke-linecap="round" stroke-linejoin="round" stroke-width="0.52"/><line x1="426.18" y1="254.68" x2="438.33" y2="254.68" fill="none" stroke="#0b132d" stroke-linecap="round" stroke-linejoin="round" stroke-width="0.52"/><line x1="439.85" y1="254.68" x2="453.02" y2="254.68" fill="none" stroke="#0b132d" stroke-linecap="round" stroke-linejoin="round" stroke-width="0.52"/><line x1="454.54" y1="254.68" x2="456.06" y2="254.68" fill="none" stroke="#0b132d" stroke-linecap="round" stroke-linejoin="round" stroke-width="0.52"/><line x1="456.06" y1="251.64" x2="440.86" y2="251.64" fill="none" stroke="#0b132d" stroke-linecap="round" stroke-linejoin="round" stroke-width="0.52"/><line x1="438.84" y1="251.64" x2="429.22" y2="251.64" fill="none" stroke="#0b132d" stroke-linecap="round" stroke-linejoin="round" stroke-width="0.52"/><line x1="427.19" y1="251.64" x2="417.07" y2="251.64" fill="none" stroke="#0b132d" stroke-linecap="round" stroke-linejoin="round" stroke-width="0.52"/><line x1="422.64" y1="249.11" x2="432.76" y2="249.11" fill="none" stroke="#0b132d" stroke-linecap="round" stroke-linejoin="round" stroke-width="0.52"/><line x1="436.31" y1="249.11" x2="449.98" y2="249.11" fill="none" stroke="#0b132d" stroke-linecap="round" stroke-linejoin="round" stroke-width="0.52"/><path d="M1046,328.13c-16.33-37.42-40.63-48.05-40.63-48.05v.06a16.74,16.74,0,0,0-5.4-1.93c-11.4-2.07-16.87-2.89-22.28-2.72-4.65.14-16.34.51-21.79.31-8.25-.31-25.81,2.55-30.76,7.48,0,0-24.07,15.54-37.24,46.42-8.89,20.87,1.46,27.86,38.49,29.37a51.32,51.32,0,0,0,7.58-.25c.39,2.12.7,3.89.91,5.14,3.9,23,56.87,23.12,62.37.78.61-2.51,1.25-5.05,1.91-7.58a52.43,52.43,0,0,0,8.37.33C1044.54,356,1055.07,348.91,1046,328.13Z" transform="translate(-599.69 -165.41)" fill="#71519f"/><path d="M982,275.08l-4.72-26.57-21,3.66-2.89,23.2a67.82,67.82,0,0,0-8.56,1.47c.76,6.82,10.29,12.22,21.94,12.22,12,0,21.81-5.77,22-12.91C986.37,275.68,984,275.41,982,275.08Z" transform="translate(-599.69 -165.41)" fill="#fca575"/><path d="M971.64,268.58a47.35,47.35,0,0,0,7.52-8.83l-2-11.22-21,3.66-2.81,22.46C959.64,275.81,966.48,273.17,971.64,268.58Z" transform="translate(-599.69 -165.41)" fill="#24375b"/><path d="M940.69,277.28s5.07,13.66,20.12,15.46S985.87,291,994,277.3" transform="translate(-599.69 -165.41)" fill="none" stroke="#fff" stroke-linecap="round" stroke-miterlimit="10" stroke-width="0.51"/><line x1="367.32" y1="127.79" x2="368.06" y2="141.63" fill="none" stroke="#fff" stroke-linecap="round" stroke-miterlimit="10" stroke-width="0.51"/><circle cx="372.51" cy="132.14" r="1.77" fill="#fff"/><circle cx="372.51" cy="139.74" r="1.77" fill="#fff"/><path d="M908,324.64s4.07,2.63,16.28,8.4,18,6.34,18,6.34" transform="translate(-599.69 -165.41)" fill="none" stroke="#0b132d" stroke-linecap="round" stroke-linejoin="round" stroke-width="0.52"/><path d="M924.05,302.36s.52,8.14,4.6,14.43a35.57,35.57,0,0,1,4.88,13.9" transform="translate(-599.69 -165.41)" fill="none" stroke="#0b132d" stroke-linecap="round" stroke-linejoin="round" stroke-width="0.52"/><path d="M1025.89,323.06s-4.07,2.63-16.29,8.41-18,6.33-18,6.33" transform="translate(-599.69 -165.41)" fill="none" stroke="#0b132d" stroke-linecap="round" stroke-linejoin="round" stroke-width="0.52"/><path d="M1009.85,300.78s-.53,8.15-4.61,14.43a35.67,35.67,0,0,0-4.87,13.91" transform="translate(-599.69 -165.41)" fill="none" stroke="#0b132d" stroke-linecap="round" stroke-linejoin="round" stroke-width="0.52"/><path d="M988.12,238.49c-1.78-.67-3.82,0-5.52,1.61-1.81-10.06-8.5-17.53-16.48-17.53s-14.81,7.63-16.53,17.85c-1.69-1.58-3.74-2.27-5.52-1.61-3,1.1-4.06,5.48-2.47,9.78s5.29,6.91,8.25,5.81a4.24,4.24,0,0,0,1-.55c3.47,8.56,11.42,14.61,15.27,14.68,4.79.08,12.33-6.13,15.49-14.83a4.54,4.54,0,0,0,.73.37c3,1.1,6.66-1.5,8.25-5.81S991.08,239.58,988.12,238.49Z" transform="translate(-599.69 -165.41)" fill="#fca575"/><path d="M960.81,257.3c.05,1.58,2.52,2.86,5.56,2.86s5.51-1.28,5.57-2.86c0,0-1.51.74-6.07.74A16.08,16.08,0,0,1,960.81,257.3Z" transform="translate(-599.69 -165.41)" fill="#fff"/><line x1="364.91" y1="97.62" x2="367.7" y2="97.46" fill="none" stroke="#0b132d" stroke-linecap="round" stroke-linejoin="round" stroke-width="0.43"/><path d="M983.06,218.45c-4.92-4.65-9.9-5.6-17.19-5.71-15.54-.24-24.23,7.23-21.27,20.76,1.21,5.48,5.26,13.13,5.26,13.13-.3.54-.38-8.8,2-13,3.29.5,6.9.27,11.89-.8A37.91,37.91,0,0,0,976,228.25c1.21.08,2.31,1.59,3.25,2.92,2.14,3,3.43,17.2,3.43,17.2s4.26-10.92,4.5-14.87C987.57,226.31,986.12,221.35,983.06,218.45Z" transform="translate(-599.69 -165.41)" fill="#24375b"/><path d="M979.29,225.65a37.37,37.37,0,0,1-17.22,9.11,101.12,101.12,0,0,1-13.67,1.52" transform="translate(-599.69 -165.41)" fill="none" stroke="#24375b" stroke-miterlimit="10" stroke-width="0.51"/><path d="M953,240.33a7.73,7.73,0,0,1,4.2-2.67,10.32,10.32,0,0,1,3.77,0" transform="translate(-599.69 -165.41)" fill="none" stroke="#24375b" stroke-linecap="round" stroke-miterlimit="10" stroke-width="2.03"/><path d="M977.35,238.28a7.73,7.73,0,0,0-4.19-2.67,10.09,10.09,0,0,0-3.78,0" transform="translate(-599.69 -165.41)" fill="none" stroke="#24375b" stroke-linecap="round" stroke-miterlimit="10" stroke-width="2.03"/><path d="M943.84,228.69s7.6,3.54,19.75,0a127.07,127.07,0,0,0,21.19-8.13" transform="translate(-599.69 -165.41)" fill="none" stroke="#fff" stroke-miterlimit="10" stroke-width="0.38"/><path d="M945.59,221.56s8.42,4.24,17,3.08a70,70,0,0,0,20.48-6.19" transform="translate(-599.69 -165.41)" fill="none" stroke="#fff" stroke-miterlimit="10" stroke-width="0.38"/><path d="M964.22,241.26s.65,5.94-.21,8.71-1.43,4.54-1.43,4.54l3,.51" transform="translate(-599.69 -165.41)" fill="none" stroke="#0b132d" stroke-linecap="round" stroke-linejoin="round" stroke-width="0.43"/><ellipse cx="358.22" cy="80.26" rx="1.26" ry="1.92" fill="#0b132d"/><ellipse cx="373.89" cy="79.85" rx="1.26" ry="1.92" fill="#0b132d"/><path d="M955.59,244.12a2.06,2.06,0,0,1,1.93-1.25,2.28,2.28,0,0,1,2.15,1.18" transform="translate(-599.69 -165.41)" fill="none" stroke="#0b132d" stroke-linecap="round" stroke-miterlimit="10" stroke-width="0.43"/><path d="M975.62,243.72a2.06,2.06,0,0,0-1.93-1.25,2.28,2.28,0,0,0-2.16,1.18" transform="translate(-599.69 -165.41)" fill="none" stroke="#0b132d" stroke-linecap="round" stroke-miterlimit="10" stroke-width="0.43"/><circle cx="357.31" cy="79.98" r="6.59" fill="none" stroke="#0b132d" stroke-miterlimit="10" stroke-width="0.51"/><circle cx="374.03" cy="80.14" r="6.59" fill="none" stroke="#0b132d" stroke-miterlimit="10" stroke-width="0.51"/><path d="M963.59,244.38a2.37,2.37,0,0,1,1.8-.5,3.14,3.14,0,0,1,1.81.57" transform="translate(-599.69 -165.41)" fill="none" stroke="#0b132d" stroke-linecap="round" stroke-miterlimit="10" stroke-width="0.51"/><path d="M891,248.73c9.36.43,15.43.45,15.43.45" transform="translate(-599.69 -165.41)" fill="none" stroke="#18327c" stroke-linecap="round" stroke-miterlimit="10" stroke-width="1.01"/><path d="M861.45,245.81c5.83.74,11.09,1.33,15.84,1.78" transform="translate(-599.69 -165.41)" fill="none" stroke="#18327c" stroke-linecap="round" stroke-miterlimit="10" stroke-width="1.01"/><path d="M817.36,241.17a155.9,155.9,0,0,1,22.94,1.69" transform="translate(-599.69 -165.41)" fill="none" stroke="#18327c" stroke-linecap="round" stroke-miterlimit="10" stroke-width="1.01"/><path d="M769.3,247.94a178.85,178.85,0,0,1,31.5-6" transform="translate(-599.69 -165.41)" fill="none" stroke="#18327c" stroke-linecap="round" stroke-miterlimit="10" stroke-width="1.01"/><path d="M745.05,256.81q4.8-2.17,9.82-4.09" transform="translate(-599.69 -165.41)" fill="none" stroke="#18327c" stroke-linecap="round" stroke-miterlimit="10" stroke-width="1.01"/><path d="M719.39,272.65a108.81,108.81,0,0,1,15.81-10.92" transform="translate(-599.69 -165.41)" fill="none" stroke="#18327c" stroke-linecap="round" stroke-miterlimit="10" stroke-width="1.01"/><path d="M703.51,287.89q2-2.26,4.34-4.61" transform="translate(-599.69 -165.41)" fill="none" stroke="#18327c" stroke-linecap="round" stroke-miterlimit="10" stroke-width="1.01"/><path d="M696.38,296.29c.65-.81,1.33-1.66,2.06-2.54" transform="translate(-599.69 -165.41)" fill="none" stroke="#18327c" stroke-linecap="round" stroke-miterlimit="10" stroke-width="1.01"/><path d="M688.9,306.53s.57-.9,1.67-2.47" transform="translate(-599.69 -165.41)" fill="none" stroke="#18327c" stroke-linecap="round" stroke-miterlimit="10" stroke-width="1.01"/><path d="M806.74,223.1a137.43,137.43,0,0,1,19.65,1.41" transform="translate(-599.69 -165.41)" fill="none" stroke="#18327c" stroke-linecap="round" stroke-miterlimit="10" stroke-width="1.01"/><path d="M765.58,228.72a157.17,157.17,0,0,1,27-4.95" transform="translate(-599.69 -165.41)" fill="none" stroke="#18327c" stroke-linecap="round" stroke-miterlimit="10" stroke-width="1.01"/><path d="M744.81,236.07c2.73-1.2,5.54-2.33,8.4-3.39" transform="translate(-599.69 -165.41)" fill="none" stroke="#18327c" stroke-linecap="round" stroke-miterlimit="10" stroke-width="1.01"/><path d="M722.82,249.19a94.27,94.27,0,0,1,13.55-9.05" transform="translate(-599.69 -165.41)" fill="none" stroke="#18327c" stroke-linecap="round" stroke-miterlimit="10" stroke-width="1.01"/><path d="M1143.75,487.56c-1.51.86-3,1.69-4.6,2.5" transform="translate(-599.69 -165.41)" fill="none" stroke="#18327c" stroke-linecap="round" stroke-miterlimit="10" stroke-width="1.01"/><path d="M1155.94,479.76q-3.37,2.42-6.88,4.62" transform="translate(-599.69 -165.41)" fill="none" stroke="#18327c" stroke-linecap="round" stroke-miterlimit="10" stroke-width="1.01"/><path d="M1186.74,455.68a157.76,157.76,0,0,1-20.8,17.88" transform="translate(-599.69 -165.41)" fill="none" stroke="#18327c" stroke-linecap="round" stroke-miterlimit="10" stroke-width="1.01"/><path d="M1201.09,441.09q-3,3.36-6.19,6.62" transform="translate(-599.69 -165.41)" fill="none" stroke="#18327c" stroke-linecap="round" stroke-miterlimit="10" stroke-width="1.01"/><path d="M1210.2,428.15c-1.17,1.91-2.42,3.79-3.76,5.62" transform="translate(-599.69 -165.41)" fill="none" stroke="#18327c" stroke-linecap="round" stroke-miterlimit="10" stroke-width="1.01"/><path d="M1214.8,419.79c-.63,1.29-1.29,2.57-2,3.85" transform="translate(-599.69 -165.41)" fill="none" stroke="#18327c" stroke-linecap="round" stroke-miterlimit="10" stroke-width="1.01"/><path d="M1193.77,469.45q-4.9,5.08-10.33,9.75" transform="translate(-599.69 -165.41)" fill="none" stroke="#18327c" stroke-linecap="round" stroke-miterlimit="10" stroke-width="1.01"/><path d="M1202.59,459.56q-2.29,2.81-4.74,5.52" transform="translate(-599.69 -165.41)" fill="none" stroke="#18327c" stroke-linecap="round" stroke-miterlimit="10" stroke-width="1.01"/><path d="M1165.76,492.76q-4.26,2.69-8.71,5.11" transform="translate(-599.69 -165.41)" fill="none" stroke="#18327c" stroke-linecap="round" stroke-miterlimit="10" stroke-width="1.01"/><path d="M1179.91,482.71q-3.57,2.84-7.33,5.5" transform="translate(-599.69 -165.41)" fill="none" stroke="#18327c" stroke-linecap="round" stroke-miterlimit="10" stroke-width="1.01"/><path d="M952.81,200.33v15.31a38.68,38.68,0,0,0,10.56,1.15A78.47,78.47,0,0,0,978.22,215V200.33Z" transform="translate(-599.69 -165.41)" fill="#14143a"/><rect x="334.79" y="31.79" width="61.4" height="3.55" rx="1.7" fill="#14143a"/><line x1="352.76" y1="35.43" x2="378.84" y2="35.43" fill="none" stroke="#fff" stroke-miterlimit="10" stroke-width="0.42"/><polygon points="341.87 58.98 339.34 56.45 337.16 58.98 337.16 35.12 341.87 35.12 341.87 58.98" fill="#71519f"/><path d="M232.36,322.8H413.71a0,0,0,0,1,0,0v80.49a0,0,0,0,1,0,0H232.36a38.53,38.53,0,0,1-38.53-38.53v-3.43A38.53,38.53,0,0,1,232.36,322.8Z" fill="#ea3b5d"/><path d="M819.55,532.69v-8.44a36,36,0,0,1,32.1-35.81h19.88c.72-.05,1.45-.09,2.18-.1H839.09A36,36,0,0,0,807,524.14v8.44a36,36,0,0,0,36,36h9.91A36,36,0,0,1,819.55,532.69Z" transform="translate(-599.69 -165.41)" fill="#b3e1ff"/><path d="M856.4,532.74v-8.45a36,36,0,0,1,32.1-35.81h19.88q1.08-.08,2.19-.09H875.94a36,36,0,0,0-32.11,35.81v8.44a36,36,0,0,0,36,36h9.91A36,36,0,0,1,856.4,532.74Z" transform="translate(-599.69 -165.41)" fill="#b3e1ff"/><path d="M877.18,532.43V524a36,36,0,0,1,32.11-35.81h19.87c.72-.05,1.45-.09,2.19-.1H896.72a36,36,0,0,0-32.11,35.81v8.44a36,36,0,0,0,36,36h9.91A36,36,0,0,1,877.18,532.43Z" transform="translate(-599.69 -165.41)" fill="none" stroke="#b3e1ff" stroke-miterlimit="10" stroke-width="1.01"/><path d="M837.54,532.72v-8.45a36,36,0,0,1,32.11-35.81h19.87c.73,0,1.45-.08,2.19-.09H857.08A36,36,0,0,0,825,524.17v8.44a36,36,0,0,0,36,36h9.91A36,36,0,0,1,837.54,532.72Z" transform="translate(-599.69 -165.41)" fill="none" stroke="#b3e1ff" stroke-linecap="round" stroke-linejoin="round" stroke-width="1.01"/><path d="M1088.25,516.26c.26-5.15,1.08-10.33,3.51-14.8h25.45a6.63,6.63,0,1,0,0-13.25H927.4a38.65,38.65,0,0,0-38.66,38.65v.2a41.63,41.63,0,0,0,41.63,41.64h184.71a6.63,6.63,0,1,0,0-13.25h-22.46a32.68,32.68,0,0,1-1.71-4.24c-1.94-4.63-3.41-9.59-3.18-14.41l-.12-.55c-.78-3.94-1.42-8.83-.25-13A38.53,38.53,0,0,1,1088.25,516.26Z" transform="translate(-599.69 -165.41)" fill="#14143a"/><path d="M1103.8,524.38c.11-7.69,1-15.77,3.81-23H931.38c-15.35,0-27.8,12.13-27.8,27.09h0c0,15,12.45,27.09,27.8,27.09h175.38C1104.11,545.42,1103.64,534.79,1103.8,524.38Z" transform="translate(-599.69 -165.41)" fill="#def8ff"/><path d="M1092,510" transform="translate(-599.69 -165.41)" fill="none" stroke="#222854" stroke-miterlimit="10" stroke-width="0.49"/><path d="M908.74,512.51" transform="translate(-599.69 -165.41)" fill="none" stroke="#222854" stroke-miterlimit="10" stroke-width="0.49"/><line x1="323.39" y1="382.28" x2="368.46" y2="382.28" fill="none" stroke="#222854" stroke-miterlimit="10" stroke-width="0.48"/><line x1="381.12" y1="382.28" x2="391.75" y2="382.28" fill="none" stroke="#222854" stroke-miterlimit="10" stroke-width="0.48"/><line x1="405.42" y1="382.28" x2="449.98" y2="382.28" fill="none" stroke="#222854" stroke-miterlimit="10" stroke-width="0.48"/><line x1="464.66" y1="382.28" x2="492.51" y2="382.28" fill="none" stroke="#222854" stroke-miterlimit="10" stroke-width="0.48"/><line x1="310.73" y1="370.63" x2="346.18" y2="370.63" fill="none" stroke="#222854" stroke-miterlimit="10" stroke-width="0.49"/><line x1="356.31" y1="370.63" x2="435.29" y2="370.63" fill="none" stroke="#222854" stroke-miterlimit="10" stroke-width="0.49"/><line x1="441.88" y1="370.63" x2="504.16" y2="370.63" fill="none" stroke="#222854" stroke-miterlimit="10" stroke-width="0.49"/><line x1="305.42" y1="361.52" x2="397.32" y2="361.52" fill="none" stroke="#222854" stroke-miterlimit="10" stroke-width="0.49"/><line x1="403.9" y1="361.52" x2="419.09" y2="361.52" fill="none" stroke="#222854" stroke-miterlimit="10" stroke-width="0.49"/><line x1="425.17" y1="361.52" x2="473.27" y2="361.52" fill="none" stroke="#222854" stroke-miterlimit="10" stroke-width="0.49"/><line x1="479.85" y1="361.52" x2="504.16" y2="361.52" fill="none" stroke="#222854" stroke-miterlimit="10" stroke-width="0.49"/><line x1="309.21" y1="351.39" x2="346.18" y2="351.39" fill="none" stroke="#222854" stroke-miterlimit="10" stroke-width="0.49"/><line x1="353.27" y1="351.39" x2="406.94" y2="351.39" fill="none" stroke="#222854" stroke-miterlimit="10" stroke-width="0.49"/><line x1="411.5" y1="351.39" x2="452" y2="351.39" fill="none" stroke="#222854" stroke-miterlimit="10" stroke-width="0.49"/><line x1="457.07" y1="351.39" x2="481.37" y2="351.39" fill="none" stroke="#222854" stroke-miterlimit="10" stroke-width="0.49"/><line x1="487.45" y1="351.39" x2="504.16" y2="351.39" fill="none" stroke="#222854" stroke-miterlimit="10" stroke-width="0.49"/><line x1="320.35" y1="343.29" x2="389.22" y2="343.29" fill="none" stroke="#222854" stroke-linecap="round" stroke-miterlimit="10" stroke-width="0.49"/><line x1="394.79" y1="343.29" x2="426.69" y2="343.29" fill="none" stroke="#222854" stroke-miterlimit="10" stroke-width="0.49"/><line x1="431.75" y1="343.29" x2="505.17" y2="343.29" fill="none" stroke="#222854" stroke-miterlimit="10" stroke-width="0.49"/><path d="M889.66,382.62s22.29,21.2,31.55,26.76S958,406.47,958,406.47s-3.14-25.24-21.71-26.13S889.66,382.62,889.66,382.62Z" transform="translate(-599.69 -165.41)" fill="#fff"/><path d="M1031.19,391.48s-6.08,6.58-27,13.33c-9.59,3.09-36.81-2.09-36.81-2.09s3.14-18.05,21.7-18.69S1031.19,391.48,1031.19,391.48Z" transform="translate(-599.69 -165.41)" fill="#fff"/><ellipse cx="1027.56" cy="411.14" rx="9.49" ry="20.03" transform="translate(-497.6 852.72) rotate(-55.07)" fill="#212035"/><line x1="421.44" y1="241.15" x2="419.23" y2="245.45" fill="none" stroke="#fff" stroke-linecap="round" stroke-miterlimit="10" stroke-width="0.75"/><line x1="425.83" y1="242.81" x2="423.08" y2="247.35" fill="none" stroke="#fff" stroke-linecap="round" stroke-miterlimit="10" stroke-width="0.75"/><line x1="430.13" y1="244.95" x2="427.64" y2="248.92" fill="none" stroke="#fff" stroke-linecap="round" stroke-miterlimit="10" stroke-width="0.75"/><path d="M1016.83,396.4c-19.57-11.19-45.74-26.45-66.42-33.11C918.33,353,891,347.72,885,366.42s15.89,26.12,57.63,35.28c21.73,4.77,40.27,4.77,71,8.9C1016.88,406.74,1017.36,400.64,1016.83,396.4Z" transform="translate(-599.69 -165.41)" fill="#fff"/><rect x="326.68" y="201.26" width="82.53" height="6.08" rx="2.91" fill="#14143a"/><rect x="326.68" y="146.61" width="82.53" height="54.65" rx="8.18" fill="#14143a"/><path d="M926.12,320.67a5,5,0,0,1,5-5h72.52a5,5,0,0,1,5,5" transform="translate(-599.69 -165.41)" fill="none" stroke="#fff" stroke-miterlimit="10" stroke-width="0.51"/><path d="M930.42,406.9c3.72,8.37-14.41,15.78-24.37,19.28s-19.44,2.32-21.19-2.66,4.89-11.85,14.85-15.36S925.79,396.48,930.42,406.9Z" transform="translate(-599.69 -165.41)" fill="#212035"/><line x1="309.72" y1="245.37" x2="311.36" y2="249.91" fill="none" stroke="#fff" stroke-linecap="round" stroke-miterlimit="10" stroke-width="0.75"/><line x1="313.92" y1="243.29" x2="315.38" y2="248.39" fill="none" stroke="#fff" stroke-linecap="round" stroke-miterlimit="10" stroke-width="0.75"/><line x1="318.42" y1="241.6" x2="319.64" y2="246.12" fill="none" stroke="#fff" stroke-linecap="round" stroke-miterlimit="10" stroke-width="0.75"/><path d="M1036.44,373.09c-3.86-16.62-19.73-21.61-65.71-1.06-14.52,6.49-36.66,20-49.8,29.09-.53,1.59,1.69,11,5.27,15.92,26.5-5.3,43.11-7.42,59.37-10.57C1014.31,400.91,1041.74,395.87,1036.44,373.09Z" transform="translate(-599.69 -165.41)" fill="#fff"/><path d="M894.17,386.6s25.6,9.61,31.21,11.63" transform="translate(-599.69 -165.41)" fill="none" stroke="#212035" stroke-linecap="round" stroke-miterlimit="10" stroke-width="0.53"/><path d="M979,367.52A275.28,275.28,0,0,0,954,380.77c-12.18,7.42-33.4,20.62-33.4,20.62" transform="translate(-599.69 -165.41)" fill="none" stroke="#212035" stroke-linecap="round" stroke-miterlimit="10" stroke-width="0.53"/><path d="M1017.63,399.32S977.89,408.85,926,416.8" transform="translate(-599.69 -165.41)" fill="none" stroke="#212035" stroke-linecap="round" stroke-miterlimit="10" stroke-width="0.53"/><circle cx="367.11" cy="174.21" r="10.87" fill="none" stroke="#b3e1ff" stroke-miterlimit="10" stroke-width="1.01"/><path d="M943.49,242.47a4.54,4.54,0,0,1,3.08,2,20.32,20.32,0,0,1,2,4.69" transform="translate(-599.69 -165.41)" fill="none" stroke="#0b132d" stroke-linecap="round" stroke-linejoin="round" stroke-width="0.52"/><path d="M988.7,242.14a4.57,4.57,0,0,0-3.08,2,20.32,20.32,0,0,0-2,4.68" transform="translate(-599.69 -165.41)" fill="none" stroke="#0b132d" stroke-linecap="round" stroke-linejoin="round" stroke-width="0.52"/><path d="M853,770.39a9.4,9.4,0,0,0-12.3,0,7.56,7.56,0,0,0,0,11.25,9.37,9.37,0,0,0,12.3,0,7.54,7.54,0,0,0,0-11.25Zm-3,8.6a4.52,4.52,0,0,1-3.18,1.17,4.48,4.48,0,0,1-3.16-1.17,4.13,4.13,0,0,1,0-5.94,4.48,4.48,0,0,1,3.16-1.17,4.52,4.52,0,0,1,3.18,1.17,4.09,4.09,0,0,1,0,5.94ZM732.15,764.32l-4.23,1.17v3h-2.84v3.72h2.84v6.24q0,3.09,1.79,4.29t6.14.75V780a19.82,19.82,0,0,1-2,0,2,2,0,0,1-1.24-.4,1.39,1.39,0,0,1-.43-1.14v-6.24h3.7v-3.72h-3.7Zm10.4-16.8H747v-21h-4.67l-6.54,9.91-6.58-9.91H724.6v21h4.52V734l6.44,9.71.52,0,6.47-9.74Zm29.83,30.24-3-9.24h-4l-3,9.21-2.81-9.21h-4.47l4.82,15h4.14l3.1-9.09,3.09,9.09h4.15l4.77-15h-4.05Zm36.46.84-4.27-10.08H800L806.67,783a4.69,4.69,0,0,1-1.59,2.22,4.56,4.56,0,0,1-2.71.66v3.6a8.28,8.28,0,0,0,5.25-1.31,9.89,9.89,0,0,0,3.39-4.67l6-15h-4.52Zm-15.11-8.31a6.7,6.7,0,0,0-5.34-2.19,7.75,7.75,0,0,0-5.62,2.29,7.93,7.93,0,0,0,0,11.25,7.76,7.76,0,0,0,5.62,2.3,6.7,6.7,0,0,0,5.34-2.19v1.77H798v-15h-4.22Zm-1.3,8.77a5,5,0,0,1-6.5,0,4.29,4.29,0,0,1,0-6.09,5.07,5.07,0,0,1,6.5,0,4.22,4.22,0,0,1,0,6.09Zm20.74-34.33-3.41-1.8a4.49,4.49,0,0,1-3.67,1.5q-3.76,0-4.62-2.82h12.35A8.24,8.24,0,0,0,814,740a7.56,7.56,0,0,0-2.34-5.64,8.16,8.16,0,0,0-5.94-2.28,8.73,8.73,0,0,0-6.22,2.26,7.79,7.79,0,0,0,0,11.33,9.28,9.28,0,0,0,6.52,2.25A8.4,8.4,0,0,0,813.17,744.73Zm-10.29-8.36a4.72,4.72,0,0,1,2.82-.79,4.53,4.53,0,0,1,2.57.75,3.6,3.6,0,0,1,1.49,2.28h-8.35A3.78,3.78,0,0,1,802.88,736.37Zm30,28-4.23,1.17v3h-2.85v3.72h2.85v6.24q0,3.09,1.79,4.29c1.19.8,3.23,1.05,6.14.75V780a19.82,19.82,0,0,1-2,0,2.06,2.06,0,0,1-1.25-.4,1.42,1.42,0,0,1-.42-1.14v-6.24h3.7v-3.72h-3.7Zm-6.7-32.1a6.34,6.34,0,0,0-3,.72,4.12,4.12,0,0,0-2,2.16v-2.58h-4.23v15h4.23v-7.17a3.34,3.34,0,0,1,1.52-3.09,5.36,5.36,0,0,1,3.46-.72Zm-80,35.88a8.76,8.76,0,0,0-6.23,2.26,7.45,7.45,0,0,0-2.42,5.66,7.36,7.36,0,0,0,2.46,5.67,9.25,9.25,0,0,0,6.51,2.25,8.37,8.37,0,0,0,7.14-3.21l-3.4-1.8a4.49,4.49,0,0,1-3.67,1.5q-3.76,0-4.62-2.82h12.35a8.24,8.24,0,0,0,.16-1.59,7.56,7.56,0,0,0-2.34-5.64A8.16,8.16,0,0,0,746.14,768.1Zm-4.29,6.51a3.78,3.78,0,0,1,1.47-2.24,4.72,4.72,0,0,1,2.82-.79,4.56,4.56,0,0,1,2.57.75,3.6,3.6,0,0,1,1.49,2.28Zm349-26.67a12.47,12.47,0,0,0,5.76-1.34,10.31,10.31,0,0,0,4.1-3.61l-3.9-2.07a5.67,5.67,0,0,1-2.41,2.17,7.82,7.82,0,0,1-3.55.8,7.55,7.55,0,0,1-5.39-1.92,7,7,0,0,1,0-9.93,7.55,7.55,0,0,1,5.39-1.92,7.74,7.74,0,0,1,3.54.79,5.89,5.89,0,0,1,2.42,2.21l3.9-2.07a10.3,10.3,0,0,0-4.11-3.62,12.57,12.57,0,0,0-5.75-1.33,12.07,12.07,0,0,0-8.55,3.13,10.67,10.67,0,0,0,0,15.56A12,12,0,0,0,1090.82,747.94Zm-59.09-17.22a2.64,2.64,0,0,0,1.85-.71,2.19,2.19,0,0,0,.77-1.66,2.24,2.24,0,0,0-.77-1.68,2.7,2.7,0,0,0-3.67,0,2.24,2.24,0,0,0-.77,1.68,2.19,2.19,0,0,0,.77,1.66A2.62,2.62,0,0,0,1031.73,730.72Zm-2.1,16.8h4.23v-15h-4.23Zm-117-16.8a2.64,2.64,0,0,0,1.85-.71,2.19,2.19,0,0,0,.77-1.66,2.24,2.24,0,0,0-.77-1.68,2.7,2.7,0,0,0-3.67,0,2.24,2.24,0,0,0-.77,1.68,2.19,2.19,0,0,0,.77,1.66A2.62,2.62,0,0,0,912.67,730.72Zm-2.09,16.8h4.22v-15h-4.22ZM718.43,770.29a6.7,6.7,0,0,0-5.34-2.19,7.73,7.73,0,0,0-5.62,2.29,7.93,7.93,0,0,0,0,11.25,7.74,7.74,0,0,0,5.62,2.3,6.7,6.7,0,0,0,5.34-2.19v1.77h4.22v-15h-4.22Zm-1.3,8.77a4.64,4.64,0,0,1-3.26,1.19,4.58,4.58,0,0,1-3.24-1.19,4.26,4.26,0,0,1,0-6.09,4.57,4.57,0,0,1,3.24-1.18,4.64,4.64,0,0,1,3.26,1.18,4.22,4.22,0,0,1,0,6.09Zm468.05-34.63a3,3,0,0,1-3.21-1.95l-3.67,1.89q1.85,3.57,6.88,3.57a8.33,8.33,0,0,0,4.7-1.25,4,4,0,0,0,1.89-3.55,3.79,3.79,0,0,0-.87-2.55,4.83,4.83,0,0,0-2.11-1.46,23.33,23.33,0,0,0-2.49-.72,12.44,12.44,0,0,1-2.12-.66c-.57-.25-.86-.57-.86-1a1,1,0,0,1,.54-.9,2.56,2.56,0,0,1,1.36-.33,2.73,2.73,0,0,1,2.62,1.53l3.6-1.8a6.35,6.35,0,0,0-2.59-2.36,7.94,7.94,0,0,0-3.63-.82,7.44,7.44,0,0,0-4.44,1.27,4.08,4.08,0,0,0-1.79,3.5,3.52,3.52,0,0,0,.87,2.44,5.12,5.12,0,0,0,2.11,1.43,23.56,23.56,0,0,0,2.49.75,13.34,13.34,0,0,1,2.12.67c.57.25.86.58.86,1C1187.44,744,1186.69,744.43,1185.18,744.43Zm123.66,32,.86-8v-6h-5.08v6l.88,8Zm-156.87-32a3,3,0,0,1-3.21-1.95l-3.67,1.89c1.22,2.38,3.52,3.57,6.88,3.57a8.33,8.33,0,0,0,4.7-1.25,4,4,0,0,0,1.88-3.55,3.84,3.84,0,0,0-.86-2.55,4.86,4.86,0,0,0-2.12-1.46,23.33,23.33,0,0,0-2.49-.72,12.31,12.31,0,0,1-2.11-.66c-.58-.25-.87-.57-.87-1a1,1,0,0,1,.54-.9,2.59,2.59,0,0,1,1.36-.33,2.71,2.71,0,0,1,2.62,1.53l3.61-1.8a6.41,6.41,0,0,0-2.59-2.36,8,8,0,0,0-3.64-.82,7.39,7.39,0,0,0-4.43,1.27,4.08,4.08,0,0,0-1.79,3.5,3.52,3.52,0,0,0,.87,2.44,5.12,5.12,0,0,0,2.11,1.43,23.56,23.56,0,0,0,2.49.75,13.2,13.2,0,0,1,2.11.67c.58.25.87.58.87,1C1154.23,744,1153.48,744.43,1152,744.43Zm-274.84.34a10.38,10.38,0,0,0,0-15.51,12.85,12.85,0,0,0-16.88,0,10.42,10.42,0,0,0,0,15.51,12.82,12.82,0,0,0,16.88,0ZM861.28,737a6.42,6.42,0,0,1,2.13-4.95,8.11,8.11,0,0,1,10.55,0,6.79,6.79,0,0,1,0,9.88,8.14,8.14,0,0,1-10.55,0A6.36,6.36,0,0,1,861.28,737Zm45.43-11.4h-4.22v21.9h4.22Zm-254.38,51a3.33,3.33,0,0,1-3.6,3.72,3.39,3.39,0,0,1-2.36-.8,2.92,2.92,0,0,1-.89-2.29v-8.73h-4.22v9.21a6,6,0,0,0,1.75,4.56,6.23,6.23,0,0,0,4.44,1.65,5.65,5.65,0,0,0,4.88-2.1v1.68h4.23v-15h-4.23Zm12.32-5.52v-2.58h-4.23v15h4.23v-7.17a3.32,3.32,0,0,1,1.52-3.09,5.33,5.33,0,0,1,3.45-.72v-4.32a6.39,6.39,0,0,0-3,.72A4.14,4.14,0,0,0,664.65,771.1ZM636,770.39a9.4,9.4,0,0,0-12.3,0,7.56,7.56,0,0,0,0,11.25,9.37,9.37,0,0,0,12.3,0,7.54,7.54,0,0,0,0-11.25Zm-3,8.6a4.52,4.52,0,0,1-3.18,1.17A4.46,4.46,0,0,1,626.7,779a4.13,4.13,0,0,1,0-5.94,4.46,4.46,0,0,1,3.16-1.17,4.52,4.52,0,0,1,3.18,1.17,4.09,4.09,0,0,1,0,5.94Zm58.43-3.09h6.94a5.31,5.31,0,0,1-2.34,2.92,9.31,9.31,0,0,1-10-.87,6.31,6.31,0,0,1-2.15-4.9,6.5,6.5,0,0,1,2.12-5,7.58,7.58,0,0,1,5.38-2,8.26,8.26,0,0,1,3.69.81,5.88,5.88,0,0,1,2.47,2.1l3.87-2a10.54,10.54,0,0,0-4.13-3.56,12.84,12.84,0,0,0-5.86-1.33,12.19,12.19,0,0,0-8.57,3.18,10.17,10.17,0,0,0-3.45,7.77,10,10,0,0,0,3.49,7.72,12.57,12.57,0,0,0,8.79,3.17,11.76,11.76,0,0,0,8.12-2.79,9.28,9.28,0,0,0,3.15-7.29v-1.62h-11.5Zm149.18-45v16.62h4.52v-21h-3.93l-6,2,1.11,3.54Zm-63.42,13.53a3,3,0,0,1-3.21-1.95l-3.66,1.89q1.83,3.57,6.87,3.57a8.39,8.39,0,0,0,4.71-1.25,4,4,0,0,0,1.88-3.55,3.79,3.79,0,0,0-.87-2.55,4.83,4.83,0,0,0-2.11-1.46,23.33,23.33,0,0,0-2.49-.72,12,12,0,0,1-2.11-.66c-.58-.25-.87-.57-.87-1a1,1,0,0,1,.54-.9,2.56,2.56,0,0,1,1.36-.33,2.73,2.73,0,0,1,2.62,1.53l3.6-1.8a6.35,6.35,0,0,0-2.59-2.36,7.94,7.94,0,0,0-3.63-.82,7.44,7.44,0,0,0-4.44,1.27,4.08,4.08,0,0,0-1.79,3.5,3.52,3.52,0,0,0,.87,2.44,5.12,5.12,0,0,0,2.11,1.43,23.56,23.56,0,0,0,2.49.75,13.34,13.34,0,0,1,2.12.67c.58.25.86.58.86,1C779.49,744,778.74,744.43,777.23,744.43Zm-159,18.09-5,8.74-5-8.74h-5.11L611,775.33v8.19h4.49v-8.19l7.86-12.81Zm169.26-20q0,3.09,1.78,4.29t6.14.75V744a19.82,19.82,0,0,1-2,0,2.05,2.05,0,0,1-1.24-.4,1.39,1.39,0,0,1-.43-1.14v-6.24h3.7v-3.72h-3.7v-4.2l-4.22,1.17v3h-2.85v3.72h2.85Zm-29.29,5.46a6.67,6.67,0,0,0,5.34-2.19v1.77h4.23v-15h-4.23v1.77a6.67,6.67,0,0,0-5.34-2.19,7.72,7.72,0,0,0-5.61,2.29,7.93,7.93,0,0,0,0,11.25A7.73,7.73,0,0,0,758.2,747.94Zm-2.45-11a4.57,4.57,0,0,1,3.24-1.18,4.64,4.64,0,0,1,3.26,1.18,4.24,4.24,0,0,1,0,6.09,4.64,4.64,0,0,1-3.26,1.19,4.58,4.58,0,0,1-3.24-1.19,4.26,4.26,0,0,1,0-6.09Zm306-4.87a5.63,5.63,0,0,0-4.88,2.1v-7.68h-4.23v21h4.23v-8.1a3.33,3.33,0,0,1,3.6-3.72,3.4,3.4,0,0,1,2.36.79,2.93,2.93,0,0,1,.88,2.3v8.73H1068v-9.21a6,6,0,0,0-1.76-4.56A6.18,6.18,0,0,0,1061.77,732.1Zm114.54,12.63-3.41-1.8a4.49,4.49,0,0,1-3.67,1.5q-3.76,0-4.62-2.82H1177a8.29,8.29,0,0,0,.17-1.59,7.57,7.57,0,0,0-2.35-5.64,8.16,8.16,0,0,0-5.94-2.28,8.73,8.73,0,0,0-6.22,2.26,7.79,7.79,0,0,0,0,11.33,9.28,9.28,0,0,0,6.52,2.25A8.4,8.4,0,0,0,1176.31,744.73ZM1166,736.37a4.72,4.72,0,0,1,2.82-.79,4.53,4.53,0,0,1,2.57.75,3.6,3.6,0,0,1,1.49,2.28h-8.35A3.78,3.78,0,0,1,1166,736.37Zm-12.75,31.73a6.58,6.58,0,0,0-5.31,2.19v-1.77h-4.23v21H1148v-7.77a6.58,6.58,0,0,0,5.31,2.19,7.81,7.81,0,0,0,5.65-2.3,7.93,7.93,0,0,0,0-11.25A7.8,7.8,0,0,0,1153.27,768.1Zm2.47,11a4.64,4.64,0,0,1-3.26,1.19,4.58,4.58,0,0,1-3.24-1.19,4.26,4.26,0,0,1,0-6.09,4.57,4.57,0,0,1,3.24-1.18,4.64,4.64,0,0,1,3.26,1.18,4.24,4.24,0,0,1,0,6.09Zm18-11a6.61,6.61,0,0,0-5.31,2.19v-1.77h-4.22v21h4.22v-7.77a6.61,6.61,0,0,0,5.31,2.19,7.79,7.79,0,0,0,5.65-2.3,7.93,7.93,0,0,0,0-11.25A7.78,7.78,0,0,0,1173.77,768.1Zm2.47,11a4.64,4.64,0,0,1-3.26,1.19,4.58,4.58,0,0,1-3.24-1.19,4.26,4.26,0,0,1,0-6.09,4.57,4.57,0,0,1,3.24-1.18,4.64,4.64,0,0,1,3.26,1.18,4.22,4.22,0,0,1,0,6.09Zm32.18-8v-2.58h-4.22v15h4.22v-7.17a3.33,3.33,0,0,1,1.53-3.09,5.31,5.31,0,0,1,3.45-.72v-4.32a6.39,6.39,0,0,0-3,.72A4.2,4.2,0,0,0,1208.42,771.1Zm-9.72-.71a8.84,8.84,0,0,0-6.16-2.29,8.74,8.74,0,0,0-6.14,2.29,7.56,7.56,0,0,0,0,11.25,8.75,8.75,0,0,0,6.14,2.3,8.85,8.85,0,0,0,6.16-2.3,7.54,7.54,0,0,0,0-11.25Zm-3,8.6a4.52,4.52,0,0,1-3.17,1.17,4.46,4.46,0,0,1-3.16-1.17,4.13,4.13,0,0,1,0-5.94,4.46,4.46,0,0,1,3.16-1.17,4.52,4.52,0,0,1,3.17,1.17,4.09,4.09,0,0,1,0,5.94Zm-71.65-33.24v1.77h4.23v-15h-4.23v1.77a6.67,6.67,0,0,0-5.33-2.19,7.73,7.73,0,0,0-5.62,2.29,7.93,7.93,0,0,0,0,11.25,7.74,7.74,0,0,0,5.62,2.3A6.67,6.67,0,0,0,1124.06,745.75ZM1115,740a4,4,0,0,1,1.28-3,4.57,4.57,0,0,1,3.24-1.18,4.64,4.64,0,0,1,3.26,1.18,4.24,4.24,0,0,1,0,6.09,4.64,4.64,0,0,1-3.26,1.19,4.58,4.58,0,0,1-3.24-1.19A4,4,0,0,1,1115,740Zm-11.46,7.5h4.22v-21.9h-4.22Zm-2,22.77a6.61,6.61,0,0,0-5.31-2.19,7.77,7.77,0,0,0-5.65,2.29,7.93,7.93,0,0,0,0,11.25,7.77,7.77,0,0,0,5.65,2.3,6.61,6.61,0,0,0,5.31-2.19v1.77h4.22v-21h-4.22Zm-1.28,8.77a4.58,4.58,0,0,1-3.24,1.19,4.64,4.64,0,0,1-3.26-1.19,4.22,4.22,0,0,1,0-6.09,4.64,4.64,0,0,1,3.26-1.18,4.57,4.57,0,0,1,3.24,1.18,4.26,4.26,0,0,1,0,6.09Zm37-13.8a12.85,12.85,0,0,0-16.88,0,10.42,10.42,0,0,0,0,15.51,12.82,12.82,0,0,0,16.88,0,10.4,10.4,0,0,0,0-15.51ZM1134.11,778a8.14,8.14,0,0,1-10.55,0,6.79,6.79,0,0,1,0-9.88,8.11,8.11,0,0,1,10.55,0,6.82,6.82,0,0,1,0,9.88ZM877.74,766.12a7.74,7.74,0,0,1,3.54.79,5.83,5.83,0,0,1,2.42,2.21l3.9-2.07a10.3,10.3,0,0,0-4.11-3.62,12.54,12.54,0,0,0-5.75-1.33,12.07,12.07,0,0,0-8.55,3.13,10.67,10.67,0,0,0,0,15.56,12,12,0,0,0,8.55,3.15,12.54,12.54,0,0,0,5.77-1.34A10.35,10.35,0,0,0,887.6,779l-3.9-2.07a5.61,5.61,0,0,1-2.41,2.17,7.79,7.79,0,0,1-3.55.8,7.57,7.57,0,0,1-5.39-1.92,7.06,7.06,0,0,1,0-9.93A7.57,7.57,0,0,1,877.74,766.12Zm416.84,12.48-4.27-10.08h-4.62L1292.4,783a4.57,4.57,0,0,1-1.59,2.22,4.51,4.51,0,0,1-2.7.66v3.6a8.28,8.28,0,0,0,5.25-1.31,9.89,9.89,0,0,0,3.39-4.67l6-15h-4.52ZM1268.82,762a2.59,2.59,0,0,0-1.82.72,2.24,2.24,0,0,0-.77,1.68A2.19,2.19,0,0,0,1267,766a2.73,2.73,0,0,0,3.67,0,2.19,2.19,0,0,0,.77-1.66,2.24,2.24,0,0,0-.77-1.68A2.61,2.61,0,0,0,1268.82,762Zm11.66,2.37-4.23,1.17v3h-2.84v3.72h2.84v6.24q0,3.09,1.79,4.29t6.14.75V780a19.82,19.82,0,0,1-2,0,2,2,0,0,1-1.24-.4,1.39,1.39,0,0,1-.43-1.14v-6.24h3.7v-3.72h-3.7Zm-58.5,0-4.22,1.17v3h-2.85v3.72h2.85v6.24q0,3.09,1.78,4.29t6.14.75V780a19.82,19.82,0,0,1-2,0,2.05,2.05,0,0,1-1.24-.4,1.39,1.39,0,0,1-.43-1.14v-6.24h3.7v-3.72H1222Zm87.16,15.24a2.95,2.95,0,0,0-3.93,0,2.39,2.39,0,0,0,0,3.6,2.95,2.95,0,0,0,3.93,0,2.39,2.39,0,0,0,0-3.6Zm-69.4-2.94a3.34,3.34,0,0,1-3.61,3.72,3.41,3.41,0,0,1-2.36-.8,2.91,2.91,0,0,1-.88-2.29v-8.73h-4.23v9.21a6,6,0,0,0,1.76,4.56,6.18,6.18,0,0,0,4.43,1.65,5.67,5.67,0,0,0,4.89-2.1v1.68H1244v-15h-4.22Zm17.19-8.52a5.65,5.65,0,0,0-4.88,2.1v-1.68h-4.22v15h4.22v-8.1a3.33,3.33,0,0,1,3.6-3.72,3.39,3.39,0,0,1,2.36.79,2.94,2.94,0,0,1,.89,2.3v8.73h4.22v-9.21a6,6,0,0,0-1.75-4.56A6.23,6.23,0,0,0,1256.93,768.1Zm9.79,15.42H1271v-15h-4.23Zm-123.25-42.93a4.83,4.83,0,0,0-2.11-1.46,23.33,23.33,0,0,0-2.49-.72,12,12,0,0,1-2.11-.66c-.58-.25-.87-.57-.87-1a1,1,0,0,1,.54-.9,2.56,2.56,0,0,1,1.36-.33,2.73,2.73,0,0,1,2.62,1.53l3.6-1.8a6.35,6.35,0,0,0-2.59-2.36,7.94,7.94,0,0,0-3.63-.82,7.44,7.44,0,0,0-4.44,1.27,4.08,4.08,0,0,0-1.79,3.5,3.52,3.52,0,0,0,.87,2.44,5.12,5.12,0,0,0,2.11,1.43,24.29,24.29,0,0,0,2.49.75,13.34,13.34,0,0,1,2.12.67c.58.25.86.58.86,1,0,.86-.75,1.29-2.26,1.29a3.06,3.06,0,0,1-3.21-1.95l-3.66,1.89q1.83,3.57,6.87,3.57a8.39,8.39,0,0,0,4.71-1.25,4,4,0,0,0,1.88-3.55A3.79,3.79,0,0,0,1143.47,740.59ZM934,768.37a2.2,2.2,0,0,1,.85-2,4.89,4.89,0,0,1,2.62-.55,35.78,35.78,0,0,1,3.83.24v-3.54a19.54,19.54,0,0,0-3.83-.42q-7.69,0-7.7,6.27v.15H927.4v3.72h2.35v11.28H934V772.24h4.81v11.28H943v-15h-9Zm18.85-23.64-3.41-1.8a4.49,4.49,0,0,1-3.67,1.5q-3.76,0-4.62-2.82h12.35a8.29,8.29,0,0,0,.17-1.59,7.53,7.53,0,0,0-2.35-5.64,8.16,8.16,0,0,0-5.94-2.28,8.73,8.73,0,0,0-6.22,2.26,7.79,7.79,0,0,0,0,11.33,9.28,9.28,0,0,0,6.52,2.25A8.4,8.4,0,0,0,952.83,744.73Zm-10.29-8.36a4.72,4.72,0,0,1,2.82-.79,4.53,4.53,0,0,1,2.57.75,3.6,3.6,0,0,1,1.49,2.28h-8.35A3.78,3.78,0,0,1,942.54,736.37Zm32.64,31.73a8.75,8.75,0,0,0-6.22,2.26,7.81,7.81,0,0,0,0,11.33,9.28,9.28,0,0,0,6.52,2.25,8.37,8.37,0,0,0,7.14-3.21l-3.4-1.8a4.5,4.5,0,0,1-3.67,1.5q-3.76,0-4.62-2.82h12.35a8.24,8.24,0,0,0,.16-1.59,7.56,7.56,0,0,0-2.34-5.64A8.17,8.17,0,0,0,975.18,768.1Zm-4.29,6.51a3.75,3.75,0,0,1,1.48-2.24,4.71,4.71,0,0,1,2.81-.79,4.59,4.59,0,0,1,2.58.75,3.64,3.64,0,0,1,1.49,2.28Zm8.27-31.05H969.5v-4.71h8.68V735H969.5v-4.47H979v-4H965v21h14.18ZM959.3,770.29A6.6,6.6,0,0,0,954,768.1a7.78,7.78,0,0,0-5.65,2.29,7.93,7.93,0,0,0,0,11.25,7.79,7.79,0,0,0,5.65,2.3,6.6,6.6,0,0,0,5.31-2.19v1.77h4.22v-21H959.3ZM958,779.06a4.58,4.58,0,0,1-3.24,1.19,4.64,4.64,0,0,1-3.26-1.19,4.24,4.24,0,0,1,0-6.09,4.64,4.64,0,0,1,3.26-1.18A4.57,4.57,0,0,1,958,773a4.26,4.26,0,0,1,0,6.09Zm-53.78-8.67a9.4,9.4,0,0,0-12.3,0,7.58,7.58,0,0,0,0,11.25,9.37,9.37,0,0,0,12.3,0,7.54,7.54,0,0,0,0-11.25Zm-3,8.6a4.52,4.52,0,0,1-3.18,1.17,4.48,4.48,0,0,1-3.16-1.17,4.13,4.13,0,0,1,0-5.94,4.48,4.48,0,0,1,3.16-1.17,4.52,4.52,0,0,1,3.18,1.17,4.09,4.09,0,0,1,0,5.94Zm-7.49-42.5a2.94,2.94,0,0,1,.89,2.3v8.73h4.22v-9.21a6,6,0,0,0-1.75-4.56,6.23,6.23,0,0,0-4.44-1.65,5.65,5.65,0,0,0-4.88,2.1v-1.68h-4.22v15h4.22v-8.1a3.33,3.33,0,0,1,3.6-3.72A3.39,3.39,0,0,1,893.77,736.49Zm25.08,31.61a5.63,5.63,0,0,0-4.88,2.1v-1.68h-4.23v15H914v-8.1a3.33,3.33,0,0,1,3.6-3.72,3.4,3.4,0,0,1,2.36.79,2.93,2.93,0,0,1,.88,2.3v8.73H925v-9.21a6,6,0,0,0-1.75-4.56A6.23,6.23,0,0,0,918.85,768.1Zm10.89-29.31v8.73H934v-9.21a6,6,0,0,0-1.75-4.56,6.23,6.23,0,0,0-4.44-1.65,5.65,5.65,0,0,0-4.88,2.1v-1.68h-4.22v15h4.22v-8.1a3.33,3.33,0,0,1,3.6-3.72,3.39,3.39,0,0,1,2.36.79A2.94,2.94,0,0,1,929.74,738.79ZM990,735.7a3.4,3.4,0,0,1,2.36.79,2.93,2.93,0,0,1,.88,2.3v8.73h4.23v-9.21a6,6,0,0,0-1.75-4.56,6.23,6.23,0,0,0-4.44-1.65,5.63,5.63,0,0,0-4.88,2.1v-1.68h-4.23v15h4.23v-8.1a3.33,3.33,0,0,1,3.6-3.72Zm35.8-10.08h-4.23v21.9h4.23Zm4.51,42.48a8.76,8.76,0,0,0-6.23,2.26,7.45,7.45,0,0,0-2.42,5.66,7.36,7.36,0,0,0,2.46,5.67,9.25,9.25,0,0,0,6.51,2.25,8.37,8.37,0,0,0,7.14-3.21l-3.4-1.8a4.49,4.49,0,0,1-3.67,1.5q-3.76,0-4.62-2.82h12.35a8.24,8.24,0,0,0,.16-1.59,7.56,7.56,0,0,0-2.34-5.64A8.16,8.16,0,0,0,1030.28,768.1Zm-4.29,6.51a3.78,3.78,0,0,1,1.47-2.24,4.72,4.72,0,0,1,2.82-.79,4.56,4.56,0,0,1,2.57.75,3.6,3.6,0,0,1,1.49,2.28Zm24-31.47a3.79,3.79,0,0,0-.87-2.55,4.77,4.77,0,0,0-2.11-1.46,23.33,23.33,0,0,0-2.49-.72,12.31,12.31,0,0,1-2.11-.66c-.58-.25-.87-.57-.87-1a1,1,0,0,1,.54-.9,2.59,2.59,0,0,1,1.36-.33,2.72,2.72,0,0,1,2.62,1.53l3.6-1.8a6.32,6.32,0,0,0-2.58-2.36,8,8,0,0,0-3.64-.82,7.44,7.44,0,0,0-4.44,1.27,4.07,4.07,0,0,0-1.78,3.5,3.52,3.52,0,0,0,.87,2.44,5.05,5.05,0,0,0,2.11,1.43,23.56,23.56,0,0,0,2.49.75,13.2,13.2,0,0,1,2.11.67c.58.25.87.58.87,1,0,.86-.75,1.29-2.26,1.29a3,3,0,0,1-3.21-1.95l-3.67,1.89c1.22,2.38,3.52,3.57,6.88,3.57a8.35,8.35,0,0,0,4.7-1.25A4,4,0,0,0,1049.94,743.14Zm12.21,27.15a6.7,6.7,0,0,0-5.34-2.19,7.73,7.73,0,0,0-5.62,2.29,7.93,7.93,0,0,0,0,11.25,7.74,7.74,0,0,0,5.62,2.3,6.7,6.7,0,0,0,5.34-2.19v1.77h4.22v-15h-4.22Zm-1.3,8.77a4.64,4.64,0,0,1-3.26,1.19,4.58,4.58,0,0,1-3.24-1.19,4.26,4.26,0,0,1,0-6.09,4.57,4.57,0,0,1,3.24-1.18,4.64,4.64,0,0,1,3.26,1.18,4.22,4.22,0,0,1,0,6.09Zm-45.49.51a4.85,4.85,0,0,1-2.28.53,4.43,4.43,0,0,1-3.14-1.16,3.81,3.81,0,0,1-1.25-2.92,3.87,3.87,0,0,1,1.25-3,4.42,4.42,0,0,1,3.14-1.15,4.61,4.61,0,0,1,2.24.54,3.47,3.47,0,0,1,1.49,1.47l3.64-1.95a7.32,7.32,0,0,0-3-2.82,9.09,9.09,0,0,0-4.36-1,8.77,8.77,0,0,0-6.17,2.28,7.67,7.67,0,0,0,0,11.28,8.77,8.77,0,0,0,6.17,2.28,9,9,0,0,0,4.36-1.07,7.94,7.94,0,0,0,3-2.83l-3.67-1.92A3.48,3.48,0,0,1,1015.36,779.57Zm63.95-11.47a5.63,5.63,0,0,0-4.88,2.1v-1.68h-4.23v15h4.23v-8.1a3.33,3.33,0,0,1,3.6-3.72,3.4,3.4,0,0,1,2.36.79,2.93,2.93,0,0,1,.88,2.3v8.73h4.23v-9.21a6,6,0,0,0-1.75-4.56A6.23,6.23,0,0,0,1079.31,768.1Zm-83.79,0a5.66,5.66,0,0,0-4.88,2.1v-1.68h-4.22v15h4.22v-8.1a3.34,3.34,0,0,1,3.61-3.72,3.4,3.4,0,0,1,2.36.79,3,3,0,0,1,.88,2.3v8.73h4.22v-9.21a6,6,0,0,0-1.75-4.56A6.23,6.23,0,0,0,995.52,768.1Zm13.64-14.16a10,10,0,0,0,6.05-1.83,6.16,6.16,0,0,0,2.5-5.31V732.52h-4.12v1.86a6.41,6.41,0,0,0-5.24-2.28,8.07,8.07,0,0,0-5.8,2.25,7.46,7.46,0,0,0,0,10.87,8.1,8.1,0,0,0,5.82,2.24,6.41,6.41,0,0,0,5.24-2.28v1.62a3.38,3.38,0,0,1-1.15,2.73,4.76,4.76,0,0,1-3.15,1,4.58,4.58,0,0,1-4.29-2.1l-3.6,1.89a6.84,6.84,0,0,0,3.1,2.73A11,11,0,0,0,1009.16,753.94Zm3.13-11.21a5.25,5.25,0,0,1-6.58,0,4,4,0,0,1,0-5.88,5.28,5.28,0,0,1,6.58,0,4,4,0,0,1,0,5.88Z" transform="translate(-599.69 -165.41)" fill="#17143f"/><path d="M907.69,847.66v10.5h3v-5.67a2.55,2.55,0,0,1,.69-2,2.57,2.57,0,0,1,1.83-.65,2.37,2.37,0,0,1,1.65.56,2,2,0,0,1,.62,1.6v6.11h3v-6.44a4.18,4.18,0,0,0-1.23-3.2,4.32,4.32,0,0,0-3.1-1.15,4,4,0,0,0-3.42,1.47v-1.18Zm20.79-19.72a2.33,2.33,0,0,1,1.06-2.16,3.75,3.75,0,0,1,2.42-.5v-3a4.43,4.43,0,0,0-2.12.51,2.87,2.87,0,0,0-1.36,1.51v-1.81h-3V833h3Zm15.65,30.52a6.2,6.2,0,0,0,4.31-1.61,5.28,5.28,0,0,0,0-7.87,6.56,6.56,0,0,0-8.61,0,5.28,5.28,0,0,0,0,7.87A6.14,6.14,0,0,0,944.13,858.46Zm-2.22-7.63a3.16,3.16,0,0,1,2.22-.81,3.2,3.2,0,0,1,2.22.81,2.88,2.88,0,0,1,0,4.16,3.16,3.16,0,0,1-2.22.82,3.13,3.13,0,0,1-2.22-.82,2.9,2.9,0,0,1,0-4.16ZM840.4,877.69a2.33,2.33,0,0,1,2.52-2.6,2.33,2.33,0,0,1,1.65.56,2,2,0,0,1,.62,1.6v6.11h3v-6.44a4.18,4.18,0,0,0-1.23-3.2,4.32,4.32,0,0,0-3.1-1.15A4,4,0,0,0,840.4,874v-5.38h-3v14.7h3Zm37.1-34.52a8.51,8.51,0,0,0-6,2.23,7.25,7.25,0,0,0,0,10.84,8.78,8.78,0,0,0,6.15,2.22,8.23,8.23,0,0,0,5.69-2,6.51,6.51,0,0,0,2.2-5.1v-1.13h-8.05v2.56h4.86a3.77,3.77,0,0,1-1.64,2,6.55,6.55,0,0,1-7-.61,4.43,4.43,0,0,1-1.5-3.44,4.55,4.55,0,0,1,1.47-3.47,5.33,5.33,0,0,1,3.78-1.38,5.74,5.74,0,0,1,2.57.57,4.19,4.19,0,0,1,1.74,1.47l2.7-1.43a7.44,7.44,0,0,0-2.89-2.49A9,9,0,0,0,877.5,843.17Zm9.42,40.19v-5.73l5.5-9h-3.57l-3.5,6.12-3.47-6.12H878.3l5.48,9v5.73Zm-42.82-50.1a6.16,6.16,0,0,0,4.31-1.61,5.26,5.26,0,0,0,0-7.87,6.55,6.55,0,0,0-8.6,0,5.28,5.28,0,0,0,0,7.87A6.11,6.11,0,0,0,844.1,833.26Zm-2.21-7.63a3.15,3.15,0,0,1,2.21-.81,3.2,3.2,0,0,1,2.23.81,2.88,2.88,0,0,1,0,4.16,3.17,3.17,0,0,1-2.23.82,3.12,3.12,0,0,1-2.21-.82,2.9,2.9,0,0,1,0-4.16ZM891.63,833h3v-7.89H897v-2.61h-2.43v-.1c0-1.3.81-1.9,2.43-1.79V818a5.56,5.56,0,0,0-4,1,4.17,4.17,0,0,0-1.36,3.38v.1H890v2.61h1.65Zm13.16,10.61a1.81,1.81,0,0,0-1.29-.51,1.77,1.77,0,0,0-1.27.51,1.54,1.54,0,0,0,0,2.34,1.79,1.79,0,0,0,1.27.49,1.84,1.84,0,0,0,1.29-.49,1.54,1.54,0,0,0,0-2.34ZM902,858.16h3v-10.5h-3Zm1.59-24.9a5.87,5.87,0,0,0,5-2.25l-2.38-1.26a3.15,3.15,0,0,1-2.57,1c-1.76,0-2.84-.66-3.23-2h8.64a5.7,5.7,0,0,0,.12-1.12,5.33,5.33,0,0,0-1.64-4,5.75,5.75,0,0,0-4.17-1.59,6.14,6.14,0,0,0-4.35,1.58,5.21,5.21,0,0,0-1.7,4,5.14,5.14,0,0,0,1.72,4A6.5,6.5,0,0,0,903.62,833.26Zm-2.2-8.1a3.32,3.32,0,0,1,2-.55,3.14,3.14,0,0,1,1.8.52,2.51,2.51,0,0,1,1,1.6h-5.85A2.63,2.63,0,0,1,901.42,825.16Zm14.72,8.1a4.67,4.67,0,0,0,3.74-1.54V833h3v-10.5h-3v1.24a4.69,4.69,0,0,0-3.74-1.53,5.41,5.41,0,0,0-3.93,1.61,5.54,5.54,0,0,0,0,7.87A5.41,5.41,0,0,0,916.14,833.26Zm-1.72-7.68a3.53,3.53,0,0,1,4.55,0,2.95,2.95,0,0,1,0,4.26,3.53,3.53,0,0,1-4.55,0,3,3,0,0,1,0-4.26Zm-59.2,1.48a2.43,2.43,0,0,1,.59-1.76,2.06,2.06,0,0,1,1.57-.61,1.88,1.88,0,0,1,1.42.52,2,2,0,0,1,.51,1.47V833h3v-5.9a2.51,2.51,0,0,1,.56-1.76,2,2,0,0,1,1.58-.61,1.88,1.88,0,0,1,1.42.52,2.06,2.06,0,0,1,.5,1.47V833h3V826.5a4,4,0,0,0-4.33-4.33,4,4,0,0,0-3.42,1.51,3.48,3.48,0,0,0-3.12-1.51,3.69,3.69,0,0,0-3.19,1.41v-1.12h-3V833h3Zm61.6,56.6a6.78,6.78,0,0,0,4.42-1.39,4.51,4.51,0,0,0,1.72-3.72v-9.89H919.8v9.66a2.39,2.39,0,0,1-.72,1.83,4.15,4.15,0,0,1-4.52,0,2.39,2.39,0,0,1-.72-1.83v-9.66H910.7v9.89a4.51,4.51,0,0,0,1.72,3.72A6.74,6.74,0,0,0,916.82,883.66Zm-24.17-25.2a4.67,4.67,0,0,0,3.74-1.54v1.24h3v-10.5h-3v1.24a4.69,4.69,0,0,0-3.74-1.53,5.41,5.41,0,0,0-3.93,1.61,5.54,5.54,0,0,0,0,7.87A5.41,5.41,0,0,0,892.65,858.46Zm-1.72-7.68a3.53,3.53,0,0,1,4.55,0,2.95,2.95,0,0,1,0,4.26,3.53,3.53,0,0,1-4.55,0,3,3,0,0,1,0-4.26Zm-13.44-17.52a5.85,5.85,0,0,0,5-2.25l-2.38-1.26a3.15,3.15,0,0,1-2.57,1c-1.76,0-2.83-.66-3.23-2h8.64a5.7,5.7,0,0,0,.12-1.12,5.33,5.33,0,0,0-1.64-4,5.73,5.73,0,0,0-4.16-1.59,6.15,6.15,0,0,0-4.36,1.58,5.45,5.45,0,0,0,0,7.93A6.51,6.51,0,0,0,877.49,833.26Zm-2.2-8.1a3.3,3.3,0,0,1,2-.55,3.19,3.19,0,0,1,1.8.52,2.54,2.54,0,0,1,1,1.6h-5.85A2.64,2.64,0,0,1,875.29,825.16Zm85,58.2v-10.5h-3v1.24a4.69,4.69,0,0,0-3.74-1.53,5.37,5.37,0,0,0-3.93,1.61,5.54,5.54,0,0,0,0,7.87,5.41,5.41,0,0,0,3.93,1.61,4.67,4.67,0,0,0,3.74-1.54v1.24Zm-3.87-3.12a3.53,3.53,0,0,1-4.55,0,2.78,2.78,0,0,1-.89-2.13,2.81,2.81,0,0,1,.89-2.13,3.53,3.53,0,0,1,4.55,0,2.76,2.76,0,0,1,.91,2.13A2.73,2.73,0,0,1,956.4,880.24ZM1100,832.92a4.49,4.49,0,0,0,3.67-1.59v1.13a2.36,2.36,0,0,1-.8,1.91,3.32,3.32,0,0,1-2.2.67,3.2,3.2,0,0,1-3-1.47l-2.52,1.33a4.88,4.88,0,0,0,2.17,1.91,7.77,7.77,0,0,0,3.26.65,7,7,0,0,0,4.23-1.28,4.34,4.34,0,0,0,1.76-3.72v-10h-2.89v1.3a4.49,4.49,0,0,0-3.67-1.59,5.66,5.66,0,0,0-4.06,1.57,5.23,5.23,0,0,0,0,7.62A5.67,5.67,0,0,0,1100,832.92Zm-1.84-7.42a3.67,3.67,0,0,1,4.6,0,2.78,2.78,0,0,1,0,4.11,3.67,3.67,0,0,1-4.6,0,2.78,2.78,0,0,1,0-4.11Zm14-7.87h-3V833h3Zm-20.83,51v9.89a4.51,4.51,0,0,0,1.72,3.72,6.74,6.74,0,0,0,4.4,1.39,6.83,6.83,0,0,0,4.43-1.39,4.54,4.54,0,0,0,1.72-3.72v-9.89h-3.17v9.66a2.39,2.39,0,0,1-.72,1.83,4.15,4.15,0,0,1-4.52,0,2.39,2.39,0,0,1-.72-1.83v-9.66Zm23,14.7h2.9l2.17-6.36,2.17,6.36h2.9l3.34-10.5H1125l-1.94,6.47-2.09-6.47h-2.8l-2.09,6.45-2-6.45H1111Zm-59.8-50.44a4.47,4.47,0,0,0,3.66-1.59v1.13a2.33,2.33,0,0,1-.8,1.91,3.31,3.31,0,0,1-2.2.67,3.2,3.2,0,0,1-3-1.47l-2.52,1.33a4.8,4.8,0,0,0,2.16,1.91,7.79,7.79,0,0,0,3.27.65,7,7,0,0,0,4.23-1.28,4.33,4.33,0,0,0,1.75-3.72v-10h-2.89v1.3a4.47,4.47,0,0,0-3.66-1.59,5.65,5.65,0,0,0-4.06,1.57,5.23,5.23,0,0,0,0,7.62A5.67,5.67,0,0,0,1054.56,832.92Zm-1.85-7.42a3.68,3.68,0,0,1,4.61,0,2.8,2.8,0,0,1,0,4.11,3.68,3.68,0,0,1-4.61,0,2.78,2.78,0,0,1,0-4.11Zm62.21,7.46h3v-10.5h-3Zm-30.28-5.67a2.32,2.32,0,0,1,2.52-2.6,2.37,2.37,0,0,1,1.65.56,2,2,0,0,1,.62,1.6V833h3v-6.44a4.18,4.18,0,0,0-1.23-3.2,4.35,4.35,0,0,0-3.11-1.15,3.94,3.94,0,0,0-3.41,1.47v-1.18h-3V833h3Zm-5.05,2.9h-6.76v-3.3h6.07v-2.73h-6.07V821h6.65v-2.78h-9.81V833h9.92Zm36.8-9a1.85,1.85,0,0,0,1.3-.49,1.54,1.54,0,0,0,0-2.34,1.82,1.82,0,0,0-1.3-.51,1.78,1.78,0,0,0-1.27.51,1.54,1.54,0,0,0,0,2.34A1.81,1.81,0,0,0,1116.39,821.2Zm30.77,6.83.6-5.57v-4.2h-3.56v4.2l.62,5.57Zm-202.29,5.23a6.18,6.18,0,0,0,4.31-1.61,5.26,5.26,0,0,0,0-7.87,6.56,6.56,0,0,0-8.61,0,5.3,5.3,0,0,0,0,7.87A6.14,6.14,0,0,0,944.87,833.26Zm-2.21-7.63a3.43,3.43,0,0,1,4.43,0,2.85,2.85,0,0,1,0,4.16,3.4,3.4,0,0,1-4.43,0,2.9,2.9,0,0,1,0-4.16Zm215.22,54.2a3.37,3.37,0,0,0,1.25,3c.83.56,2.26.73,4.3.52v-2.45c-.57,0-1,0-1.42,0a1.44,1.44,0,0,1-.88-.29,1,1,0,0,1-.29-.8v-4.36h2.59v-2.61h-2.59v-2.94l-3,.82v2.12h-2v2.61h2Zm16.23,23.8.6-5.57v-4.2h-3.56v4.2l.62,5.57Zm-49.58-72.83a2.13,2.13,0,0,1-2.25-1.36l-2.56,1.32c.85,1.66,2.46,2.5,4.81,2.5a5.86,5.86,0,0,0,3.29-.87,2.82,2.82,0,0,0,1.32-2.49,2.64,2.64,0,0,0-.61-1.79,3.46,3.46,0,0,0-1.48-1,16.25,16.25,0,0,0-1.74-.5,9,9,0,0,1-1.48-.46c-.4-.18-.61-.4-.61-.68a.7.7,0,0,1,.38-.63,1.74,1.74,0,0,1,1-.24,1.91,1.91,0,0,1,1.84,1.08l2.52-1.26a4.37,4.37,0,0,0-1.81-1.65,5.53,5.53,0,0,0-2.55-.58,5.23,5.23,0,0,0-3.1.89,2.84,2.84,0,0,0-1.25,2.45,2.51,2.51,0,0,0,.6,1.71,3.67,3.67,0,0,0,1.48,1,16.57,16.57,0,0,0,1.75.52,9.48,9.48,0,0,1,1.47.47c.41.18.61.41.61.69C1126.11,830.5,1125.58,830.8,1124.53,830.8Zm21.46,2.44a2,2,0,0,0,1.38-.53,1.68,1.68,0,0,0,0-2.52,2,2,0,0,0-1.38-.52,2,2,0,0,0-1.37.52,1.66,1.66,0,0,0,0,2.52A2,2,0,0,0,1146,833.24Zm-94,50.12v-6.44a4.21,4.21,0,0,0-1.22-3.2,4.37,4.37,0,0,0-3.11-1.15,4,4,0,0,0-3.42,1.47v-1.18h-3v10.5h3v-5.67a2.33,2.33,0,0,1,2.52-2.6,2.37,2.37,0,0,1,1.66.56,2,2,0,0,1,.61,1.6v6.11Zm82-56.07a2.55,2.55,0,0,1,.69-1.95,2.57,2.57,0,0,1,1.83-.65,2.37,2.37,0,0,1,1.65.56,2,2,0,0,1,.62,1.6V833h3v-6.44a4.18,4.18,0,0,0-1.23-3.2,4.32,4.32,0,0,0-3.1-1.15,4,4,0,0,0-3.42,1.47v-5.38h-3V833h3Zm34.59,51.14.59-5.57v-4.2h-3.55v4.2l.62,5.57Zm-151.92-20.27v-6.44a4.18,4.18,0,0,0-1.23-3.2,4.35,4.35,0,0,0-3.11-1.15,4,4,0,0,0-3.41,1.47v-1.18h-3v10.5h3v-5.67a2.55,2.55,0,0,1,.69-2,2.57,2.57,0,0,1,1.83-.65,2.37,2.37,0,0,1,1.65.56,2,2,0,0,1,.62,1.6v6.11Zm-50.37,0h3v-7.89h3.37v7.89h3v-10.5h-6.33v-.1a1.55,1.55,0,0,1,.6-1.4,3.41,3.41,0,0,1,1.83-.39,25.81,25.81,0,0,1,2.69.17v-2.48a14.29,14.29,0,0,0-2.69-.29q-5.38,0-5.38,4.39v.1h-1.65v2.61h1.65ZM970,830.8a2.11,2.11,0,0,1-2.24-1.36l-2.57,1.32c.85,1.66,2.46,2.5,4.81,2.5a5.84,5.84,0,0,0,3.29-.87,2.82,2.82,0,0,0,1.32-2.49,2.64,2.64,0,0,0-.61-1.79,3.43,3.43,0,0,0-1.47-1,17.11,17.11,0,0,0-1.75-.5,9,9,0,0,1-1.48-.46c-.4-.18-.6-.4-.6-.68a.7.7,0,0,1,.37-.63,1.78,1.78,0,0,1,1-.24,1.9,1.9,0,0,1,1.83,1.08l2.52-1.26a4.31,4.31,0,0,0-1.81-1.65,5.49,5.49,0,0,0-2.54-.58,5.24,5.24,0,0,0-3.11.89,2.86,2.86,0,0,0-1.25,2.45,2.47,2.47,0,0,0,.61,1.71,3.54,3.54,0,0,0,1.48,1,16.4,16.4,0,0,0,1.74.52,10,10,0,0,1,1.48.47c.4.18.61.41.61.69Q971.54,830.8,970,830.8Zm39.19,2.46a4.64,4.64,0,0,0,3.73-1.54V833h3v-10.5h-3v1.24a4.67,4.67,0,0,0-3.73-1.53,5.45,5.45,0,0,0-3.94,1.61,5.56,5.56,0,0,0,0,7.87A5.45,5.45,0,0,0,1009.14,833.26Zm-1.72-7.68a3.21,3.21,0,0,1,2.27-.83,3.28,3.28,0,0,1,2.28.83,3,3,0,0,1,0,4.26,3.24,3.24,0,0,1-2.28.83,3.16,3.16,0,0,1-2.27-.83,3,3,0,0,1,0-4.26Zm29.47,32.88a5.87,5.87,0,0,0,5-2.25L1039.5,855a3.13,3.13,0,0,1-2.56,1c-1.76,0-2.84-.66-3.24-2h8.65a6.52,6.52,0,0,0,.11-1.12,5.29,5.29,0,0,0-1.64-3.95,5.73,5.73,0,0,0-4.16-1.59,6.14,6.14,0,0,0-4.36,1.59,5.45,5.45,0,0,0,0,7.92A6.49,6.49,0,0,0,1036.89,858.46Zm-2.2-8.1a3.32,3.32,0,0,1,2-.55,3.19,3.19,0,0,1,1.8.52,2.46,2.46,0,0,1,1,1.6h-5.84A2.63,2.63,0,0,1,1034.69,850.36ZM953.45,833h2.95v-7.89h2.43v-2.61H956.4v-.1c0-1.3.81-1.9,2.43-1.79V818a5.57,5.57,0,0,0-4,1,4.19,4.19,0,0,0-1.35,3.38v.1h-1.66v2.61h1.66Zm1.8,15.88v-1.18h-3v10.5h3v-5.67a2.54,2.54,0,0,1,.68-2,2.58,2.58,0,0,1,1.84-.65,2.37,2.37,0,0,1,1.65.56,2,2,0,0,1,.62,1.6v6.11h3v-6.44a4.18,4.18,0,0,0-1.23-3.2,4.35,4.35,0,0,0-3.11-1.15A3.93,3.93,0,0,0,955.25,848.84ZM832.09,833.26a6.26,6.26,0,0,0,3-.75,5.51,5.51,0,0,0,2.13-2l-2.57-1.35a2.33,2.33,0,0,1-1,1,3.33,3.33,0,0,1-1.59.37,3.1,3.1,0,0,1-2.2-.81,2.65,2.65,0,0,1-.88-2,2.68,2.68,0,0,1,.88-2.07,3.13,3.13,0,0,1,2.2-.8,3.28,3.28,0,0,1,1.57.37,2.58,2.58,0,0,1,1,1l2.55-1.36a5.13,5.13,0,0,0-2.09-2,6.36,6.36,0,0,0-3-.73,6.13,6.13,0,0,0-4.32,1.59,5.37,5.37,0,0,0,0,7.9A6.09,6.09,0,0,0,832.09,833.26Zm147.45-1.54a4.59,4.59,0,0,0,3.71,1.54,5.48,5.48,0,0,0,4-1.61,5.54,5.54,0,0,0,0-7.87,5.48,5.48,0,0,0-4-1.61,4.61,4.61,0,0,0-3.71,1.53v-1.24h-3v14.7h3Zm.89-6.14a3.53,3.53,0,0,1,4.55,0,2.95,2.95,0,0,1,0,4.26,3.53,3.53,0,0,1-4.55,0,3,3,0,0,1,0-4.26Zm65.82,29.29a2,2,0,0,0-1.38.52,1.68,1.68,0,0,0,0,2.52,2,2,0,0,0,2.75,0,1.68,1.68,0,0,0,0-2.52A2,2,0,0,0,1046.25,854.87Zm-12.74-32.41h-3V833h3Zm11,25.2.62,5.57h2.33l.6-5.57v-4.2h-3.55Zm-5.29-20.37a2.55,2.55,0,0,1,.69-1.95,2.57,2.57,0,0,1,1.83-.65,2.37,2.37,0,0,1,1.65.56,2,2,0,0,1,.62,1.6V833h3v-6.44a4.18,4.18,0,0,0-1.23-3.2,4.32,4.32,0,0,0-3.1-1.15,4,4,0,0,0-3.42,1.47v-1.18h-3V833h3ZM1024.62,850a3.29,3.29,0,0,1,1.58.37,2.58,2.58,0,0,1,1,1l2.54-1.36a5.1,5.1,0,0,0-2.08-2,6.39,6.39,0,0,0-3-.73,6.13,6.13,0,0,0-4.32,1.59,5.35,5.35,0,0,0,0,7.9,6.09,6.09,0,0,0,4.32,1.6,6.29,6.29,0,0,0,3-.75,5.66,5.66,0,0,0,2.13-2l-2.57-1.35a2.38,2.38,0,0,1-1,1,3.34,3.34,0,0,1-1.6.37,3.11,3.11,0,0,1-2.2-.81,2.68,2.68,0,0,1-.87-2.05,2.7,2.7,0,0,1,.87-2.07A3.15,3.15,0,0,1,1024.62,850Zm-3.15-21.85,4.17,4.77h3.44l-4.74-5.31,4.61-5.19h-3.53l-4,4.64v-8.84h-3V833h3Zm10.55-7a1.84,1.84,0,0,0,1.29-.49,1.54,1.54,0,0,0,0-2.34,1.81,1.81,0,0,0-1.29-.51,1.77,1.77,0,0,0-1.27.51,1.54,1.54,0,0,0,0,2.34A1.79,1.79,0,0,0,1032,821.2ZM905.4,895.78a9,9,0,0,0-11.82,0,7.3,7.3,0,0,0,0,10.86,9,9,0,0,0,11.82,0,7.28,7.28,0,0,0,0-10.86Zm-2.22,8.89a5.73,5.73,0,0,1-7.39,0,4.76,4.76,0,0,1,0-6.92,5.67,5.67,0,0,1,7.39,0,4.76,4.76,0,0,1,0,6.92Zm150.42-5.31a4.47,4.47,0,0,0-3.66-1.59,5.65,5.65,0,0,0-4.06,1.57,5.23,5.23,0,0,0,0,7.62,5.67,5.67,0,0,0,4.07,1.56,4.45,4.45,0,0,0,3.66-1.6v1.14a2.35,2.35,0,0,1-.8,1.91,3.31,3.31,0,0,1-2.2.67,3.2,3.2,0,0,1-3-1.47l-2.52,1.32a4.82,4.82,0,0,0,2.16,1.92,7.79,7.79,0,0,0,3.27.65,7,7,0,0,0,4.23-1.28,4.33,4.33,0,0,0,1.75-3.72v-10h-2.89Zm-.9,5.85a3.68,3.68,0,0,1-4.61,0,2.67,2.67,0,0,1-.91-2.07,2.64,2.64,0,0,1,.91-2,3.68,3.68,0,0,1,4.61,0,2.63,2.63,0,0,1,.9,2A2.66,2.66,0,0,1,1052.7,905.21ZM1010,897.77a6.09,6.09,0,0,0-4.3,1.61,5.3,5.3,0,0,0,0,7.87,6.56,6.56,0,0,0,8.61,0,5.26,5.26,0,0,0,0-7.87A6.13,6.13,0,0,0,1010,897.77Zm2.22,7.62a3.4,3.4,0,0,1-4.43,0,2.9,2.9,0,0,1,0-4.16,3.4,3.4,0,0,1,4.43,0,2.85,2.85,0,0,1,0,4.16Zm8.08-30.3a2.36,2.36,0,0,1,1.65.56,2,2,0,0,1,.61,1.6v6.11h3v-6.44a4.21,4.21,0,0,0-1.22-3.2,4.37,4.37,0,0,0-3.11-1.15,4,4,0,0,0-3.42,1.47v-5.38h-3v14.7h3v-5.67a2.33,2.33,0,0,1,2.53-2.6Zm.82,24.78v-1.81h-3v10.5h3v-5a2.34,2.34,0,0,1,1.07-2.16,3.74,3.74,0,0,1,2.42-.5v-3a4.47,4.47,0,0,0-2.13.51A2.91,2.91,0,0,0,1021.07,899.87Zm12.66-18.67c-1.76,0-2.84-.66-3.24-2h8.65a6.52,6.52,0,0,0,.11-1.12,5.24,5.24,0,0,0-1.64-3.94,5.69,5.69,0,0,0-4.16-1.6,6.18,6.18,0,0,0-4.36,1.58,5.2,5.2,0,0,0-1.69,4,5.14,5.14,0,0,0,1.72,4,6.49,6.49,0,0,0,4.56,1.58,5.87,5.87,0,0,0,5-2.25l-2.39-1.26A3.13,3.13,0,0,1,1033.73,881.2Zm-2.25-5.64a3.32,3.32,0,0,1,2-.56,3.2,3.2,0,0,1,1.8.53,2.46,2.46,0,0,1,1,1.6h-5.84A2.63,2.63,0,0,1,1031.48,875.56Zm9.15,17.9a1.77,1.77,0,0,0-1.27.51,1.54,1.54,0,0,0,0,2.34,1.79,1.79,0,0,0,1.27.49,1.84,1.84,0,0,0,1.29-.49,1.54,1.54,0,0,0,0-2.34A1.81,1.81,0,0,0,1040.63,893.46Zm-1.47,15.1h3v-10.5h-3Zm-7.86-10.79a6.15,6.15,0,0,0-4.36,1.58,5.45,5.45,0,0,0,0,7.93,6.51,6.51,0,0,0,4.57,1.58,5.85,5.85,0,0,0,5-2.25l-2.38-1.26a3.15,3.15,0,0,1-2.57,1c-1.76,0-2.83-.66-3.23-2H1037a5.7,5.7,0,0,0,.12-1.12,5.33,5.33,0,0,0-1.64-3.95A5.74,5.74,0,0,0,1031.3,897.77Zm-3,4.56a2.63,2.63,0,0,1,1-1.57,3.33,3.33,0,0,1,2-.56,3.2,3.2,0,0,1,1.8.53,2.54,2.54,0,0,1,1,1.6ZM988.9,880.46h-3.21l-.91,5.84h2.4Zm-6.16,2.9v-2.45c-.57,0-1,0-1.43,0a1.43,1.43,0,0,1-.87-.29,1,1,0,0,1-.3-.8v-4.36h2.6v-2.61h-2.6v-2.94l-2.95.82v2.12h-2v2.61h2v4.36a3.34,3.34,0,0,0,1.25,3C979.27,883.4,980.7,883.57,982.74,883.36ZM987,848.9a4.62,4.62,0,0,0-3.72-1.53,5.44,5.44,0,0,0-4,1.61,5.54,5.54,0,0,0,0,7.87,5.44,5.44,0,0,0,4,1.61,4.6,4.6,0,0,0,3.72-1.54v1.24h2.95v-14.7H987Zm-.9,6.14a3.16,3.16,0,0,1-2.27.83,3.24,3.24,0,0,1-2.28-.83,3,3,0,0,1,0-4.26,3.28,3.28,0,0,1,2.28-.83,3.21,3.21,0,0,1,2.27.83,3,3,0,0,1,0,4.26Zm-1.26,42.73a3.93,3.93,0,0,0-3.41,1.47v-5.38h-3v14.7h3v-5.67a2.54,2.54,0,0,1,.68-1.95,2.58,2.58,0,0,1,1.84-.65,2.37,2.37,0,0,1,1.65.55,2.08,2.08,0,0,1,.62,1.61v6.11h3v-6.44a4.18,4.18,0,0,0-1.23-3.2A4.35,4.35,0,0,0,984.82,897.77Zm17.46-14.41,2.17-6.36,2.17,6.36h2.89l3.35-10.5H1010l-1.94,6.47-2.09-6.47h-2.8l-2.09,6.45-2-6.45H996l3.37,10.5Zm1-27.15-2.38-1.26a3.15,3.15,0,0,1-2.57,1c-1.76,0-2.83-.66-3.23-2h8.64a5.7,5.7,0,0,0,.12-1.12,5.33,5.33,0,0,0-1.64-3.95,5.73,5.73,0,0,0-4.16-1.59,6.11,6.11,0,0,0-4.36,1.59,5.44,5.44,0,0,0,0,7.92,6.51,6.51,0,0,0,4.57,1.58A5.85,5.85,0,0,0,1003.32,856.21Zm-7.2-5.85a3.33,3.33,0,0,1,2-.55,3.19,3.19,0,0,1,1.8.52,2.54,2.54,0,0,1,1,1.6h-5.85A2.67,2.67,0,0,1,996.12,850.36Zm.5-17.1a5.88,5.88,0,0,0,5-2.25l-2.39-1.26a3.15,3.15,0,0,1-2.57,1c-1.75,0-2.83-.66-3.23-2h8.64a5.7,5.7,0,0,0,.12-1.12,5.33,5.33,0,0,0-1.64-4,5.73,5.73,0,0,0-4.16-1.59,6.17,6.17,0,0,0-4.36,1.58,5.47,5.47,0,0,0,0,7.93A6.51,6.51,0,0,0,996.62,833.26Zm-2.2-8.1a3.3,3.3,0,0,1,2-.55,3.19,3.19,0,0,1,1.8.52,2.5,2.5,0,0,1,1,1.6h-5.85A2.64,2.64,0,0,1,994.42,825.16Zm3.77,72.8v.1h-1.65v2.61h1.65v7.89h3v-7.89h2.43v-2.61h-2.43V898c0-1.3.81-1.9,2.43-1.79v-2.6a5.58,5.58,0,0,0-4,1A4.19,4.19,0,0,0,998.19,898Zm156.16-14.6v-6.44a4.18,4.18,0,0,0-1.23-3.2,4.35,4.35,0,0,0-3.11-1.15,4,4,0,0,0-3.41,1.47v-1.18h-3v10.5h3v-5.67a2.33,2.33,0,0,1,2.52-2.6,2.33,2.33,0,0,1,1.65.56,2,2,0,0,1,.62,1.6v6.11Zm-13.39,0v-10.5h-3v1.24a4.69,4.69,0,0,0-3.74-1.53,5.39,5.39,0,0,0-3.93,1.61,5.54,5.54,0,0,0,0,7.87,5.43,5.43,0,0,0,3.93,1.61,4.67,4.67,0,0,0,3.74-1.54v1.24Zm-3.86-3.12a3.24,3.24,0,0,1-2.29.83,3.2,3.2,0,0,1-2.27-.83,2.78,2.78,0,0,1-.89-2.13,2.81,2.81,0,0,1,.89-2.13,3.24,3.24,0,0,1,2.27-.83,3.29,3.29,0,0,1,2.29.83,2.79,2.79,0,0,1,.9,2.13A2.76,2.76,0,0,1,1137.1,880.24Zm18.62,19.63v-1.81h-3v10.5h3v-5a2.34,2.34,0,0,1,1.07-2.16,3.75,3.75,0,0,1,2.42-.5v-3a4.4,4.4,0,0,0-2.12.51A2.89,2.89,0,0,0,1155.72,899.87Zm-10.82-2.1a6.14,6.14,0,0,0-4.35,1.58,5.45,5.45,0,0,0,0,7.93,6.49,6.49,0,0,0,4.56,1.58,5.87,5.87,0,0,0,5-2.25l-2.38-1.26a3.16,3.16,0,0,1-2.57,1c-1.76,0-2.84-.66-3.24-2h8.65a6.52,6.52,0,0,0,.11-1.12,5.29,5.29,0,0,0-1.64-3.95A5.73,5.73,0,0,0,1144.9,897.77Zm-3,4.56a2.63,2.63,0,0,1,1-1.57,3.32,3.32,0,0,1,2-.56,3.2,3.2,0,0,1,1.8.53,2.51,2.51,0,0,1,1,1.6Zm32.42,3.46a2.08,2.08,0,0,0-2.75,0,1.66,1.66,0,0,0,0,2.52,2,2,0,0,0,2.75,0,1.68,1.68,0,0,0,0-2.52ZM821.86,827.94a2.34,2.34,0,0,1,1.07-2.16,3.75,3.75,0,0,1,2.42-.5v-3a4.4,4.4,0,0,0-2.12.51,2.89,2.89,0,0,0-1.37,1.51v-1.81h-3V833h3Zm345.26,74.75a16.25,16.25,0,0,0-1.74-.5,8.43,8.43,0,0,1-1.48-.46c-.41-.18-.61-.4-.61-.69a.73.73,0,0,1,.38-.63,1.83,1.83,0,0,1,.95-.23,1.89,1.89,0,0,1,1.83,1.07L1169,900a4.48,4.48,0,0,0-1.81-1.64,5.56,5.56,0,0,0-2.55-.58,5.26,5.26,0,0,0-3.11.89,2.86,2.86,0,0,0-1.25,2.45,2.52,2.52,0,0,0,.61,1.71,3.67,3.67,0,0,0,1.48,1,16.4,16.4,0,0,0,1.74.52,9.63,9.63,0,0,1,1.48.47c.41.18.61.41.61.69,0,.6-.53.9-1.58.9a2.13,2.13,0,0,1-2.25-1.37l-2.57,1.33c.86,1.66,2.46,2.5,4.82,2.5a5.86,5.86,0,0,0,3.29-.87,2.82,2.82,0,0,0,1.32-2.49,2.7,2.7,0,0,0-.61-1.79A3.53,3.53,0,0,0,1167.12,902.69Zm.3-22.62a2,2,0,0,0-1.38.52,1.68,1.68,0,0,0,0,2.52,2,2,0,0,0,2.75,0,1.66,1.66,0,0,0,0-2.52A2,2,0,0,0,1167.42,880.07Zm-34.83,17.7a4,4,0,0,0-3.42,1.47v-5.38h-3v14.7h3v-5.67a2.55,2.55,0,0,1,.69-1.95,2.58,2.58,0,0,1,1.84-.65,2.4,2.4,0,0,1,1.65.55,2.08,2.08,0,0,1,.62,1.61v6.11h3v-6.44a4.21,4.21,0,0,0-1.22-3.2A4.37,4.37,0,0,0,1132.59,897.77ZM1087,881.44a7.28,7.28,0,0,0,0-10.86,9,9,0,0,0-11.82,0,7.3,7.3,0,0,0,0,10.86,9,9,0,0,0,11.82,0Zm-11.1-5.43a4.49,4.49,0,0,1,1.49-3.46,5.65,5.65,0,0,1,7.38,0,4.76,4.76,0,0,1,0,6.92,5.72,5.72,0,0,1-7.38,0A4.49,4.49,0,0,1,1075.89,876Zm-10.34,21.76a4,4,0,0,0-3.42,1.47v-1.18h-3v10.5h3v-5.67a2.55,2.55,0,0,1,.69-1.95,2.58,2.58,0,0,1,1.84-.65,2.4,2.4,0,0,1,1.65.55,2.08,2.08,0,0,1,.62,1.61v6.11h3v-6.44a4.21,4.21,0,0,0-1.22-3.2A4.37,4.37,0,0,0,1065.55,897.77Zm16.55-2.65-2.95.82v2.12h-2v2.61h2V905a3.34,3.34,0,0,0,1.25,3c.83.56,2.26.73,4.29.52v-2.45c-.56,0-1,0-1.42,0a1.5,1.5,0,0,1-.87-.29,1,1,0,0,1-.3-.8v-4.36h2.59v-2.61h-2.59Zm9.79,2.65a6.14,6.14,0,0,0-4.35,1.58,5.21,5.21,0,0,0-1.7,4,5.14,5.14,0,0,0,1.72,4,6.5,6.5,0,0,0,4.56,1.58,5.87,5.87,0,0,0,5-2.25l-2.38-1.26a3.15,3.15,0,0,1-2.57,1c-1.76,0-2.84-.66-3.23-2h8.64a5.65,5.65,0,0,0,.11-1.12,5.29,5.29,0,0,0-1.64-3.95A5.73,5.73,0,0,0,1091.89,897.77Zm-3,4.56a2.63,2.63,0,0,1,1-1.57,3.32,3.32,0,0,1,2-.56,3.15,3.15,0,0,1,1.8.53,2.51,2.51,0,0,1,1,1.6Zm32.16,3.47a3.34,3.34,0,0,1-1.6.37,3.11,3.11,0,0,1-2.2-.81,2.68,2.68,0,0,1-.87-2.05,2.7,2.7,0,0,1,.87-2.07,3.15,3.15,0,0,1,2.2-.8,3.25,3.25,0,0,1,1.57.37,2.54,2.54,0,0,1,1,1l2.54-1.36a5.07,5.07,0,0,0-2.09-2,6.32,6.32,0,0,0-3-.73,6.17,6.17,0,0,0-4.33,1.59,5.37,5.37,0,0,0,0,7.9,6.61,6.61,0,0,0,7.37.85,5.61,5.61,0,0,0,2.14-2l-2.57-1.35A2.38,2.38,0,0,1,1121.05,905.8Zm-12.67-6.5a4.69,4.69,0,0,0-3.74-1.53,5.37,5.37,0,0,0-3.93,1.61,5.54,5.54,0,0,0,0,7.87,5.41,5.41,0,0,0,3.93,1.61,4.67,4.67,0,0,0,3.74-1.54v1.24h3v-10.5h-3Zm-.91,6.14a3.53,3.53,0,0,1-4.55,0,3,3,0,0,1,0-4.26,3.53,3.53,0,0,1,4.55,0,2.95,2.95,0,0,1,0,4.26Zm-43-22.08h3.14v-5.73l5.51-9h-3.58l-3.49,6.12-3.48-6.12H1059l5.48,9ZM795.55,897.77a4,4,0,0,0-3.41,1.47v-1.18h-3v10.5h3v-5.67a2.55,2.55,0,0,1,.69-1.95,2.57,2.57,0,0,1,1.83-.65,2.37,2.37,0,0,1,1.65.55,2.08,2.08,0,0,1,.62,1.61v6.11h3v-6.44a4.18,4.18,0,0,0-1.23-3.2A4.35,4.35,0,0,0,795.55,897.77ZM784,899.87v-1.81h-3v10.5h3v-5a2.33,2.33,0,0,1,1.06-2.16,3.75,3.75,0,0,1,2.42-.5v-3a4.4,4.4,0,0,0-2.12.51A2.87,2.87,0,0,0,784,899.87Zm8.69-27v10.5h3v-5a2.35,2.35,0,0,1,1.07-2.16,3.75,3.75,0,0,1,2.42-.5v-3a4.4,4.4,0,0,0-2.12.51,2.89,2.89,0,0,0-1.37,1.51v-1.81Zm15.91,10.5h2.95v-6.44a4.18,4.18,0,0,0-1.22-3.2,4.37,4.37,0,0,0-3.11-1.15,3.93,3.93,0,0,0-3.41,1.47v-1.18h-3v10.5h3v-5.67a2.56,2.56,0,0,1,.68-2,2.58,2.58,0,0,1,1.84-.65,2.33,2.33,0,0,1,1.65.56,2,2,0,0,1,.62,1.6Zm-.3,25.2h3.16v-5.67h6.24v-2.77h-6.24v-3.49h6.42v-2.77h-9.58Zm-6.91-86.1-2.8,7.35-2.77-7.35h-3.26L796.9,833h3.37l4.35-10.5ZM787,882.12v1.24h3v-10.5h-3v1.24a4.7,4.7,0,0,0-3.74-1.53,5.37,5.37,0,0,0-3.93,1.61,5.54,5.54,0,0,0,0,7.87,5.41,5.41,0,0,0,3.93,1.61A4.68,4.68,0,0,0,787,882.12Zm-6.36-4a2.79,2.79,0,0,1,.9-2.13,3.21,3.21,0,0,1,2.27-.83,3.25,3.25,0,0,1,2.28.83,2.8,2.8,0,0,1,.91,2.13,2.77,2.77,0,0,1-.91,2.13,3.2,3.2,0,0,1-2.28.83,3.16,3.16,0,0,1-2.27-.83A2.76,2.76,0,0,1,780.67,878.11Zm-17,2.48h-6.12V868.66h-3.16v14.7h9.28Zm19.73-47.33a8.45,8.45,0,0,0,5.92-2.22,7.28,7.28,0,0,0,0-10.86,9,9,0,0,0-11.82,0,7.3,7.3,0,0,0,0,10.86A8.4,8.4,0,0,0,783.39,833.26Zm-3.69-11.11a5.65,5.65,0,0,1,7.38,0,4.76,4.76,0,0,1,0,6.92,5.72,5.72,0,0,1-7.38,0,4.76,4.76,0,0,1,0-6.92Zm31.57,11.11a5.87,5.87,0,0,0,5-2.25l-2.38-1.26a3.16,3.16,0,0,1-2.57,1c-1.76,0-2.84-.66-3.24-2h8.65a6.52,6.52,0,0,0,.11-1.12,5.29,5.29,0,0,0-1.64-4,5.73,5.73,0,0,0-4.16-1.59,6.14,6.14,0,0,0-4.35,1.58,5.45,5.45,0,0,0,0,7.93A6.5,6.5,0,0,0,811.27,833.26Zm-2.2-8.1a3.32,3.32,0,0,1,2-.55,3.19,3.19,0,0,1,1.8.52,2.51,2.51,0,0,1,1,1.6H808A2.63,2.63,0,0,1,809.07,825.16Zm-38.3,58.5a5.87,5.87,0,0,0,5-2.25l-2.39-1.26a3.13,3.13,0,0,1-2.56,1.05c-1.76,0-2.84-.66-3.24-2h8.65a6.52,6.52,0,0,0,.11-1.12,5.27,5.27,0,0,0-1.64-3.94,5.69,5.69,0,0,0-4.16-1.6,6.18,6.18,0,0,0-4.36,1.58,5.2,5.2,0,0,0-1.69,4,5.14,5.14,0,0,0,1.72,4A6.47,6.47,0,0,0,770.77,883.66Zm-2.2-8.1a3.32,3.32,0,0,1,2-.56,3.2,3.2,0,0,1,1.8.53,2.46,2.46,0,0,1,1,1.6h-5.84A2.63,2.63,0,0,1,768.57,875.56Zm-22.68,18.3h-3.16v14.7H752v-2.77h-6.13Zm13,3.91a6.14,6.14,0,0,0-4.35,1.58,5.21,5.21,0,0,0-1.7,4,5.14,5.14,0,0,0,1.72,4,6.5,6.5,0,0,0,4.56,1.58,5.87,5.87,0,0,0,5-2.25l-2.38-1.26a3.15,3.15,0,0,1-2.57,1c-1.76,0-2.84-.66-3.23-2h8.64a5.65,5.65,0,0,0,.11-1.12,5.32,5.32,0,0,0-1.63-3.95A5.75,5.75,0,0,0,758.89,897.77Zm-3,4.56a2.63,2.63,0,0,1,1-1.57,3.32,3.32,0,0,1,2-.56,3.15,3.15,0,0,1,1.8.53,2.51,2.51,0,0,1,1,1.6Zm19.49-3a4.69,4.69,0,0,0-3.74-1.53,5.37,5.37,0,0,0-3.93,1.61,5.54,5.54,0,0,0,0,7.87,5.41,5.41,0,0,0,3.93,1.61,4.67,4.67,0,0,0,3.74-1.54v1.24h3v-10.5h-3Zm-.91,6.14a3.53,3.53,0,0,1-4.55,0,3,3,0,0,1,0-4.26,3.53,3.53,0,0,1,4.55,0,2.95,2.95,0,0,1,0,4.26ZM825,883.36l2.17-6.36,2.16,6.36h2.9l3.35-10.5H832.7l-2,6.47-2.08-6.47h-2.8l-2.09,6.45-2-6.45h-3.13l3.37,10.5Zm106.95,19.13H938v-2.73h-6.07v-3.13h6.64v-2.77h-9.81v14.7h9.93v-2.77h-6.76Zm25.54,2-2.09-6.47h-2.8l-2.08,6.45-2-6.45h-3.12l3.37,10.5h2.9l2.16-6.36,2.17,6.36h2.9l3.34-10.5H959.4Zm-13.14-31.67-1.95,6.47-2.08-6.47h-2.8l-2.09,6.45-2-6.45H930.3l3.37,10.5h2.9l2.17-6.36,2.17,6.36h2.89l3.35-10.5Zm29.46,22.26-3,.82v2.12h-2v2.61h2V905a3.37,3.37,0,0,0,1.25,3c.84.56,2.27.73,4.3.52v-2.45c-.56,0-1,0-1.42,0a1.5,1.5,0,0,1-.87-.29,1,1,0,0,1-.3-.8v-4.36h2.59v-2.61h-2.59Zm-9.63,13.44h3v-10.5h-3Zm-29-50.85a5.51,5.51,0,0,0,2.13-2l-2.56-1.35a2.36,2.36,0,0,1-1.05,1,3.28,3.28,0,0,1-1.59.37,3.1,3.1,0,0,1-2.2-.81,2.68,2.68,0,0,1-.87-2.05,2.7,2.7,0,0,1,.87-2.07,3.13,3.13,0,0,1,2.2-.8,3.28,3.28,0,0,1,1.57.37,2.52,2.52,0,0,1,1,1l2.55-1.36a5.13,5.13,0,0,0-2.09-2,6.36,6.36,0,0,0-3-.73,6.13,6.13,0,0,0-4.32,1.59,5.37,5.37,0,0,0,0,7.9,6.09,6.09,0,0,0,4.32,1.6A6.26,6.26,0,0,0,935.16,857.71ZM831.09,901.26a4.17,4.17,0,0,0,.85-2.53,4.5,4.5,0,0,0-1.56-3.44,5.41,5.41,0,0,0-3.78-1.43h-6.42v14.7h3.16v-5.1h2.4l3.24,5.1h3.42L828.85,903A5.15,5.15,0,0,0,831.09,901.26Zm-3-1a2.09,2.09,0,0,1-1.54.64h-3.26v-4.35h3.26a2.12,2.12,0,0,1,1.54.63,2.09,2.09,0,0,1,.64,1.53A2.14,2.14,0,0,1,828.14,900.28Zm137.47-6.82a1.78,1.78,0,0,0-1.27.51,1.54,1.54,0,0,0,0,2.34,1.81,1.81,0,0,0,1.27.49,1.84,1.84,0,0,0,1.29-.49,1.54,1.54,0,0,0,0-2.34A1.81,1.81,0,0,0,965.61,893.46Zm5.09-16.21v6.11h3v-6.44a4.18,4.18,0,0,0-1.23-3.2,4.35,4.35,0,0,0-3.11-1.15,3.93,3.93,0,0,0-3.41,1.47v-1.18h-3v10.5h3v-5.67a2.32,2.32,0,0,1,2.52-2.6,2.33,2.33,0,0,1,1.65.56A2,2,0,0,1,970.7,877.25ZM860.09,900.8l-4.6-6.94h-3.26v14.7h3.17v-9.5l4.5,6.8h.37L864.8,899v9.53h3.14v-14.7h-3.27Zm57.82,0-4.6-6.94h-3.25v14.7h3.16v-9.5l4.5,6.8h.37l4.53-6.82v9.53h3.14v-14.7h-3.27Zm-70.33-5a9,9,0,0,0-11.82,0,7.3,7.3,0,0,0,0,10.86,9,9,0,0,0,11.82,0,7.28,7.28,0,0,0,0-10.86Zm-2.23,8.89a5.72,5.72,0,0,1-7.38,0,4.76,4.76,0,0,1,0-6.92,5.65,5.65,0,0,1,7.38,0,4.76,4.76,0,0,1,0,6.92Zm14-22.55v1.24h3v-10.5h-3v1.24a4.67,4.67,0,0,0-3.73-1.53,5.37,5.37,0,0,0-3.93,1.61,5.54,5.54,0,0,0,0,7.87,5.41,5.41,0,0,0,3.93,1.61A4.64,4.64,0,0,0,859.38,882.12Zm-6.35-4a2.79,2.79,0,0,1,.9-2.13,3.21,3.21,0,0,1,2.27-.83,3.26,3.26,0,0,1,2.28.83,2.79,2.79,0,0,1,.9,2.13,2.76,2.76,0,0,1-.9,2.13,3.22,3.22,0,0,1-2.28.83,3.16,3.16,0,0,1-2.27-.83A2.76,2.76,0,0,1,853,878.11Zm53.26-7.53a9,9,0,0,0-11.81,0,7.3,7.3,0,0,0,0,10.86,9,9,0,0,0,11.81,0,7.26,7.26,0,0,0,0-10.86Zm-2.22,8.89a5.72,5.72,0,0,1-7.38,0,4.76,4.76,0,0,1,0-6.92,5.65,5.65,0,0,1,7.38,0,4.76,4.76,0,0,1,0,6.92ZM885.78,899.7h-6v-5.84h-3.16v14.7h3.16v-6.09h6v6.09h3.14v-14.7h-3.14ZM869,869.92l-3,.82v2.12h-2v2.61h2v4.36a3.37,3.37,0,0,0,1.25,3c.84.56,2.27.73,4.3.52v-2.45c-.56,0-1,0-1.42,0a1.43,1.43,0,0,1-.87-.29,1,1,0,0,1-.3-.8v-4.36h2.59v-2.61H869Z" transform="translate(-599.69 -165.41)" fill="#17143f"/><line x1="203.35" y1="524.79" x2="502.93" y2="524.79" fill="none" stroke="#4cc9f1" stroke-miterlimit="10" stroke-width="1.17"/><path d="M906.42,670l-3.32-9.4H881.65l-3.14,9.4H867.4l18.28-52.21h12.75L916.85,670ZM885,651h14.7l-7.54-21.33Z" transform="translate(-599.69 -165.41)" fill="#71519f"/><path d="M942.29,671a23.37,23.37,0,0,1-13.06-3.47,18.56,18.56,0,0,1-7.45-9.44l8.8-5.15q3.06,8,12,8,4.32,0,6.34-1.56a4.93,4.93,0,0,0-.45-8.24,37.86,37.86,0,0,0-8.8-3.32,56.16,56.16,0,0,1-5.93-2.09,25.43,25.43,0,0,1-4.85-2.8,11.34,11.34,0,0,1-3.69-4.44,14.46,14.46,0,0,1-1.27-6.26,14,14,0,0,1,5-11.3,18.28,18.28,0,0,1,12.12-4.22,20.13,20.13,0,0,1,11.16,3.1,20.8,20.8,0,0,1,7.49,8.61l-8.65,5q-3.14-6.7-10-6.71a7.88,7.88,0,0,0-5,1.45,4.6,4.6,0,0,0-1.83,3.77,4.77,4.77,0,0,0,2,4c1.37,1,4,2.12,7.87,3.32l3.62,1.15c.82.28,1.94.7,3.36,1.27a19.63,19.63,0,0,1,3.28,1.61,26.18,26.18,0,0,1,2.65,2,10.51,10.51,0,0,1,2.27,2.61,15.22,15.22,0,0,1,1.35,3.25,14.65,14.65,0,0,1,.55,4.14A14,14,0,0,1,956,666.77Q950.72,671,942.29,671Z" transform="translate(-599.69 -165.41)" fill="#71519f"/><path d="M1004.35,617.77v9.84h-14.1V670H980V627.61h-14v-9.84Z" transform="translate(-599.69 -165.41)" fill="#71519f"/><path d="M1024.12,660.13h22V670h-32.3V617.77h31.93v9.84h-21.63v11.12h19.76v9.69h-19.76Z" transform="translate(-599.69 -165.41)" fill="#71519f"/><path d="M1085.73,670l-10.56-18.13h-7.79V670h-10.29V617.77H1078a17.31,17.31,0,0,1,17.38,17.3,15.9,15.9,0,0,1-2.76,9,17.23,17.23,0,0,1-7.31,6.23L1096.84,670Zm-18.35-42.59v15.44H1078a6.55,6.55,0,0,0,5-2.28,7.81,7.81,0,0,0,2.09-5.48,7.68,7.68,0,0,0-2.09-5.44,6.58,6.58,0,0,0-5-2.24Z" transform="translate(-599.69 -165.41)" fill="#71519f"/><path d="M1128.87,618a116.53,116.53,0,0,0-22.33,32.35c-2,4.22,4.62,7.29,6.59,3A107.94,107.94,0,0,1,1127,631.08q-3.75,36.36-7.5,72.73c-.48,4.61,6.66,5.93,7.14,1.28q4.35-42.23,8.73-84.47C1135.75,616.76,1131.26,615.54,1128.87,618Z" transform="translate(-599.69 -165.41)" fill="#71519f"/><path d="M848,617.77l-14.9,24.65-10.25-16.87c-4.53,1.39-9.84,2.76-15.31,4.23V670h10.29V636.24l14.66,24.14,1.2,0,14.72-24.22V670h10.22V617.77Z" transform="translate(-599.69 -165.41)" fill="#71519f"/><path d="M836.62,611.53l-.56-.43-.73-.7.2-.14-.69-.12-.74-.58.07.47-.27,0a.75.75,0,0,0-.29,0l-.4-.06a2.1,2.1,0,0,0-1.36.08,2.27,2.27,0,0,0-1.37-.41h-.21c-.92-.07-1.83-.17-2.74-.28l-.42,0a5.09,5.09,0,0,1-.66-.12,4.12,4.12,0,0,0-2-.07,3.53,3.53,0,0,1-.51.1l-.48-.22v.17h0a8.5,8.5,0,0,0-2.17-.23,2.27,2.27,0,0,1-.42,0l-.55-.45-.43.38-.06.07-.77,0h-.66v-.92l-.78.79s-.07,0-.12,0l-1.33-.14-1-.09c-.57-.06-1.15-.12-1.71-.22a6,6,0,0,1-.73-.17l-.61-.14a1,1,0,0,0-.65.1l-.25.1s-.08,0,0,.05a9.24,9.24,0,0,1-1.31-.17,2.75,2.75,0,0,0-1.85.42l-.38-.08.13.24a2.83,2.83,0,0,0-.61.58,1.32,1.32,0,0,1-.69.47,2.68,2.68,0,0,0-1.29.69l-.37.39a8,8,0,0,1-1.12,1.07,2.08,2.08,0,0,0-.44.46l-.16.2-.66.48c-.3.2-.59.41-.87.64s-.52.48-.78.72a9,9,0,0,1-.86.78,22.51,22.51,0,0,1-1.88,1.31l-.4.27a1.85,1.85,0,0,0-.9,1.23.84.84,0,0,0-.36.15c-.29.22-.59.42-.88.62a10.23,10.23,0,0,0-2.37,2,1.94,1.94,0,0,1-.57.39c-.16.09-.33.18-.48.28a2.45,2.45,0,0,0-.46.43,2.23,2.23,0,0,0-.19.24l-.1.14-.85.74-1,.85a1.54,1.54,0,0,0-.18.2C788.13,624.1,788,625,788,626a2,2,0,0,0,1.48,1.73,18.88,18.88,0,0,0,1.95.2c.54,0,1.08,0,1.64,0a2.11,2.11,0,0,1,0,.25,2,2,0,0,0,.48,1.32v0a2.24,2.24,0,0,0,.1.44,1.13,1.13,0,0,0,.12.21,6.76,6.76,0,0,0,.3,1.77,7.78,7.78,0,0,1,.24,1.1l.06.46.28.07a1.47,1.47,0,0,0,.21.8l.19.27h-.22l.32.55-.06.26.27.1.38.66-.22.73.07,0a1.23,1.23,0,0,0,0,.19c0,.07,0,.17,0,.2-.1.26-.21.51-.31.76s-.16.37-.23.55a1.37,1.37,0,0,0-.1.41c0,.14-.09.28-.14.42l-.12.37c-.08.22-.15.44-.22.66a.89.89,0,0,0,.29.9,1.22,1.22,0,0,0,.79.27l.3,0a1.15,1.15,0,0,0,.8-.61,2.93,2.93,0,0,0,.2-.69l.09-.38s0-.08,0-.11l.1-.14.18-.25.28.11-.63.86,1.35-.62.4.09.17-.35,2-.89-.44-.57,1.21-1.61-1.78.87-.21-.28-.18-.07L799,637a1.74,1.74,0,0,1-.43-.15,2.12,2.12,0,0,1-1-1.75,1,1,0,0,0-.34-.88c-.25-.2-.22-.27-.11-.47l.24-.43-.34-.36a2.73,2.73,0,0,1-.53-1.62l-.09-.68-.24,0s0-.05,0-.07c-.06-.22-.14-.44-.22-.65s-.11-.3-.16-.45c-.12-.39-.22-.77-.33-1.16l0-.14c.29,0,.57.08.86.1s.84,0,1.27,0l.92,0,.49-.92,2,1.35-.32-1.75a3.67,3.67,0,0,0-.14-.64.61.61,0,0,0,0-.12.88.88,0,0,0,.16-.27,2.13,2.13,0,0,1,1.19-1.17l.14-.08a3.37,3.37,0,0,0,1-.61c.11-.1.21-.22.31-.33a2.76,2.76,0,0,1,.48-.46l.08,0v0a.65.65,0,0,1,.2,0l.38-.05.18-.3c0-.07.15-.12.4-.21a2.4,2.4,0,0,0,.78-.42,5.85,5.85,0,0,1,.52-.37l.49,1,.3-1.39.43-.18c.65-.25,1.33-.45,2-.66l1-.28.35-.24a1.12,1.12,0,0,1,.19-.15,1.22,1.22,0,0,1,.17-.05,1.67,1.67,0,0,0,.32-.08l.84-.29,1.12-.38.16,0,.17,0a1.11,1.11,0,0,0,1-.11,2,2,0,0,1,.73-.28,4.86,4.86,0,0,0,.76-.26l.28-.05.42,0a4.73,4.73,0,0,0,1.07-.19,7,7,0,0,1,2.44-.27,2,2,0,0,0,1.33-.36l.22.05c.53.08,1.07.14,1.61.2l.49.06a1,1,0,0,0,.38,0,1.77,1.77,0,0,1,1.15.35,1,1,0,0,1,.41,1,1.7,1.7,0,0,0,.06.51l.55,1.7.66,2c.11.35.21.69.32,1.05a2,2,0,0,0-.83-.16,4.2,4.2,0,0,0-.87.06,6.06,6.06,0,0,1-.85,0,14.94,14.94,0,0,0-2.62.22c-.36,0-.71.13-1.07.21s-.61.14-.92.19c-.67.1-1.36.15-2,.21l-.37,0a1.54,1.54,0,0,0-1.24.67.8.8,0,0,0-.38,0c-1,.2-1.95.42-2.92.65a1.16,1.16,0,0,0-.5.29l-.58.13-.58.13a1.28,1.28,0,0,0-.49.27l-.24.17-.89.38-1.05.44a1,1,0,0,0-.23.15,2.41,2.41,0,0,0-1.3.4,3,3,0,0,1-.4.2,10.1,10.1,0,0,0-2.88,1.61l-.19.14-.57.39a6.63,6.63,0,0,0-2.43,2.35,2.83,2.83,0,0,0-.4,1.46v1.31l1.07-.75.26-.17a2.53,2.53,0,0,0,.67-.55,6.46,6.46,0,0,1,1.74-1.54,9.3,9.3,0,0,0,.91-.57l.49-.31.49-.28,1.12-.64c.52-.3,1-.6,1.57-.89a2.62,2.62,0,0,1,.39-.15,3.38,3.38,0,0,0,.74-.33,1.86,1.86,0,0,0,.31-.26h0a1.06,1.06,0,0,0,.86-.16l.39-.2.38-.2a1.62,1.62,0,0,0,1.4-.57h.09a1.43,1.43,0,0,0,.61,0,1.32,1.32,0,0,0,.9-.27,1.85,1.85,0,0,0,1.19-.25l1.79-.39a1,1,0,0,0,.44-.16c.28-.19.36-.19.45-.16a1.87,1.87,0,0,0,.91,0l.74-.17.6-.14h.16a1.15,1.15,0,0,0,.89-.29s.17,0,.44,0a2.35,2.35,0,0,0,1.12,0l.35-.13c.08,0,.2-.08.16-.1a2.64,2.64,0,0,0,1,0,1.6,1.6,0,0,1,.49,0l.64.11a6.08,6.08,0,0,1,1.08.24,4.83,4.83,0,0,0,.81.21l0,.06c0,.14-.08.3-.11.46a1.68,1.68,0,0,0-.86.71l-.65.52-.36.3a3.12,3.12,0,0,1-.6.45l-.16.08a4.41,4.41,0,0,0-1.24.78l-.69-1.23-.42,1.76-.21.09-.23.06a2.06,2.06,0,0,0-1,.47l-.34-.37-.3.53a1.28,1.28,0,0,0-.73,0,1.2,1.2,0,0,0-.63.59,1.51,1.51,0,0,0-.66.2h0l-1.47-.76.48,1.22a1.62,1.62,0,0,0-1.11.77,8.89,8.89,0,0,1-.9.15,1.39,1.39,0,0,0-1,.46l-2.58.47-.49.16-.06.38-.24,0-.34,0-.27.28-.21-.43-2.41.74.33.34-.12.05.5.34.31.32.14.11-.42.42.83-.13.14.11.16-.15,1.09-.16c.19,0,.41-.06.62-.11a1.74,1.74,0,0,0,.41-.17l.13-.06a4,4,0,0,1,.66-.16,2.17,2.17,0,0,1,.36,0,3.38,3.38,0,0,0,.75-.07c.48-.11,1-.24,1.44-.37s.9-.25,1.36-.36a3.29,3.29,0,0,1,.43-.09,3.91,3.91,0,0,0,1.85-.74l.14-.12.08-.07.59.06-.09-.24a8.5,8.5,0,0,0,1.49-.56l.4-.18.19.26.72-.65a2,2,0,0,1,.16-.14l.16-.07.3-.15.49-.29.34.68.35-1.1.92-.54,1.54-.89,1.91-1.1a1,1,0,0,0,.46-.91l.06,0a2.38,2.38,0,0,0,.62-2.7c-.16-.28-.33-.55-.48-.8l0,0v0a4.57,4.57,0,0,0,.12-.86,1.71,1.71,0,0,0-.17-.69,1.15,1.15,0,0,1-.06-.17c-.14-.54-.27-1.08-.4-1.62l-.21-.89a5,5,0,0,0-.18-.66c-.11-.27-.23-.54-.35-.81s-.26-.59-.37-.9a2.62,2.62,0,0,1-.11-.4,2.45,2.45,0,0,0-.44-1.11,1.3,1.3,0,0,0-.52-1.07.87.87,0,0,0-.67-.17l-.05-.07a1.32,1.32,0,0,0-1.53-.52.76.76,0,0,0-.44-.25l-1.44-.23a1.21,1.21,0,0,0-.73.06l.44-.65-1.87.58a3.54,3.54,0,0,0-.39.14l-.13.06a2.16,2.16,0,0,0-1.49.07l-.2,0-.25,0h-.14a1.47,1.47,0,0,0-.79.2.49.49,0,0,1-.42.06,1.46,1.46,0,0,0-.79.06l-.78.33v-.09l-1,.29a1.69,1.69,0,0,0-.27.1,1.51,1.51,0,0,1-.33.09,5.18,5.18,0,0,0-1.84.55l-.26.15-.22.13a2,2,0,0,0-1.34.53,1,1,0,0,0-.47,0v0l-1.27.53a1.33,1.33,0,0,0-.24.11,3.07,3.07,0,0,0-.31.17,2.69,2.69,0,0,1-.39.19,3.29,3.29,0,0,0-1.14.46l0-.08-.6.3a3.79,3.79,0,0,0-.34.2l-.22.14a1.23,1.23,0,0,0-.58.1l.2-.58-.81.59h0l-.55.43-.12.06-.42.22a.73.73,0,0,0-.32.36,1.87,1.87,0,0,0-.27.12c-.13.07-.25.15-.37.23l-.69.43v0l-.18.25a4.85,4.85,0,0,0-.29.49l-.09.15s0,.07-.06.11l-.53.3-.48.26-.07.28c0,.13-.05.25-.07.38a.86.86,0,0,1,0,.17,1.45,1.45,0,0,0-.16.18l-.48-.13-.83,2.2a1.36,1.36,0,0,0-.57-.31,15.19,15.19,0,0,0-2-.27c-.37,0-.75-.06-1.13-.09s-1.06-.06-1.59-.13l-.51-.07c-.55-.07-1.12-.15-1.76-.18l.12-.1.11-.09.4-.36.23-.25a2.8,2.8,0,0,1,.23-.24.59.59,0,0,1,.14-.06,1.62,1.62,0,0,0,.45-.21,2.71,2.71,0,0,0,.47-.42l.69-.68c.21-.12.43-.24.63-.37a1,1,0,0,0,.4-.52,1.79,1.79,0,0,0,.76-.36l.19-.13a.71.71,0,0,0,.49-.4.73.73,0,0,0,.09-.13,2.92,2.92,0,0,0,1.41-1.13l.28-.34a1.1,1.1,0,0,0,.79-.46l.21.14.1-.14h0l.25-.33,1.16-.24-.55-.44.1-.09.37-.23a4.39,4.39,0,0,0,.68-.44c.42-.33.82-.69,1.22-1l.49-.42.14-.17a.13.13,0,0,1,0-.05,1.15,1.15,0,0,0,.55-.49,1.45,1.45,0,0,0,1-.67l.36-.43a2.77,2.77,0,0,1,.62-.65,2,2,0,0,0,.49-.44h.14a.85.85,0,0,0,.63-.49,2.18,2.18,0,0,0,.27-.24l.12-.11.55-.44c.37-.28.74-.57,1.08-.88a6.83,6.83,0,0,0,.73-.79l.08-.08a2.92,2.92,0,0,0,1.51-.06,2,2,0,0,0,1.77.26v0l1.45.17c.49.06,1,.12,1.46.16l.17,0a5,5,0,0,0,1.33,0l-.1,1.38,1.27-1.16a.79.79,0,0,0,.62,0,1.43,1.43,0,0,0,1.51.13l.19.53.51-.3h0a1.28,1.28,0,0,0,1.58.12,1,1,0,0,0,.49.11,3,3,0,0,0,.8.09l.48,0,.06.17,1-.23.89-.2a1,1,0,0,1,.27,0,3.09,3.09,0,0,1,.53.09,2.89,2.89,0,0,0,1.93-.09,1.56,1.56,0,0,1,.59-.08l0,.36,2.86.38.11-.33h.35a.79.79,0,0,0,.7,0l.41.24.28.14a1,1,0,0,0,.67.51l1.26,1.53-.27-1.67ZM798.89,626.8l0,.26-.31-.24a.69.69,0,0,1-.13-.11Zm4.3-11.57-.44-.46.58.38Z" transform="translate(-599.69 -165.41)" fill="#71519f"/></svg>