<svg id="Layer_1" data-name="Layer 1" xmlns="http://www.w3.org/2000/svg" xmlns:xlink="http://www.w3.org/1999/xlink" viewBox="0 0 2000 263.58" preserveAspectRatio="none"><defs><style>.cls-1,.cls-3{opacity:0.5;}.cls-1{fill:url(#linear-gradient);}.cls-2{fill:#7e64b2;}.cls-3{fill:url(#linear-gradient-2);}</style><linearGradient id="linear-gradient" x1="-214.42" y1="612.28" x2="1913.37" y2="612.28" gradientUnits="userSpaceOnUse"><stop offset="0" stop-color="#fff" stop-opacity="0"/><stop offset="0.24" stop-color="#cbeffb" stop-opacity="0.29"/><stop offset="0.51" stop-color="#95dff7" stop-opacity="0.59"/><stop offset="0.74" stop-color="#6dd3f4" stop-opacity="0.81"/><stop offset="0.91" stop-color="#55ccf2" stop-opacity="0.95"/><stop offset="1" stop-color="#4cc9f1"/></linearGradient><linearGradient id="linear-gradient-2" x1="-273.3" y1="630.02" x2="1983.86" y2="630.02" gradientUnits="userSpaceOnUse"><stop offset="0" stop-color="#fff" stop-opacity="0"/><stop offset="0.05" stop-color="#f6effa" stop-opacity="0.06"/><stop offset="0.39" stop-color="#bd8ddd" stop-opacity="0.46"/><stop offset="0.67" stop-color="#9446c8" stop-opacity="0.75"/><stop offset="0.88" stop-color="#7b1abb" stop-opacity="0.93"/><stop offset="1" stop-color="#7109b6"/></linearGradient></defs><path class="cls-1" d="M1900.07,612.94c-59,2.29-304.28,9.23-526.8-21.83C934.29,529.83,680.71,493.18,312,484.73c-192-4.39-326.81-4.67-411.88-3.92V744.07h2000Z" transform="translate(99.93 -480.49)"/><path class="cls-2" d="M1900.07,744.07V681.85c-97.16,2.15-296.29,2.41-479.92-23.23-439-61.28-692.57-97.93-1061.32-106.37-232.16-5.32-380.62-4.61-458.76-3.36V744.07Z" transform="translate(99.93 -480.49)"/><path class="cls-3" d="M1900.07,744.07V649.59c-93,2.33-299.69,3.54-489.77-23C971.32,565.31,717.74,528.66,349,520.22c-222.75-5.1-368.45-4.66-448.91-3.51V744.07Z" transform="translate(99.93 -480.49)"/></svg>