<svg xmlns="http://www.w3.org/2000/svg" viewBox="0 0 1084.48 450.78"><path d="M921.58,597.58c13.22-30.15,23.8-79.5,73.42-119,47.16-37.53,97.16-31.36,136.72-25.82,67.59,9.46,108.44-12.35,159-48.61s84-72.78,162.54-45.07c34.43,12.15,58,38.54,61.26,92.16,2.43,39.33-11.53,102.15-58.23,160.51-36.45,45.57-77.82,72.46-145.32,87.6-83.54,18.73-130.13,38.48-279,0-46.67-12.07-83-26.33-129.12,32.91-39.63,51-60.39,14.85-30.38-33.42C907.41,642.65,905.68,633.86,921.58,597.58Z" transform="translate(-430.3 -330.8)" fill="#4cc9f1"/><rect x="583.44" y="420.2" width="410.14" height="12.66" rx="6.06" fill="#7653ad"/><rect x="792.79" y="403.24" width="106.33" height="12.66" rx="6.06" fill="#ffd150"/><path d="M947.72,582.88l.09-.86a3.83,3.83,0,0,1,3.8-3.4h29.33l-5.46,49.47h-6.2" transform="translate(-430.3 -330.8)" fill="none" stroke="#18327c" stroke-linecap="round" stroke-linejoin="round" stroke-width="0.55"/><polygon points="614.19 248.7 608.29 298.17 613.04 298.17 619.43 248.7 614.19 248.7" fill="none" stroke="#18327c" stroke-linecap="round" stroke-linejoin="round" stroke-width="0.55"/><polygon points="552.55 248.2 546.99 296.64 552.55 296.64 557.47 248.2 552.55 248.2" fill="none" stroke="#18327c" stroke-linecap="round" stroke-linejoin="round" stroke-width="0.55"/><polygon points="606.16 298.17 573.41 298.17 578.87 248.7 611.62 248.7 606.16 298.17" fill="none" stroke="#18327c" stroke-linecap="round" stroke-linejoin="round" stroke-width="0.55"/><polygon points="599.68 264.07 585.35 264.07 586.21 256.56 600.54 256.56 599.68 264.07" fill="none" stroke="#18327c" stroke-linejoin="round" stroke-width="0.55"/><polygon points="621.16 255.89 635.16 255.53 631.29 298.43 614.85 298.17 621.16 255.89" fill="none" stroke="#18327c" stroke-linecap="round" stroke-linejoin="round" stroke-width="0.55"/><line x1="639.94" y1="251.76" x2="634.48" y2="298.16" fill="none" stroke="#18327c" stroke-linecap="round" stroke-linejoin="round" stroke-width="0.55"/><line x1="643.67" y1="249.72" x2="637.21" y2="298.16" fill="none" stroke="#18327c" stroke-linecap="round" stroke-linejoin="round" stroke-width="0.55"/><line x1="645.72" y1="256.49" x2="640.3" y2="298.21" fill="none" stroke="#18327c" stroke-linecap="round" stroke-linejoin="round" stroke-width="0.55"/><polygon points="564.41 222.96 545.78 222.96 548.89 194.82 567.52 194.82 564.41 222.96" fill="none" stroke="#18327c" stroke-linecap="round" stroke-linejoin="round" stroke-width="0.55"/><polygon points="560.73 203.56 552.58 203.56 553.06 199.29 561.21 199.29 560.73 203.56" fill="none" stroke="#18327c" stroke-linecap="round" stroke-linejoin="round" stroke-width="0.55"/><polygon points="572.95 198.91 580.91 198.7 578.71 223.1 569.35 222.96 572.95 198.91" fill="none" stroke="#18327c" stroke-linecap="round" stroke-linejoin="round" stroke-width="0.55"/><path d="M1506.16,410c-41-15.7-70.38-2.53-81.42,10.18-13.19,15.19-23,24.38-31.82,21.85s-15.8-1.52-22.46,5.57-9.25,13.56-17.58,12.6-16,15.14-6.34,17.22c7.23,1.55,129.63-1.11,166.2-1.59" transform="translate(-430.3 -330.8)" fill="none" stroke="#fff" stroke-linecap="round" stroke-miterlimit="10" stroke-width="1.52"/><path d="M1213.49,434.28" transform="translate(-430.3 -330.8)" fill="none" stroke="#fff" stroke-linecap="round" stroke-miterlimit="10" stroke-width="1.52"/><path d="M1288.6,406.5c9.51,7.53,12.59,8.39,20.41,7.2s10.28-1.24,15.89,2.84,9.5,5.77,16.92,5.43,11.86.46,11.92,5.12-1.52,6.18-9.84,6.18c-5.13,0-66.71.51-100.53.51" transform="translate(-430.3 -330.8)" fill="none" stroke="#fff" stroke-linecap="round" stroke-miterlimit="10" stroke-width="1.52"/><path d="M1449.74,427.72c-4.84,1.7-9.94,4.27-13.53,8.08-9,9.62-15.88,18.25-25.63,18.24s-26.65-.64-30.6,4.74" transform="translate(-430.3 -330.8)" fill="none" stroke="#fff" stroke-linecap="round" stroke-linejoin="round" stroke-width="1.52"/><path d="M1470.42,436.11a34.31,34.31,0,0,0-9.81,3.58,180.37,180.37,0,0,0-15.68,10.44" transform="translate(-430.3 -330.8)" fill="none" stroke="#fff" stroke-linecap="round" stroke-linejoin="round" stroke-width="1.52"/><path d="M1272.15,417c7.81,5.73,16,10.18,24.38,7.31,9.37-3.22,14.94-1.85,18.23,0" transform="translate(-430.3 -330.8)" fill="none" stroke="#fff" stroke-linecap="round" stroke-linejoin="round" stroke-width="1.52"/><path d="M1466.16,420.11s13.16-2,23.8,0c8.42,1.6,21.82,9.28,21.82,9.28" transform="translate(-430.3 -330.8)" fill="none" stroke="#fff" stroke-linecap="round" stroke-linejoin="round" stroke-width="1.52"/><path d="M1192,443.76c1-.25,2.1-.51,3.15-.79" transform="translate(-430.3 -330.8)" fill="none" stroke="#18327c" stroke-linecap="round" stroke-miterlimit="10" stroke-width="1.01"/><path d="M1180.42,445.84q3.21-.42,6.41-1" transform="translate(-430.3 -330.8)" fill="none" stroke="#18327c" stroke-linecap="round" stroke-miterlimit="10" stroke-width="1.01"/><path d="M956.88,612c-8.26-16.79-12.53-37.06-12.11-61.49.61-34.94,30.68-86.5,95.2-105.32,44.74-13.06,90.71,5.05,135.15,1.23" transform="translate(-430.3 -330.8)" fill="none" stroke="#18327c" stroke-linecap="round" stroke-miterlimit="10" stroke-width="1.01"/><path d="M963,622.63c-1.06-1.61-2.06-3.26-3-4.94" transform="translate(-430.3 -330.8)" fill="none" stroke="#18327c" stroke-linecap="round" stroke-miterlimit="10" stroke-width="1.01"/><path d="M967.25,628.7c-.66-.86-1.31-1.74-1.94-2.62" transform="translate(-430.3 -330.8)" fill="none" stroke="#18327c" stroke-linecap="round" stroke-miterlimit="10" stroke-width="1.01"/><path d="M1001.7,658.52l-2.65-1.6" transform="translate(-430.3 -330.8)" fill="none" stroke="#18327c" stroke-linecap="round" stroke-miterlimit="10" stroke-width="1.01"/><path d="M1013.8,664.94q-3.87-1.86-7.59-3.87" transform="translate(-430.3 -330.8)" fill="none" stroke="#18327c" stroke-linecap="round" stroke-miterlimit="10" stroke-width="1.01"/><path d="M1488.81,496.41a185.34,185.34,0,0,1-21.49,64.71c-66.33,121-158.93,129.13-270.86,130.39-58.22.65-125-2-175.11-23.18" transform="translate(-430.3 -330.8)" fill="none" stroke="#18327c" stroke-linecap="round" stroke-miterlimit="10" stroke-width="1.01"/><path d="M1490.18,471.68q.15,6.72-.28,13.55" transform="translate(-430.3 -330.8)" fill="none" stroke="#18327c" stroke-linecap="round" stroke-miterlimit="10" stroke-width="1.01"/><path d="M1489.3,458.38c.19,1.75.36,3.51.49,5.28" transform="translate(-430.3 -330.8)" fill="none" stroke="#18327c" stroke-linecap="round" stroke-miterlimit="10" stroke-width="1.01"/><path d="M1454.54,383.92q1.68,1.65,3.28,3.35" transform="translate(-430.3 -330.8)" fill="none" stroke="#18327c" stroke-linecap="round" stroke-miterlimit="10" stroke-width="1.01"/><path d="M1445.38,375.87q3.19,2.52,6.17,5.22" transform="translate(-430.3 -330.8)" fill="none" stroke="#18327c" stroke-linecap="round" stroke-miterlimit="10" stroke-width="1.01"/><path d="M1278.82,386.13c34.94-28.15,63.87-44.85,114.07-34.13,18.08,3.86,33.61,10.59,46.62,19.54" transform="translate(-430.3 -330.8)" fill="none" stroke="#18327c" stroke-linecap="round" stroke-miterlimit="10" stroke-width="1.01"/><path d="M1261,400.88q4.55-3.79,8.9-7.42" transform="translate(-430.3 -330.8)" fill="none" stroke="#18327c" stroke-linecap="round" stroke-miterlimit="10" stroke-width="1.01"/><path d="M1251.34,408.91l4.25-3.53" transform="translate(-430.3 -330.8)" fill="none" stroke="#18327c" stroke-linecap="round" stroke-miterlimit="10" stroke-width="1.01"/><path d="M1398.59,595.63c-5.9-4.4-15.08-24.82-8.65-37.81s13.26-4.89,14.77-14.68-2.94-18.49,6.3-24.83,16-7.69,17.92-14.79,6.21-11.52,16.21-17.56,24.38,3.55,18.82,14.27c-4.68,9-3.52,20.73-.74,27s5.45,11.51-1.49,19.09-14.32,10.45-13.66,21.32,7.27,15.71-5.24,23.84C1425.84,602.55,1408.22,602.81,1398.59,595.63Z" transform="translate(-430.3 -330.8)" fill="none" stroke="#18327c" stroke-miterlimit="10" stroke-width="0.73"/><path d="M1455.52,484.41S1442,504,1424.7,540c-14.33,29.77-15.78,60-15.78,60" transform="translate(-430.3 -330.8)" fill="none" stroke="#18327c" stroke-miterlimit="10" stroke-width="0.73"/><path d="M1396.94,550.1c1.37,11.28,13.38,37.49,13.38,37.49" transform="translate(-430.3 -330.8)" fill="none" stroke="#18327c" stroke-miterlimit="10" stroke-width="0.73"/><path d="M1411,518.31a59.3,59.3,0,0,1,4.24,14.18,190.33,190.33,0,0,0,4.63,18.68s7.76-8.55,18.73-11.22l26.64-6.46" transform="translate(-430.3 -330.8)" fill="none" stroke="#18327c" stroke-miterlimit="10" stroke-width="0.73"/><path d="M1434.3,494s3,5.79,2.42,11a85.38,85.38,0,0,0-.28,11.82" transform="translate(-430.3 -330.8)" fill="none" stroke="#18327c" stroke-miterlimit="10" stroke-width="0.73"/><path d="M1437.15,515.46s7.4-4.67,11.86-7.63,13.45-4.06,13.45-4.06" transform="translate(-430.3 -330.8)" fill="none" stroke="#18327c" stroke-miterlimit="10" stroke-width="0.73"/><path d="M1410.21,586.45s14-7.36,20.3-11.09,17.84-5.06,17.84-5.06" transform="translate(-430.3 -330.8)" fill="none" stroke="#18327c" stroke-miterlimit="10" stroke-width="0.73"/><path d="M1387.11,619.32c2.76-4.11,4-19.11-2.94-25.92s-9.5-.15-12.64-6S1369.28,575,1362,573s-11.9-1.31-14.67-5.4-6.51-5.92-14.2-7.53-14.68,7.68-8.77,13.25c5,4.69,6.85,12.37,6.49,17s-.89,8.52,5.2,11.78,11.42,3.44,13.42,10.48-1.11,11.59,8.63,14C1371.36,629.78,1382.59,626,1387.11,619.32Z" transform="translate(-430.3 -330.8)" fill="none" stroke="#18327c" stroke-miterlimit="10" stroke-width="0.73"/><path d="M1326.79,561.8s12.35,9.05,31.35,28a117,117,0,0,1,23.37,34.54" transform="translate(-430.3 -330.8)" fill="none" stroke="#18327c" stroke-miterlimit="10" stroke-width="0.73"/><path d="M1378,590.06s-1.15,1.39-.66,8.31.52,18.46.52,18.46" transform="translate(-430.3 -330.8)" fill="none" stroke="#18327c" stroke-miterlimit="10" stroke-width="0.73"/><path d="M1362,573a39.86,39.86,0,0,0,.46,9.94,127.07,127.07,0,0,1,1.22,12.89s-6.82-3.7-14.38-3L1331,594.73" transform="translate(-430.3 -330.8)" fill="none" stroke="#18327c" stroke-miterlimit="10" stroke-width="0.73"/><path d="M1341.81,562.79s-.63,4.35.91,7.49a58.53,58.53,0,0,1,2.81,7.44" transform="translate(-430.3 -330.8)" fill="none" stroke="#18327c" stroke-miterlimit="10" stroke-width="0.73"/><path d="M1344.78,577s-5.73-1.31-9.23-2.2-9.43.42-9.43.42" transform="translate(-430.3 -330.8)" fill="none" stroke="#18327c" stroke-miterlimit="10" stroke-width="0.73"/><path d="M1377.69,616.08s-10.54-1.55-15.35-2.51-12.45.76-12.45.76" transform="translate(-430.3 -330.8)" fill="none" stroke="#18327c" stroke-miterlimit="10" stroke-width="0.73"/><path d="M1381.26,623.87s2.68,4.78,5.24,9.41,7.92,14,7.92,14" transform="translate(-430.3 -330.8)" fill="none" stroke="#18327c" stroke-miterlimit="10" stroke-width="0.73"/><path d="M1409.09,599.94s-1.59,7.94-3.18,18.68c-.75,5.07-1.18,13.42-1.43,20.82" transform="translate(-430.3 -330.8)" fill="none" stroke="#18327c" stroke-miterlimit="10" stroke-width="0.75"/><path d="M1291,445.33a27.11,27.11,0,0,1,14.11,3.13c6.52,3.77,4.46,6.49,4.46,6.49S1300.47,455.11,1291,445.33Z" transform="translate(-430.3 -330.8)" fill="none" stroke="#18327c" stroke-miterlimit="10" stroke-width="0.73"/><path d="M1310,454.79s2-5.57,7.09-8.1l9.11-4.56A22.86,22.86,0,0,1,1310,454.79Z" transform="translate(-430.3 -330.8)" fill="none" stroke="#18327c" stroke-miterlimit="10" stroke-width="0.73"/><circle cx="915.86" cy="178.93" r="5.32" fill="none" stroke="#18327c" stroke-miterlimit="10" stroke-width="0.81"/><circle cx="947" cy="168.55" r="2.78" fill="none" stroke="#18327c" stroke-miterlimit="10" stroke-width="0.81"/><circle cx="941.68" cy="201.71" r="10.13" fill="none" stroke="#18327c" stroke-miterlimit="10" stroke-width="0.81"/><path d="M1294.41,471.93a12.29,12.29,0,0,1,6.38,1.42c3,1.71,2,2.94,2,2.94S1298.68,476.36,1294.41,471.93Z" transform="translate(-430.3 -330.8)" fill="none" stroke="#18327c" stroke-miterlimit="10" stroke-width="0.73"/><path d="M1303,476.21a7.29,7.29,0,0,1,3.2-3.66l4.13-2.06A10.35,10.35,0,0,1,1303,476.21Z" transform="translate(-430.3 -330.8)" fill="none" stroke="#18327c" stroke-miterlimit="10" stroke-width="0.73"/><path d="M1318.05,460.73a17.56,17.56,0,0,1,9.15,2c4.24,2.45,2.9,4.21,2.9,4.21S1324.18,467.07,1318.05,460.73Z" transform="translate(-430.3 -330.8)" fill="none" stroke="#18327c" stroke-miterlimit="10" stroke-width="0.73"/><path d="M1330.33,466.87a10.49,10.49,0,0,1,4.59-5.26l5.92-2.95A14.83,14.83,0,0,1,1330.33,466.87Z" transform="translate(-430.3 -330.8)" fill="none" stroke="#18327c" stroke-miterlimit="10" stroke-width="0.73"/><polygon points="749.71 70.39 737.68 69.89 737.2 69.71 736.08 59.37 718.68 85.26 749.71 70.39" fill="none" stroke="#18327c" stroke-linecap="round" stroke-linejoin="round" stroke-width="1.01"/><polyline points="740.41 75.38 740.07 77.66 718.64 85.51 737.37 69.81" fill="none" stroke="#18327c" stroke-linecap="round" stroke-linejoin="round" stroke-width="1.1"/><path d="M1066.14,539.86h-44.55a6.84,6.84,0,0,1-6.84-6.84h0a6.83,6.83,0,0,1,6.84-6.83h44.55" transform="translate(-430.3 -330.8)" fill="none" stroke="#18327c" stroke-linecap="round" stroke-miterlimit="10" stroke-width="0.53"/><path d="M1064.87,537.33h-43.25a4.23,4.23,0,0,1-4.23-4.23h0a4.23,4.23,0,0,1,4.23-4.23h43.25" transform="translate(-430.3 -330.8)" fill="none" stroke="#18327c" stroke-linecap="round" stroke-miterlimit="10" stroke-width="0.53"/><path d="M1064.6,536.36a4.54,4.54,0,0,1,.35-6.05" transform="translate(-430.3 -330.8)" fill="none" stroke="#18327c" stroke-linecap="round" stroke-miterlimit="10" stroke-width="0.53"/><path d="M1064.63,525.15h-44.44a4.22,4.22,0,0,1-4.22-4.22h0a4.21,4.21,0,0,1,4.22-4.21h43.93" transform="translate(-430.3 -330.8)" fill="none" stroke="#18327c" stroke-linecap="round" stroke-miterlimit="10" stroke-width="0.53"/><path d="M1064.63,523.59h-44.42a2.61,2.61,0,0,1-2.61-2.61h0a2.61,2.61,0,0,1,2.61-2.61h44.92" transform="translate(-430.3 -330.8)" fill="none" stroke="#18327c" stroke-linecap="round" stroke-miterlimit="10" stroke-width="0.53"/><path d="M1040.63,523a2.82,2.82,0,0,1,.22-3.73" transform="translate(-430.3 -330.8)" fill="none" stroke="#18327c" stroke-linecap="round" stroke-miterlimit="10" stroke-width="0.53"/><path d="M1062.44,523a2.79,2.79,0,0,1,.22-3.73" transform="translate(-430.3 -330.8)" fill="none" stroke="#18327c" stroke-linecap="round" stroke-miterlimit="10" stroke-width="0.53"/><path d="M1046.28,504.39h44.56c3.77,0,6.84-3.95,6.84-8.82h0c0-4.87-3.07-8.82-6.84-8.82h-44.56" transform="translate(-430.3 -330.8)" fill="none" stroke="#18327c" stroke-linecap="round" stroke-miterlimit="10" stroke-width="0.6"/><path d="M1047.55,501.12h43.26c2.33,0,4.23-2.44,4.23-5.45h0c0-3-1.9-5.46-4.23-5.46h-43.26" transform="translate(-430.3 -330.8)" fill="none" stroke="#18327c" stroke-linecap="round" stroke-miterlimit="10" stroke-width="0.6"/><path d="M1047.83,499.87a7,7,0,0,0,1-3.65,6.81,6.81,0,0,0-1.33-4.15" transform="translate(-430.3 -330.8)" fill="none" stroke="#18327c" stroke-linecap="round" stroke-miterlimit="10" stroke-width="0.6"/><path d="M1075.47,499.23a7,7,0,0,0,1-3.65,6.81,6.81,0,0,0-1.33-4.15" transform="translate(-430.3 -330.8)" fill="none" stroke="#18327c" stroke-linecap="round" stroke-miterlimit="10" stroke-width="0.6"/><path d="M1051.81,486.69h33.46c2.84,0,5.13-3,5.13-6.62h0c0-3.66-2.29-6.62-5.13-6.62h-33.46" transform="translate(-430.3 -330.8)" fill="none" stroke="#18327c" stroke-linecap="round" stroke-miterlimit="10" stroke-width="0.6"/><path d="M1052.76,484.24h32.49c1.75,0,3.17-1.83,3.17-4.1h0c0-2.26-1.42-4.09-3.17-4.09h-32.49" transform="translate(-430.3 -330.8)" fill="none" stroke="#18327c" stroke-linecap="round" stroke-miterlimit="10" stroke-width="0.45"/><path d="M1053,483.3a5.26,5.26,0,0,0,.74-2.74,5.1,5.1,0,0,0-1-3.12" transform="translate(-430.3 -330.8)" fill="none" stroke="#18327c" stroke-linecap="round" stroke-miterlimit="10" stroke-width="0.45"/><path d="M1073.73,482.82a5.28,5.28,0,0,0,.74-2.74,5.17,5.17,0,0,0-1-3.12" transform="translate(-430.3 -330.8)" fill="none" stroke="#18327c" stroke-linecap="round" stroke-miterlimit="10" stroke-width="0.45"/><line x1="622.07" y1="165.03" x2="642.32" y2="165.03" fill="none" stroke="#18327c" stroke-linecap="round" stroke-miterlimit="10" stroke-width="0.45"/><line x1="618.36" y1="167.37" x2="633.32" y2="167.37" fill="none" stroke="#18327c" stroke-linecap="round" stroke-miterlimit="10" stroke-width="0.45"/><line x1="618.13" y1="162.73" x2="628.25" y2="162.73" fill="none" stroke="#18327c" stroke-linecap="round" stroke-miterlimit="10" stroke-width="0.45"/><line x1="627.24" y1="148.55" x2="638.89" y2="148.55" fill="none" stroke="#18327c" stroke-linecap="round" stroke-miterlimit="10" stroke-width="0.45"/><line x1="630.28" y1="150.57" x2="640.91" y2="150.57" fill="none" stroke="#18327c" stroke-linecap="round" stroke-miterlimit="10" stroke-width="0.45"/><line x1="645.98" y1="162.73" x2="655.6" y2="162.73" fill="none" stroke="#18327c" stroke-linecap="round" stroke-miterlimit="10" stroke-width="0.45"/><line x1="648.51" y1="166.78" x2="661.17" y2="166.78" fill="none" stroke="#18327c" stroke-linecap="round" stroke-miterlimit="10" stroke-width="0.45"/><line x1="646.48" y1="148.55" x2="652.56" y2="148.55" fill="none" stroke="#18327c" stroke-linecap="round" stroke-miterlimit="10" stroke-width="0.45"/><line x1="646.48" y1="150.57" x2="655.6" y2="150.57" fill="none" stroke="#18327c" stroke-linecap="round" stroke-miterlimit="10" stroke-width="0.45"/><path d="M1037.16,536.22a5,5,0,0,1,.36-6.49" transform="translate(-430.3 -330.8)" fill="none" stroke="#18327c" stroke-linecap="round" stroke-miterlimit="10" stroke-width="0.53"/><circle cx="939.48" cy="73.75" r="10.55" fill="#fff"/><rect x="614.12" y="175.03" width="58.9" height="4.15" rx="1.99" fill="#7653ad"/><circle cx="593.57" cy="166.02" r="4.56" fill="#fff"/><circle cx="657.12" cy="207.79" r="2.28" fill="#fff"/><circle cx="638.63" cy="130.07" r="2.03" fill="#fff"/><rect x="583.21" y="209.5" width="58.9" height="4.15" rx="1.99" fill="#7653ad"/><rect x="620.17" y="235.83" width="58.9" height="4.15" rx="1.99" fill="#7653ad"/><line x1="531.8" y1="224.75" x2="603.95" y2="225.01" fill="none" stroke="#fff" stroke-linecap="round" stroke-miterlimit="10" stroke-width="2.53"/><rect x="631.04" y="231.34" width="41.01" height="4.56" fill="none" stroke="#18327c" stroke-miterlimit="10" stroke-width="0.53"/><line x1="540.4" y1="299.8" x2="645.72" y2="299.8" fill="none" stroke="#fff" stroke-linecap="round" stroke-miterlimit="10" stroke-width="2.61"/><polygon points="665.72 231.25 632.67 231.25 632.67 227.57 664.71 227.57 665.72 231.25" fill="none" stroke="#18327c" stroke-miterlimit="10" stroke-width="0.53"/><polygon points="658.64 227.26 636.1 227.26 636.1 224.75 657.95 224.75 658.64 227.26" fill="none" stroke="#18327c" stroke-miterlimit="10" stroke-width="0.53"/><path d="M1123.92,568.72a3,3,0,0,0-2.92,3.45c1.51,8.51,6.87,14.8,13.25,14.8s11.73-6.29,13.24-14.8a3,3,0,0,0-2.91-3.45Z" transform="translate(-430.3 -330.8)" fill="#fff"/><path d="M1121.7,585.5a29.42,29.42,0,0,0,5.59,4.49h14.07l1.16-.85c1.27-1.23,2.6-2.42,3.88-3.64Z" transform="translate(-430.3 -330.8)" fill="#fff"/><ellipse cx="1123.45" cy="577.99" rx="3.66" ry="5.41" transform="translate(-403.72 874.16) rotate(-56.98)" fill="none" stroke="#fff" stroke-miterlimit="10" stroke-width="1.4"/><path d="M1128.94,523.87a9,9,0,0,1,.39,5.25,27.69,27.69,0,0,1-1.72,5.06" transform="translate(-430.3 -330.8)" fill="none" stroke="#fff" stroke-linecap="round" stroke-miterlimit="10" stroke-width="1.01"/><path d="M1126.29,538.84a17.09,17.09,0,0,0-1.32,5.94" transform="translate(-430.3 -330.8)" fill="none" stroke="#fff" stroke-linecap="round" stroke-miterlimit="10" stroke-width="1.01"/><path d="M1125.11,548.61a12.51,12.51,0,0,0,1.13,4.28" transform="translate(-430.3 -330.8)" fill="none" stroke="#fff" stroke-linecap="round" stroke-miterlimit="10" stroke-width="1.01"/><path d="M1127.39,555.54a9.69,9.69,0,0,0,1.76,2.36" transform="translate(-430.3 -330.8)" fill="none" stroke="#fff" stroke-linecap="round" stroke-miterlimit="10" stroke-width="1.01"/><path d="M1128.79,511.68c1.88,1.65,2.79,4.13,3.62,6.49" transform="translate(-430.3 -330.8)" fill="none" stroke="#fff" stroke-linecap="round" stroke-miterlimit="10" stroke-width="1.01"/><path d="M1134.07,524.17c.07,6.15-1.88,12.11-3.81,18" transform="translate(-430.3 -330.8)" fill="none" stroke="#fff" stroke-linecap="round" stroke-miterlimit="10" stroke-width="1.01"/><path d="M1130,546.05a12,12,0,0,0,.89,5.1" transform="translate(-430.3 -330.8)" fill="none" stroke="#fff" stroke-linecap="round" stroke-miterlimit="10" stroke-width="1.01"/><path d="M1131.94,555.09a15.88,15.88,0,0,0,2.86,4.08" transform="translate(-430.3 -330.8)" fill="none" stroke="#fff" stroke-linecap="round" stroke-miterlimit="10" stroke-width="1.01"/><path d="M1135.7,562.46a7.41,7.41,0,0,1-.36,3.37" transform="translate(-430.3 -330.8)" fill="none" stroke="#fff" stroke-linecap="round" stroke-miterlimit="10" stroke-width="1.01"/><path d="M1137.1,535.12a31.79,31.79,0,0,1-1.21,5.1" transform="translate(-430.3 -330.8)" fill="none" stroke="#fff" stroke-linecap="round" stroke-miterlimit="10" stroke-width="1.01"/><path d="M1134.68,547.39a14.35,14.35,0,0,0,.71,4.74" transform="translate(-430.3 -330.8)" fill="none" stroke="#fff" stroke-linecap="round" stroke-miterlimit="10" stroke-width="1.01"/><path d="M1318.31,618.85h-9.87c-2.5-3.11-4.91-19.32-.8-24.31h10.16a3.29,3.29,0,0,0,0-6.58H1126.58a19.19,19.19,0,0,0-19.17,19.2h0a19.18,19.18,0,0,0,19.17,19.19h186.59a5.81,5.81,0,0,0-.71-1.93h5.85a2.79,2.79,0,0,0,0-5.57Z" transform="translate(-430.3 -330.8)" fill="#ea3b5d"/><ellipse cx="800.92" cy="276.65" rx="7.34" ry="4.3" fill="#b3e1ff"/><ellipse cx="800.68" cy="276.79" rx="11.46" ry="6.72" fill="none" stroke="#b3e1ff" stroke-miterlimit="10" stroke-width="1.01"/><ellipse cx="780.66" cy="277.16" rx="2.78" ry="1.77" fill="#b3e1ff"/><ellipse cx="770.54" cy="277.16" rx="2.78" ry="1.77" fill="#b3e1ff"/><path d="M1137,587.89s-11.91,3.15-11.91,18.39c0,8.93,4.93,18.39,12.73,18.39" transform="translate(-430.3 -330.8)" fill="none" stroke="#b3e1ff" stroke-miterlimit="10" stroke-width="1.01"/><path d="M1148.62,587.45s-11.9,3.16-11.9,18.39c0,8.94,4.92,18.39,12.72,18.39" transform="translate(-430.3 -330.8)" fill="none" stroke="#b3e1ff" stroke-miterlimit="10" stroke-width="1.01"/><path d="M1264.11,589.07s-8.34,3-8.34,17.72c0,8.61,3.45,17.73,8.91,17.73" transform="translate(-430.3 -330.8)" fill="none" stroke="#ffd150" stroke-miterlimit="10" stroke-width="0.38"/><path d="M1274.69,588.61s-8.79,3-8.79,17.72c0,8.61,3.64,17.72,9.4,17.72" transform="translate(-430.3 -330.8)" fill="none" stroke="#0b132d" stroke-linecap="round" stroke-linejoin="round" stroke-width="0.4"/><path d="M1335.12,624.18H1103.18c-1.12,0-4.12.24-4.12.24-3.78,0-6.84,2.05-6.84,5.82h0c0,3.78,3.06,5.82,6.84,5.82l2.27.51a84.79,84.79,0,0,1,2.92,10.38,90.13,90.13,0,0,1,1.89,13.92h-10.63c-2.37,0-4.3,3.45-4.3,5.83h0a4.31,4.31,0,0,0,4.3,4.3h10.62c0,.17,0,.34,0,.51h229a23.67,23.67,0,0,0,23.67-23.66h0A23.67,23.67,0,0,0,1335.12,624.18Z" transform="translate(-430.3 -330.8)" fill="#7653ad"/><path d="M1270.12,624.17h-14.29v.21a23.66,23.66,0,0,1,21.36,23.55h0a23.65,23.65,0,0,1-21.52,23.56h14.45a23.66,23.66,0,0,0,23.66-23.66h0A23.66,23.66,0,0,0,1270.12,624.17Z" transform="translate(-430.3 -330.8)" fill="#b3e1ff"/><path d="M1320.61,624.21h-14.28v.21A23.67,23.67,0,0,1,1327.69,648h0a23.66,23.66,0,0,1-21.52,23.56h14.44a23.66,23.66,0,0,0,23.66-23.66h0A23.66,23.66,0,0,0,1320.61,624.21Z" transform="translate(-430.3 -330.8)" fill="#b3e1ff"/><path d="M1232.73,624.16s22.79,2.54,22.79,21.78c0,12.15-9.12,24.81-28.86,24.81" transform="translate(-430.3 -330.8)" fill="none" stroke="#0b132d" stroke-linecap="round" stroke-linejoin="round" stroke-width="0.52"/><path d="M1291.32,624.5s22.78,2.53,22.78,21.77c0,12.15-9.11,24.81-28.86,24.81" transform="translate(-430.3 -330.8)" fill="none" stroke="#0b132d" stroke-linecap="round" stroke-linejoin="round" stroke-width="0.52"/><path d="M1331.22,624.34s22.78,2.53,22.78,21.77c0,12.15-9.11,24.81-28.86,24.81" transform="translate(-430.3 -330.8)" fill="none" stroke="#0b132d" stroke-linecap="round" stroke-linejoin="round" stroke-width="0.52"/><path d="M1220.41,636.06H1099c.5,8.37.2,17-2.46,24.81h123.89a12.49,12.49,0,0,0,12.58-12.4h0A12.5,12.5,0,0,0,1220.41,636.06Z" transform="translate(-430.3 -330.8)" fill="#def8ff"/><path d="M1276,594.54h38.44a192.44,192.44,0,0,0,.78,24.31H1276c-2.19,0-4-5.44-4-12.15h0C1272,600,1273.76,594.54,1276,594.54Z" transform="translate(-430.3 -330.8)" fill="#def8ff"/><line x1="668.51" y1="312.86" x2="703.95" y2="312.86" fill="none" stroke="#222854" stroke-linecap="round" stroke-miterlimit="10" stroke-width="0.49"/><line x1="712.81" y1="312.6" x2="725.98" y2="312.6" fill="none" stroke="#222854" stroke-linecap="round" stroke-miterlimit="10" stroke-width="0.49"/><line x1="734.59" y1="312.6" x2="761.42" y2="312.6" fill="none" stroke="#222854" stroke-linecap="round" stroke-miterlimit="10" stroke-width="0.49"/><line x1="769.02" y1="312.6" x2="781.17" y2="312.6" fill="none" stroke="#222854" stroke-linecap="round" stroke-miterlimit="10" stroke-width="0.49"/><line x1="788.77" y1="312.6" x2="802.44" y2="312.6" fill="none" stroke="#222854" stroke-linecap="round" stroke-miterlimit="10" stroke-width="0.49"/><line x1="668.76" y1="318.68" x2="676.86" y2="318.68" fill="none" stroke="#222854" stroke-linecap="round" stroke-miterlimit="10" stroke-width="0.49"/><line x1="683.45" y1="318.68" x2="716.86" y2="318.68" fill="none" stroke="#222854" stroke-linecap="round" stroke-miterlimit="10" stroke-width="0.49"/><line x1="719.9" y1="318.68" x2="733.07" y2="318.68" fill="none" stroke="#222854" stroke-linecap="round" stroke-miterlimit="10" stroke-width="0.49"/><line x1="737.12" y1="318.68" x2="773.07" y2="318.68" fill="none" stroke="#222854" stroke-linecap="round" stroke-miterlimit="10" stroke-width="0.49"/><line x1="778.13" y1="318.68" x2="802.44" y2="318.68" fill="none" stroke="#222854" stroke-linecap="round" stroke-miterlimit="10" stroke-width="0.49"/><line x1="667.75" y1="325.26" x2="700.15" y2="325.26" fill="none" stroke="#222854" stroke-linecap="round" stroke-miterlimit="10" stroke-width="0.49"/><line x1="707.24" y1="325.26" x2="731.55" y2="325.26" fill="none" stroke="#222854" stroke-linecap="round" stroke-miterlimit="10" stroke-width="0.49"/><line x1="738.64" y1="325.26" x2="799.91" y2="325.26" fill="none" stroke="#222854" stroke-linecap="round" stroke-miterlimit="10" stroke-width="0.49"/><line x1="847" y1="284.25" x2="858.47" y2="284.25" fill="none" stroke="#0b132d" stroke-linecap="round" stroke-linejoin="round" stroke-width="0.52"/><line x1="866.12" y1="284.25" x2="873.43" y2="284.25" fill="none" stroke="#0b132d" stroke-linecap="round" stroke-linejoin="round" stroke-width="0.52"/><line x1="843.96" y1="278.68" x2="856.25" y2="278.68" fill="none" stroke="#0b132d" stroke-linecap="round" stroke-linejoin="round" stroke-width="0.52"/><line x1="860.67" y1="278.68" x2="874.84" y2="278.68" fill="none" stroke="#0b132d" stroke-linecap="round" stroke-linejoin="round" stroke-width="0.52"/><line x1="877.88" y1="278.68" x2="884.46" y2="278.68" fill="none" stroke="#0b132d" stroke-linecap="round" stroke-linejoin="round" stroke-width="0.52"/><line x1="875.86" y1="284.25" x2="884.46" y2="284.25" fill="none" stroke="#0b132d" stroke-linecap="round" stroke-linejoin="round" stroke-width="0.52"/><line x1="884.46" y1="275.64" x2="871.3" y2="275.64" fill="none" stroke="#0b132d" stroke-linecap="round" stroke-linejoin="round" stroke-width="0.52"/><line x1="868.77" y1="275.64" x2="864.72" y2="275.64" fill="none" stroke="#0b132d" stroke-linecap="round" stroke-linejoin="round" stroke-width="0.52"/><line x1="863.2" y1="275.64" x2="843.45" y2="275.64" fill="none" stroke="#0b132d" stroke-linecap="round" stroke-linejoin="round" stroke-width="0.52"/><line x1="844.46" y1="272.1" x2="851.55" y2="272.1" fill="none" stroke="#0b132d" stroke-linecap="round" stroke-linejoin="round" stroke-width="0.52"/><line x1="854.08" y1="272.1" x2="866.24" y2="272.1" fill="none" stroke="#0b132d" stroke-linecap="round" stroke-linejoin="round" stroke-width="0.52"/><line x1="867.76" y1="272.1" x2="880.92" y2="272.1" fill="none" stroke="#0b132d" stroke-linecap="round" stroke-linejoin="round" stroke-width="0.52"/><line x1="882.44" y1="272.1" x2="883.96" y2="272.1" fill="none" stroke="#0b132d" stroke-linecap="round" stroke-linejoin="round" stroke-width="0.52"/><line x1="883.96" y1="269.06" x2="868.77" y2="269.06" fill="none" stroke="#0b132d" stroke-linecap="round" stroke-linejoin="round" stroke-width="0.52"/><line x1="866.74" y1="269.06" x2="857.12" y2="269.06" fill="none" stroke="#0b132d" stroke-linecap="round" stroke-linejoin="round" stroke-width="0.52"/><line x1="855.1" y1="269.06" x2="844.97" y2="269.06" fill="none" stroke="#0b132d" stroke-linecap="round" stroke-linejoin="round" stroke-width="0.52"/><line x1="850.54" y1="266.53" x2="860.67" y2="266.53" fill="none" stroke="#0b132d" stroke-linecap="round" stroke-linejoin="round" stroke-width="0.52"/><line x1="864.21" y1="266.53" x2="877.88" y2="266.53" fill="none" stroke="#0b132d" stroke-linecap="round" stroke-linejoin="round" stroke-width="0.52"/><path d="M1304.51,510.94c-16.33-37.41-40.64-48.05-40.64-48.05V463a16.74,16.74,0,0,0-5.4-1.93c-11.4-2.07-16.87-2.89-22.28-2.72-4.65.14-16.35.51-21.79.31-8.25-.31-25.81,2.55-30.76,7.48,0,0-24.07,15.54-37.24,46.43-8.89,20.86,1.46,27.85,38.48,29.36a51.22,51.22,0,0,0,7.58-.25c.39,2.13.71,3.89.92,5.14,3.9,23,56.87,23.12,62.36.78q.93-3.76,1.92-7.58a53.52,53.52,0,0,0,8.36.34C1303.05,538.79,1313.58,531.72,1304.51,510.94Z" transform="translate(-430.3 -330.8)" fill="#7653ad"/><path d="M1240.52,457.89l-4.72-26.57-21,3.66-2.9,23.2a68,68,0,0,0-8.55,1.47c.76,6.82,10.29,12.22,21.94,12.22,12,0,21.8-5.76,22-12.91C1244.88,458.49,1242.53,458.22,1240.52,457.89Z" transform="translate(-430.3 -330.8)" fill="#fca575"/><path d="M1230.15,451.39a47.73,47.73,0,0,0,7.52-8.83l-2-11.22-21,3.67-2.8,22.46C1218.15,458.62,1225,456,1230.15,451.39Z" transform="translate(-430.3 -330.8)" fill="#24375b"/><path d="M1199.2,460.1s5.07,13.65,20.11,15.45,25.07-1.77,33.17-15.44" transform="translate(-430.3 -330.8)" fill="none" stroke="#fff" stroke-linecap="round" stroke-miterlimit="10" stroke-width="0.51"/><line x1="795.22" y1="145.2" x2="795.96" y2="159.05" fill="none" stroke="#fff" stroke-linecap="round" stroke-miterlimit="10" stroke-width="0.51"/><circle cx="800.41" cy="149.56" r="1.77" fill="#fff"/><circle cx="800.41" cy="157.16" r="1.77" fill="#fff"/><path d="M1166.51,507.45s4.07,2.63,16.29,8.4,18,6.34,18,6.34" transform="translate(-430.3 -330.8)" fill="none" stroke="#0b132d" stroke-linecap="round" stroke-linejoin="round" stroke-width="0.52"/><path d="M1182.55,485.17s.53,8.14,4.61,14.43a35.67,35.67,0,0,1,4.87,13.91" transform="translate(-430.3 -330.8)" fill="none" stroke="#0b132d" stroke-linecap="round" stroke-linejoin="round" stroke-width="0.52"/><path d="M1284.39,505.87s-4.07,2.63-16.28,8.41-18,6.33-18,6.33" transform="translate(-430.3 -330.8)" fill="none" stroke="#0b132d" stroke-linecap="round" stroke-linejoin="round" stroke-width="0.52"/><path d="M1268.35,483.59s-.52,8.15-4.61,14.44a35.6,35.6,0,0,0-4.87,13.9" transform="translate(-430.3 -330.8)" fill="none" stroke="#0b132d" stroke-linecap="round" stroke-linejoin="round" stroke-width="0.52"/><path d="M1246.63,421.3c-1.78-.66-3.83,0-5.52,1.61-1.81-10.06-8.5-17.53-16.48-17.53s-14.81,7.63-16.53,17.85c-1.7-1.58-3.74-2.27-5.52-1.61-3,1.1-4.07,5.48-2.47,9.78s5.29,6.91,8.24,5.81a3.81,3.81,0,0,0,1-.55c3.47,8.56,11.42,14.61,15.27,14.68,4.79.09,12.33-6.13,15.49-14.83a3.34,3.34,0,0,0,.73.37c3,1.1,6.65-1.5,8.25-5.8S1249.59,422.39,1246.63,421.3Z" transform="translate(-430.3 -330.8)" fill="#fca575"/><path d="M1219.31,440.11c.06,1.58,2.53,2.86,5.57,2.86s5.51-1.28,5.57-2.86c0,0-1.51.75-6.07.75A16,16,0,0,1,1219.31,440.11Z" transform="translate(-430.3 -330.8)" fill="#fff"/><line x1="792.82" y1="115.03" x2="795.6" y2="114.88" fill="none" stroke="#0b132d" stroke-linecap="round" stroke-linejoin="round" stroke-width="0.43"/><path d="M1241.57,401.26c-4.92-4.65-9.9-5.6-17.19-5.71-15.54-.23-24.24,7.23-21.27,20.76,1.21,5.49,5.26,13.13,5.26,13.13-.31.54-.39-8.8,2-12.95,3.29.49,6.9.26,11.89-.81a37.91,37.91,0,0,0,12.22-4.62c1.21.08,2.31,1.59,3.25,2.92,2.14,3,3.42,17.2,3.42,17.2s4.27-10.92,4.51-14.87C1246.08,409.12,1244.63,404.16,1241.57,401.26Z" transform="translate(-430.3 -330.8)" fill="#24375b"/><path d="M1237.8,408.46a37.44,37.44,0,0,1-17.22,9.12,102.11,102.11,0,0,1-13.67,1.51" transform="translate(-430.3 -330.8)" fill="none" stroke="#24375b" stroke-miterlimit="10" stroke-width="0.51"/><path d="M1211.47,423.15a7.78,7.78,0,0,1,4.19-2.68,10.36,10.36,0,0,1,3.78,0" transform="translate(-430.3 -330.8)" fill="none" stroke="#24375b" stroke-linecap="round" stroke-miterlimit="10" stroke-width="2.03"/><path d="M1235.86,421.09a7.79,7.79,0,0,0-4.2-2.67,10.32,10.32,0,0,0-3.77,0" transform="translate(-430.3 -330.8)" fill="none" stroke="#24375b" stroke-linecap="round" stroke-miterlimit="10" stroke-width="2.03"/><path d="M1202.35,411.5s7.6,3.54,19.75,0a127.53,127.53,0,0,0,21.19-8.13" transform="translate(-430.3 -330.8)" fill="none" stroke="#fff" stroke-miterlimit="10" stroke-width="0.38"/><path d="M1204.09,404.37s8.42,4.24,17,3.08a70.08,70.08,0,0,0,20.48-6.19" transform="translate(-430.3 -330.8)" fill="none" stroke="#fff" stroke-miterlimit="10" stroke-width="0.38"/><path d="M1222.73,424.07s.65,5.94-.22,8.71-1.42,4.54-1.42,4.54l3,.51" transform="translate(-430.3 -330.8)" fill="none" stroke="#0b132d" stroke-linecap="round" stroke-linejoin="round" stroke-width="0.43"/><ellipse cx="786.13" cy="97.68" rx="1.26" ry="1.92" fill="#0b132d"/><ellipse cx="801.79" cy="97.26" rx="1.26" ry="1.92" fill="#0b132d"/><path d="M1214.09,426.93a2.09,2.09,0,0,1,1.93-1.25,2.28,2.28,0,0,1,2.16,1.18" transform="translate(-430.3 -330.8)" fill="none" stroke="#0b132d" stroke-linecap="round" stroke-miterlimit="10" stroke-width="0.43"/><path d="M1234.13,426.53a2.08,2.08,0,0,0-1.93-1.25,2.28,2.28,0,0,0-2.16,1.18" transform="translate(-430.3 -330.8)" fill="none" stroke="#0b132d" stroke-linecap="round" stroke-miterlimit="10" stroke-width="0.43"/><circle cx="785.21" cy="97.4" r="6.59" fill="none" stroke="#0b132d" stroke-miterlimit="10" stroke-width="0.51"/><circle cx="801.94" cy="97.55" r="6.59" fill="none" stroke="#0b132d" stroke-miterlimit="10" stroke-width="0.51"/><path d="M1222.1,427.2a2.33,2.33,0,0,1,1.8-.51,3.16,3.16,0,0,1,1.81.57" transform="translate(-430.3 -330.8)" fill="none" stroke="#0b132d" stroke-linecap="round" stroke-miterlimit="10" stroke-width="0.51"/><path d="M1149.51,431.54c9.36.43,15.43.45,15.43.45" transform="translate(-430.3 -330.8)" fill="none" stroke="#18327c" stroke-linecap="round" stroke-miterlimit="10" stroke-width="1.01"/><path d="M1120,428.63c5.83.73,11.09,1.32,15.84,1.77" transform="translate(-430.3 -330.8)" fill="none" stroke="#18327c" stroke-linecap="round" stroke-miterlimit="10" stroke-width="1.01"/><path d="M1075.87,424a155.66,155.66,0,0,1,22.93,1.69" transform="translate(-430.3 -330.8)" fill="none" stroke="#18327c" stroke-linecap="round" stroke-miterlimit="10" stroke-width="1.01"/><path d="M1027.81,430.75a178.68,178.68,0,0,1,31.5-6" transform="translate(-430.3 -330.8)" fill="none" stroke="#18327c" stroke-linecap="round" stroke-miterlimit="10" stroke-width="1.01"/><path d="M1003.56,439.62c3.19-1.45,6.47-2.81,9.81-4.08" transform="translate(-430.3 -330.8)" fill="none" stroke="#18327c" stroke-linecap="round" stroke-miterlimit="10" stroke-width="1.01"/><path d="M977.9,455.46a108.81,108.81,0,0,1,15.81-10.92" transform="translate(-430.3 -330.8)" fill="none" stroke="#18327c" stroke-linecap="round" stroke-miterlimit="10" stroke-width="1.01"/><path d="M962,470.7c1.36-1.5,2.81-3.05,4.33-4.61" transform="translate(-430.3 -330.8)" fill="none" stroke="#18327c" stroke-linecap="round" stroke-miterlimit="10" stroke-width="1.01"/><path d="M954.89,479.1c.64-.81,1.33-1.66,2.05-2.54" transform="translate(-430.3 -330.8)" fill="none" stroke="#18327c" stroke-linecap="round" stroke-miterlimit="10" stroke-width="1.01"/><path d="M947.41,489.34s.57-.9,1.67-2.47" transform="translate(-430.3 -330.8)" fill="none" stroke="#18327c" stroke-linecap="round" stroke-miterlimit="10" stroke-width="1.01"/><path d="M1065.25,405.92a137.42,137.42,0,0,1,19.65,1.4" transform="translate(-430.3 -330.8)" fill="none" stroke="#18327c" stroke-linecap="round" stroke-miterlimit="10" stroke-width="1.01"/><path d="M1024.08,411.53a158.32,158.32,0,0,1,27-4.95" transform="translate(-430.3 -330.8)" fill="none" stroke="#18327c" stroke-linecap="round" stroke-miterlimit="10" stroke-width="1.01"/><path d="M1003.31,418.88q4.11-1.8,8.41-3.39" transform="translate(-430.3 -330.8)" fill="none" stroke="#18327c" stroke-linecap="round" stroke-miterlimit="10" stroke-width="1.01"/><path d="M981.33,432A93.4,93.4,0,0,1,994.87,423" transform="translate(-430.3 -330.8)" fill="none" stroke="#18327c" stroke-linecap="round" stroke-miterlimit="10" stroke-width="1.01"/><path d="M1402.26,670.37c-1.52.86-3,1.7-4.6,2.5" transform="translate(-430.3 -330.8)" fill="none" stroke="#18327c" stroke-linecap="round" stroke-miterlimit="10" stroke-width="1.01"/><path d="M1414.45,662.57q-3.37,2.41-6.88,4.62" transform="translate(-430.3 -330.8)" fill="none" stroke="#18327c" stroke-linecap="round" stroke-miterlimit="10" stroke-width="1.01"/><path d="M1445.25,638.49a158.4,158.4,0,0,1-20.8,17.88" transform="translate(-430.3 -330.8)" fill="none" stroke="#18327c" stroke-linecap="round" stroke-miterlimit="10" stroke-width="1.01"/><path d="M1459.59,623.9q-3,3.36-6.18,6.62" transform="translate(-430.3 -330.8)" fill="none" stroke="#18327c" stroke-linecap="round" stroke-miterlimit="10" stroke-width="1.01"/><path d="M1468.71,611c-1.17,1.9-2.43,3.78-3.76,5.61" transform="translate(-430.3 -330.8)" fill="none" stroke="#18327c" stroke-linecap="round" stroke-miterlimit="10" stroke-width="1.01"/><path d="M1473.31,602.6c-.63,1.29-1.3,2.57-2,3.85" transform="translate(-430.3 -330.8)" fill="none" stroke="#18327c" stroke-linecap="round" stroke-miterlimit="10" stroke-width="1.01"/><path d="M1452.28,652.27c-3.28,3.38-6.73,6.64-10.33,9.74" transform="translate(-430.3 -330.8)" fill="none" stroke="#18327c" stroke-linecap="round" stroke-miterlimit="10" stroke-width="1.01"/><path d="M1461.09,642.37q-2.28,2.8-4.73,5.52" transform="translate(-430.3 -330.8)" fill="none" stroke="#18327c" stroke-linecap="round" stroke-miterlimit="10" stroke-width="1.01"/><path d="M1424.27,675.57q-4.26,2.68-8.71,5.11" transform="translate(-430.3 -330.8)" fill="none" stroke="#18327c" stroke-linecap="round" stroke-miterlimit="10" stroke-width="1.01"/><path d="M1438.42,665.52q-3.57,2.84-7.34,5.5" transform="translate(-430.3 -330.8)" fill="none" stroke="#18327c" stroke-linecap="round" stroke-miterlimit="10" stroke-width="1.01"/><path d="M1211.31,383.14v15.31a38.81,38.81,0,0,0,10.57,1.15,79,79,0,0,0,14.85-1.81V383.14Z" transform="translate(-430.3 -330.8)" fill="#14143a"/><rect x="762.69" y="49.21" width="61.4" height="3.55" rx="1.7" fill="#14143a"/><line x1="780.66" y1="52.85" x2="806.74" y2="52.85" fill="none" stroke="#fff" stroke-miterlimit="10" stroke-width="0.42"/><polygon points="769.78 76.39 767.25 73.86 765.07 76.39 765.07 52.54 769.78 52.54 769.78 76.39" fill="#7653ad"/><path d="M660.26,340.22H841.62a0,0,0,0,1,0,0v80.49a0,0,0,0,1,0,0H660.26a38.53,38.53,0,0,1-38.53-38.53v-3.43A38.53,38.53,0,0,1,660.26,340.22Z" fill="#ea3b5d"/><path d="M1078.06,715.5v-8.44a36,36,0,0,1,32.1-35.81H1130c.72,0,1.45-.09,2.18-.1h-34.63a36,36,0,0,0-32.1,35.81v8.44a36,36,0,0,0,36,36h9.91A36,36,0,0,1,1078.06,715.5Z" transform="translate(-430.3 -330.8)" fill="#b3e1ff"/><path d="M1114.91,715.55v-8.44A36,36,0,0,1,1147,671.3h19.88c.72-.06,1.45-.09,2.18-.1h-34.62A36,36,0,0,0,1102.34,707v8.44a36,36,0,0,0,36,36h9.9A36,36,0,0,1,1114.91,715.55Z" transform="translate(-430.3 -330.8)" fill="#b3e1ff"/><path d="M1135.69,715.24V706.8a36,36,0,0,1,32.1-35.81h19.88c.72,0,1.45-.09,2.18-.09v0h-34.62a36,36,0,0,0-32.11,35.81v8.45a36,36,0,0,0,36,36h9.9A36,36,0,0,1,1135.69,715.24Z" transform="translate(-430.3 -330.8)" fill="none" stroke="#b3e1ff" stroke-miterlimit="10" stroke-width="1.01"/><path d="M1096.05,715.53v-8.44a36,36,0,0,1,32.11-35.81H1148c.72-.06,1.45-.09,2.19-.1h-34.63A36,36,0,0,0,1083.48,707v8.44a36,36,0,0,0,36,36h9.91A36,36,0,0,1,1096.05,715.53Z" transform="translate(-430.3 -330.8)" fill="none" stroke="#b3e1ff" stroke-linecap="round" stroke-linejoin="round" stroke-width="1.01"/><path d="M1346.75,699.07c.27-5.15,1.09-10.33,3.52-14.8h25.45a6.63,6.63,0,0,0,0-13.25H1185.91a38.66,38.66,0,0,0-38.66,38.66v.2a41.63,41.63,0,0,0,41.63,41.63h184.71a6.63,6.63,0,0,0,0-13.25h-22.46a32.74,32.74,0,0,1-1.72-4.24c-1.93-4.63-3.4-9.59-3.17-14.41,0-.18-.09-.37-.12-.55-.78-3.94-1.42-8.83-.25-13A38.51,38.51,0,0,1,1346.75,699.07Z" transform="translate(-430.3 -330.8)" fill="#14143a"/><path d="M1362.3,707.19c.12-7.69,1-15.77,3.82-23H1189.89c-15.35,0-27.8,12.12-27.8,27.09h0c0,15,12.45,27.09,27.8,27.09h175.37C1362.61,728.23,1362.15,717.6,1362.3,707.19Z" transform="translate(-430.3 -330.8)" fill="#def8ff"/><path d="M1350.46,692.77" transform="translate(-430.3 -330.8)" fill="none" stroke="#222854" stroke-miterlimit="10" stroke-width="0.49"/><path d="M1167.25,695.32" transform="translate(-430.3 -330.8)" fill="none" stroke="#222854" stroke-miterlimit="10" stroke-width="0.49"/><line x1="751.3" y1="399.7" x2="796.36" y2="399.7" fill="none" stroke="#222854" stroke-miterlimit="10" stroke-width="0.48"/><line x1="809.02" y1="399.7" x2="819.65" y2="399.7" fill="none" stroke="#222854" stroke-miterlimit="10" stroke-width="0.48"/><line x1="833.32" y1="399.7" x2="877.88" y2="399.7" fill="none" stroke="#222854" stroke-miterlimit="10" stroke-width="0.48"/><line x1="892.57" y1="399.7" x2="920.42" y2="399.7" fill="none" stroke="#222854" stroke-miterlimit="10" stroke-width="0.48"/><line x1="738.64" y1="388.05" x2="774.08" y2="388.05" fill="none" stroke="#222854" stroke-miterlimit="10" stroke-width="0.49"/><line x1="784.21" y1="388.05" x2="863.2" y2="388.05" fill="none" stroke="#222854" stroke-miterlimit="10" stroke-width="0.49"/><line x1="869.78" y1="388.05" x2="932.06" y2="388.05" fill="none" stroke="#222854" stroke-miterlimit="10" stroke-width="0.49"/><line x1="733.32" y1="378.94" x2="825.22" y2="378.94" fill="none" stroke="#222854" stroke-miterlimit="10" stroke-width="0.49"/><line x1="831.8" y1="378.94" x2="847" y2="378.94" fill="none" stroke="#222854" stroke-miterlimit="10" stroke-width="0.49"/><line x1="853.07" y1="378.94" x2="901.17" y2="378.94" fill="none" stroke="#222854" stroke-miterlimit="10" stroke-width="0.49"/><line x1="907.76" y1="378.94" x2="932.06" y2="378.94" fill="none" stroke="#222854" stroke-miterlimit="10" stroke-width="0.49"/><line x1="737.12" y1="368.81" x2="774.08" y2="368.81" fill="none" stroke="#222854" stroke-miterlimit="10" stroke-width="0.49"/><line x1="781.17" y1="368.81" x2="834.84" y2="368.81" fill="none" stroke="#222854" stroke-miterlimit="10" stroke-width="0.49"/><line x1="839.4" y1="368.81" x2="879.91" y2="368.81" fill="none" stroke="#222854" stroke-miterlimit="10" stroke-width="0.49"/><line x1="884.97" y1="368.81" x2="909.28" y2="368.81" fill="none" stroke="#222854" stroke-miterlimit="10" stroke-width="0.49"/><line x1="915.35" y1="368.81" x2="932.06" y2="368.81" fill="none" stroke="#222854" stroke-miterlimit="10" stroke-width="0.49"/><line x1="748.26" y1="360.71" x2="817.12" y2="360.71" fill="none" stroke="#222854" stroke-linecap="round" stroke-miterlimit="10" stroke-width="0.49"/><line x1="822.69" y1="360.71" x2="854.59" y2="360.71" fill="none" stroke="#222854" stroke-miterlimit="10" stroke-width="0.49"/><line x1="859.65" y1="360.71" x2="933.07" y2="360.71" fill="none" stroke="#222854" stroke-miterlimit="10" stroke-width="0.49"/><path d="M1148.17,565.44s22.29,21.19,31.54,26.76,36.81-2.92,36.81-2.92-3.13-25.24-21.7-26.13S1148.17,565.44,1148.17,565.44Z" transform="translate(-430.3 -330.8)" fill="#fff"/><path d="M1289.7,574.29s-6.08,6.58-27,13.33c-9.59,3.1-36.81-2.08-36.81-2.08s3.13-18.06,21.7-18.7S1289.7,574.29,1289.7,574.29Z" transform="translate(-430.3 -330.8)" fill="#fff"/><ellipse cx="1286.07" cy="593.96" rx="9.49" ry="20.03" transform="translate(-367.59 977.39) rotate(-55.07)" fill="#212035"/><line x1="849.35" y1="258.57" x2="847.14" y2="262.86" fill="none" stroke="#fff" stroke-linecap="round" stroke-miterlimit="10" stroke-width="0.75"/><line x1="853.73" y1="260.23" x2="850.99" y2="264.77" fill="none" stroke="#fff" stroke-linecap="round" stroke-miterlimit="10" stroke-width="0.75"/><line x1="858.03" y1="262.37" x2="855.55" y2="266.34" fill="none" stroke="#fff" stroke-linecap="round" stroke-miterlimit="10" stroke-width="0.75"/><path d="M1275.34,579.21c-19.58-11.19-45.75-26.45-66.42-33.11-32.08-10.33-59.37-15.57-65.39,3.13s15.88,26.12,57.63,35.28c21.72,4.77,40.27,4.77,71,8.9C1275.39,589.55,1275.87,583.45,1275.34,579.21Z" transform="translate(-430.3 -330.8)" fill="#fff"/><rect x="754.59" y="218.68" width="82.53" height="6.08" rx="2.91" fill="#14143a"/><rect x="754.59" y="164.03" width="82.53" height="54.65" rx="8.18" fill="#14143a"/><path d="M1184.63,503.49a5,5,0,0,1,5-5h72.52a5,5,0,0,1,5,5" transform="translate(-430.3 -330.8)" fill="none" stroke="#fff" stroke-miterlimit="10" stroke-width="0.51"/><path d="M1188.93,589.71c3.72,8.37-14.42,15.78-24.37,19.28s-19.44,2.32-21.19-2.66,4.89-11.85,14.84-15.36S1184.3,579.29,1188.93,589.71Z" transform="translate(-430.3 -330.8)" fill="#212035"/><line x1="737.62" y1="262.79" x2="739.27" y2="267.33" fill="none" stroke="#fff" stroke-linecap="round" stroke-miterlimit="10" stroke-width="0.75"/><line x1="741.83" y1="260.7" x2="743.29" y2="265.81" fill="none" stroke="#fff" stroke-linecap="round" stroke-miterlimit="10" stroke-width="0.75"/><line x1="746.32" y1="259.02" x2="747.54" y2="263.54" fill="none" stroke="#fff" stroke-linecap="round" stroke-miterlimit="10" stroke-width="0.75"/><path d="M1295,555.9c-3.87-16.62-19.73-21.61-65.71-1.06-14.52,6.49-36.66,20-49.81,29.09-.53,1.59,1.7,11,5.28,15.93,26.49-5.3,43.11-7.43,59.37-10.58C1272.81,583.72,1300.25,578.68,1295,555.9Z" transform="translate(-430.3 -330.8)" fill="#fff"/><path d="M1152.67,569.41s25.6,9.61,31.22,11.63" transform="translate(-430.3 -330.8)" fill="none" stroke="#212035" stroke-linecap="round" stroke-miterlimit="10" stroke-width="0.53"/><path d="M1237.46,550.33a275.28,275.28,0,0,0-24.91,13.25c-12.19,7.42-33.41,20.62-33.41,20.62" transform="translate(-430.3 -330.8)" fill="none" stroke="#212035" stroke-linecap="round" stroke-miterlimit="10" stroke-width="0.53"/><path d="M1276.14,582.13s-39.74,9.54-91.67,17.48" transform="translate(-430.3 -330.8)" fill="none" stroke="#212035" stroke-linecap="round" stroke-miterlimit="10" stroke-width="0.53"/><circle cx="795.02" cy="191.63" r="10.87" fill="none" stroke="#b3e1ff" stroke-miterlimit="10" stroke-width="1.01"/><path d="M1202,425.28a4.57,4.57,0,0,1,3.08,2,20.32,20.32,0,0,1,2,4.68" transform="translate(-430.3 -330.8)" fill="none" stroke="#0b132d" stroke-linecap="round" stroke-linejoin="round" stroke-width="0.52"/><path d="M1247.21,425a4.57,4.57,0,0,0-3.08,2,19.84,19.84,0,0,0-2,4.69" transform="translate(-430.3 -330.8)" fill="none" stroke="#0b132d" stroke-linecap="round" stroke-linejoin="round" stroke-width="0.52"/><line x1="30.24" y1="153.83" x2="349.18" y2="153.83" fill="none" stroke="#4cc9f1" stroke-miterlimit="10" stroke-width="1.25"/><text transform="translate(30.5 184.36) scale(1.09 1)" font-size="20" fill="#17143f" font-family="Gilroy-Light" font-weight="300" style="isolation:isolate">O<tspan x="16.32" y="0" letter-spacing="-0.02em">v</tspan><tspan x="26.14" y="0" letter-spacing="0em">e</tspan><tspan x="37.92" y="0" letter-spacing="-0.03em">r</tspan><tspan x="43.68" y="0" letter-spacing="0em">c</tspan><tspan x="54.8" y="0">ome </tspan><tspan x="101.28" y="0" letter-spacing="-0.02em">y</tspan><tspan x="111.08" y="0">our </tspan><tspan x="146.28" y="0" letter-spacing="-0.03em">f</tspan><tspan x="151.88" y="0" letter-spacing="0em">ear </tspan><tspan x="188.26" y="0" letter-spacing="-0.02em">o</tspan><tspan x="200.08" y="0">f speaking Engli</tspan><tspan x="344.8" y="0" letter-spacing="0em">s</tspan><tspan x="353.86" y="0">h! </tspan></text><text transform="translate(30.5 217.09) scale(1.09 1)" font-size="20" fill="#17143f" font-family="Gilroy-Light" font-weight="300">Gain <tspan x="49.58" y="0" letter-spacing="-0.01em">c</tspan><tspan x="60.7" y="0">onfiden</tspan><tspan x="130.36" y="0" letter-spacing="0em">c</tspan><tspan x="141.48" y="0" letter-spacing="0em">e! </tspan></text><text transform="translate(30.5 249.61) scale(1.09 1)" font-size="20" fill="#17143f" font-family="Gilroy-Light" font-weight="300" style="isolation:isolate"><tspan letter-spacing="-0.02em">L</tspan><tspan x="9.36" y="0">earn what </tspan><tspan x="109.46" y="0" letter-spacing="-0.05em">Y</tspan><tspan x="120.12" y="0" letter-spacing="0em">O</tspan><tspan x="136.34" y="0">U </tspan><tspan x="155.02" y="0" letter-spacing="-0.02em">w</tspan><tspan x="170.02" y="0">ant! </tspan></text><line x1="87.76" y1="251.39" x2="134.31" y2="251.39" fill="#17143f"/><text transform="translate(30.5 315.28) scale(1.09 1)" font-size="20" fill="#17143f" font-family="Gilroy-Light" font-weight="300"><tspan letter-spacing="-0.02em">S</tspan><tspan x="11.18" y="0" letter-spacing="-0.03em">t</tspan><tspan x="18.1" y="0">op </tspan><tspan x="48.56" y="0" letter-spacing="-0.02em">w</tspan><tspan x="63.56" y="0">a</tspan><tspan x="76.46" y="0" letter-spacing="-0.02em">s</tspan><tspan x="85.22" y="0" letter-spacing="0em">ting </tspan><tspan x="126.4" y="0" letter-spacing="-0.02em">y</tspan><tspan x="136.2" y="0">our time on g</tspan><tspan x="259.06" y="0" letter-spacing="-0.03em">r</tspan><tspan x="264.82" y="0" letter-spacing="0em">oup cla</tspan><tspan x="334.76" y="0" letter-spacing="-0.03em">s</tspan><tspan x="343.32" y="0" letter-spacing="-0.02em">s</tspan><tspan x="352.18" y="0" letter-spacing="-0.02em">e</tspan><tspan x="363.56" y="0" xml:space="preserve">s!  </tspan></text><text transform="translate(30.5 348.01) scale(1.09 1)" font-size="20" fill="#17143f" font-family="Gilroy-Light" font-weight="300"><tspan letter-spacing="-0.02em">S</tspan><tspan x="11.18" y="0" letter-spacing="-0.03em">t</tspan><tspan x="18.1" y="0">op </tspan><tspan x="48.56" y="0" letter-spacing="-0.02em">w</tspan><tspan x="63.56" y="0">a</tspan><tspan x="76.46" y="0" letter-spacing="-0.02em">s</tspan><tspan x="85.22" y="0" letter-spacing="0em">ting </tspan><tspan x="126.4" y="0" letter-spacing="-0.02em">y</tspan><tspan x="136.2" y="0">our time in t</tspan><tspan x="245.48" y="0" letter-spacing="-0.03em">r</tspan><tspan x="251.24" y="0" xml:space="preserve">affic!  </tspan></text><text transform="translate(30.5 380.53) scale(1.09 1)" font-size="20" fill="#17143f" font-family="Gilroy-Light" font-weight="300"><tspan letter-spacing="-0.02em">L</tspan><tspan x="9.36" y="0">earn FROM HOME! </tspan></text><text transform="translate(30.5 413.26) scale(1.09 1)" font-size="20" fill="#17143f" font-family="Gilroy-Light" font-weight="300"><tspan letter-spacing="-0.02em">L</tspan><tspan x="9.36" y="0">earn with </tspan><tspan x="100.64" y="0" letter-spacing="-0.03em">f</tspan><tspan x="106.24" y="0">o</tspan><tspan x="118.46" y="0" letter-spacing="-0.03em">r</tspan><tspan x="124.22" y="0">eign </tspan><tspan x="169.66" y="0" letter-spacing="-0.03em">t</tspan><tspan x="176.58" y="0" letter-spacing="0em">eache</tspan><tspan x="235.54" y="0" letter-spacing="-0.02em">r</tspan><tspan x="241.5" y="0" letter-spacing="0em">s! </tspan></text><text transform="translate(30.5 445.99) scale(1.09 1)" font-size="20" fill="#17143f" font-family="Gilroy-Light" font-weight="300"><tspan letter-spacing="-0.02em">L</tspan><tspan x="9.36" y="0">earn with M</tspan><tspan x="116.78" y="0" letter-spacing="-0.02em">A</tspan><tspan x="128.96" y="0" letter-spacing="-0.02em">S</tspan><tspan x="139.94" y="0" xml:space="preserve" letter-spacing="0em">TER 1!  </tspan></text><text transform="translate(30.5 282.34) scale(1.09 1)" font-size="20" fill="#17143f" font-family="Gilroy-Light" font-weight="300" style="isolation:isolate"><tspan letter-spacing="-0.02em">L</tspan><tspan x="9.36" y="0">earn when </tspan><tspan x="112.1" y="0" letter-spacing="-0.05em">Y</tspan><tspan x="122.76" y="0" letter-spacing="0em">O</tspan><tspan x="138.98" y="0">U </tspan><tspan x="157.66" y="0" letter-spacing="-0.02em">w</tspan><tspan x="172.66" y="0">ant! </tspan></text><line x1="87.76" y1="284.12" x2="136.19" y2="284.12" fill="#17143f"/><rect width="379.41" height="137.72" fill="#774fa3"/><path d="M574,423.09l-2.78-7.86H553.32l-2.63,7.86h-9.3l15.3-43.69h10.67l15.41,43.69Zm-17.92-15.91h12.3l-6.31-17.85Z" transform="translate(-430.3 -330.8)" fill="#fdfffd"/><path d="M604.06,424a19.51,19.51,0,0,1-10.93-2.91,15.52,15.52,0,0,1-6.24-7.89l7.37-4.31q2.55,6.67,10,6.68,3.62,0,5.3-1.31a4.12,4.12,0,0,0-.37-6.9,32.08,32.08,0,0,0-7.37-2.78,45.34,45.34,0,0,1-5-1.74,21.71,21.71,0,0,1-4.06-2.34,9.61,9.61,0,0,1-3.09-3.72,12.1,12.1,0,0,1-1.06-5.24,11.75,11.75,0,0,1,4.21-9.46,15.29,15.29,0,0,1,10.15-3.52,16.86,16.86,0,0,1,9.33,2.59,17.46,17.46,0,0,1,6.27,7.21l-7.24,4.18q-2.62-5.62-8.36-5.62a6.62,6.62,0,0,0-4.22,1.22,3.84,3.84,0,0,0-1.53,3.15A4,4,0,0,0,599,394.6a24.19,24.19,0,0,0,6.59,2.78c1.33.41,2.34.74,3,1s1.63.59,2.81,1.07a16.07,16.07,0,0,1,2.75,1.34,22,22,0,0,1,2.21,1.68,8.62,8.62,0,0,1,1.91,2.19,12.5,12.5,0,0,1,1.12,2.71,12.34,12.34,0,0,1,.47,3.47,11.72,11.72,0,0,1-4.4,9.61Q611.12,424,604.06,424Z" transform="translate(-430.3 -330.8)" fill="#fdfffd"/><path d="M656,379.4v8.24H644.19v35.45h-8.61V387.64H623.84V379.4Z" transform="translate(-430.3 -330.8)" fill="#fdfffd"/><path d="M672.52,414.85h18.42v8.24h-27V379.4h26.71v8.24h-18.1v9.3h16.54v8.11H672.52Z" transform="translate(-430.3 -330.8)" fill="#fdfffd"/><path d="M724.08,423.09l-8.83-15.16h-6.53v15.16h-8.61V379.4h17.48a14.49,14.49,0,0,1,14.54,14.48,13.28,13.28,0,0,1-2.31,7.52,14.42,14.42,0,0,1-6.12,5.21l9.68,16.48Zm-15.36-35.64v12.92h8.87a5.49,5.49,0,0,0,4.18-1.9,6.58,6.58,0,0,0,1.75-4.59,6.43,6.43,0,0,0-1.75-4.55,5.53,5.53,0,0,0-4.18-1.88Z" transform="translate(-430.3 -330.8)" fill="#fdfffd"/><path d="M760.17,379.59a97.49,97.49,0,0,0-18.68,27.07c-1.67,3.53,3.87,6.1,5.51,2.55a90.63,90.63,0,0,1,11.6-18.67q-3.15,30.43-6.28,60.86c-.4,3.86,5.57,5,6,1.07q3.65-35.34,7.31-70.68C765.93,378.56,762.18,377.54,760.17,379.59Z" transform="translate(-430.3 -330.8)" fill="#fdfffd"/><path d="M525.19,379.4,512.73,400l-8.58-14.12c-3.79,1.17-8.23,2.31-12.81,3.55v33.63H500V394.86l12.26,20.2,1,0,12.32-20.26v28.33h8.55V379.4Z" transform="translate(-430.3 -330.8)" fill="#fdfffd"/><path d="M515.64,374.18l-.47-.36-.61-.58.17-.12-.58-.1-.62-.48.06.39-.23,0a1.36,1.36,0,0,0-.24,0,2.42,2.42,0,0,1-.33-.05,1.76,1.76,0,0,0-1.14.07,1.81,1.81,0,0,0-1.15-.34h-.17c-.77-.06-1.54-.15-2.3-.24l-.35,0a5.3,5.3,0,0,1-.55-.1,3.44,3.44,0,0,0-1.64-.06,2.78,2.78,0,0,1-.43.08l-.4-.19v.15h0a7.21,7.21,0,0,0-1.82-.19,1.55,1.55,0,0,1-.35,0l-.46-.37-.36.32-.05.05h-1.2v-.76l-.66.65a.24.24,0,0,0-.09,0c-.37-.05-.74-.08-1.12-.11l-.82-.08c-.48-.06-1-.11-1.43-.19a4.47,4.47,0,0,1-.61-.14l-.51-.12a1,1,0,0,0-.54.08l-.21.09s-.07,0,0,0a7.36,7.36,0,0,1-1.1-.14,2.34,2.34,0,0,0-1.55.35l-.31-.07.1.21a2.35,2.35,0,0,0-.51.48,1.2,1.2,0,0,1-.58.4,2.3,2.3,0,0,0-1.07.57l-.31.33a7.11,7.11,0,0,1-.94.89,1.66,1.66,0,0,0-.37.39.79.79,0,0,1-.14.16c-.17.14-.36.27-.55.4s-.49.35-.72.54-.44.4-.65.61-.47.45-.73.65c-.49.39-1,.75-1.56,1.1l-.35.22a1.59,1.59,0,0,0-.75,1,.7.7,0,0,0-.3.13c-.24.18-.49.34-.74.51a8.79,8.79,0,0,0-2,1.66,1.9,1.9,0,0,1-.47.33,3.81,3.81,0,0,0-.4.23,2,2,0,0,0-.39.36,1.56,1.56,0,0,0-.16.2l-.08.12-.71.62-.83.71a1.14,1.14,0,0,0-.15.17c-1,.22-1.12,1-1.13,1.82a1.7,1.7,0,0,0,1.24,1.45c.51.08,1,.13,1.63.17s.9,0,1.37,0c0,.07,0,.14,0,.21a1.66,1.66,0,0,0,.4,1.1v0a1.46,1.46,0,0,0,.08.37.59.59,0,0,0,.1.17,5.53,5.53,0,0,0,.26,1.49,8.48,8.48,0,0,1,.2.92l.05.39.23,0a1.15,1.15,0,0,0,.17.67,1.84,1.84,0,0,0,.17.22l-.19,0,.27.45,0,.22.22.09.32.55-.18.61.05,0a.92.92,0,0,0,0,.16c0,.06,0,.15,0,.17-.08.22-.17.43-.26.64s-.13.3-.19.45a1.37,1.37,0,0,0-.08.35l-.12.35-.1.31c-.07.18-.13.37-.18.55a.75.75,0,0,0,.24.76,1.06,1.06,0,0,0,.65.22,1,1,0,0,0,.25,0,.94.94,0,0,0,.67-.51,2.4,2.4,0,0,0,.18-.58l.07-.32s0-.07,0-.09a.83.83,0,0,1,.08-.12l.15-.21.24.1-.53.71,1.12-.51.34.07.14-.29,1.64-.75-.36-.47,1-1.35-1.49.73-.18-.24-.15-.05-.33-.1a1.33,1.33,0,0,1-.35-.14,1.79,1.79,0,0,1-.81-1.46.87.87,0,0,0-.28-.74c-.21-.16-.19-.22-.09-.39l.2-.36-.29-.3a2.34,2.34,0,0,1-.44-1.35l-.07-.57-.2,0s0,0,0-.06q-.07-.27-.18-.54c0-.13-.09-.25-.13-.38-.1-.32-.19-.64-.28-1l0-.12q.36.06.72.09c.35,0,.7,0,1.06,0l.77,0,.41-.77,1.72,1.12-.27-1.46a3.13,3.13,0,0,0-.12-.53.3.3,0,0,0,0-.1.86.86,0,0,0,.13-.23,1.82,1.82,0,0,1,1-1l.13-.06a3.07,3.07,0,0,0,.8-.51,3.58,3.58,0,0,0,.26-.29,2.23,2.23,0,0,1,.4-.38h.07v0a.47.47,0,0,1,.17,0l.31-.05.15-.24c0-.07.13-.11.34-.18a2,2,0,0,0,.65-.35,3.1,3.1,0,0,1,.44-.31l.41.82.25-1.16.35-.15c.55-.21,1.12-.37,1.73-.55l.8-.24.3-.2a.83.83,0,0,1,.16-.12l.14,0,.27-.07.7-.24.94-.32.13,0a.7.7,0,0,1,.14,0,1,1,0,0,0,.87-.09,1.57,1.57,0,0,1,.6-.24,3.45,3.45,0,0,0,.64-.22l.24,0,.35,0a3.64,3.64,0,0,0,.89-.16,6.19,6.19,0,0,1,2.05-.23,1.59,1.59,0,0,0,1.1-.3l.19,0c.44.07.9.12,1.34.18l.42.05a1.1,1.1,0,0,0,.32,0,1.49,1.49,0,0,1,1,.29.85.85,0,0,1,.34.8,1.45,1.45,0,0,0,.05.43l.46,1.42.55,1.72.27.87a1.94,1.94,0,0,0-.7-.13,3.49,3.49,0,0,0-.72,0,5.69,5.69,0,0,1-.72,0,13,13,0,0,0-2.19.19c-.3,0-.59.11-.89.17s-.51.12-.77.16c-.56.08-1.14.13-1.71.18l-.3,0a1.28,1.28,0,0,0-1,.55.69.69,0,0,0-.32,0c-.82.17-1.63.35-2.45.54a.92.92,0,0,0-.41.25l-.49.1-.48.11a1,1,0,0,0-.42.23l-.19.14-.75.32-.87.37a.76.76,0,0,0-.2.12,1.91,1.91,0,0,0-1.09.34,1.64,1.64,0,0,1-.33.16,8.78,8.78,0,0,0-2.42,1.35l-.15.11-.48.33a5.52,5.52,0,0,0-2,2,2.41,2.41,0,0,0-.34,1.22V395l.9-.63.22-.14a2.31,2.31,0,0,0,.56-.46,5.36,5.36,0,0,1,1.46-1.29c.26-.14.51-.31.76-.47l.4-.27.42-.23.93-.54,1.31-.74.33-.13a2.72,2.72,0,0,0,.62-.27,1.78,1.78,0,0,0,.26-.22h0a.9.9,0,0,0,.72-.14l.33-.16.32-.17a1.34,1.34,0,0,0,1.17-.48h.07a1.31,1.31,0,0,0,.51,0,1.11,1.11,0,0,0,.75-.22,1.54,1.54,0,0,0,1-.22l1.5-.32a.75.75,0,0,0,.37-.13c.23-.16.29-.16.38-.14a1.51,1.51,0,0,0,.76,0l.61-.14.5-.12H503a1,1,0,0,0,.75-.25s.14,0,.36,0a2,2,0,0,0,.94,0l.29-.1c.07,0,.17-.07.13-.09a2,2,0,0,0,.8,0,1.4,1.4,0,0,1,.41,0l.53.09a4.86,4.86,0,0,1,.91.21,4.23,4.23,0,0,0,.68.17l0,.05a3.75,3.75,0,0,0-.09.39,1.4,1.4,0,0,0-.72.59l-.54.43a2.55,2.55,0,0,0-.3.26,2.49,2.49,0,0,1-.51.37l-.13.07a3.9,3.9,0,0,0-1,.65l-.58-1-.34,1.47a.73.73,0,0,1-.19.07l-.18.05a1.77,1.77,0,0,0-.86.39l-.28-.31-.25.45a.93.93,0,0,0-.62,0,1,1,0,0,0-.53.49,1.33,1.33,0,0,0-.54.16l0,0-1.23-.65.4,1a1.34,1.34,0,0,0-.93.64,6.18,6.18,0,0,1-.75.13,1.17,1.17,0,0,0-.83.39l-2.16.39-.41.13-.05.32-.2,0-.28-.05-.23.23-.17-.35-2,.61.27.29-.09.05.41.28.26.26.12.09-.35.35.69-.1.12.09.13-.13.91-.13a4.71,4.71,0,0,0,.52-.09,1.69,1.69,0,0,0,.35-.14l.11,0a2.61,2.61,0,0,1,.55-.14h.3a3.7,3.7,0,0,0,.63-.06l1.2-.32,1.14-.3.36-.07a3.24,3.24,0,0,0,1.54-.62l.12-.1.07-.06.49.05-.07-.2a7.17,7.17,0,0,0,1.25-.47l.33-.15.16.22.61-.54a.68.68,0,0,1,.12-.12l.14-.06.25-.13.41-.24.29.57.29-.92.77-.45,1.29-.74,1.6-.93a.85.85,0,0,0,.38-.75l.05,0a2,2,0,0,0,.52-2.26c-.13-.23-.27-.46-.4-.67l0,0v0a3.2,3.2,0,0,0,.1-.71,1.5,1.5,0,0,0-.14-.58.88.88,0,0,1-.05-.15c-.12-.45-.23-.9-.34-1.35l-.17-.74a3.17,3.17,0,0,0-.15-.55c-.09-.23-.19-.46-.29-.68s-.22-.5-.32-.75a2.09,2.09,0,0,1-.08-.34,2.21,2.21,0,0,0-.37-.93,1.09,1.09,0,0,0-.44-.89.68.68,0,0,0-.56-.15.21.21,0,0,1,0-.06,1.11,1.11,0,0,0-1.28-.43.63.63,0,0,0-.37-.21c-.37-.07-.75-.12-1.21-.19a1,1,0,0,0-.61,0l.37-.53-1.57.48a3,3,0,0,0-.32.12l-.11,0a1.78,1.78,0,0,0-1.25.07h-.16l-.21,0h-.12a1.1,1.1,0,0,0-.66.17.45.45,0,0,1-.35,0,1.1,1.1,0,0,0-.66.05c-.22.08-.44.17-.65.27V378l-.79.24-.23.08-.27.08a4.21,4.21,0,0,0-1.54.46L495,379l-.19.1a1.64,1.64,0,0,0-1.11.44.88.88,0,0,0-.39,0v-.05l-1.06.45L492,380l-.26.14a1.57,1.57,0,0,1-.32.16,2.73,2.73,0,0,0-.95.39l0-.07-.51.25-.29.17-.17.12a1,1,0,0,0-.49.08l.17-.48-.68.49h0l-.46.36-.1.05-.35.18a.63.63,0,0,0-.27.3l-.23.11a2.59,2.59,0,0,0-.31.19l-.58.36v0l-.14.21c-.09.13-.17.27-.25.4l-.07.13a.93.93,0,0,0-.05.1l-.44.24-.4.22-.06.24a1.7,1.7,0,0,0-.06.31l0,.15-.13.14-.4-.1-.7,1.83a1.28,1.28,0,0,0-.48-.25,13.13,13.13,0,0,0-1.69-.23l-.94-.07c-.44,0-.89-.05-1.33-.11l-.43-.06c-.46-.06-.94-.13-1.47-.15l.1-.08.09-.08.33-.3.2-.21a1.25,1.25,0,0,1,.19-.2l.12-.05a1.67,1.67,0,0,0,.37-.17,2.83,2.83,0,0,0,.4-.36l.58-.56.52-.32a.76.76,0,0,0,.34-.43,1.43,1.43,0,0,0,.63-.31l.16-.1a.58.58,0,0,0,.41-.34.52.52,0,0,0,.08-.11,2.43,2.43,0,0,0,1.18-.94A3.45,3.45,0,0,1,483,381a1,1,0,0,0,.66-.39l.18.11.08-.11h0l.2-.27,1-.21-.46-.37.08-.07.31-.19a3.77,3.77,0,0,0,.57-.38c.35-.27.69-.57,1-.86l.41-.36.12-.14,0,0a.94.94,0,0,0,.46-.41,1.16,1.16,0,0,0,.85-.56,3.37,3.37,0,0,0,.3-.36,2.1,2.1,0,0,1,.53-.54,1.67,1.67,0,0,0,.41-.37h.12a.71.71,0,0,0,.53-.41,2,2,0,0,0,.21-.2l.1-.09.47-.37c.31-.24.61-.48.9-.74a7.58,7.58,0,0,0,.62-.65l.06-.08a2.38,2.38,0,0,0,1.26-.05,1.7,1.7,0,0,0,1.49.23h0l1.22.14c.41.06.81.11,1.22.14h.14a4.14,4.14,0,0,0,1.11,0l-.08,1.16,1.07-1a.68.68,0,0,0,.52,0,1.18,1.18,0,0,0,1.26.11l.16.44.42-.25h0a1,1,0,0,0,1.32.1.84.84,0,0,0,.41.09,2.85,2.85,0,0,0,.68.08l.4,0,.05.14.81-.2L507,374h.23a3.11,3.11,0,0,1,.44.07,2.38,2.38,0,0,0,1.61-.07,1.29,1.29,0,0,1,.49-.07l0,.3,2.39.32.1-.28h.29a.72.72,0,0,0,.58,0l.35.2.24.12a.86.86,0,0,0,.56.43l1,1.27-.22-1.39ZM484.07,387l0,.22-.26-.2-.11-.09Zm3.6-9.68-.37-.39.48.32A.35.35,0,0,1,487.67,377.28Z" transform="translate(-430.3 -330.8)" fill="#fff"/></svg>