<?xml version="1.0" encoding="utf-8"?>
<!-- Generator: Adobe Illustrator 25.0.0, SVG Export Plug-In . SVG Version: 6.00 Build 0)  -->
<svg version="1.1" id="Layer_1" xmlns="http://www.w3.org/2000/svg" xmlns:xlink="http://www.w3.org/1999/xlink" x="0px" y="0px"
	 viewBox="0 0 2000 263.6" preserveAspectRatio="none" style="enable-background:new 0 0 2000 263.6;" xml:space="preserve">
<style type="text/css">
	.st0{opacity:0.5;fill:url(#SVGID_1_);enable-background:new    ;}
	.st1{opacity:0.5;fill:url(#SVGID_2_);enable-background:new    ;}
	.st2{fill:#71519F;}
</style>
<g>
	
		<linearGradient id="SVGID_1_" gradientUnits="userSpaceOnUse" x1="-119.7882" y1="160.8437" x2="2013.7192" y2="160.8437" gradientTransform="matrix(1 0 0 -1 0 266)">
		<stop  offset="0" style="stop-color:#FFFFFF;stop-opacity:0"/>
		<stop  offset="0.24" style="stop-color:#CBEFFB;stop-opacity:0.29"/>
		<stop  offset="0.51" style="stop-color:#95DFF7;stop-opacity:0.59"/>
		<stop  offset="0.74" style="stop-color:#6DD3F4;stop-opacity:0.81"/>
		<stop  offset="0.91" style="stop-color:#55CCF2;stop-opacity:0.95"/>
		<stop  offset="1" style="stop-color:#4CC9F1"/>
	</linearGradient>
	<path class="st0" d="M455,72.9c369.8,8.7,624,46,1064.2,108.4c184.1,26.1,383.7,25.9,481.2,23.6v-65.5
		c-59.2,2.3-305.1,9.4-528.2-22.2C1032,54.7,777.7,17.3,408,8.8C215.5,4.3,80.3,4-4.9,4.8v64.7C73.4,68.2,222.3,67.5,455,72.9z"/>
	
		<linearGradient id="SVGID_2_" gradientUnits="userSpaceOnUse" x1="-178.8286" y1="109.1987" x2="2084.4253" y2="109.1987" gradientTransform="matrix(1 0 0 -1 0 266)">
		<stop  offset="0" style="stop-color:#FFFFFF;stop-opacity:0"/>
		<stop  offset="5.000000e-02" style="stop-color:#F6EFFA;stop-opacity:6.000000e-02"/>
		<stop  offset="0.39" style="stop-color:#BD8DDD;stop-opacity:0.46"/>
		<stop  offset="0.67" style="stop-color:#9446C8;stop-opacity:0.75"/>
		<stop  offset="0.88" style="stop-color:#7B1ABB;stop-opacity:0.93"/>
		<stop  offset="1" style="stop-color:#7109B6"/>
	</linearGradient>
	<path class="st1" d="M-4.9,268.3V69.5c78.3-1.2,227.2-2,460,3.5c369.7,8.6,623.9,45.9,1064.1,108.3
		c184.1,26.1,383.7,25.9,481.2,23.6v-28.2c-93.3,2.3-300.5,3.6-491.1-23.4C1069.1,90.8,814.8,53.5,445.1,44.9
		C221.8,39.8,75.7,40.2-5,41.4V273l0,0v-4.7H-4.9z"/>
	<path class="st2" d="M2000.5,268.3v-63.4c-97.5,2.2-297.1,2.4-481.2-23.6C1079,118.8,824.8,81.5,455,72.9
		C222.3,67.5,73.4,68.2-4.9,69.5v198.9h2005.4V268.3z"/>
</g>
</svg>
