<?xml version="1.0" encoding="utf-8"?>
<!-- Generator: Adobe Illustrator 25.0.0, SVG Export Plug-In . SVG Version: 6.00 Build 0)  -->
<svg version="1.1" id="Layer_1" xmlns="http://www.w3.org/2000/svg" xmlns:xlink="http://www.w3.org/1999/xlink" x="0px" y="0px"
	 viewBox="0 0 1920 1080" style="enable-background:new 0 0 1920 1080;" xml:space="preserve">
<style type="text/css">
	.st0{fill:#4CC9F1;}
	.st1{fill:#7653AD;}
	.st2{fill:#FFD150;}
	.st3{fill:none;stroke:#18327C;stroke-width:0.8604;stroke-linecap:round;stroke-linejoin:round;stroke-miterlimit:10;}
	.st4{fill:none;stroke:#18327C;stroke-width:0.8604;stroke-linejoin:round;stroke-miterlimit:10;}
	.st5{fill:none;stroke:#FFFFFF;stroke-width:2.3915;stroke-linecap:round;stroke-miterlimit:10;}
	.st6{fill:none;stroke:#FFFFFF;stroke-width:2.3915;stroke-linecap:round;stroke-linejoin:round;stroke-miterlimit:10;}
	.st7{fill:none;stroke:#18327C;stroke-width:1.5943;stroke-linecap:round;stroke-miterlimit:10;}
	.st8{fill:none;stroke:#18327C;stroke-width:1.1422;stroke-miterlimit:10;}
	.st9{fill:none;stroke:#18327C;stroke-width:1.1817;stroke-miterlimit:10;}
	.st10{fill:none;stroke:#18327C;stroke-width:1.2792;stroke-miterlimit:10;}
	.st11{fill:none;stroke:#18327C;stroke-width:1.5943;stroke-linecap:round;stroke-linejoin:round;stroke-miterlimit:10;}
	.st12{fill:none;stroke:#18327C;stroke-width:1.7321;stroke-linecap:round;stroke-linejoin:round;stroke-miterlimit:10;}
	.st13{fill:none;stroke:#18327C;stroke-width:0.8373;stroke-linecap:round;stroke-miterlimit:10;}
	.st14{fill:none;stroke:#18327C;stroke-width:0.9509;stroke-linecap:round;stroke-miterlimit:10;}
	.st15{fill:none;stroke:#18327C;stroke-width:0.7141;stroke-linecap:round;stroke-miterlimit:10;}
	.st16{fill:#FFFFFF;}
	.st17{fill:none;stroke:#FFFFFF;stroke-width:3.9858;stroke-linecap:round;stroke-miterlimit:10;}
	.st18{fill:none;stroke:#18327C;stroke-width:0.8373;stroke-miterlimit:10;}
	.st19{fill:none;stroke:#FFFFFF;stroke-width:4.1128;stroke-linecap:round;stroke-miterlimit:10;}
	.st20{fill:none;stroke:#FFFFFF;stroke-width:2.1977;stroke-miterlimit:10;}
	.st21{fill:none;stroke:#FFFFFF;stroke-width:1.5943;stroke-linecap:round;stroke-miterlimit:10;}
	.st22{fill:#EA3B5D;}
	.st23{fill:#B3E1FF;}
	.st24{fill:none;stroke:#B3E1FF;stroke-width:1.5943;stroke-miterlimit:10;}
	.st25{fill:none;stroke:#FFD150;stroke-width:0.6007;stroke-miterlimit:10;}
	.st26{fill:none;stroke:#0B132D;stroke-width:0.6328;stroke-linecap:round;stroke-linejoin:round;stroke-miterlimit:10;}
	.st27{fill:none;stroke:#0B132D;stroke-width:0.8178;stroke-linecap:round;stroke-linejoin:round;stroke-miterlimit:10;}
	.st28{fill:#DEF8FF;}
	.st29{fill:none;stroke:#222854;stroke-width:0.7727;stroke-linecap:round;stroke-miterlimit:10;}
	.st30{fill:#FCA575;}
	.st31{fill:#24375B;}
	.st32{fill:none;stroke:#FFFFFF;stroke-width:0.7972;stroke-linecap:round;stroke-miterlimit:10;}
	.st33{fill:none;stroke:#0B132D;stroke-width:0.6825;stroke-linecap:round;stroke-linejoin:round;stroke-miterlimit:10;}
	.st34{fill:none;stroke:#24375B;stroke-width:0.7972;stroke-miterlimit:10;}
	.st35{fill:none;stroke:#24375B;stroke-width:3.1886;stroke-linecap:round;stroke-miterlimit:10;}
	.st36{fill:none;stroke:#FFFFFF;stroke-width:0.5979;stroke-miterlimit:10;}
	.st37{fill:#0B132D;}
	.st38{fill:none;stroke:#0B132D;stroke-width:0.6825;stroke-linecap:round;stroke-miterlimit:10;}
	.st39{fill:none;stroke:#0B132D;stroke-width:0.798;stroke-miterlimit:10;}
	.st40{fill:none;stroke:#0B132D;stroke-width:0.7976;stroke-linecap:round;stroke-miterlimit:10;}
	.st41{fill:#14143A;}
	.st42{fill:none;stroke:#FFFFFF;stroke-width:0.6598;stroke-miterlimit:10;}
	.st43{fill:none;stroke:#B3E1FF;stroke-width:1.5943;stroke-linecap:round;stroke-linejoin:round;stroke-miterlimit:10;}
	.st44{fill:none;stroke:#222854;stroke-width:0.7727;stroke-miterlimit:10;}
	.st45{fill:none;stroke:#222854;stroke-width:0.7523;stroke-miterlimit:10;}
	.st46{fill:#212035;}
	.st47{fill:none;stroke:#FFFFFF;stroke-width:1.1863;stroke-linecap:round;stroke-miterlimit:10;}
	.st48{fill:none;stroke:#FFFFFF;stroke-width:0.7972;stroke-miterlimit:10;}
	.st49{fill:none;stroke:#212035;stroke-width:0.8342;stroke-linecap:round;stroke-miterlimit:10;}
	.st50{fill:#17143F;}
	.st51{font-family:'Gilroy-Light';}
	.st52{font-size:94.0617px;}
	.st53{font-size:75.6519px;}
	.st54{fill:none;stroke:#4CC9F1;stroke-width:2.0642;stroke-miterlimit:10;}
	.st55{fill:#7109B6;}
</style>
<g>
	<g>
		<path class="st0" d="M851.75,612.03c21.75-45.43,39.15-119.77,120.78-179.28c77.58-56.55,159.83-47.25,224.9-38.91
			c111.2,14.26,178.39-18.6,261.55-73.24c83.16-54.64,138.24-109.64,267.38-67.9c56.64,18.31,95.34,58.06,100.79,138.85
			c4,59.26-18.98,153.9-95.79,241.84c-59.97,68.66-128.03,109.18-239.06,131.98c-137.44,28.23-214.07,57.98-458.96,0
			c-76.77-18.17-136.6-39.67-212.4,49.59c-65.2,76.77-99.34,22.38-49.98-50.35C828.43,679.93,825.59,666.69,851.75,612.03z"/>
		<path class="st1" d="M1671.99,862.26h-662.58c-3.35,0-6.06-2.71-6.06-6.06v-6.95c0-3.35,2.71-6.06,6.06-6.06h662.58
			c3.35,0,6.06,2.71,6.06,6.06v6.95C1678.05,859.54,1675.33,862.26,1671.99,862.26z"/>
		<path class="st2" d="M1516.59,836.7h-162.8c-3.35,0-6.06-2.71-6.06-6.06v-6.95c0-3.35,2.71-6.06,6.06-6.06h162.8
			c3.35,0,6.06,2.71,6.06,6.06v6.95C1522.65,833.99,1519.94,836.7,1516.59,836.7z"/>
		<path class="st3" d="M894.75,589.88l0.16-1.29c0.35-2.91,3.04-5.12,6.24-5.12h48.25L940.42,658h-10.2"/>
		<polygon class="st3" points="1053.93,584.8 1044.23,659.33 1052.05,659.33 1062.55,584.8 		"/>
		<polygon class="st3" points="952.54,584.03 943.38,657.02 952.54,657.02 960.62,584.03 		"/>
		<polygon class="st3" points="1040.73,659.33 986.85,659.33 995.83,584.8 1049.71,584.8 		"/>
		<polygon class="st4" points="1030.07,607.94 1006.5,607.94 1007.91,596.64 1031.48,596.64 		"/>
		<polygon class="st3" points="1065.41,595.63 1088.44,595.08 1082.07,659.71 1055.01,659.33 		"/>
		<line class="st3" x1="1096.29" y1="589.41" x2="1087.31" y2="659.31"/>
		<line class="st3" x1="1102.42" y1="586.32" x2="1091.8" y2="659.31"/>
		<line class="st3" x1="1105.81" y1="596.53" x2="1096.88" y2="659.39"/>
		<polygon class="st3" points="972.05,546.01 941.4,546.01 946.51,503.61 977.16,503.61 		"/>
		<polygon class="st3" points="965.98,516.77 952.57,516.77 953.38,510.34 966.79,510.34 		"/>
		<polygon class="st3" points="986.09,509.77 999.19,509.45 995.56,546.22 980.17,546.01 		"/>
		<path class="st5" d="M1813.4,329.38c-67.47-23.65-115.78-3.81-133.94,15.33c-21.7,22.89-37.77,36.73-52.35,32.92
			c-14.58-3.81-25.99-2.29-36.95,8.39c-10.96,10.68-15.21,20.43-28.91,18.99c-13.7-1.44-26.33,22.81-10.43,25.94
			c11.89,2.34,213.25-1.67,273.41-2.4"/>
		<path class="st5" d="M1331.95,366"/>
		<path class="st5" d="M1455.51,324.13c15.64,11.35,20.71,12.65,33.58,10.85c12.88-1.79,16.91-1.87,26.14,4.27
			c9.23,6.14,15.62,8.7,27.84,8.19s19.5,0.69,19.6,7.71c0.1,7.03-2.5,9.32-16.19,9.32c-8.43,0-109.74,0.76-165.38,0.76"/>
		<path class="st6" d="M1720.59,356.1c-7.97,2.57-16.35,6.44-22.25,12.19c-14.88,14.49-26.13,27.49-42.16,27.48
			c-16.03-0.02-43.85-0.96-50.35,7.14"/>
		<path class="st6" d="M1754.6,368.75c-5.86,1.21-11.62,2.93-16.14,5.4c-15.12,8.25-25.79,15.73-25.79,15.73"/>
		<path class="st6" d="M1428.44,340.01c12.85,8.63,26.31,15.34,40.12,11c15.41-4.84,24.57-2.78,29.99,0"/>
		<path class="st6" d="M1747.6,344.64c0,0,21.66-3.05,39.15,0c13.86,2.42,35.9,13.99,35.9,13.99"/>
		<path class="st7" d="M1296.65,380.27c1.73-0.37,3.45-0.76,5.17-1.18"/>
		<path class="st7" d="M1277.55,383.4c3.52-0.41,7.04-0.91,10.55-1.5"/>
		<path class="st7" d="M909.83,633.73c-13.59-25.3-20.63-55.83-19.93-92.66c1-52.63,50.47-130.32,156.6-158.68
			c73.61-19.67,149.24,7.62,222.33,1.86"/>
		<path class="st7" d="M919.8,649.76c-1.73-2.42-3.39-4.9-4.98-7.44"/>
		<path class="st7" d="M926.87,658.91c-1.09-1.3-2.15-2.61-3.19-3.95"/>
		<path class="st7" d="M983.54,703.84c-1.46-0.79-2.91-1.59-4.35-2.4"/>
		<path class="st7" d="M1003.46,713.51c-4.25-1.86-8.42-3.8-12.49-5.83"/>
		<path class="st7" d="M1784.87,459.6c-4.69,32.72-16.51,66-35.36,97.49c-109.12,182.33-261.44,194.56-445.58,196.46
			c-95.77,0.99-205.58-3.02-288.05-34.93"/>
		<path class="st7" d="M1787.12,422.35c0.17,6.75,0.01,13.56-0.46,20.41"/>
		<path class="st7" d="M1785.66,402.31c0.32,2.64,0.59,5.29,0.81,7.95"/>
		<path class="st7" d="M1728.49,290.12c1.84,1.65,3.63,3.34,5.39,5.05"/>
		<path class="st7" d="M1713.42,277.98c3.51,2.53,6.89,5.15,10.14,7.87"/>
		<path class="st7" d="M1439.43,293.45c57.48-42.41,105.07-67.58,187.64-51.43c29.74,5.82,55.29,15.96,76.69,29.45"/>
		<path class="st7" d="M1410.07,315.67c4.98-3.82,9.86-7.55,14.64-11.18"/>
		<path class="st7" d="M1394.22,327.77c2.35-1.79,4.68-3.56,6.98-5.32"/>
		<g>
			<path class="st8" d="M1636.45,609.09c-9.71-6.63-24.81-37.39-14.23-56.97c10.58-19.57,21.81-7.36,24.3-22.13
				c2.49-14.76-4.84-27.85,10.36-37.4s26.38-11.6,29.48-22.3s10.21-17.35,26.66-26.45c16.45-9.1,40.11,5.34,30.97,21.49
				c-7.7,13.62-5.79,31.24-1.22,40.73s8.97,17.34-2.45,28.76s-23.56,15.75-22.48,32.12c1.08,16.38,11.96,23.67-8.62,35.92
				C1681.27,619.51,1652.29,619.91,1636.45,609.09z"/>
			<path class="st8" d="M1730.11,441.53c0,0-22.21,29.53-50.71,83.73c-23.58,44.84-25.96,90.34-25.96,90.34"/>
			<path class="st8" d="M1633.73,540.49c2.25,17,22.01,56.49,22.01,56.49"/>
			<path class="st8" d="M1656.88,492.6c0,0,4.46,8.4,6.98,21.36c2.53,12.96,7.62,28.14,7.62,28.14s12.75-12.88,30.81-16.9
				c18.06-4.02,43.82-9.74,43.82-9.74"/>
			<path class="st8" d="M1695.19,456c0,0,4.98,8.73,3.98,16.5c-1,7.77-0.46,17.81-0.46,17.81"/>
			<path class="st8" d="M1699.88,488.31c0,0,12.18-7.04,19.51-11.51c7.33-4.47,22.13-6.11,22.13-6.11"/>
			<path class="st8" d="M1655.57,595.26c0,0,23.07-11.1,33.39-16.7s29.35-7.63,29.35-7.63"/>
		</g>
		<g>
			<g>
				<path class="st8" d="M1617.56,644.78c4.55-6.19,6.65-28.79-4.82-39.05s-15.63-0.23-20.8-9.08c-5.17-8.86-3.7-18.66-15.67-21.62
					s-19.56-1.98-24.13-8.14c-4.57-6.16-10.7-8.93-23.35-11.34c-12.65-2.42-24.15,11.57-14.43,19.96
					c8.2,7.07,11.27,18.64,10.68,25.6c-0.59,6.95-1.47,12.84,8.55,17.75s18.78,5.19,22.08,15.8c3.3,10.61-1.83,17.46,14.2,21.03
					C1591.65,660.54,1610.13,654.88,1617.56,644.78z"/>
				<path class="st8" d="M1518.33,558.12c0,0,20.31,13.64,51.57,42.22c25.87,23.65,38.44,52.03,38.44,52.03"/>
				<path class="st8" d="M1602.6,600.69c0,0-1.9,2.1-1.1,12.52c0.8,10.42,0.86,27.81,0.86,27.81"/>
				<path class="st8" d="M1576.26,575.03c0,0-0.79,6.24,0.76,14.98s2.01,19.41,2.01,19.41s-11.22-5.57-23.66-4.44
					c-12.44,1.13-30.18,2.75-30.18,2.75"/>
				<path class="st8" d="M1543.05,559.61c0,0-1.04,6.56,1.49,11.28s4.62,11.21,4.62,11.21"/>
				<path class="st8" d="M1547.93,581.07c0,0-9.44-1.98-15.18-3.32s-15.53,0.64-15.53,0.64"/>
				<path class="st8" d="M1602.06,639.91c0,0-17.34-2.34-25.25-3.79c-7.91-1.45-20.48,1.14-20.48,1.14"/>
			</g>
			<path class="st8" d="M1607.94,651.65c0,0,4.42,7.2,8.62,14.16c4.2,6.96,13.04,21.13,13.04,21.13"/>
		</g>
		<path class="st9" d="M1653.72,615.59c0,0-2.61,11.97-5.23,28.14c-1.24,7.65-1.94,20.23-2.35,31.37"/>
		<path class="st8" d="M1459.51,382.64c0,0,12.47-0.95,23.21,4.72c10.73,5.68,7.34,9.78,7.34,9.78S1475.04,397.37,1459.51,382.64z"
			/>
		<path class="st8" d="M1490.63,396.9c0,0,3.33-8.39,11.66-12.21c8.33-3.81,14.99-6.87,14.99-6.87S1510.62,393.08,1490.63,396.9z"/>
		<ellipse class="st10" cx="1550.19" cy="479.67" rx="8.75" ry="8.01"/>
		<ellipse class="st10" cx="1601.41" cy="464.03" rx="4.58" ry="4.2"/>
		<ellipse class="st10" cx="1592.67" cy="514" rx="16.66" ry="15.26"/>
		<path class="st8" d="M1465.07,422.72c0,0,5.64-0.43,10.5,2.14c4.85,2.57,3.32,4.42,3.32,4.42S1472.09,429.39,1465.07,422.72z"/>
		<path class="st8" d="M1479.14,429.17c0,0,1.51-3.8,5.28-5.52c3.77-1.73,6.78-3.11,6.78-3.11S1488.19,427.45,1479.14,429.17z"/>
		<path class="st8" d="M1503.96,405.84c0,0,8.09-0.62,15.06,3.06c6.96,3.68,4.76,6.35,4.76,6.35S1514.03,415.4,1503.96,405.84z"/>
		<path class="st8" d="M1524.15,415.09c0,0,2.16-5.44,7.57-7.92c5.4-2.47,9.73-4.45,9.73-4.45S1537.12,412.62,1524.15,415.09z"/>
		<g>
			<polygon class="st11" points="1276.87,316.14 1257.08,315.38 1256.29,315.11 1254.44,299.53 1225.82,338.54 			"/>
			<polyline class="st12" points="1261.57,323.66 1261,327.09 1225.75,338.92 1256.57,315.27 			"/>
		</g>
		<path class="st13" d="M1089.56,525.06h-73.3c-6.21,0-11.24-4.61-11.24-10.3v0c0-5.69,5.03-10.3,11.24-10.3h73.3"/>
		<path class="st13" d="M1087.47,521.25h-71.16c-3.84,0-6.96-2.85-6.96-6.37v0c0-3.52,3.11-6.37,6.96-6.37h71.16"/>
		<path class="st13" d="M1087.02,519.79c-1.01-1.17-1.62-2.65-1.62-4.26c0-1.9,0.84-3.61,2.2-4.86"/>
		<path class="st13" d="M1087.06,502.9h-73.1c-3.83,0-6.93-2.84-6.93-6.35l0,0c0-3.51,3.1-6.35,6.93-6.35h72.27"/>
		<path class="st13" d="M1087.06,500.55h-73.07c-2.37,0-4.29-1.76-4.29-3.93v0c0-2.17,1.92-3.93,4.29-3.93h73.91"/>
		<path class="st13" d="M1047.6,499.65c-0.63-0.72-1-1.64-1-2.63c0-1.17,0.52-2.23,1.35-2.99"/>
		<path class="st13" d="M1083.47,499.71c-0.63-0.72-1-1.64-1-2.63c0-1.17,0.52-2.23,1.35-2.99"/>
		<path class="st14" d="M1056.89,471.62h73.3c6.21,0,11.24-5.95,11.24-13.29l0,0c0-7.34-5.03-13.29-11.24-13.29h-73.3"/>
		<path class="st14" d="M1058.98,466.7h71.16c3.84,0,6.96-3.68,6.96-8.22l0,0c0-4.54-3.11-8.22-6.96-8.22h-71.16"/>
		<path class="st14" d="M1059.43,464.82c1.01-1.51,1.62-3.42,1.62-5.5c0-2.45-0.84-4.66-2.2-6.26"/>
		<path class="st14" d="M1104.9,463.85c1.01-1.51,1.62-3.42,1.62-5.5c0-2.45-0.84-4.66-2.2-6.26"/>
		<path class="st14" d="M1065.98,444.96h55.04c4.66,0,8.44-4.47,8.44-9.98l0,0c0-5.51-3.78-9.98-8.44-9.98h-55.04"/>
		<path class="st15" d="M1067.55,441.26h53.44c2.88,0,5.22-2.76,5.22-6.17l0,0c0-3.41-2.34-6.17-5.22-6.17h-53.44"/>
		<path class="st15" d="M1067.89,439.85c0.76-1.13,1.22-2.57,1.22-4.13c0-1.84-0.63-3.5-1.65-4.7"/>
		<path class="st15" d="M1102.04,439.13c0.76-1.13,1.22-2.57,1.22-4.13c0-1.84-0.63-3.5-1.65-4.7"/>
		<line class="st15" x1="1066.89" y1="458.74" x2="1100.21" y2="458.74"/>
		<line class="st15" x1="1060.79" y1="462.26" x2="1085.4" y2="462.26"/>
		<line class="st15" x1="1060.41" y1="455.26" x2="1077.07" y2="455.26"/>
		<line class="st15" x1="1075.4" y1="433.9" x2="1094.56" y2="433.9"/>
		<line class="st15" x1="1080.4" y1="436.95" x2="1097.89" y2="436.95"/>
		<line class="st15" x1="1106.22" y1="455.26" x2="1122.05" y2="455.26"/>
		<line class="st15" x1="1110.39" y1="461.36" x2="1131.21" y2="461.36"/>
		<line class="st15" x1="1107.05" y1="433.9" x2="1117.05" y2="433.9"/>
		<line class="st15" x1="1107.05" y1="436.95" x2="1122.05" y2="436.95"/>
		<path class="st13" d="M1041.88,519.58c-1.05-1.26-1.68-2.84-1.68-4.57c0-2.03,0.87-3.87,2.28-5.21"/>
		<ellipse class="st16" cx="1589.05" cy="321.2" rx="17.36" ry="15.9"/>
		<path class="st1" d="M1148.72,480.05h-92.91c-1.1,0-1.99-0.89-1.99-1.99v-2.28c0-1.1,0.89-1.99,1.99-1.99h92.91
			c1.1,0,1.99,0.89,1.99,1.99v2.28C1150.71,479.16,1149.81,480.05,1148.72,480.05z"/>
		<ellipse class="st16" cx="1020.01" cy="460.22" rx="7.5" ry="6.87"/>
		<ellipse class="st16" cx="1124.55" cy="523.15" rx="3.75" ry="3.43"/>
		<ellipse class="st16" cx="1094.14" cy="406.05" rx="3.33" ry="3.05"/>
		<path class="st1" d="M1097.87,531.99h-92.91c-1.1,0-1.99-0.89-1.99-1.99v-2.28c0-1.1,0.89-1.99,1.99-1.99h92.91
			c1.1,0,1.99,0.89,1.99,1.99V530C1099.86,531.1,1098.97,531.99,1097.87,531.99z"/>
		<path class="st1" d="M1158.67,571.66h-92.91c-1.1,0-1.99-0.89-1.99-1.99v-2.28c0-1.1,0.89-1.99,1.99-1.99h92.91
			c1.1,0,1.99,0.89,1.99,1.99v2.28C1160.66,570.77,1159.77,571.66,1158.67,571.66z"/>
		<line class="st17" x1="918.39" y1="548.71" x2="1037.09" y2="549.09"/>
		<rect x="1081.65" y="558.63" class="st18" width="67.47" height="6.87"/>
		<line class="st19" x1="932.55" y1="661.79" x2="1105.81" y2="661.79"/>
		<polygon class="st18" points="1138.71,558.49 1084.33,558.49 1084.33,552.96 1137.04,552.96 		"/>
		<polygon class="st18" points="1127.06,552.48 1089.98,552.48 1089.98,548.71 1125.92,548.71 		"/>
		<path class="st16" d="M1184.61,568.55c-3.01,0-5.32,2.49-4.8,5.2c2.48,12.82,11.29,22.3,21.79,22.3c10.5,0,19.31-9.48,21.79-22.3
			c0.53-2.71-1.79-5.2-4.8-5.2H1184.61z"/>
		<path class="st16" d="M1180.95,593.83c2.58,2.54,5.78,4.75,9.19,6.76h23.14c0.61-0.42,1.26-0.84,1.92-1.27
			c2.08-1.86,4.27-3.65,6.38-5.49H1180.95z"/>
		
			<ellipse transform="matrix(0.4602 -0.8878 0.8878 0.4602 121.9001 1365.516)" class="st20" cx="1183.82" cy="582.52" rx="5.64" ry="8.7"/>
		<path class="st21" d="M1192.86,500.97c1.16,2.47,1.2,5.28,0.63,7.92c-0.56,2.64-1.7,5.14-2.82,7.62"/>
		<path class="st21" d="M1188.5,523.53c-1.3,2.83-2.04,5.88-2.17,8.95"/>
		<path class="st21" d="M1186.56,538.25c0.19,2.23,0.82,4.42,1.85,6.45"/>
		<path class="st21" d="M1190.32,548.7c0.75,1.31,1.73,2.51,2.89,3.54"/>
		<path class="st21" d="M1192.61,482.61c3.1,2.49,4.59,6.21,5.96,9.78"/>
		<path class="st21" d="M1201.3,501.43c0.11,9.26-3.1,18.24-6.26,27.03"/>
		<path class="st21" d="M1194.62,534.4c-0.13,2.62,0.38,5.26,1.47,7.68"/>
		<path class="st21" d="M1197.8,548.02c1.21,2.26,2.8,4.34,4.71,6.14"/>
		<path class="st21" d="M1203.99,559.12c0.23,1.71,0.02,3.46-0.59,5.08"/>
		<path class="st21" d="M1206.29,517.92c-0.44,2.61-1.11,5.18-2,7.69"/>
		<path class="st21" d="M1202.3,536.41c-0.04,2.42,0.36,4.84,1.18,7.14"/>
		<path class="st22" d="M1504.38,644.07h-16.23c-4.12-4.69-8.07-29.11-1.32-36.62h16.72c2.99,0,5.41-2.22,5.41-4.96
			s-2.42-4.96-5.41-4.96h-5.52h-239.36h-69.68c-17.41,0-31.53,12.95-31.53,28.92v0c0,15.97,14.12,28.92,31.53,28.92h306.96
			c-0.12-0.86-0.55-1.85-1.17-2.92h9.61c2.53,0,4.58-1.88,4.58-4.2C1508.96,645.95,1506.91,644.07,1504.38,644.07z"/>
		<ellipse class="st23" cx="1361.11" cy="626.91" rx="12.08" ry="6.48"/>
		<ellipse class="st24" cx="1360.72" cy="627.11" rx="18.86" ry="10.12"/>
		<ellipse class="st23" cx="1327.79" cy="627.67" rx="4.58" ry="2.67"/>
		<ellipse class="st23" cx="1311.13" cy="627.67" rx="4.58" ry="2.67"/>
		<path class="st24" d="M1206.18,597.43c0,0-19.58,4.75-19.58,27.71c0,13.46,8.1,27.71,20.93,27.71"/>
		<path class="st24" d="M1225.23,596.77c0,0-19.58,4.75-19.58,27.71c0,13.46,8.1,27.71,20.93,27.71"/>
		<path class="st25" d="M1415.22,599.21c0,0-13.72,4.58-13.72,26.7c0,12.97,5.68,26.7,14.66,26.7"/>
		<path class="st26" d="M1432.63,598.51c0,0-14.46,4.58-14.46,26.7c0,12.97,5.99,26.7,15.46,26.7"/>
		<path class="st1" d="M1532.04,652.11h-381.56c-1.84,0-6.78,0.35-6.78,0.35c-6.21,0-11.24,3.09-11.24,8.77l0,0
			c0,5.69,5.03,8.77,11.24,8.77l3.74,0.76c1.97,5.13,3.56,10.38,4.79,15.64c1.61,6.86,2.69,13.9,3.11,20.97h-17.48
			c-3.91,0-7.08,5.19-7.08,8.77l0,0c0,3.58,3.17,6.48,7.08,6.48h17.47c-0.02,0.25-0.03,0.51-0.05,0.76h376.74
			c21.5,0,38.93-15.96,38.93-35.65v0C1570.97,668.07,1553.54,652.11,1532.04,652.11z"/>
		<path class="st23" d="M1425.1,652.09h-23.5v0.32c19.72,1.74,35.14,16.96,35.14,35.48v0c0,18.6-15.55,33.86-35.4,35.5h23.76
			c21.5,0,38.93-15.96,38.93-35.65v0C1464.03,668.05,1446.6,652.09,1425.1,652.09z"/>
		<path class="st23" d="M1508.17,652.15h-23.5v0.32c19.72,1.74,35.14,16.96,35.14,35.48v0c0,18.6-15.55,33.86-35.4,35.5h23.76
			c21.5,0,38.93-15.96,38.93-35.65v0C1547.1,668.11,1529.67,652.15,1508.17,652.15z"/>
		<path class="st27" d="M1363.61,652.08c0,0,37.48,3.81,37.48,32.8c0,18.31-14.99,37.38-47.48,37.38"/>
		<path class="st27" d="M1459.98,652.59c0,0,37.48,3.81,37.48,32.8c0,18.31-14.99,37.38-47.48,37.38"/>
		<path class="st27" d="M1525.61,652.34c0,0,37.48,3.81,37.48,32.8c0,18.31-14.99,37.38-47.48,37.38"/>
		<path class="st28" d="M1343.34,670.01h-199.76c0.82,12.6,0.33,25.55-4.06,37.38h203.82c11.42,0,20.68-8.37,20.68-18.69v0
			C1364.02,678.38,1354.76,670.01,1343.34,670.01z"/>
		<path class="st28" d="M1434.7,607.45h63.22c-0.26,12.34-0.11,25.02,1.28,36.62h-64.51c-3.61,0-6.55-8.2-6.55-18.31v0
			C1428.16,615.65,1431.09,607.45,1434.7,607.45z"/>
		<line class="st29" x1="1143.29" y1="681.45" x2="1201.6" y2="681.45"/>
		<line class="st29" x1="1216.17" y1="681.07" x2="1237.83" y2="681.07"/>
		<line class="st29" x1="1251.99" y1="681.07" x2="1296.14" y2="681.07"/>
		<line class="st29" x1="1308.63" y1="681.07" x2="1328.62" y2="681.07"/>
		<line class="st29" x1="1341.12" y1="681.07" x2="1363.61" y2="681.07"/>
		<line class="st29" x1="1143.7" y1="690.23" x2="1157.03" y2="690.23"/>
		<line class="st29" x1="1167.86" y1="690.23" x2="1222.84" y2="690.23"/>
		<line class="st29" x1="1227.83" y1="690.23" x2="1249.49" y2="690.23"/>
		<line class="st29" x1="1256.15" y1="690.23" x2="1315.29" y2="690.23"/>
		<line class="st29" x1="1323.62" y1="690.23" x2="1363.61" y2="690.23"/>
		<line class="st29" x1="1142.04" y1="700.14" x2="1195.35" y2="700.14"/>
		<line class="st29" x1="1207.01" y1="700.14" x2="1246.99" y2="700.14"/>
		<line class="st29" x1="1258.65" y1="700.14" x2="1359.44" y2="700.14"/>
		<line class="st27" x1="1436.91" y1="638.35" x2="1455.78" y2="638.35"/>
		<line class="st27" x1="1468.37" y1="638.35" x2="1480.38" y2="638.35"/>
		<line class="st27" x1="1431.91" y1="629.96" x2="1452.13" y2="629.96"/>
		<line class="st27" x1="1459.4" y1="629.96" x2="1482.72" y2="629.96"/>
		<line class="st27" x1="1487.72" y1="629.96" x2="1498.54" y2="629.96"/>
		<line class="st27" x1="1484.38" y1="638.35" x2="1498.54" y2="638.35"/>
		<line class="st27" x1="1498.54" y1="625.38" x2="1476.89" y2="625.38"/>
		<line class="st27" x1="1472.72" y1="625.38" x2="1466.06" y2="625.38"/>
		<line class="st27" x1="1463.56" y1="625.38" x2="1431.07" y2="625.38"/>
		<line class="st27" x1="1432.74" y1="620.04" x2="1444.4" y2="620.04"/>
		<line class="st27" x1="1448.57" y1="620.04" x2="1468.56" y2="620.04"/>
		<line class="st27" x1="1471.06" y1="620.04" x2="1492.71" y2="620.04"/>
		<line class="st27" x1="1495.21" y1="620.04" x2="1497.71" y2="620.04"/>
		<line class="st27" x1="1497.71" y1="615.46" x2="1472.72" y2="615.46"/>
		<line class="st27" x1="1469.39" y1="615.46" x2="1453.56" y2="615.46"/>
		<line class="st27" x1="1450.23" y1="615.46" x2="1433.57" y2="615.46"/>
		<line class="st27" x1="1442.74" y1="611.65" x2="1459.4" y2="611.65"/>
		<line class="st27" x1="1465.23" y1="611.65" x2="1487.72" y2="611.65"/>
		<path class="st1" d="M1481.67,481.49c-26.86-56.37-66.84-72.39-66.84-72.39s0,0.03,0,0.09c-2.54-1.34-5.48-2.33-8.89-2.9
			c-18.76-3.12-27.75-4.36-36.65-4.1c-7.65,0.22-26.89,0.77-35.84,0.46c-13.58-0.46-42.46,3.84-50.61,11.27
			c0,0-39.6,23.41-61.26,69.94c-14.63,31.44,2.4,41.97,63.3,44.25c4.27,0.16,8.43,0.01,12.47-0.38c0.65,3.2,1.16,5.85,1.51,7.74
			c6.41,34.65,93.55,34.83,102.59,1.17c1.01-3.78,2.07-7.6,3.15-11.42c4.44,0.49,9.04,0.68,13.76,0.51
			C1479.28,523.46,1496.6,512.81,1481.67,481.49z"/>
		<g>
			<path class="st30" d="M1376.41,401.56l-7.77-40.03l-34.53,5.52l-4.76,34.96c-4.59,0.41-9.43,1.21-14.07,2.2
				c1.26,10.28,16.93,18.41,36.09,18.41c19.8,0,35.88-8.68,36.17-19.45C1383.59,402.46,1379.73,402.07,1376.41,401.56z"/>
		</g>
		<path class="st31" d="M1359.36,391.77c4.54-3.7,8.62-8.25,12.36-13.3l-3.28-16.9l-34.53,5.52l-4.61,33.84
			C1339.62,402.67,1350.87,398.68,1359.36,391.77z"/>
		<g>
			<path class="st32" d="M1308.44,404.89c0,0,8.34,20.57,33.09,23.29s41.23-2.67,54.56-23.27"/>
			<line class="st32" x1="1351.74" y1="428.86" x2="1352.95" y2="449.72"/>
			<ellipse class="st16" cx="1360.27" cy="435.42" rx="2.92" ry="2.67"/>
			<ellipse class="st16" cx="1360.27" cy="446.87" rx="2.92" ry="2.67"/>
			<path class="st27" d="M1254.67,476.24c0,0,6.7,3.96,26.79,12.66c20.09,8.7,29.59,9.55,29.59,9.55"/>
			<path class="st27" d="M1281.06,442.67c0,0,0.87,12.27,7.58,21.74s8.01,20.95,8.01,20.95"/>
			<path class="st27" d="M1448.59,473.86c0,0-6.7,3.96-26.79,12.66s-29.59,9.55-29.59,9.55"/>
			<path class="st27" d="M1422.2,440.29c0,0-0.87,12.27-7.58,21.74s-8.01,20.95-8.01,20.95"/>
		</g>
		<g>
			<path class="st30" d="M1386.47,346.43c-2.93-0.99-6.29,0.04-9.08,2.43c-2.97-15.15-13.98-26.4-27.11-26.4
				c-13.27,0-24.37,11.5-27.2,26.9c-2.79-2.39-6.15-3.42-9.08-2.43c-4.87,1.65-6.69,8.25-4.06,14.73c2.62,6.48,8.7,10.4,13.57,8.75
				c0.6-0.2,1.15-0.48,1.65-0.82c5.71,12.89,18.8,22,25.13,22.11c7.87,0.13,20.27-9.23,25.48-22.34c0.38,0.22,0.78,0.42,1.21,0.56
				c4.87,1.65,10.94-2.26,13.57-8.75C1393.15,354.68,1391.33,348.08,1386.47,346.43z"/>
		</g>
		<path class="st16" d="M1341.53,374.77c0.09,2.39,4.15,4.31,9.16,4.31c5,0,9.06-1.92,9.16-4.31c0,0-2.49,1.13-9.99,1.13
			C1344.86,375.9,1341.53,374.77,1341.53,374.77z"/>
		<line class="st33" x1="1347.78" y1="383.4" x2="1352.36" y2="383.16"/>
		<path class="st31" d="M1378.14,316.25c-8.1-7.02-16.29-8.44-28.28-8.61c-25.57-0.35-39.87,10.9-34.98,31.28
			c1.98,8.27,8.65,19.79,8.65,19.79c-0.5,0.8-0.64-13.27,3.28-19.52c5.41,0.74,11.35,0.4,19.56-1.21c8.32-1.63,15.51-4.21,20.1-6.96
			c1.99,0.12,3.8,2.4,5.34,4.4c3.52,4.57,5.63,25.91,5.63,25.91s7.02-16.45,7.41-22.4C1385.57,328.08,1383.18,320.61,1378.14,316.25
			z"/>
		<path class="st34" d="M1371.93,327.09c0,0-11.66,10.68-28.32,13.73c-10.13,1.86-22.49,2.29-22.49,2.29"/>
		<path class="st35" d="M1328.62,349.22c0,0,2.98-3.48,6.9-4.03c3.92-0.55,6.21,0,6.21,0"/>
		<path class="st35" d="M1368.75,346.13c0,0-2.98-3.48-6.9-4.03c-3.92-0.55-6.21,0-6.21,0"/>
		<path class="st36" d="M1313.63,331.67c0,0,12.49,5.34,32.49,0c20.93-5.59,34.85-12.25,34.85-12.25"/>
		<path class="st36" d="M1316.49,320.93c0,0,13.85,6.4,27.95,4.64c18.99-2.37,33.7-9.32,33.7-9.32"/>
		<path class="st33" d="M1347.15,350.61c0,0,1.07,8.95-0.36,13.13s-2.35,6.84-2.35,6.84l5,0.76"/>
		<ellipse class="st37" cx="1336.77" cy="357.26" rx="2.08" ry="2.89"/>
		<ellipse class="st37" cx="1362.54" cy="356.63" rx="2.08" ry="2.89"/>
		<path class="st38" d="M1332.94,354.91c0,0,0.64-1.75,3.17-1.88c2.53-0.14,3.55,1.79,3.55,1.79"/>
		<path class="st38" d="M1365.9,354.31c0,0-0.64-1.75-3.17-1.88c-2.53-0.14-3.55,1.79-3.55,1.79"/>
		<ellipse class="st39" cx="1335.27" cy="356.83" rx="10.84" ry="9.93"/>
		<ellipse class="st39" cx="1362.78" cy="357.07" rx="10.84" ry="9.93"/>
		<path class="st40" d="M1346.11,355.32c0.92-0.72,1.68-0.76,2.96-0.76c1.1,0,2.13,0.32,2.98,0.86"/>
		<path class="st7" d="M1226.7,361.86c15.39,0.66,25.38,0.68,25.38,0.68"/>
		<path class="st7" d="M1178.09,357.47c9.59,1.11,18.24,2,26.06,2.67"/>
		<path class="st7" d="M1105.56,350.47c12.62,0.01,25.25,0.84,37.73,2.55"/>
		<path class="st7" d="M1026.5,360.68c16.7-4.35,34.12-7.43,51.81-9"/>
		<path class="st7" d="M986.61,374.04c5.25-2.18,10.64-4.24,16.14-6.16"/>
		<path class="st7" d="M944.39,397.9c7.95-5.99,16.67-11.66,26.01-16.46"/>
		<path class="st7" d="M918.27,420.86c2.24-2.27,4.62-4.59,7.13-6.94"/>
		<path class="st7" d="M906.54,433.52c1.07-1.23,2.19-2.5,3.39-3.82"/>
		<path class="st7" d="M894.23,448.96c0,0,0.94-1.36,2.75-3.73"/>
		<path class="st7" d="M1088.09,323.26c10.81,0.01,21.63,0.69,32.32,2.12"/>
		<path class="st7" d="M1020.37,331.72c14.3-3.6,29.23-6.15,44.38-7.46"/>
		<path class="st7" d="M986.2,342.79c4.5-1.81,9.11-3.51,13.83-5.1"/>
		<path class="st7" d="M950.04,362.57c6.81-4.96,14.28-9.66,22.28-13.64"/>
		<path class="st7" d="M1642.48,721.7c-2.5,1.3-5.02,2.55-7.57,3.76"/>
		<path class="st7" d="M1662.54,709.95c-3.7,2.42-7.48,4.74-11.33,6.96"/>
		<path class="st7" d="M1713.2,673.67c-10.37,9.72-21.85,18.82-34.22,26.94"/>
		<path class="st7" d="M1736.8,651.68c-3.24,3.38-6.64,6.71-10.18,9.98"/>
		<path class="st7" d="M1751.8,632.2c-1.93,2.87-3.99,5.71-6.19,8.47"/>
		<path class="st7" d="M1759.36,619.6c-1.04,1.94-2.13,3.87-3.27,5.8"/>
		<path class="st7" d="M1724.77,694.42c-5.39,5.1-11.07,10.01-17,14.68"/>
		<path class="st7" d="M1739.27,679.51c-2.51,2.81-5.11,5.59-7.79,8.32"/>
		<path class="st7" d="M1678.69,729.53c-4.67,2.7-9.45,5.27-14.33,7.7"/>
		<path class="st7" d="M1701.96,714.39c-3.91,2.85-7.93,5.62-12.06,8.29"/>
		<path class="st41" d="M1328.37,288.94v23.07c0,0,6.01,1.73,17.38,1.73c11.36,0,24.43-2.73,24.43-2.73v-22.07H1328.37z"/>
		<path class="st41" d="M1397.52,289.58h-97.6c-0.94,0-1.7-0.76-1.7-1.7v-1.95c0-0.94,0.76-1.7,1.7-1.7h97.6
			c0.94,0,1.7,0.76,1.7,1.7v1.95C1399.22,288.81,1398.46,289.58,1397.52,289.58z"/>
		<line class="st42" x1="1327.79" y1="289.71" x2="1370.69" y2="289.71"/>
		<polygon class="st1" points="1309.88,325.18 1305.71,321.37 1302.13,325.18 1302.13,289.25 1309.88,289.25 		"/>
		<path class="st22" d="M1428.06,843.95h-323.18c-21.28,0-38.53-17.25-38.53-38.53V761.2c0-21.28,17.25-38.53,38.53-38.53h323.18
			V843.95z"/>
		<path class="st23" d="M1109.16,789.69v-12.72c0-27.98,23.12-51.01,52.81-53.95h32.7c1.19-0.08,2.39-0.13,3.6-0.15v-0.02h-56.96
			c-29.7,2.94-52.81,25.97-52.81,53.95v12.72c0,29.98,26.53,54.28,59.26,54.28h16.3C1133.36,841.76,1109.16,818.32,1109.16,789.69z"
			/>
		<path class="st23" d="M1169.78,789.77v-12.72c0-27.98,23.12-51.01,52.81-53.95h32.7c1.19-0.08,2.39-0.13,3.6-0.15v-0.02h-56.96
			c-29.7,2.94-52.81,25.97-52.81,53.95v12.72c0,29.98,26.53,54.28,59.26,54.28h16.3C1193.98,841.83,1169.78,818.39,1169.78,789.77z"
			/>
		<path class="st24" d="M1203.96,789.31v-12.72c0-27.98,23.12-51.01,52.81-53.95h32.7c1.19-0.08,2.39-0.13,3.6-0.15v-0.02h-56.96
			c-29.7,2.94-52.81,25.97-52.81,53.95v12.72c0,29.98,26.53,54.28,59.26,54.28h16.3C1228.17,841.37,1203.96,817.94,1203.96,789.31z"
			/>
		<path class="st43" d="M1138.76,789.73v-12.72c0-27.98,23.12-51.01,52.81-53.95h32.7c1.19-0.08,2.39-0.13,3.6-0.15v-0.02h-56.96
			c-29.7,2.94-52.81,25.97-52.81,53.95v12.72c0,29.98,26.53,54.28,59.26,54.28h16.3C1162.96,841.8,1138.76,818.36,1138.76,789.73z"
			/>
		<path class="st41" d="M1551.18,764.94c0.44-7.76,1.78-15.57,5.78-22.3h41.87c6.02,0,10.9-4.47,10.9-9.98
			c0-5.51-4.88-9.98-10.9-9.98h-40.55h-98.33h-173.38c-35.12,0-63.6,26.08-63.6,58.25v0.3c0,34.64,30.66,62.73,68.49,62.73h164.88
			c0.03,0,0.06,0,0.1,0h138.87c6.02,0,10.9-4.47,10.9-9.98c0-5.51-4.88-9.98-10.9-9.98h-36.95c-1.11-2.09-2.05-4.22-2.82-6.39
			c-3.18-6.97-5.61-14.44-5.23-21.71c-0.06-0.28-0.14-0.55-0.2-0.83c-1.28-5.93-2.33-13.31-0.41-19.54
			C1549.88,771.98,1550.31,768.39,1551.18,764.94z"/>
		<path class="st28" d="M1576.75,777.17c0.19-11.58,1.64-23.76,6.27-34.69h-289.9c-25.25,0-45.73,18.27-45.73,40.81v0
			c0,22.54,20.47,40.81,45.73,40.81h288.49C1577.26,808.87,1576.49,792.86,1576.75,777.17z"/>
		<path class="st44" d="M1557.27,755.44"/>
		<path class="st44" d="M1255.88,759.3"/>
		<line class="st45" x1="1279.48" y1="812.29" x2="1353.61" y2="812.29"/>
		<line class="st45" x1="1374.43" y1="812.29" x2="1391.93" y2="812.29"/>
		<line class="st45" x1="1414.42" y1="812.29" x2="1487.72" y2="812.29"/>
		<line class="st45" x1="1511.87" y1="812.29" x2="1557.68" y2="812.29"/>
		<line class="st44" x1="1258.65" y1="794.74" x2="1316.96" y2="794.74"/>
		<line class="st44" x1="1333.62" y1="794.74" x2="1463.56" y2="794.74"/>
		<line class="st44" x1="1474.39" y1="794.74" x2="1576.84" y2="794.74"/>
		<line class="st44" x1="1249.91" y1="781.01" x2="1401.09" y2="781.01"/>
		<line class="st44" x1="1411.92" y1="781.01" x2="1436.91" y2="781.01"/>
		<line class="st44" x1="1446.9" y1="781.01" x2="1526.03" y2="781.01"/>
		<line class="st44" x1="1536.86" y1="781.01" x2="1576.84" y2="781.01"/>
		<line class="st44" x1="1256.15" y1="765.75" x2="1316.96" y2="765.75"/>
		<line class="st44" x1="1328.62" y1="765.75" x2="1416.91" y2="765.75"/>
		<line class="st44" x1="1424.41" y1="765.75" x2="1491.05" y2="765.75"/>
		<line class="st44" x1="1499.38" y1="765.75" x2="1539.36" y2="765.75"/>
		<line class="st44" x1="1549.35" y1="765.75" x2="1576.84" y2="765.75"/>
		<line class="st29" x1="1274.48" y1="753.55" x2="1387.76" y2="753.55"/>
		<line class="st44" x1="1396.92" y1="753.55" x2="1449.4" y2="753.55"/>
		<line class="st44" x1="1457.73" y1="753.55" x2="1578.51" y2="753.55"/>
		<path class="st16" d="M1224.5,563.6c0,0,36.66,31.93,51.89,40.32c15.23,8.38,60.56-4.39,60.56-4.39s-5.16-38.03-35.7-39.37
			S1224.5,563.6,1224.5,563.6z"/>
		<path class="st16" d="M1457.31,576.94c0,0-10,9.92-44.38,20.08c-15.77,4.66-60.56-3.14-60.56-3.14s5.16-27.2,35.7-28.16
			C1418.63,564.76,1457.31,576.94,1457.31,576.94z"/>
		
			<ellipse transform="matrix(0.5203 -0.854 0.854 0.5203 178.2034 1530.387)" class="st46" cx="1451.35" cy="606.57" rx="14.68" ry="32.09"/>
		<line class="st47" x1="1440.77" y1="599.66" x2="1437.14" y2="606.13"/>
		<line class="st47" x1="1447.99" y1="602.16" x2="1443.47" y2="609.01"/>
		<line class="st47" x1="1455.06" y1="605.39" x2="1450.97" y2="611.37"/>
		<path class="st16" d="M1433.7,584.36c-32.21-16.86-75.26-39.86-109.27-49.89c-52.77-15.56-97.66-23.46-107.57,4.71
			c-9.91,28.18,26.13,39.35,94.8,53.16c35.74,7.19,66.25,7.19,116.79,13.4C1433.78,599.93,1434.57,590.74,1433.7,584.36z"/>
		<path class="st41" d="M1417.75,548.71H1287.8c-1.61,0-2.91-1.3-2.91-2.91v-3.34c0-1.61,1.3-2.91,2.91-2.91h129.95
			c1.61,0,2.91,1.3,2.91,2.91v3.34C1420.66,547.41,1419.36,548.71,1417.75,548.71z"/>
		<path class="st41" d="M1412.49,539.56h-119.42c-4.52,0-8.18-3.66-8.18-8.18v-65.99c0-4.52,3.66-8.18,8.18-8.18h119.42
			c4.52,0,8.18,3.66,8.18,8.18v65.99C1420.66,535.89,1417,539.56,1412.49,539.56z"/>
		<path class="st48" d="M1284.47,470.26c0-4.17,3.69-7.55,8.24-7.55h119.3c4.55,0,8.24,3.38,8.24,7.55"/>
		<path class="st46" d="M1291.55,600.18c6.12,12.6-23.71,23.76-40.09,29.05c-16.37,5.28-31.98,3.49-34.87-4.01
			c-2.88-7.5,8.05-17.86,24.42-23.14C1257.39,596.79,1283.93,584.48,1291.55,600.18z"/>
		<line class="st47" x1="1256.99" y1="606.02" x2="1259.69" y2="612.86"/>
		<line class="st47" x1="1263.9" y1="602.88" x2="1266.3" y2="610.57"/>
		<line class="st47" x1="1271.3" y1="600.33" x2="1273.3" y2="607.15"/>
		<path class="st16" d="M1465.95,549.23c-6.36-25.04-32.46-32.55-108.09-1.6c-23.89,9.78-60.32,30.14-81.94,43.84
			c-0.87,2.4,2.79,16.57,8.68,23.99c43.58-7.98,70.92-11.19,97.67-15.93C1429.54,591.15,1474.67,583.56,1465.95,549.23z"/>
		<g>
			<path class="st49" d="M1231.91,569.59c0,0,42.11,14.48,51.35,17.53"/>
			<path class="st49" d="M1371.37,540.85c0,0-20.92,8.78-40.97,19.96c-20.05,11.18-54.95,31.06-54.95,31.06"/>
			<path class="st49" d="M1435.01,588.75c0,0-65.38,14.37-150.8,26.35"/>
		</g>
		<ellipse class="st24" cx="1351.4" cy="498.81" rx="17.89" ry="16.38"/>
		<g>
			<path class="st27" d="M1313.04,352.43c0,0,3.07,0.28,5.07,3.03c2,2.74,3.34,7.06,3.34,7.06"/>
			<path class="st27" d="M1387.42,351.93c0,0-3.07,0.28-5.07,3.03s-3.34,7.06-3.34,7.06"/>
		</g>
	</g>
	<text transform="matrix(1.0918 0 0 1 167.8318 458.0345)" class="st50 st51 st52">No 1. Online </text>
	<text transform="matrix(1.0918 0 0 1 170.6726 534.3177)" class="st50 st51 st53">English School</text>
	<line class="st54" x1="179.64" y1="370.11" x2="706.5" y2="370.11"/>
	<g>
		<path class="st0" d="M267.55,346.12h-20.34v-47.38l-23,34.57h-2.29l-23-34.57v47.38h-20.34v-81.48h20.34l24.15,36.2l24.15-36.2
			h20.34V346.12z"/>
		<path class="st55" d="M334.91,333.31h-33.04l-4.45,12.8h-22.24l30.25-81.48h25.93l30.25,81.48h-22.24L334.91,333.31z
			 M328.81,315.85l-10.42-29.92l-10.42,29.92H328.81z"/>
		<path class="st55" d="M362.86,327.61l17.54-9.31c3.18,6.75,8.64,11.29,18.68,11.29c9.66,0,12.07-3.49,12.07-6.64
			c0-5.01-5.08-6.98-18.43-10.36c-13.22-3.38-26.18-9.2-26.18-24.79c0-15.71,14.49-24.79,29.87-24.79c14.62,0,26.05,6.4,32.54,18.39
			l-17.16,9.2c-3.05-5.82-7.24-9.43-15.38-9.43c-6.35,0-9.53,2.91-9.53,6.17c0,3.72,2.16,6.29,16.01,10.13
			c13.47,3.72,28.6,8.03,28.6,25.26c0,15.71-13.73,25.03-33.04,25.03C379.77,347.75,367.82,339.6,362.86,327.61z"/>
		<path class="st55" d="M498.22,282.56h-22.88v63.56H455v-63.56h-22.88v-17.93h66.09V282.56z"/>
		<path class="st55" d="M563.03,328.19v17.93h-55.92v-81.48h55.29v17.93h-34.95v13.5h31.77v17.69h-31.77v14.43H563.03z"/>
		<path class="st55" d="M604.46,319.35h-9.66v26.77h-20.34v-81.48h35.59c16.9,0,30.5,12.46,30.5,27.94
			c0,10.01-6.61,19.09-16.4,23.63l18.94,29.92h-21.86L604.46,319.35z M594.8,303.05h15.25c5.59,0,10.17-4.54,10.17-10.48
			s-4.58-10.48-10.17-10.48H594.8V303.05z"/>
		<path class="st0" d="M705.21,264.65v81.47h-20.33v-61.8l-15.76,3.96l-4.96-15.95l23.26-7.68H705.21z"/>
		<polygon class="st55" points="184.65,260.68 143.9,259.47 171.1,231.65 211.86,232.86 		"/>
		<path class="st55" d="M194.73,254.26l-8.61,8.81l-12.11-0.36l4.25,9.1c0.92,1.96,6.33,1.72,12.08-0.53
			c5.76-2.25,9.68-5.67,8.77-7.63L194.73,254.26z"/>
		<path class="st0" d="M179.8,242.54L179.8,242.54c-0.42-0.39-1.11-0.39-1.53,0l-16.53,16.43c-0.14,0.12-0.23,0.27-0.28,0.43
			c-0.03,0.1-0.05,0.2-0.05,0.3v31.73c0,0.55,0.48,0.99,1.08,0.99l0,0c0.6,0,1.08-0.44,1.08-0.99v-31.34l16.22-16.15
			C180.23,243.55,180.23,242.92,179.8,242.54z"/>
		<path class="st55" d="M167.63,298.91c0-0.1,0.01-0.19,0.01-0.29c0-5.7-2.34-10.33-5.22-10.33s-5.22,4.62-5.22,10.33
			c0,0.1,0.01,0.2,0.01,0.29c0,0,0.64,1.9,4.98,1.9C166.24,300.81,167.63,298.91,167.63,298.91z"/>
	</g>
</g>
</svg>
