<?xml version="1.0" encoding="utf-8"?>
<!-- Generator: Adobe Illustrator 25.0.0, SVG Export Plug-In . SVG Version: 6.00 Build 0)  -->
<svg version="1.1" id="Layer_1" xmlns="http://www.w3.org/2000/svg" xmlns:xlink="http://www.w3.org/1999/xlink" x="0px" y="0px"
	 viewBox="0 0 1920 1080" style="enable-background:new 0 0 1920 1080;" xml:space="preserve">
<style type="text/css">
	.st0{fill:#4CC9F1;}
	.st1{fill:#7653AD;}
	.st2{fill:#FFD150;}
	.st3{fill:none;stroke:#18327C;stroke-width:0.8604;stroke-linecap:round;stroke-linejoin:round;stroke-miterlimit:10;}
	.st4{fill:none;stroke:#18327C;stroke-width:0.8604;stroke-linejoin:round;stroke-miterlimit:10;}
	.st5{fill:none;stroke:#FFFFFF;stroke-width:2.3915;stroke-linecap:round;stroke-miterlimit:10;}
	.st6{fill:none;stroke:#FFFFFF;stroke-width:2.3915;stroke-linecap:round;stroke-linejoin:round;stroke-miterlimit:10;}
	.st7{fill:none;stroke:#18327C;stroke-width:1.5943;stroke-linecap:round;stroke-miterlimit:10;}
	.st8{fill:none;stroke:#18327C;stroke-width:1.1422;stroke-miterlimit:10;}
	.st9{fill:none;stroke:#18327C;stroke-width:1.1817;stroke-miterlimit:10;}
	.st10{fill:none;stroke:#18327C;stroke-width:1.2792;stroke-miterlimit:10;}
	.st11{fill:none;stroke:#18327C;stroke-width:1.5943;stroke-linecap:round;stroke-linejoin:round;stroke-miterlimit:10;}
	.st12{fill:none;stroke:#18327C;stroke-width:1.7321;stroke-linecap:round;stroke-linejoin:round;stroke-miterlimit:10;}
	.st13{fill:none;stroke:#18327C;stroke-width:0.8373;stroke-linecap:round;stroke-miterlimit:10;}
	.st14{fill:none;stroke:#18327C;stroke-width:0.9509;stroke-linecap:round;stroke-miterlimit:10;}
	.st15{fill:none;stroke:#18327C;stroke-width:0.7141;stroke-linecap:round;stroke-miterlimit:10;}
	.st16{fill:#FFFFFF;}
	.st17{fill:none;stroke:#FFFFFF;stroke-width:3.9858;stroke-linecap:round;stroke-miterlimit:10;}
	.st18{fill:none;stroke:#18327C;stroke-width:0.8373;stroke-miterlimit:10;}
	.st19{fill:none;stroke:#FFFFFF;stroke-width:4.1128;stroke-linecap:round;stroke-miterlimit:10;}
	.st20{fill:none;stroke:#FFFFFF;stroke-width:2.1977;stroke-miterlimit:10;}
	.st21{fill:none;stroke:#FFFFFF;stroke-width:1.5943;stroke-linecap:round;stroke-miterlimit:10;}
	.st22{fill:#EA3B5D;}
	.st23{fill:#B3E1FF;}
	.st24{fill:none;stroke:#B3E1FF;stroke-width:1.5943;stroke-miterlimit:10;}
	.st25{fill:none;stroke:#FFD150;stroke-width:0.6007;stroke-miterlimit:10;}
	.st26{fill:none;stroke:#0B132D;stroke-width:0.6328;stroke-linecap:round;stroke-linejoin:round;stroke-miterlimit:10;}
	.st27{fill:none;stroke:#0B132D;stroke-width:0.8178;stroke-linecap:round;stroke-linejoin:round;stroke-miterlimit:10;}
	.st28{fill:#DEF8FF;}
	.st29{fill:none;stroke:#222854;stroke-width:0.7727;stroke-linecap:round;stroke-miterlimit:10;}
	.st30{fill:#FCA575;}
	.st31{fill:#24375B;}
	.st32{fill:none;stroke:#FFFFFF;stroke-width:0.7972;stroke-linecap:round;stroke-miterlimit:10;}
	.st33{fill:none;stroke:#0B132D;stroke-width:0.6825;stroke-linecap:round;stroke-linejoin:round;stroke-miterlimit:10;}
	.st34{fill:none;stroke:#24375B;stroke-width:0.7972;stroke-miterlimit:10;}
	.st35{fill:none;stroke:#24375B;stroke-width:3.1886;stroke-linecap:round;stroke-miterlimit:10;}
	.st36{fill:none;stroke:#FFFFFF;stroke-width:0.5979;stroke-miterlimit:10;}
	.st37{fill:#0B132D;}
	.st38{fill:none;stroke:#0B132D;stroke-width:0.6825;stroke-linecap:round;stroke-miterlimit:10;}
	.st39{fill:none;stroke:#0B132D;stroke-width:0.798;stroke-miterlimit:10;}
	.st40{fill:none;stroke:#0B132D;stroke-width:0.7976;stroke-linecap:round;stroke-miterlimit:10;}
	.st41{fill:#14143A;}
	.st42{fill:none;stroke:#FFFFFF;stroke-width:0.6598;stroke-miterlimit:10;}
	.st43{fill:none;stroke:#B3E1FF;stroke-width:1.5943;stroke-linecap:round;stroke-linejoin:round;stroke-miterlimit:10;}
	.st44{fill:none;stroke:#222854;stroke-width:0.7727;stroke-miterlimit:10;}
	.st45{fill:none;stroke:#222854;stroke-width:0.7523;stroke-miterlimit:10;}
	.st46{fill:#212035;}
	.st47{fill:none;stroke:#FFFFFF;stroke-width:1.1863;stroke-linecap:round;stroke-miterlimit:10;}
	.st48{fill:none;stroke:#FFFFFF;stroke-width:0.7972;stroke-miterlimit:10;}
	.st49{fill:none;stroke:#212035;stroke-width:0.8342;stroke-linecap:round;stroke-miterlimit:10;}
	.st50{fill:#17143F;}
	.st51{font-family:'Gilroy-Light';}
	.st52{font-size:94.0617px;}
	.st53{font-size:75.6519px;}
	.st54{fill:none;stroke:#4CC9F1;stroke-width:2.0642;stroke-miterlimit:10;}
	.st55{fill:#7109B6;}
</style>
<g>
	<path class="st0" d="M538.26,351.58C560,306.15,577.41,231.81,659.03,172.3c77.58-56.55,159.83-47.25,224.9-38.91
		c111.2,14.26,178.39-18.6,261.55-73.24c83.16-54.64,138.24-109.64,267.38-67.9c56.64,18.31,95.34,58.06,100.79,138.85
		c4,59.26-18.98,153.9-95.79,241.84c-59.97,68.66-128.03,109.18-239.06,131.98c-137.44,28.23-214.07,57.98-458.96,0
		c-76.77-18.17-136.6-39.67-212.4,49.59c-65.2,76.77-99.34,22.38-49.98-50.35C514.93,419.48,512.09,406.24,538.26,351.58z"/>
	<path class="st1" d="M1358.49,601.81H695.91c-3.35,0-6.06-2.71-6.06-6.06v-6.95c0-3.35,2.71-6.06,6.06-6.06h662.58
		c3.35,0,6.06,2.71,6.06,6.06v6.95C1364.55,599.1,1361.84,601.81,1358.49,601.81z"/>
	<path class="st2" d="M1203.09,576.25h-162.8c-3.35,0-6.06-2.71-6.06-6.06v-6.95c0-3.35,2.71-6.06,6.06-6.06h162.8
		c3.35,0,6.06,2.71,6.06,6.06v6.95C1209.15,573.54,1206.44,576.25,1203.09,576.25z"/>
	<path class="st3" d="M581.25,329.43l0.16-1.29c0.35-2.91,3.04-5.12,6.24-5.12h48.25l-8.98,74.53h-10.2"/>
	<polygon class="st3" points="740.43,324.35 730.74,398.88 738.55,398.88 749.05,324.35 	"/>
	<polygon class="st3" points="639.04,323.58 629.88,396.58 639.04,396.58 647.12,323.58 	"/>
	<polygon class="st3" points="727.23,398.88 673.36,398.88 682.34,324.35 736.21,324.35 	"/>
	<polygon class="st4" points="716.57,347.49 693,347.49 694.41,336.19 717.98,336.19 	"/>
	<polygon class="st3" points="751.91,335.18 774.94,334.63 768.57,399.26 741.51,398.88 	"/>
	<line class="st3" x1="782.8" y1="328.96" x2="773.82" y2="398.86"/>
	<line class="st3" x1="788.92" y1="325.87" x2="778.31" y2="398.86"/>
	<line class="st3" x1="792.31" y1="336.08" x2="783.39" y2="398.94"/>
	<polygon class="st3" points="658.55,285.56 627.9,285.56 633.01,243.16 663.66,243.16 	"/>
	<polygon class="st3" points="652.49,256.32 639.08,256.32 639.88,249.89 653.29,249.89 	"/>
	<polygon class="st3" points="672.59,249.32 685.69,249.01 682.07,285.77 666.67,285.56 	"/>
	<path class="st5" d="M1499.9,68.93c-67.47-23.65-115.78-3.81-133.94,15.33c-21.7,22.89-37.77,36.73-52.35,32.92
		c-14.58-3.81-25.99-2.29-36.95,8.39c-10.96,10.68-15.21,20.43-28.91,18.99c-13.7-1.44-26.33,22.81-10.43,25.94
		c11.89,2.34,213.25-1.67,273.41-2.4"/>
	<path class="st5" d="M1018.46,105.55"/>
	<path class="st5" d="M1142.01,63.69c15.64,11.35,20.71,12.65,33.58,10.85c12.88-1.79,16.91-1.87,26.14,4.27
		c9.23,6.14,15.62,8.7,27.84,8.19c12.21-0.52,19.5,0.69,19.6,7.71c0.1,7.03-2.5,9.32-16.19,9.32c-8.43,0-109.74,0.76-165.38,0.76"/>
	<path class="st6" d="M1407.09,95.65c-7.97,2.57-16.35,6.44-22.25,12.19c-14.88,14.49-26.13,27.49-42.16,27.48
		s-43.85-0.96-50.35,7.14"/>
	<path class="st6" d="M1441.11,108.3c-5.86,1.21-11.62,2.93-16.14,5.4c-15.12,8.25-25.79,15.73-25.79,15.73"/>
	<path class="st6" d="M1114.94,79.56c12.85,8.63,26.31,15.34,40.12,11c15.41-4.84,24.57-2.78,29.99,0"/>
	<path class="st6" d="M1434.1,84.19c0,0,21.66-3.05,39.15,0c13.86,2.42,35.9,13.99,35.9,13.99"/>
	<path class="st7" d="M983.16,119.82c1.73-0.37,3.45-0.76,5.17-1.18"/>
	<path class="st7" d="M964.05,122.95c3.52-0.41,7.04-0.91,10.55-1.5"/>
	<path class="st7" d="M596.33,373.28c-13.59-25.3-20.63-55.83-19.93-92.66c1-52.63,50.47-130.32,156.6-158.68
		c73.61-19.67,149.24,7.62,222.33,1.86"/>
	<path class="st7" d="M606.3,389.31c-1.73-2.42-3.39-4.9-4.98-7.44"/>
	<path class="st7" d="M613.37,398.47c-1.09-1.3-2.15-2.61-3.19-3.95"/>
	<path class="st7" d="M670.05,443.39c-1.46-0.79-2.91-1.59-4.35-2.4"/>
	<path class="st7" d="M689.96,453.06c-4.25-1.86-8.42-3.8-12.49-5.83"/>
	<path class="st7" d="M1471.37,199.15c-4.69,32.72-16.51,66-35.36,97.49C1326.9,478.97,1174.57,491.21,990.43,493.1
		c-95.77,0.99-205.58-3.02-288.05-34.93"/>
	<path class="st7" d="M1473.62,161.9c0.17,6.75,0.01,13.56-0.46,20.41"/>
	<path class="st7" d="M1472.16,141.86c0.32,2.64,0.59,5.29,0.81,7.95"/>
	<path class="st7" d="M1414.99,29.67c1.84,1.65,3.63,3.34,5.39,5.05"/>
	<path class="st7" d="M1399.93,17.54c3.51,2.53,6.89,5.15,10.14,7.87"/>
	<path class="st7" d="M1125.93,33c57.48-42.41,105.07-67.58,187.64-51.43c29.74,5.82,55.29,15.96,76.69,29.45"/>
	<path class="st7" d="M1096.57,55.22c4.98-3.82,9.86-7.55,14.64-11.18"/>
	<path class="st7" d="M1080.72,67.32c2.35-1.79,4.68-3.56,6.98-5.32"/>
	<g>
		<path class="st8" d="M1322.95,348.64c-9.71-6.63-24.81-37.39-14.23-56.97c10.58-19.57,21.81-7.36,24.3-22.13
			c2.49-14.76-4.84-27.85,10.36-37.4c15.21-9.54,26.38-11.6,29.48-22.3c3.1-10.7,10.21-17.35,26.66-26.45
			c16.45-9.1,40.11,5.34,30.97,21.49c-7.7,13.62-5.79,31.24-1.22,40.73c4.57,9.49,8.97,17.34-2.45,28.76
			c-11.42,11.41-23.56,15.75-22.48,32.12s11.96,23.67-8.62,35.92C1367.77,359.06,1338.79,359.46,1322.95,348.64z"/>
		<path class="st8" d="M1416.61,181.08c0,0-22.21,29.53-50.71,83.73c-23.58,44.84-25.96,90.34-25.96,90.34"/>
		<path class="st8" d="M1320.23,280.04c2.25,17,22.01,56.49,22.01,56.49"/>
		<path class="st8" d="M1343.38,232.15c0,0,4.46,8.4,6.98,21.36s7.62,28.14,7.62,28.14s12.75-12.88,30.81-16.9
			s43.82-9.74,43.82-9.74"/>
		<path class="st8" d="M1381.7,195.55c0,0,4.98,8.73,3.98,16.5c-1,7.77-0.46,17.81-0.46,17.81"/>
		<path class="st8" d="M1386.38,227.86c0,0,12.18-7.04,19.51-11.51c7.33-4.47,22.13-6.11,22.13-6.11"/>
		<path class="st8" d="M1342.07,334.81c0,0,23.07-11.1,33.39-16.7c10.32-5.61,29.35-7.63,29.35-7.63"/>
	</g>
	<g>
		<g>
			<path class="st8" d="M1304.06,384.33c4.55-6.19,6.65-28.79-4.82-39.05s-15.63-0.23-20.8-9.08c-5.17-8.86-3.7-18.66-15.67-21.62
				c-11.97-2.95-19.56-1.98-24.13-8.14c-4.57-6.16-10.7-8.93-23.35-11.34c-12.65-2.42-24.15,11.57-14.43,19.96
				c8.2,7.07,11.27,18.64,10.68,25.6c-0.59,6.95-1.47,12.84,8.55,17.75s18.78,5.19,22.08,15.8c3.3,10.61-1.83,17.46,14.2,21.03
				C1278.15,400.09,1296.63,394.43,1304.06,384.33z"/>
			<path class="st8" d="M1204.84,297.67c0,0,20.31,13.64,51.57,42.22c25.87,23.65,38.44,52.03,38.44,52.03"/>
			<path class="st8" d="M1289.1,340.24c0,0-1.9,2.1-1.1,12.52c0.8,10.42,0.87,27.81,0.87,27.81"/>
			<path class="st8" d="M1262.77,314.58c0,0-0.79,6.24,0.76,14.98s2.01,19.41,2.01,19.41s-11.22-5.57-23.66-4.44
				s-30.18,2.75-30.18,2.75"/>
			<path class="st8" d="M1229.55,299.16c0,0-1.04,6.56,1.49,11.28s4.62,11.21,4.62,11.21"/>
			<path class="st8" d="M1234.44,320.62c0,0-9.44-1.98-15.18-3.32c-5.74-1.34-15.53,0.64-15.53,0.64"/>
			<path class="st8" d="M1288.56,379.46c0,0-17.34-2.34-25.25-3.79s-20.48,1.14-20.48,1.14"/>
		</g>
		<path class="st8" d="M1294.44,391.2c0,0,4.42,7.2,8.62,14.16c4.2,6.96,13.04,21.13,13.04,21.13"/>
	</g>
	<path class="st9" d="M1340.22,355.14c0,0-2.61,11.97-5.23,28.14c-1.24,7.65-1.95,20.23-2.35,31.37"/>
	<path class="st8" d="M1146.01,122.19c0,0,12.47-0.95,23.21,4.72c10.73,5.68,7.34,9.78,7.34,9.78S1161.54,136.92,1146.01,122.19z"/>
	<path class="st8" d="M1177.13,136.45c0,0,3.33-8.39,11.66-12.21c8.33-3.81,14.99-6.87,14.99-6.87S1197.12,132.63,1177.13,136.45z"
		/>
	<ellipse class="st10" cx="1236.69" cy="219.22" rx="8.75" ry="8.01"/>
	<ellipse class="st10" cx="1287.92" cy="203.58" rx="4.58" ry="4.2"/>
	<ellipse class="st10" cx="1279.17" cy="253.55" rx="16.66" ry="15.26"/>
	<path class="st8" d="M1151.57,162.27c0,0,5.64-0.43,10.5,2.14s3.32,4.42,3.32,4.42S1158.59,168.94,1151.57,162.27z"/>
	<path class="st8" d="M1165.65,168.72c0,0,1.51-3.8,5.28-5.52c3.77-1.73,6.78-3.11,6.78-3.11S1174.69,167,1165.65,168.72z"/>
	<path class="st8" d="M1190.46,145.39c0,0,8.09-0.62,15.06,3.06c6.96,3.68,4.76,6.35,4.76,6.35S1200.53,154.95,1190.46,145.39z"/>
	<path class="st8" d="M1210.65,154.64c0,0,2.16-5.44,7.57-7.92s9.73-4.45,9.73-4.45S1223.62,152.17,1210.65,154.64z"/>
	<g>
		<polygon class="st11" points="963.37,55.69 943.58,54.93 942.79,54.66 940.95,39.08 912.33,78.1 		"/>
		<polyline class="st12" points="948.07,63.21 947.5,66.64 912.25,78.47 943.07,54.82 		"/>
	</g>
	<path class="st13" d="M776.07,264.61h-73.3c-6.21,0-11.24-4.61-11.24-10.3v0c0-5.69,5.03-10.3,11.24-10.3h73.3"/>
	<path class="st13" d="M773.97,260.8h-71.16c-3.84,0-6.96-2.85-6.96-6.37l0,0c0-3.52,3.11-6.37,6.96-6.37h71.16"/>
	<path class="st13" d="M773.52,259.34c-1.01-1.17-1.62-2.65-1.62-4.26c0-1.9,0.84-3.61,2.2-4.85"/>
	<path class="st13" d="M773.57,242.45h-73.1c-3.83,0-6.93-2.84-6.93-6.35v0c0-3.51,3.1-6.35,6.93-6.35h72.27"/>
	<path class="st13" d="M773.57,240.1h-73.07c-2.37,0-4.29-1.76-4.29-3.93l0,0c0-2.17,1.92-3.93,4.29-3.93h73.91"/>
	<path class="st13" d="M734.1,239.2c-0.63-0.72-1-1.64-1-2.63c0-1.17,0.52-2.23,1.35-2.99"/>
	<path class="st13" d="M769.97,239.26c-0.63-0.72-1-1.64-1-2.63c0-1.17,0.52-2.23,1.35-2.99"/>
	<path class="st14" d="M743.39,211.17h73.3c6.21,0,11.24-5.95,11.24-13.28v0c0-7.34-5.03-13.28-11.24-13.28h-73.3"/>
	<path class="st14" d="M745.48,206.25h71.16c3.84,0,6.96-3.68,6.96-8.22v0c0-4.54-3.11-8.22-6.96-8.22h-71.16"/>
	<path class="st14" d="M745.93,204.37c1.01-1.51,1.62-3.42,1.62-5.5c0-2.45-0.84-4.66-2.2-6.26"/>
	<path class="st14" d="M791.4,203.41c1.01-1.51,1.62-3.42,1.62-5.5c0-2.45-0.84-4.66-2.2-6.26"/>
	<path class="st14" d="M752.48,184.51h55.04c4.66,0,8.44-4.47,8.44-9.98v0c0-5.51-3.78-9.98-8.44-9.98h-55.04"/>
	<path class="st15" d="M754.05,180.81h53.44c2.88,0,5.22-2.76,5.22-6.17v0c0-3.41-2.34-6.17-5.22-6.17h-53.44"/>
	<path class="st15" d="M754.4,179.4c0.76-1.13,1.22-2.57,1.22-4.13c0-1.84-0.63-3.5-1.65-4.7"/>
	<path class="st15" d="M788.54,178.68c0.76-1.13,1.22-2.57,1.22-4.13c0-1.84-0.63-3.5-1.65-4.7"/>
	<line class="st15" x1="753.39" y1="198.29" x2="786.72" y2="198.29"/>
	<line class="st15" x1="747.29" y1="201.81" x2="771.9" y2="201.81"/>
	<line class="st15" x1="746.91" y1="194.81" x2="763.57" y2="194.81"/>
	<line class="st15" x1="761.91" y1="173.45" x2="781.06" y2="173.45"/>
	<line class="st15" x1="766.9" y1="176.5" x2="784.39" y2="176.5"/>
	<line class="st15" x1="792.72" y1="194.81" x2="808.55" y2="194.81"/>
	<line class="st15" x1="796.89" y1="200.91" x2="817.71" y2="200.91"/>
	<line class="st15" x1="793.56" y1="173.45" x2="803.55" y2="173.45"/>
	<line class="st15" x1="793.56" y1="176.5" x2="808.55" y2="176.5"/>
	<path class="st13" d="M728.38,259.13c-1.05-1.26-1.68-2.84-1.68-4.57c0-2.03,0.87-3.87,2.28-5.21"/>
	<ellipse class="st16" cx="1275.55" cy="60.76" rx="17.36" ry="15.9"/>
	<path class="st1" d="M835.22,219.6h-92.91c-1.1,0-1.99-0.89-1.99-1.99v-2.28c0-1.1,0.89-1.99,1.99-1.99h92.91
		c1.1,0,1.99,0.89,1.99,1.99v2.28C837.21,218.71,836.32,219.6,835.22,219.6z"/>
	<ellipse class="st16" cx="706.51" cy="199.77" rx="7.5" ry="6.87"/>
	<ellipse class="st16" cx="811.05" cy="262.7" rx="3.75" ry="3.43"/>
	<ellipse class="st16" cx="780.65" cy="145.6" rx="3.33" ry="3.05"/>
	<path class="st1" d="M784.37,271.54h-92.91c-1.1,0-1.99-0.89-1.99-1.99v-2.28c0-1.1,0.89-1.99,1.99-1.99h92.91
		c1.1,0,1.99,0.89,1.99,1.99v2.28C786.36,270.65,785.47,271.54,784.37,271.54z"/>
	<path class="st1" d="M845.18,311.21h-92.91c-1.1,0-1.99-0.89-1.99-1.99v-2.28c0-1.1,0.89-1.99,1.99-1.99h92.91
		c1.1,0,1.99,0.89,1.99,1.99v2.28C847.17,310.32,846.28,311.21,845.18,311.21z"/>
	<line class="st17" x1="604.89" y1="288.26" x2="723.59" y2="288.64"/>
	<rect x="768.15" y="298.18" class="st18" width="67.47" height="6.87"/>
	<line class="st19" x1="619.05" y1="401.34" x2="792.31" y2="401.34"/>
	<polygon class="st18" points="825.21,298.04 770.83,298.04 770.83,292.51 823.54,292.51 	"/>
	<polygon class="st18" points="813.56,292.04 776.48,292.04 776.48,288.26 812.43,288.26 	"/>
	<path class="st16" d="M871.11,308.1c-3.01,0-5.32,2.49-4.8,5.2c2.48,12.82,11.29,22.3,21.79,22.3c10.5,0,19.31-9.48,21.79-22.3
		c0.53-2.71-1.79-5.2-4.8-5.2H871.11z"/>
	<path class="st16" d="M867.46,333.38c2.58,2.54,5.78,4.75,9.19,6.76h23.14c0.61-0.42,1.26-0.84,1.92-1.27
		c2.08-1.86,4.27-3.65,6.38-5.49H867.46z"/>
	
		<ellipse transform="matrix(0.4602 -0.8878 0.8878 0.4602 183.8965 946.5781)" class="st20" cx="870.33" cy="322.07" rx="5.64" ry="8.7"/>
	<path class="st21" d="M879.37,240.52c1.16,2.47,1.2,5.28,0.63,7.92c-0.56,2.64-1.7,5.14-2.82,7.62"/>
	<path class="st21" d="M875.01,263.08c-1.3,2.83-2.04,5.88-2.17,8.95"/>
	<path class="st21" d="M873.07,277.8c0.19,2.23,0.82,4.42,1.85,6.45"/>
	<path class="st21" d="M876.82,288.25c0.75,1.31,1.73,2.51,2.89,3.54"/>
	<path class="st21" d="M879.11,222.16c3.1,2.49,4.59,6.21,5.96,9.78"/>
	<path class="st21" d="M887.81,240.98c0.11,9.26-3.1,18.24-6.26,27.03"/>
	<path class="st21" d="M881.12,273.95c-0.13,2.62,0.38,5.26,1.47,7.68"/>
	<path class="st21" d="M884.3,287.57c1.21,2.26,2.8,4.34,4.71,6.14"/>
	<path class="st21" d="M890.49,298.67c0.23,1.71,0.02,3.46-0.59,5.08"/>
	<path class="st21" d="M892.8,257.47c-0.44,2.61-1.11,5.18-2,7.69"/>
	<path class="st21" d="M888.8,275.96c-0.04,2.42,0.36,4.84,1.18,7.14"/>
	<path class="st22" d="M1190.88,383.62h-16.23c-4.12-4.69-8.07-29.11-1.32-36.62h16.72c2.99,0,5.41-2.22,5.41-4.96
		s-2.42-4.96-5.41-4.96h-5.52H945.16h-69.68c-17.41,0-31.53,12.95-31.53,28.92v0c0,15.97,14.12,28.92,31.53,28.92h306.96
		c-0.12-0.86-0.55-1.85-1.17-2.92h9.61c2.53,0,4.58-1.88,4.58-4.2C1195.46,385.5,1193.41,383.62,1190.88,383.62z"/>
	<ellipse class="st23" cx="1047.61" cy="366.46" rx="12.08" ry="6.48"/>
	<ellipse class="st24" cx="1047.22" cy="366.66" rx="18.86" ry="10.12"/>
	<ellipse class="st23" cx="1014.29" cy="367.22" rx="4.58" ry="2.67"/>
	<ellipse class="st23" cx="997.63" cy="367.22" rx="4.58" ry="2.67"/>
	<path class="st24" d="M892.68,336.98c0,0-19.58,4.75-19.58,27.71c0,13.46,8.1,27.71,20.93,27.71"/>
	<path class="st24" d="M911.74,336.32c0,0-19.58,4.75-19.58,27.71c0,13.46,8.1,27.71,20.93,27.71"/>
	<path class="st25" d="M1101.72,338.76c0,0-13.72,4.58-13.72,26.7c0,12.97,5.68,26.7,14.66,26.7"/>
	<path class="st26" d="M1119.13,338.06c0,0-14.46,4.58-14.46,26.7c0,12.97,5.99,26.7,15.46,26.7"/>
	<path class="st1" d="M1218.54,391.66H836.98c-1.84,0-6.78,0.35-6.78,0.35c-6.21,0-11.24,3.09-11.24,8.77v0
		c0,5.69,5.03,8.77,11.24,8.77l3.74,0.76c1.97,5.13,3.56,10.38,4.79,15.64c1.61,6.86,2.69,13.9,3.11,20.97h-17.48
		c-3.91,0-7.08,5.19-7.08,8.77v0c0,3.58,3.17,6.48,7.08,6.48h17.47c-0.02,0.25-0.03,0.51-0.05,0.76h376.74
		c21.5,0,38.93-15.96,38.93-35.65v0C1257.47,407.62,1240.04,391.66,1218.54,391.66z"/>
	<path class="st23" d="M1111.61,391.64h-23.5v0.32c19.72,1.74,35.14,16.96,35.14,35.48v0c0,18.6-15.55,33.86-35.4,35.5h23.76
		c21.5,0,38.93-15.96,38.93-35.65v0C1150.53,407.6,1133.1,391.64,1111.61,391.64z"/>
	<path class="st23" d="M1194.67,391.7h-23.5v0.32c19.72,1.74,35.14,16.96,35.14,35.48v0c0,18.6-15.55,33.86-35.4,35.5h23.76
		c21.5,0,38.93-15.96,38.93-35.65v0C1233.6,407.66,1216.17,391.7,1194.67,391.7z"/>
	<path class="st27" d="M1050.11,391.63c0,0,37.48,3.81,37.48,32.8c0,18.31-14.99,37.38-47.48,37.38"/>
	<path class="st27" d="M1146.48,392.14c0,0,37.48,3.81,37.48,32.8c0,18.31-14.99,37.38-47.48,37.38"/>
	<path class="st27" d="M1212.12,391.89c0,0,37.48,3.81,37.48,32.8c0,18.31-14.99,37.38-47.48,37.38"/>
	<path class="st28" d="M1029.84,409.56H830.08c0.82,12.6,0.33,25.55-4.06,37.38h203.82c11.42,0,20.68-8.37,20.68-18.69v0
		C1050.52,417.93,1041.27,409.56,1029.84,409.56z"/>
	<path class="st28" d="M1121.21,347h63.22c-0.26,12.34-0.1,25.02,1.28,36.62h-64.51c-3.61,0-6.55-8.2-6.55-18.31v0
		C1114.66,355.2,1117.59,347,1121.21,347z"/>
	<line class="st29" x1="829.79" y1="421" x2="888.1" y2="421"/>
	<line class="st29" x1="902.67" y1="420.62" x2="924.33" y2="420.62"/>
	<line class="st29" x1="938.49" y1="420.62" x2="982.64" y2="420.62"/>
	<line class="st29" x1="995.13" y1="420.62" x2="1015.12" y2="420.62"/>
	<line class="st29" x1="1027.62" y1="420.62" x2="1050.11" y2="420.62"/>
	<line class="st29" x1="830.21" y1="429.78" x2="843.53" y2="429.78"/>
	<line class="st29" x1="854.36" y1="429.78" x2="909.34" y2="429.78"/>
	<line class="st29" x1="914.34" y1="429.78" x2="935.99" y2="429.78"/>
	<line class="st29" x1="942.66" y1="429.78" x2="1001.8" y2="429.78"/>
	<line class="st29" x1="1010.13" y1="429.78" x2="1050.11" y2="429.78"/>
	<line class="st29" x1="828.54" y1="439.69" x2="881.85" y2="439.69"/>
	<line class="st29" x1="893.51" y1="439.69" x2="933.49" y2="439.69"/>
	<line class="st29" x1="945.16" y1="439.69" x2="1045.94" y2="439.69"/>
	<line class="st27" x1="1123.41" y1="377.9" x2="1142.28" y2="377.9"/>
	<line class="st27" x1="1154.88" y1="377.9" x2="1166.89" y2="377.9"/>
	<line class="st27" x1="1118.41" y1="369.51" x2="1138.63" y2="369.51"/>
	<line class="st27" x1="1145.9" y1="369.51" x2="1169.22" y2="369.51"/>
	<line class="st27" x1="1174.22" y1="369.51" x2="1185.05" y2="369.51"/>
	<line class="st27" x1="1170.89" y1="377.9" x2="1185.05" y2="377.9"/>
	<line class="st27" x1="1185.05" y1="364.93" x2="1163.39" y2="364.93"/>
	<line class="st27" x1="1159.23" y1="364.93" x2="1152.56" y2="364.93"/>
	<line class="st27" x1="1150.06" y1="364.93" x2="1117.58" y2="364.93"/>
	<line class="st27" x1="1119.24" y1="359.59" x2="1130.9" y2="359.59"/>
	<line class="st27" x1="1135.07" y1="359.59" x2="1155.06" y2="359.59"/>
	<line class="st27" x1="1157.56" y1="359.59" x2="1179.22" y2="359.59"/>
	<line class="st27" x1="1181.72" y1="359.59" x2="1184.21" y2="359.59"/>
	<line class="st27" x1="1184.21" y1="355.01" x2="1159.23" y2="355.01"/>
	<line class="st27" x1="1155.89" y1="355.01" x2="1140.07" y2="355.01"/>
	<line class="st27" x1="1136.74" y1="355.01" x2="1120.08" y2="355.01"/>
	<line class="st27" x1="1129.24" y1="351.2" x2="1145.9" y2="351.2"/>
	<line class="st27" x1="1151.73" y1="351.2" x2="1174.22" y2="351.2"/>
	<path class="st1" d="M1168.18,221.04c-26.86-56.37-66.84-72.39-66.84-72.39s0,0.03,0,0.09c-2.54-1.34-5.48-2.33-8.89-2.9
		c-18.76-3.12-27.75-4.36-36.65-4.1c-7.65,0.22-26.89,0.77-35.84,0.46c-13.58-0.46-42.46,3.84-50.61,11.27
		c0,0-39.6,23.41-61.26,69.94c-14.63,31.44,2.4,41.97,63.3,44.25c4.27,0.16,8.43,0.01,12.47-0.38c0.65,3.2,1.16,5.85,1.51,7.74
		c6.41,34.65,93.55,34.83,102.59,1.17c1.01-3.78,2.07-7.6,3.15-11.42c4.44,0.49,9.04,0.68,13.76,0.51
		C1165.78,263.01,1183.1,252.36,1168.18,221.04z"/>
	<g>
		<path class="st30" d="M1062.91,141.11l-7.77-40.03l-34.53,5.52l-4.76,34.96c-4.59,0.41-9.43,1.21-14.07,2.2
			c1.26,10.28,16.93,18.41,36.09,18.41c19.8,0,35.88-8.68,36.17-19.45C1070.09,142.01,1066.23,141.62,1062.91,141.11z"/>
	</g>
	<path class="st31" d="M1045.86,131.32c4.54-3.7,8.62-8.25,12.36-13.3l-3.28-16.9l-34.53,5.52l-4.61,33.84
		C1026.12,142.22,1037.37,138.23,1045.86,131.32z"/>
	<g>
		<path class="st32" d="M994.94,144.44c0,0,8.34,20.57,33.09,23.29c24.75,2.72,41.23-2.67,54.56-23.27"/>
		<line class="st32" x1="1038.24" y1="168.41" x2="1039.46" y2="189.27"/>
		<ellipse class="st16" cx="1046.78" cy="174.97" rx="2.92" ry="2.67"/>
		<ellipse class="st16" cx="1046.78" cy="186.42" rx="2.92" ry="2.67"/>
		<path class="st27" d="M941.17,215.79c0,0,6.7,3.96,26.79,12.66c20.09,8.7,29.59,9.55,29.59,9.55"/>
		<path class="st27" d="M967.56,182.22c0,0,0.87,12.27,7.58,21.74s8.01,20.95,8.01,20.95"/>
		<path class="st27" d="M1135.09,213.41c0,0-6.7,3.96-26.79,12.66c-20.09,8.7-29.59,9.55-29.59,9.55"/>
		<path class="st27" d="M1108.7,179.84c0,0-0.87,12.27-7.58,21.74s-8.01,20.95-8.01,20.95"/>
	</g>
	<g>
		<path class="st30" d="M1072.97,85.98c-2.93-0.99-6.29,0.04-9.08,2.43c-2.97-15.15-13.98-26.4-27.11-26.4
			c-13.27,0-24.37,11.5-27.2,26.9c-2.79-2.39-6.15-3.42-9.08-2.43c-4.87,1.65-6.69,8.25-4.06,14.73c2.62,6.48,8.7,10.4,13.57,8.75
			c0.6-0.2,1.15-0.48,1.65-0.82c5.71,12.89,18.8,22,25.13,22.11c7.87,0.13,20.27-9.23,25.48-22.34c0.38,0.22,0.78,0.42,1.21,0.56
			c4.87,1.65,10.94-2.26,13.57-8.75C1079.65,94.23,1077.84,87.63,1072.97,85.98z"/>
	</g>
	<path class="st16" d="M1028.03,114.32c0.09,2.39,4.15,4.31,9.16,4.31s9.06-1.92,9.16-4.31c0,0-2.49,1.13-9.99,1.13
		C1031.37,115.45,1028.03,114.32,1028.03,114.32z"/>
	<line class="st33" x1="1034.28" y1="122.95" x2="1038.86" y2="122.72"/>
	<path class="st31" d="M1064.65,55.8c-8.1-7.02-16.29-8.44-28.28-8.61c-25.57-0.35-39.87,10.9-34.98,31.28
		c1.98,8.27,8.65,19.79,8.65,19.79c-0.5,0.8-0.64-13.27,3.28-19.52c5.41,0.75,11.35,0.4,19.56-1.21c8.32-1.63,15.51-4.21,20.1-6.96
		c1.99,0.12,3.8,2.4,5.34,4.4c3.52,4.57,5.63,25.91,5.63,25.91s7.02-16.45,7.41-22.4C1072.07,67.63,1069.68,60.16,1064.65,55.8z"/>
	<path class="st34" d="M1058.44,66.64c0,0-11.66,10.68-28.32,13.73c-10.13,1.86-22.49,2.29-22.49,2.29"/>
	<path class="st35" d="M1015.12,88.77c0,0,2.98-3.48,6.9-4.03c3.92-0.55,6.21,0,6.21,0"/>
	<path class="st35" d="M1055.26,85.68c0,0-2.98-3.48-6.9-4.03c-3.92-0.55-6.21,0-6.21,0"/>
	<path class="st36" d="M1000.13,71.22c0,0,12.49,5.34,32.49,0c20.93-5.59,34.85-12.25,34.85-12.25"/>
	<path class="st36" d="M1003,60.48c0,0,13.85,6.4,27.95,4.64c18.99-2.37,33.7-9.32,33.7-9.32"/>
	<path class="st33" d="M1033.65,90.16c0,0,1.07,8.95-0.36,13.13s-2.35,6.84-2.35,6.84l5,0.76"/>
	<ellipse class="st37" cx="1023.28" cy="96.81" rx="2.08" ry="2.89"/>
	<ellipse class="st37" cx="1049.05" cy="96.18" rx="2.08" ry="2.89"/>
	<path class="st38" d="M1019.45,94.47c0,0,0.64-1.75,3.17-1.88s3.55,1.79,3.55,1.79"/>
	<path class="st38" d="M1052.4,93.86c0,0-0.64-1.75-3.17-1.88c-2.53-0.14-3.55,1.79-3.55,1.79"/>
	<ellipse class="st39" cx="1021.78" cy="96.38" rx="10.84" ry="9.93"/>
	<ellipse class="st39" cx="1049.28" cy="96.62" rx="10.84" ry="9.93"/>
	<path class="st40" d="M1032.62,94.87c0.92-0.72,1.68-0.76,2.96-0.76c1.1,0,2.13,0.32,2.98,0.86"/>
	<path class="st7" d="M913.21,101.41c15.39,0.66,25.38,0.68,25.38,0.68"/>
	<path class="st7" d="M864.59,97.02c9.59,1.11,18.24,2,26.06,2.67"/>
	<path class="st7" d="M792.06,90.02c12.62,0.01,25.25,0.84,37.73,2.55"/>
	<path class="st7" d="M713,100.23c16.7-4.35,34.12-7.43,51.81-9"/>
	<path class="st7" d="M673.11,113.59c5.25-2.18,10.64-4.24,16.14-6.16"/>
	<path class="st7" d="M630.9,137.45c7.95-5.99,16.67-11.66,26.01-16.46"/>
	<path class="st7" d="M604.77,160.41c2.24-2.27,4.62-4.59,7.13-6.94"/>
	<path class="st7" d="M593.04,173.07c1.07-1.23,2.19-2.5,3.39-3.82"/>
	<path class="st7" d="M580.74,188.51c0,0,0.94-1.36,2.75-3.73"/>
	<path class="st7" d="M774.59,62.81c10.81,0.01,21.63,0.69,32.32,2.12"/>
	<path class="st7" d="M706.87,71.27c14.3-3.6,29.23-6.15,44.38-7.46"/>
	<path class="st7" d="M672.7,82.34c4.5-1.81,9.11-3.51,13.83-5.1"/>
	<path class="st7" d="M636.55,102.12c6.81-4.96,14.28-9.66,22.28-13.64"/>
	<path class="st7" d="M1328.99,461.25c-2.5,1.3-5.02,2.55-7.57,3.76"/>
	<path class="st7" d="M1349.04,449.5c-3.7,2.42-7.48,4.74-11.33,6.96"/>
	<path class="st7" d="M1399.7,413.22c-10.37,9.72-21.85,18.82-34.22,26.94"/>
	<path class="st7" d="M1423.3,391.23c-3.24,3.38-6.64,6.71-10.18,9.98"/>
	<path class="st7" d="M1438.3,371.75c-1.93,2.87-3.99,5.71-6.19,8.47"/>
	<path class="st7" d="M1445.86,359.15c-1.04,1.94-2.13,3.87-3.27,5.8"/>
	<path class="st7" d="M1411.27,433.97c-5.39,5.1-11.07,10.01-17,14.68"/>
	<path class="st7" d="M1425.77,419.06c-2.51,2.81-5.11,5.59-7.79,8.32"/>
	<path class="st7" d="M1365.19,469.08c-4.67,2.7-9.45,5.27-14.33,7.7"/>
	<path class="st7" d="M1388.46,453.94c-3.91,2.85-7.93,5.62-12.06,8.29"/>
	<path class="st41" d="M1014.87,28.49v23.07c0,0,6.01,1.73,17.38,1.73s24.43-2.73,24.43-2.73V28.49H1014.87z"/>
	<path class="st41" d="M1084.02,29.13h-97.6c-0.94,0-1.7-0.76-1.7-1.7v-1.95c0-0.94,0.76-1.7,1.7-1.7h97.6c0.94,0,1.7,0.76,1.7,1.7
		v1.95C1085.72,28.36,1084.96,29.13,1084.02,29.13z"/>
	<line class="st42" x1="1014.29" y1="29.26" x2="1057.19" y2="29.26"/>
	<polygon class="st1" points="996.38,64.74 992.22,60.92 988.63,64.74 988.63,28.8 996.38,28.8 	"/>
	<path class="st22" d="M1114.56,583.5H791.38c-21.28,0-38.53-17.25-38.53-38.53v-44.21c0-21.28,17.25-38.53,38.53-38.53h323.18
		V583.5z"/>
	<path class="st23" d="M795.66,529.24v-12.72c0-27.98,23.12-51.01,52.81-53.95h32.7c1.19-0.08,2.39-0.13,3.6-0.15v-0.02H827.8
		c-29.7,2.94-52.81,25.97-52.81,53.95v12.72c0,29.98,26.53,54.28,59.26,54.28h16.3C819.86,581.31,795.66,557.87,795.66,529.24z"/>
	<path class="st23" d="M856.28,529.32V516.6c0-27.98,23.12-51.01,52.81-53.95h32.7c1.19-0.08,2.39-0.13,3.6-0.15v-0.02h-56.96
		c-29.7,2.94-52.81,25.97-52.81,53.95v12.72c0,29.98,26.53,54.28,59.26,54.28h16.3C880.49,581.38,856.28,557.94,856.28,529.32z"/>
	<path class="st24" d="M890.47,528.86v-12.72c0-27.98,23.12-51.01,52.81-53.95h32.7c1.19-0.08,2.39-0.13,3.6-0.15v-0.02h-56.96
		c-29.7,2.94-52.81,25.97-52.81,53.95v12.72c0,29.98,26.53,54.28,59.26,54.28h16.3C914.67,580.92,890.47,557.49,890.47,528.86z"/>
	<path class="st43" d="M825.26,529.29v-12.72c0-27.98,23.12-51.01,52.81-53.95h32.7c1.19-0.08,2.39-0.13,3.6-0.15v-0.02H857.4
		c-29.7,2.94-52.81,25.97-52.81,53.95v12.72c0,29.98,26.53,54.28,59.26,54.28h16.3C849.47,581.35,825.26,557.91,825.26,529.29z"/>
	<path class="st41" d="M1237.68,504.49c0.44-7.76,1.78-15.57,5.78-22.3h41.87c6.02,0,10.9-4.47,10.9-9.98
		c0-5.51-4.88-9.98-10.9-9.98h-40.55h-98.33H973.08c-35.12,0-63.6,26.08-63.6,58.25v0.3c0,34.64,30.66,62.73,68.49,62.73h164.88
		c0.03,0,0.06,0,0.1,0h138.87c6.02,0,10.9-4.47,10.9-9.98s-4.88-9.98-10.9-9.98h-36.95c-1.11-2.09-2.05-4.22-2.82-6.39
		c-3.18-6.97-5.61-14.44-5.23-21.71c-0.06-0.28-0.14-0.55-0.2-0.83c-1.28-5.93-2.33-13.31-0.41-19.54
		C1236.38,511.53,1236.81,507.94,1237.68,504.49z"/>
	<path class="st28" d="M1263.26,516.72c0.19-11.58,1.64-23.76,6.27-34.69h-289.9c-25.25,0-45.73,18.27-45.73,40.81v0
		c0,22.54,20.47,40.81,45.73,40.81h288.49C1263.77,548.43,1263,532.41,1263.26,516.72z"/>
	<path class="st44" d="M1243.77,495"/>
	<path class="st44" d="M942.38,498.85"/>
	<line class="st45" x1="965.98" y1="551.84" x2="1040.11" y2="551.84"/>
	<line class="st45" x1="1060.94" y1="551.84" x2="1078.43" y2="551.84"/>
	<line class="st45" x1="1100.92" y1="551.84" x2="1174.22" y2="551.84"/>
	<line class="st45" x1="1198.37" y1="551.84" x2="1244.19" y2="551.84"/>
	<line class="st44" x1="945.16" y1="534.29" x2="1003.46" y2="534.29"/>
	<line class="st44" x1="1020.12" y1="534.29" x2="1150.06" y2="534.29"/>
	<line class="st44" x1="1160.89" y1="534.29" x2="1263.34" y2="534.29"/>
	<line class="st44" x1="936.41" y1="520.56" x2="1087.59" y2="520.56"/>
	<line class="st44" x1="1098.42" y1="520.56" x2="1123.41" y2="520.56"/>
	<line class="st44" x1="1133.4" y1="520.56" x2="1212.53" y2="520.56"/>
	<line class="st44" x1="1223.36" y1="520.56" x2="1263.34" y2="520.56"/>
	<line class="st44" x1="942.66" y1="505.3" x2="1003.46" y2="505.3"/>
	<line class="st44" x1="1015.12" y1="505.3" x2="1103.42" y2="505.3"/>
	<line class="st44" x1="1110.91" y1="505.3" x2="1177.55" y2="505.3"/>
	<line class="st44" x1="1185.88" y1="505.3" x2="1225.86" y2="505.3"/>
	<line class="st44" x1="1235.86" y1="505.3" x2="1263.34" y2="505.3"/>
	<line class="st29" x1="960.98" y1="493.1" x2="1074.26" y2="493.1"/>
	<line class="st44" x1="1083.43" y1="493.1" x2="1135.9" y2="493.1"/>
	<line class="st44" x1="1144.23" y1="493.1" x2="1265.01" y2="493.1"/>
	<path class="st16" d="M911,303.15c0,0,36.66,31.93,51.89,40.32c15.23,8.38,60.56-4.39,60.56-4.39s-5.16-38.03-35.7-39.37
		C957.2,298.36,911,303.15,911,303.15z"/>
	<path class="st16" d="M1143.82,316.49c0,0-10,9.92-44.38,20.08c-15.77,4.66-60.56-3.14-60.56-3.14s5.16-27.2,35.7-28.16
		C1105.13,304.31,1143.82,316.49,1143.82,316.49z"/>
	
		<ellipse transform="matrix(0.5203 -0.854 0.854 0.5203 250.2389 1137.7307)" class="st46" cx="1137.85" cy="346.12" rx="14.68" ry="32.09"/>
	<line class="st47" x1="1127.27" y1="339.21" x2="1123.64" y2="345.68"/>
	<line class="st47" x1="1134.49" y1="341.71" x2="1129.97" y2="348.56"/>
	<line class="st47" x1="1141.56" y1="344.94" x2="1137.47" y2="350.92"/>
	<path class="st16" d="M1120.2,323.91c-32.21-16.86-75.26-39.86-109.27-49.89c-52.77-15.56-97.66-23.46-107.57,4.71
		c-9.91,28.18,26.13,39.35,94.8,53.16c35.74,7.19,66.25,7.19,116.79,13.4C1120.28,339.48,1121.07,330.29,1120.2,323.91z"/>
	<path class="st41" d="M1104.26,288.26H974.3c-1.61,0-2.91-1.3-2.91-2.91v-3.34c0-1.61,1.3-2.91,2.91-2.91h129.95
		c1.61,0,2.91,1.3,2.91,2.91v3.34C1107.17,286.96,1105.86,288.26,1104.26,288.26z"/>
	<path class="st41" d="M1098.99,279.11H979.57c-4.52,0-8.18-3.66-8.18-8.18v-65.99c0-4.52,3.66-8.18,8.18-8.18h119.42
		c4.52,0,8.18,3.66,8.18,8.18v65.99C1107.17,275.45,1103.5,279.11,1098.99,279.11z"/>
	<path class="st48" d="M970.98,209.81c0-4.17,3.69-7.55,8.24-7.55h119.3c4.55,0,8.24,3.38,8.24,7.55"/>
	<path class="st46" d="M978.05,339.73c6.12,12.6-23.71,23.76-40.09,29.05c-16.37,5.28-31.98,3.49-34.87-4.01
		c-2.88-7.5,8.05-17.86,24.42-23.14C943.89,336.34,970.43,324.03,978.05,339.73z"/>
	<line class="st47" x1="943.49" y1="345.57" x2="946.19" y2="352.41"/>
	<line class="st47" x1="950.4" y1="342.43" x2="952.8" y2="350.12"/>
	<line class="st47" x1="957.8" y1="339.89" x2="959.8" y2="346.7"/>
	<path class="st16" d="M1152.45,288.78c-6.36-25.04-32.46-32.55-108.09-1.6c-23.89,9.78-60.32,30.14-81.94,43.84
		c-0.87,2.4,2.79,16.57,8.68,23.99c43.58-7.98,70.92-11.19,97.67-15.93C1116.04,330.7,1161.17,323.11,1152.45,288.78z"/>
	<g>
		<path class="st49" d="M918.41,309.14c0,0,42.11,14.48,51.35,17.53"/>
		<path class="st49" d="M1057.88,280.4c0,0-20.92,8.78-40.97,19.96c-20.05,11.18-54.95,31.06-54.95,31.06"/>
		<path class="st49" d="M1121.51,328.3c0,0-65.38,14.37-150.8,26.35"/>
	</g>
	<ellipse class="st24" cx="1037.9" cy="238.36" rx="17.89" ry="16.38"/>
	<g>
		<path class="st27" d="M999.55,91.98c0,0,3.07,0.28,5.07,3.03c2,2.74,3.34,7.06,3.34,7.06"/>
		<path class="st27" d="M1073.92,91.49c0,0-3.07,0.28-5.07,3.03s-3.34,7.06-3.34,7.06"/>
	</g>
</g>
<g>
	<text transform="matrix(1.0918 0 0 1 699.2138 958.8168)" class="st50 st51 st52">No 1. Online </text>
	<text transform="matrix(1.0918 0 0 1 702.0546 1035.1)" class="st50 st51 st53">English School</text>
	<line class="st54" x1="711.02" y1="870.89" x2="1237.88" y2="870.89"/>
	<g>
		<path class="st0" d="M798.93,846.9H778.6v-47.38l-23,34.57h-2.29l-23-34.57v47.38h-20.34v-81.48h20.34l24.15,36.2l24.15-36.2
			h20.34V846.9z"/>
		<path class="st55" d="M866.29,834.1h-33.04l-4.45,12.8h-22.24l30.25-81.48h25.93l30.25,81.48h-22.24L866.29,834.1z M860.19,816.64
			l-10.42-29.92l-10.42,29.92H860.19z"/>
		<path class="st55" d="M894.25,828.39l17.54-9.31c3.18,6.75,8.64,11.29,18.68,11.29c9.66,0,12.07-3.49,12.07-6.64
			c0-5.01-5.08-6.98-18.43-10.36c-13.22-3.38-26.18-9.2-26.18-24.79c0-15.71,14.49-24.79,29.87-24.79c14.62,0,26.05,6.4,32.54,18.39
			l-17.16,9.2c-3.05-5.82-7.24-9.43-15.38-9.43c-6.35,0-9.53,2.91-9.53,6.17c0,3.72,2.16,6.29,16.01,10.13
			c13.47,3.72,28.6,8.03,28.6,25.26c0,15.71-13.73,25.03-33.04,25.03C911.15,848.53,899.2,840.38,894.25,828.39z"/>
		<path class="st55" d="M1029.6,783.34h-22.88v63.56h-20.34v-63.56h-22.88v-17.93h66.09V783.34z"/>
		<path class="st55" d="M1094.41,828.97v17.93h-55.92v-81.48h55.29v17.93h-34.95v13.5h31.77v17.69h-31.77v14.43H1094.41z"/>
		<path class="st55" d="M1135.84,820.13h-9.66v26.77h-20.34v-81.48h35.59c16.9,0,30.5,12.46,30.5,27.94
			c0,10.01-6.61,19.09-16.4,23.63l18.94,29.92h-21.86L1135.84,820.13z M1126.18,803.83h15.25c5.59,0,10.17-4.54,10.17-10.48
			s-4.58-10.48-10.17-10.48h-15.25V803.83z"/>
		<path class="st0" d="M1236.59,765.43v81.47h-20.33v-61.8l-15.76,3.96l-4.96-15.95l23.26-7.68H1236.59z"/>
		<polygon class="st55" points="716.04,761.46 675.28,760.25 702.49,732.44 743.24,733.64 		"/>
		<path class="st55" d="M726.12,755.04l-8.61,8.81l-12.11-0.36l4.25,9.1c0.92,1.96,6.33,1.72,12.08-0.53
			c5.76-2.25,9.68-5.67,8.77-7.63L726.12,755.04z"/>
		<path class="st0" d="M711.19,743.32L711.19,743.32c-0.42-0.39-1.11-0.39-1.53,0l-16.53,16.43c-0.14,0.12-0.23,0.27-0.28,0.43
			c-0.03,0.1-0.05,0.2-0.05,0.3v31.73c0,0.55,0.48,0.99,1.08,0.99l0,0c0.6,0,1.08-0.44,1.08-0.99v-31.34l16.22-16.15
			C711.61,744.33,711.61,743.71,711.19,743.32z"/>
		<path class="st55" d="M699.02,799.69c0-0.1,0.01-0.19,0.01-0.29c0-5.7-2.34-10.33-5.22-10.33c-2.88,0-5.22,4.62-5.22,10.33
			c0,0.1,0.01,0.2,0.01,0.29c0,0,0.64,1.9,4.98,1.9C697.63,801.59,699.02,799.69,699.02,799.69z"/>
	</g>
</g>
</svg>
