<?xml version="1.0" encoding="utf-8"?>
<!-- Generator: Adobe Illustrator 25.0.0, SVG Export Plug-In . SVG Version: 6.00 Build 0)  -->
<svg id="Layer_1" data-name="Layer 1" xmlns="http://www.w3.org/2000/svg" xmlns:xlink="http://www.w3.org/1999/xlink" viewBox="0 0 2000 200.73" preserveAspectRatio="none">
<g>
	<linearGradient id="SVGID_1_" gradientUnits="userSpaceOnUse" x1="1408.7803" y1="374.6325" x2="152.6487" y2="374.6325">
		<stop  offset="0" style="stop-color:#FFFFFF;stop-opacity:0"/>
		<stop  offset="0.0391" style="stop-color:#F6FCFE;stop-opacity:0.0391"/>
		<stop  offset="0.3832" style="stop-color:#AEE7F9;stop-opacity:0.3832"/>
		<stop  offset="0.6692" style="stop-color:#79D7F5;stop-opacity:0.6692"/>
		<stop  offset="0.8828" style="stop-color:#58CDF2;stop-opacity:0.8828"/>
		<stop  offset="1" style="stop-color:#4CC9F1"/>
	</linearGradient>
	<path opacity="0.5" fill="url(#SVGID_1_)" d="M347.28,272.89v95.62c48.27-0.87,133.12-1.09,260.95,2.89
		c217.69,6.79,367.39,36.28,626.54,85.57c115.07,21.89,240.45,20.32,293.2,18.36V272.89H347.28z"/>
	<path fill="#7E64B2" d="M347.28,272.89v63.09c67.88-0.99,183.88-1.52,319.91,2.72c217.69,6.79,367.39,36.28,626.54,85.57
		c83.12,15.81,171.61,19.38,234.23,19.4V272.89H347.28z"/>
	<linearGradient id="SVGID_2_" gradientUnits="userSpaceOnUse" x1="347.2803" y1="364.3956" x2="1527.9697" y2="364.3956">
		<stop  offset="0" style="stop-color:#FFFFFF;stop-opacity:0"/>
		<stop  offset="0.2546" style="stop-color:#D3B3E9;stop-opacity:0.2546"/>
		<stop  offset="0.5211" style="stop-color:#AA6BD3;stop-opacity:0.5211"/>
		<stop  offset="0.7432" style="stop-color:#8B36C3;stop-opacity:0.7432"/>
		<stop  offset="0.9091" style="stop-color:#7815BA;stop-opacity:0.9091"/>
		<stop  offset="1" style="stop-color:#7109B6"/>
	</linearGradient>
	<path opacity="0.5" fill="url(#SVGID_2_)" d="M347.28,272.89v74.92c50-0.65,130.6-0.5,246.58,3.12
		c217.69,6.79,367.39,36.28,626.54,85.57c127.42,24.24,267.48,19.71,307.57,17.74V272.89H347.28z"/>
</g>
</svg>
