<?xml version="1.0" encoding="utf-8"?>
<!-- Generator: Adobe Illustrator 25.0.0, SVG Export Plug-In . SVG Version: 6.00 Build 0)  -->
<svg version="1.1" id="Layer_1" xmlns="http://www.w3.org/2000/svg" xmlns:xlink="http://www.w3.org/1999/xlink" x="0px" y="0px"
	 viewBox="0 0 2000 200.7" style="enable-background:new 0 0 2000 200.7;" xml:space="preserve">
<style type="text/css">
	.st0{opacity:0.5;fill:url(#SVGID_1_);enable-background:new    ;}
	.st1{opacity:0.5;fill:url(#SVGID_2_);enable-background:new    ;}
	.st2{fill:#71519F;}
</style>
<g>
	
		<linearGradient id="SVGID_1_" gradientUnits="userSpaceOnUse" x1="1697.7762" y1="753.5751" x2="-434.2693" y2="753.5751" gradientTransform="matrix(1 0 0 1 99.93 -651.22)">
		<stop  offset="0" style="stop-color:#FFFFFF;stop-opacity:0"/>
		<stop  offset="0.24" style="stop-color:#CBEFFB;stop-opacity:0.29"/>
		<stop  offset="0.51" style="stop-color:#95DFF7;stop-opacity:0.59"/>
		<stop  offset="0.74" style="stop-color:#6DD3F4;stop-opacity:0.81"/>
		<stop  offset="0.91" style="stop-color:#55CCF2;stop-opacity:0.95"/>
		<stop  offset="1" style="stop-color:#4CC9F1"/>
	</linearGradient>
	<path class="st0" d="M-4,107.6c82-0.8,226-1,442.9,2.5c369.5,6,623.5,32,1063.4,75.5c195.3,19.3,408.1,17.9,497.7,16.2V6.9L-4,2
		V107.6z"/>
	
		<linearGradient id="SVGID_2_" gradientUnits="userSpaceOnUse" x1="-277.6366" y1="744.5776" x2="1984.0376" y2="744.5776" gradientTransform="matrix(1 0 0 1 99.93 -651.22)">
		<stop  offset="0" style="stop-color:#FFFFFF;stop-opacity:0"/>
		<stop  offset="5.000000e-02" style="stop-color:#F6EFFA;stop-opacity:6.000000e-02"/>
		<stop  offset="0.39" style="stop-color:#BD8DDD;stop-opacity:0.46"/>
		<stop  offset="0.67" style="stop-color:#9446C8;stop-opacity:0.75"/>
		<stop  offset="0.88" style="stop-color:#7B1ABB;stop-opacity:0.93"/>
		<stop  offset="1" style="stop-color:#7109B6"/>
	</linearGradient>
	<path class="st1" d="M-4,2v87.3c84.9-0.6,221.6-0.4,418.5,2.8c369.5,6,623.5,32,1063.4,75.5c216.2,21.4,454,17.4,522,15.6V2H-4z"/>
	<path class="st2" d="M-4-0.1v77.8c115.2-0.9,312.1-1.4,543,2.4c369.5,6.1,623.5,32.4,1063.4,76.4c141.1,14.1,291.3,17.3,397.6,17.3
		v-174L-4-0.1L-4-0.1z"/>
</g>
</svg>
