<?xml version="1.0" encoding="utf-8"?>
<!-- Generator: Adobe Illustrator 25.0.0, SVG Export Plug-In . SVG Version: 6.00 Build 0)  -->
<svg version="1.1" id="Layer_1" xmlns="http://www.w3.org/2000/svg" xmlns:xlink="http://www.w3.org/1999/xlink" x="0px" y="0px"
	 viewBox="0 0 2000 200.7" preserveAspectRatio="none" style="enable-background:new 0 0 2000 200.7;" xml:space="preserve">
<style type="text/css">
	.st0{opacity:0.5;fill:url(#SVGID_1_);enable-background:new    ;}
	.st1{opacity:0.5;fill:url(#SVGID_2_);enable-background:new    ;}
	.st2{fill:#71519F;}
</style>
<linearGradient id="SVGID_1_" gradientUnits="userSpaceOnUse" x1="1698.17" y1="-201.5824" x2="-429.62" y2="-201.5824" gradientTransform="matrix(1 0 0 -1 99.93 -101.22)">
	<stop  offset="0" style="stop-color:#FFFFFF;stop-opacity:0"/>
	<stop  offset="0.24" style="stop-color:#CBEFFB;stop-opacity:0.29"/>
	<stop  offset="0.51" style="stop-color:#95DFF7;stop-opacity:0.59"/>
	<stop  offset="0.74" style="stop-color:#6DD3F4;stop-opacity:0.81"/>
	<stop  offset="0.91" style="stop-color:#55CCF2;stop-opacity:0.95"/>
	<stop  offset="1" style="stop-color:#4CC9F1"/>
</linearGradient>
<path class="st0" d="M0,105.5c81.8-0.8,225.5-1,442,2.5c368.8,6,622.3,32,1061.3,75.5c194.9,19.3,407.3,17.9,496.7,16.2V4.9L0,0
	L0,105.5z"/>
<linearGradient id="SVGID_2_" gradientUnits="userSpaceOnUse" x1="-99.93" y1="-192.5501" x2="1900.0699" y2="-192.5501" gradientTransform="matrix(1 0 0 -1 99.93 -101.22)">
	<stop  offset="0" style="stop-color:#FFFFFF;stop-opacity:0"/>
	<stop  offset="5.000000e-02" style="stop-color:#F6EFFA;stop-opacity:6.000000e-02"/>
	<stop  offset="0.39" style="stop-color:#BD8DDD;stop-opacity:0.46"/>
	<stop  offset="0.67" style="stop-color:#9446C8;stop-opacity:0.75"/>
	<stop  offset="0.88" style="stop-color:#7B1ABB;stop-opacity:0.93"/>
	<stop  offset="1" style="stop-color:#7109B6"/>
</linearGradient>
<path class="st1" d="M0,0v87.3c84.7-0.6,221.2-0.4,417.7,2.8c368.8,6,622.3,32,1061.3,75.5c215.8,21.4,453.1,17.4,521,15.6V0H0z"/>
<path class="st2" d="M0,0v76.9c115-0.9,311.5-1.4,541.9,2.4c368.8,6,622.3,32,1061.3,75.5c140.8,14,290.7,17.1,396.8,17.1V0H0z"/>
</svg>
