<svg id="Layer_1" data-name="Layer 1" xmlns="http://www.w3.org/2000/svg" xmlns:xlink="http://www.w3.org/1999/xlink" viewBox="0 0 2000 200.73" preserveAspectRatio="none"><defs><style>.cls-1,.cls-3{opacity:0.5;}.cls-1{fill:url(#linear-gradient);}.cls-2{fill:#7e64b2;}.cls-3{fill:url(#linear-gradient-2);}</style><linearGradient id="linear-gradient" x1="1698.17" y1="403.58" x2="-429.62" y2="403.58" gradientUnits="userSpaceOnUse"><stop offset="0" stop-color="#fff" stop-opacity="0"/><stop offset="0.24" stop-color="#cbeffb" stop-opacity="0.29"/><stop offset="0.51" stop-color="#95dff7" stop-opacity="0.59"/><stop offset="0.74" stop-color="#6dd3f4" stop-opacity="0.81"/><stop offset="0.91" stop-color="#55ccf2" stop-opacity="0.95"/><stop offset="1" stop-color="#4cc9f1"/></linearGradient><linearGradient id="linear-gradient-2" x1="-273.3" y1="394.55" x2="1983.86" y2="394.55" gradientUnits="userSpaceOnUse"><stop offset="0" stop-color="#fff" stop-opacity="0"/><stop offset="0.05" stop-color="#f6effa" stop-opacity="0.06"/><stop offset="0.39" stop-color="#bd8ddd" stop-opacity="0.46"/><stop offset="0.67" stop-color="#9446c8" stop-opacity="0.75"/><stop offset="0.88" stop-color="#7b1abb" stop-opacity="0.93"/><stop offset="1" stop-color="#7109b6"/></linearGradient></defs><path class="cls-1" d="M-99.93,408.77c81.76-.77,225.49-1,442,2.55,368.76,6,622.34,32,1061.32,75.5,194.93,19.31,407.31,17.93,496.66,16.2V308.15l-2000-4.93Z" transform="translate(99.93 -303.22)"/><path class="cls-2" d="M-99.93,303.22v76.85c115-.88,311.48-1.35,541.91,2.4,368.76,6,622.34,32,1061.32,75.5,140.8,13.95,290.7,17.09,396.77,17.12V303.22Z" transform="translate(99.93 -303.22)"/><path class="cls-3" d="M-99.93,303.22v87.29c84.69-.57,221.22-.44,417.68,2.75,368.76,6,622.34,32,1061.32,75.5,215.85,21.38,453.09,17.39,521,15.65V303.22Z" transform="translate(99.93 -303.22)"/></svg>