<?xml version="1.0" encoding="utf-8"?>
<!-- Generator: Adobe Illustrator 25.0.0, SVG Export Plug-In . SVG Version: 6.00 Build 0)  -->
<svg version="1.1" id="Layer_1" xmlns="http://www.w3.org/2000/svg" xmlns:xlink="http://www.w3.org/1999/xlink" x="0px" y="0px"
	 viewBox="0 0 1920 1080" preserveAspectRatio="none" style="enable-background:new 0 0 1920 1080;" xml:space="preserve">
<style type="text/css">
	.st0{fill:#4CC9F1;}
	.st1{fill:#7653AD;}
	.st2{fill:#FFD150;}
	.st3{fill:none;stroke:#18327C;stroke-width:0.8143;stroke-linecap:round;stroke-linejoin:round;stroke-miterlimit:10;}
	.st4{fill:none;stroke:#18327C;stroke-width:0.8143;stroke-linejoin:round;stroke-miterlimit:10;}
	.st5{fill:none;stroke:#FFFFFF;stroke-width:2.2633;stroke-linecap:round;stroke-miterlimit:10;}
	.st6{fill:none;stroke:#FFFFFF;stroke-width:2.2633;stroke-linecap:round;stroke-linejoin:round;stroke-miterlimit:10;}
	.st7{fill:none;stroke:#18327C;stroke-width:1.5089;stroke-linecap:round;stroke-miterlimit:10;}
	.st8{fill:none;stroke:#18327C;stroke-width:1.081;stroke-miterlimit:10;}
	.st9{fill:none;stroke:#18327C;stroke-width:1.1184;stroke-miterlimit:10;}
	.st10{fill:none;stroke:#18327C;stroke-width:1.2107;stroke-miterlimit:10;}
	.st11{fill:none;stroke:#18327C;stroke-width:1.5089;stroke-linecap:round;stroke-linejoin:round;stroke-miterlimit:10;}
	.st12{fill:none;stroke:#18327C;stroke-width:1.6392;stroke-linecap:round;stroke-linejoin:round;stroke-miterlimit:10;}
	.st13{fill:none;stroke:#18327C;stroke-width:0.7924;stroke-linecap:round;stroke-miterlimit:10;}
	.st14{fill:none;stroke:#18327C;stroke-width:0.9;stroke-linecap:round;stroke-miterlimit:10;}
	.st15{fill:none;stroke:#18327C;stroke-width:0.6758;stroke-linecap:round;stroke-miterlimit:10;}
	.st16{fill:#FFFFFF;}
	.st17{fill:none;stroke:#FFFFFF;stroke-width:3.7722;stroke-linecap:round;stroke-miterlimit:10;}
	.st18{fill:none;stroke:#18327C;stroke-width:0.7924;stroke-miterlimit:10;}
	.st19{fill:none;stroke:#FFFFFF;stroke-width:3.8924;stroke-linecap:round;stroke-miterlimit:10;}
	.st20{fill:none;stroke:#FFFFFF;stroke-width:2.0799;stroke-miterlimit:10;}
	.st21{fill:none;stroke:#FFFFFF;stroke-width:1.5089;stroke-linecap:round;stroke-miterlimit:10;}
	.st22{fill:#EA3B5D;}
	.st23{fill:#B3E1FF;}
	.st24{fill:none;stroke:#B3E1FF;stroke-width:1.5089;stroke-miterlimit:10;}
	.st25{fill:none;stroke:#FFD150;stroke-width:0.5685;stroke-miterlimit:10;}
	.st26{fill:none;stroke:#0B132D;stroke-width:0.5989;stroke-linecap:round;stroke-linejoin:round;stroke-miterlimit:10;}
	.st27{fill:none;stroke:#0B132D;stroke-width:0.7739;stroke-linecap:round;stroke-linejoin:round;stroke-miterlimit:10;}
	.st28{fill:#DEF8FF;}
	.st29{fill:none;stroke:#222854;stroke-width:0.7313;stroke-linecap:round;stroke-miterlimit:10;}
	.st30{fill:#FCA575;}
	.st31{fill:#24375B;}
	.st32{fill:none;stroke:#FFFFFF;stroke-width:0.7544;stroke-linecap:round;stroke-miterlimit:10;}
	.st33{fill:none;stroke:#0B132D;stroke-width:0.646;stroke-linecap:round;stroke-linejoin:round;stroke-miterlimit:10;}
	.st34{fill:none;stroke:#24375B;stroke-width:0.7544;stroke-miterlimit:10;}
	.st35{fill:none;stroke:#24375B;stroke-width:3.0177;stroke-linecap:round;stroke-miterlimit:10;}
	.st36{fill:none;stroke:#FFFFFF;stroke-width:0.5658;stroke-miterlimit:10;}
	.st37{fill:#0B132D;}
	.st38{fill:none;stroke:#0B132D;stroke-width:0.646;stroke-linecap:round;stroke-miterlimit:10;}
	.st39{fill:none;stroke:#0B132D;stroke-width:0.7553;stroke-miterlimit:10;}
	.st40{fill:none;stroke:#0B132D;stroke-width:0.7548;stroke-linecap:round;stroke-miterlimit:10;}
	.st41{fill:#14143A;}
	.st42{fill:none;stroke:#FFFFFF;stroke-width:0.6245;stroke-miterlimit:10;}
	.st43{fill:none;stroke:#B3E1FF;stroke-width:1.5089;stroke-linecap:round;stroke-linejoin:round;stroke-miterlimit:10;}
	.st44{fill:none;stroke:#222854;stroke-width:0.7313;stroke-miterlimit:10;}
	.st45{fill:none;stroke:#222854;stroke-width:0.712;stroke-miterlimit:10;}
	.st46{fill:#212035;}
	.st47{fill:none;stroke:#FFFFFF;stroke-width:1.1228;stroke-linecap:round;stroke-miterlimit:10;}
	.st48{fill:none;stroke:#FFFFFF;stroke-width:0.7544;stroke-miterlimit:10;}
	.st49{fill:none;stroke:#212035;stroke-width:0.7895;stroke-linecap:round;stroke-miterlimit:10;}
	.st50{fill:#17143F;}
	.st51{font-family:'Gilroy-Light';}
	.st52{font-size:89.0206px;}
	.st53{font-size:71.5975px;}
	.st54{fill:none;stroke:#4CC9F1;stroke-width:1.9536;stroke-miterlimit:10;}
	.st55{fill:#7109B6;}
	.st56{opacity:0.5;fill:url(#SVGID_1_);}
	.st57{fill:#7E64B2;}
	.st58{opacity:0.5;fill:url(#SVGID_2_);}
	.st59{opacity:0.5;fill:url(#SVGID_3_);}
	.st60{opacity:0.5;fill:url(#SVGID_4_);}
</style>
<g>
	<g>
		<path class="st0" d="M893.02,620.16c20.58-43,37.05-113.35,114.31-169.67c73.42-53.52,151.26-44.72,212.85-36.82
			c105.24,13.5,168.83-17.6,247.53-69.31s130.83-103.77,253.05-64.26c53.61,17.33,90.23,54.95,95.39,131.4
			c3.78,56.09-17.96,145.65-90.66,228.87c-56.76,64.98-121.16,103.32-226.25,124.91c-130.07,26.71-202.6,54.87-434.36,0
			c-72.65-17.2-129.28-37.54-201.02,46.93c-61.7,72.66-94.02,21.18-47.3-47.65C870.94,684.41,868.25,671.88,893.02,620.16z"/>
		<path class="st1" d="M1668.97,856.97h-626.42c-3.35,0-6.06-2.71-6.06-6.06v-5.93c0-3.35,2.71-6.06,6.06-6.06h626.42
			c3.35,0,6.06,2.71,6.06,6.06v5.93C1675.02,854.26,1672.31,856.97,1668.97,856.97z"/>
		<path class="st2" d="M1521.9,832.79h-153.43c-3.35,0-6.06-2.71-6.06-6.06v-5.93c0-3.35,2.71-6.06,6.06-6.06h153.43
			c3.35,0,6.06,2.71,6.06,6.06v5.93C1527.96,830.07,1525.24,832.79,1521.9,832.79z"/>
		<path class="st3" d="M933.7,599.19l0.15-1.22c0.33-2.76,2.88-4.85,5.91-4.85h45.67l-8.5,70.54h-9.65"/>
		<polygon class="st3" points="1084.36,594.38 1075.18,664.92 1082.57,664.92 1092.52,594.38 		"/>
		<polygon class="st3" points="988.4,593.66 979.73,662.74 988.4,662.74 996.05,593.66 		"/>
		<polygon class="st3" points="1071.87,664.92 1020.87,664.92 1029.37,594.38 1080.36,594.38 		"/>
		<polygon class="st4" points="1061.77,616.29 1039.47,616.29 1040.8,605.59 1063.11,605.59 		"/>
		<polygon class="st3" points="1095.22,604.63 1117.01,604.11 1110.98,665.28 1085.38,664.92 		"/>
		<line class="st3" x1="1124.45" y1="598.74" x2="1115.95" y2="664.91"/>
		<line class="st3" x1="1130.25" y1="595.83" x2="1120.2" y2="664.91"/>
		<line class="st3" x1="1133.45" y1="605.48" x2="1125.01" y2="664.98"/>
		<polygon class="st3" points="1006.86,557.67 977.86,557.67 982.69,517.54 1011.7,517.54 		"/>
		<polygon class="st3" points="1001.12,530 988.43,530 989.19,523.92 1001.88,523.92 		"/>
		<polygon class="st3" points="1020.15,523.37 1032.55,523.08 1029.12,557.88 1014.55,557.67 		"/>
		<path class="st5" d="M1803.13,352.65c-63.85-22.38-109.58-3.61-126.76,14.51c-20.54,21.66-35.74,34.76-49.55,31.15
			c-13.8-3.61-24.59-2.17-34.97,7.94c-10.37,10.11-14.4,19.33-27.36,17.97c-12.97-1.36-24.92,21.59-9.88,24.55
			c11.25,2.22,201.82-1.58,258.75-2.27"/>
		<path class="st5" d="M1347.48,387.31"/>
		<path class="st5" d="M1464.41,347.69c14.8,10.74,19.6,11.97,31.78,10.27s16.01-1.77,24.74,4.04c8.73,5.81,14.79,8.24,26.34,7.75
			c11.56-0.49,18.45,0.65,18.55,7.3c0.1,6.65-2.36,8.82-15.32,8.82c-7.98,0-103.86,0.72-156.52,0.72"/>
		<path class="st6" d="M1715.29,377.94c-7.54,2.43-15.47,6.09-21.06,11.53c-14.08,13.72-24.73,26.02-39.9,26.01
			c-15.17-0.01-41.5-0.91-47.65,6.76"/>
		<path class="st6" d="M1747.48,389.92c-5.54,1.14-11,2.77-15.27,5.11c-14.31,7.81-24.41,14.88-24.41,14.88"/>
		<path class="st6" d="M1438.8,362.71c12.16,8.17,24.9,14.52,37.97,10.41c14.58-4.58,23.26-2.64,28.38,0"/>
		<path class="st6" d="M1740.85,367.09c0,0,20.5-2.89,37.05,0c13.12,2.29,33.98,13.24,33.98,13.24"/>
		<path class="st7" d="M1314.07,400.82c1.63-0.35,3.27-0.72,4.9-1.12"/>
		<path class="st7" d="M1295.99,403.78c3.33-0.39,6.66-0.86,9.98-1.42"/>
		<path class="st7" d="M947.98,640.69c-12.87-23.95-19.52-52.84-18.86-87.69c0.95-49.81,47.76-123.33,148.2-150.18
			c69.66-18.62,141.24,7.21,210.42,1.76"/>
		<path class="st7" d="M957.41,655.87c-1.64-2.29-3.21-4.64-4.71-7.04"/>
		<path class="st7" d="M964.11,664.53c-1.03-1.23-2.03-2.47-3.02-3.74"/>
		<path class="st7" d="M1017.74,707.04c-1.38-0.75-2.76-1.5-4.12-2.27"/>
		<path class="st7" d="M1036.59,716.2c-4.02-1.76-7.97-3.6-11.82-5.52"/>
		<path class="st7" d="M1776.12,475.9c-4.44,30.97-15.62,62.46-33.46,92.27c-103.27,172.56-247.43,184.13-421.7,185.93
			c-90.63,0.93-194.56-2.86-272.61-33.05"/>
		<path class="st7" d="M1778.25,440.64c0.16,6.38,0.01,12.83-0.43,19.32"/>
		<path class="st7" d="M1776.87,421.67c0.3,2.5,0.56,5,0.77,7.53"/>
		<path class="st7" d="M1722.77,315.5c1.74,1.56,3.44,3.16,5.1,4.78"/>
		<path class="st7" d="M1708.51,304.01c3.32,2.39,6.52,4.88,9.6,7.45"/>
		<path class="st7" d="M1449.19,318.65c54.4-40.14,99.44-63.96,177.58-48.68c28.15,5.5,52.33,15.11,72.58,27.87"/>
		<path class="st7" d="M1421.41,339.68c4.72-3.61,9.33-7.14,13.86-10.58"/>
		<path class="st7" d="M1406.41,351.13c2.23-1.69,4.43-3.37,6.61-5.03"/>
		<g>
			<path class="st8" d="M1635.65,617.37c-9.19-6.27-23.48-35.39-13.47-53.91c10.01-18.52,20.64-6.97,23-20.94
				c2.36-13.97-4.58-26.36,9.81-35.39c14.39-9.03,24.97-10.98,27.9-21.1c2.93-10.12,9.66-16.42,25.23-25.03
				c15.57-8.61,37.96,5.05,29.31,20.34c-7.29,12.89-5.48,29.56-1.16,38.54c4.32,8.98,8.49,16.41-2.32,27.21s-22.3,14.9-21.28,30.4
				c1.02,15.5,11.32,22.41-8.16,33.99C1678.07,627.24,1650.65,627.61,1635.65,617.37z"/>
			<path class="st8" d="M1724.29,458.79c0,0-21.02,27.95-47.99,79.24c-22.31,42.44-24.57,85.5-24.57,85.5"/>
			<path class="st8" d="M1633.08,552.45c2.13,16.09,20.83,53.46,20.83,53.46"/>
			<path class="st8" d="M1654.99,507.13c0,0,4.22,7.95,6.61,20.21c2.39,12.26,7.21,26.63,7.21,26.63s12.07-12.19,29.16-15.99
				c17.09-3.81,41.47-9.22,41.47-9.22"/>
			<path class="st8" d="M1691.25,472.49c0,0,4.71,8.26,3.76,15.62c-0.95,7.35-0.44,16.85-0.44,16.85"/>
			<path class="st8" d="M1695.68,503.07c0,0,11.53-6.66,18.47-10.89c6.94-4.23,20.94-5.78,20.94-5.78"/>
			<path class="st8" d="M1653.75,604.29c0,0,21.83-10.5,31.6-15.81s27.77-7.22,27.77-7.22"/>
		</g>
		<g>
			<g>
				<path class="st8" d="M1617.78,651.15c4.31-5.86,6.29-27.25-4.56-36.96c-10.86-9.71-14.79-0.21-19.68-8.6
					c-4.89-8.38-3.5-17.66-14.83-20.46s-18.51-1.87-22.84-7.7c-4.32-5.83-10.12-8.45-22.1-10.74
					c-11.97-2.29-22.86,10.95-13.66,18.89c7.76,6.7,10.67,17.64,10.11,24.22c-0.56,6.58-1.4,12.15,8.09,16.8
					c9.48,4.65,17.77,4.91,20.89,14.95c3.12,10.04-1.73,16.53,13.44,19.91C1593.25,666.06,1610.75,660.71,1617.78,651.15z"/>
				<path class="st8" d="M1523.87,569.14c0,0,19.23,12.91,48.81,39.96c24.48,22.38,36.38,49.24,36.38,49.24"/>
				<path class="st8" d="M1603.62,609.43c0,0-1.79,1.99-1.04,11.85s0.82,26.32,0.82,26.32"/>
				<path class="st8" d="M1578.7,585.14c0,0-0.74,5.91,0.72,14.18c1.46,8.27,1.9,18.37,1.9,18.37s-10.62-5.27-22.39-4.2
					c-11.77,1.07-28.56,2.61-28.56,2.61"/>
				<path class="st8" d="M1547.26,570.55c0,0-0.98,6.2,1.41,10.68c2.39,4.47,4.37,10.61,4.37,10.61"/>
				<path class="st8" d="M1551.88,590.86c0,0-8.93-1.87-14.37-3.14c-5.43-1.27-14.69,0.6-14.69,0.6"/>
				<path class="st8" d="M1603.11,646.54c0,0-16.41-2.21-23.9-3.59c-7.49-1.38-19.38,1.08-19.38,1.08"/>
			</g>
			<path class="st8" d="M1608.67,657.65c0,0,4.18,6.81,8.16,13.4c3.98,6.59,12.34,20,12.34,20"/>
		</g>
		<path class="st9" d="M1652,623.52c0,0-2.47,11.32-4.95,26.63c-1.17,7.24-1.84,19.14-2.22,29.69"/>
		<path class="st8" d="M1468.2,403.06c0,0,11.81-0.9,21.96,4.47s6.94,9.26,6.94,9.26S1482.9,417,1468.2,403.06z"/>
		<path class="st8" d="M1497.65,416.55c0,0,3.15-7.94,11.04-11.55s14.19-6.5,14.19-6.5S1516.57,412.94,1497.65,416.55z"/>
		<ellipse class="st10" cx="1554.02" cy="494.89" rx="8.28" ry="7.58"/>
		<ellipse class="st10" cx="1602.5" cy="480.09" rx="4.34" ry="3.97"/>
		<ellipse class="st10" cx="1594.22" cy="527.38" rx="15.77" ry="14.44"/>
		<path class="st8" d="M1473.46,440.99c0,0,5.34-0.41,9.93,2.02s3.14,4.19,3.14,4.19S1480.11,447.3,1473.46,440.99z"/>
		<path class="st8" d="M1486.78,447.1c0,0,1.43-3.59,4.99-5.23c3.57-1.63,6.42-2.94,6.42-2.94S1495.34,445.47,1486.78,447.1z"/>
		<path class="st8" d="M1510.27,425.02c0,0,7.66-0.59,14.25,2.9c6.59,3.49,4.5,6.01,4.5,6.01S1519.8,434.06,1510.27,425.02z"/>
		<path class="st8" d="M1529.37,433.77c0,0,2.05-5.15,7.16-7.49s9.21-4.22,9.21-4.22S1541.65,431.43,1529.37,433.77z"/>
		<g>
			<polygon class="st11" points="1295.34,340.12 1276.62,339.4 1275.87,339.15 1274.12,324.41 1247.04,361.33 			"/>
			<polyline class="st12" points="1280.87,347.24 1280.33,350.49 1246.97,361.68 1276.14,339.3 			"/>
		</g>
		<path class="st13" d="M1118.08,537.85h-69.37c-5.88,0-10.64-4.36-10.64-9.75l0,0c0-5.38,4.76-9.75,10.64-9.75h69.37"/>
		<path class="st13" d="M1116.1,534.24h-67.35c-3.64,0-6.58-2.7-6.58-6.03l0,0c0-3.33,2.95-6.03,6.58-6.03h67.35"/>
		<path class="st13" d="M1115.67,532.86c-0.96-1.11-1.53-2.51-1.53-4.04c0-1.79,0.79-3.42,2.08-4.59"/>
		<path class="st13" d="M1115.71,516.87h-69.19c-3.62,0-6.56-2.69-6.56-6.01l0,0c0-3.32,2.94-6.01,6.56-6.01h68.4"/>
		<path class="st13" d="M1115.71,514.65h-69.16c-2.24,0-4.06-1.66-4.06-3.72l0,0c0-2.05,1.82-3.72,4.06-3.72h69.95"/>
		<path class="st13" d="M1078.36,513.8c-0.59-0.68-0.95-1.55-0.95-2.49c0-1.11,0.49-2.11,1.28-2.83"/>
		<path class="st13" d="M1112.31,513.85c-0.59-0.68-0.95-1.55-0.95-2.49c0-1.11,0.49-2.11,1.28-2.83"/>
		<path class="st14" d="M1087.15,487.27h69.37c5.88,0,10.64-5.63,10.64-12.57v0c0-6.94-4.76-12.57-10.64-12.57h-69.37"/>
		<path class="st14" d="M1089.13,482.62h67.35c3.64,0,6.58-3.48,6.58-7.78v0c0-4.29-2.95-7.78-6.58-7.78h-67.35"/>
		<path class="st14" d="M1089.56,480.84c0.96-1.43,1.53-3.24,1.53-5.21c0-2.31-0.79-4.41-2.08-5.93"/>
		<path class="st14" d="M1132.59,479.92c0.96-1.43,1.53-3.24,1.53-5.21c0-2.31-0.79-4.41-2.08-5.93"/>
		<path class="st14" d="M1095.76,462.04h52.09c4.41,0,7.99-4.23,7.99-9.44l0,0c0-5.21-3.58-9.44-7.99-9.44h-52.09"/>
		<path class="st15" d="M1097.25,458.54h50.57c2.73,0,4.94-2.61,4.94-5.84v0c0-3.23-2.21-5.84-4.94-5.84h-50.57"/>
		<path class="st15" d="M1097.57,457.2c0.72-1.07,1.15-2.43,1.15-3.91c0-1.74-0.6-3.31-1.56-4.45"/>
		<path class="st15" d="M1129.89,456.52c0.72-1.07,1.15-2.43,1.15-3.91c0-1.74-0.6-3.31-1.56-4.45"/>
		<line class="st15" x1="1096.62" y1="475.08" x2="1128.16" y2="475.08"/>
		<line class="st15" x1="1090.85" y1="478.41" x2="1114.14" y2="478.41"/>
		<line class="st15" x1="1090.49" y1="471.78" x2="1106.25" y2="471.78"/>
		<line class="st15" x1="1104.68" y1="451.57" x2="1122.81" y2="451.57"/>
		<line class="st15" x1="1109.41" y1="454.46" x2="1125.96" y2="454.46"/>
		<line class="st15" x1="1133.85" y1="471.78" x2="1148.82" y2="471.78"/>
		<line class="st15" x1="1137.79" y1="477.56" x2="1157.5" y2="477.56"/>
		<line class="st15" x1="1134.63" y1="451.57" x2="1144.09" y2="451.57"/>
		<line class="st15" x1="1134.63" y1="454.46" x2="1148.82" y2="454.46"/>
		<path class="st13" d="M1072.95,532.66c-1-1.19-1.59-2.69-1.59-4.33c0-1.92,0.82-3.67,2.16-4.93"/>
		<ellipse class="st16" cx="1590.8" cy="344.92" rx="16.43" ry="15.05"/>
		<path class="st1" d="M1173.96,495.25h-87.72c-1.1,0-1.99-0.89-1.99-1.99v-1.95c0-1.1,0.89-1.99,1.99-1.99h87.72
			c1.1,0,1.99,0.89,1.99,1.99v1.95C1175.95,494.36,1175.05,495.25,1173.96,495.25z"/>
		<ellipse class="st16" cx="1052.26" cy="476.48" rx="7.09" ry="6.5"/>
		<ellipse class="st16" cx="1151.19" cy="536.04" rx="3.55" ry="3.25"/>
		<ellipse class="st16" cx="1122.42" cy="425.22" rx="3.15" ry="2.89"/>
		<path class="st1" d="M1125.83,544.41h-87.72c-1.1,0-1.99-0.89-1.99-1.99v-1.95c0-1.1,0.89-1.99,1.99-1.99h87.72
			c1.1,0,1.99,0.89,1.99,1.99v1.95C1127.82,543.52,1126.93,544.41,1125.83,544.41z"/>
		<path class="st1" d="M1183.38,581.95h-87.72c-1.1,0-1.99-0.89-1.99-1.99v-1.95c0-1.1,0.89-1.99,1.99-1.99h87.72
			c1.1,0,1.99,0.89,1.99,1.99v1.95C1185.37,581.06,1184.48,581.95,1183.38,581.95z"/>
		<line class="st17" x1="956.08" y1="560.23" x2="1068.42" y2="560.59"/>
		<rect x="1110.59" y="569.62" class="st18" width="63.85" height="6.5"/>
		<line class="st19" x1="969.48" y1="667.25" x2="1133.45" y2="667.25"/>
		<polygon class="st18" points="1164.59,569.49 1113.13,569.49 1113.13,564.25 1163.01,564.25 		"/>
		<polygon class="st18" points="1153.57,563.8 1118.47,563.8 1118.47,560.23 1152.49,560.23 		"/>
		<path class="st16" d="M1208.03,579c-2.85,0-5.04,2.35-4.54,4.92c2.35,12.13,10.69,21.1,20.62,21.1c9.93,0,18.27-8.97,20.62-21.1
			c0.5-2.57-1.69-4.92-4.54-4.92H1208.03z"/>
		<path class="st16" d="M1204.57,602.93c2.44,2.4,5.47,4.5,8.7,6.4h21.9c0.58-0.4,1.19-0.8,1.82-1.2c1.97-1.76,4.04-3.46,6.03-5.2
			H1204.57z"/>
		
			<ellipse transform="matrix(0.4602 -0.8878 0.8878 0.4602 125.9489 1391.5897)" class="st20" cx="1207.29" cy="592.23" rx="5.34" ry="8.24"/>
		<path class="st21" d="M1215.84,515.05c1.1,2.34,1.13,5,0.6,7.49c-0.53,2.5-1.61,4.86-2.67,7.21"/>
		<path class="st21" d="M1211.72,536.4c-1.23,2.68-1.93,5.56-2.05,8.47"/>
		<path class="st21" d="M1209.88,550.33c0.18,2.11,0.78,4.18,1.75,6.1"/>
		<path class="st21" d="M1213.44,560.22c0.71,1.24,1.64,2.38,2.74,3.35"/>
		<path class="st21" d="M1215.6,497.67c2.94,2.35,4.35,5.88,5.64,9.25"/>
		<path class="st21" d="M1223.83,515.48c0.1,8.76-2.93,17.27-5.93,25.58"/>
		<path class="st21" d="M1217.5,546.68c-0.12,2.48,0.36,4.98,1.39,7.27"/>
		<path class="st21" d="M1220.51,559.57c1.14,2.14,2.65,4.11,4.46,5.81"/>
		<path class="st21" d="M1226.37,570.08c0.21,1.61,0.02,3.27-0.56,4.81"/>
		<path class="st21" d="M1228.55,531.09c-0.41,2.47-1.05,4.9-1.89,7.28"/>
		<path class="st21" d="M1224.78,548.59c-0.04,2.29,0.34,4.59,1.12,6.76"/>
		<path class="st22" d="M1510.66,650.48h-15.36c-3.9-4.44-7.64-27.55-1.25-34.66h15.82c2.83,0,5.12-2.1,5.12-4.69
			s-2.29-4.69-5.12-4.69h-5.23h-226.54h-65.94c-16.48,0-29.84,12.26-29.84,27.37v0c0,15.12,13.36,27.37,29.84,27.37h290.51
			c-0.12-0.82-0.52-1.75-1.11-2.76h9.1c2.39,0,4.34-1.78,4.34-3.97S1513.06,650.48,1510.66,650.48z"/>
		<ellipse class="st23" cx="1375.07" cy="634.24" rx="11.43" ry="6.14"/>
		<ellipse class="st24" cx="1374.71" cy="634.43" rx="17.85" ry="9.58"/>
		<ellipse class="st23" cx="1343.54" cy="634.96" rx="4.34" ry="2.53"/>
		<ellipse class="st23" cx="1327.77" cy="634.96" rx="4.34" ry="2.53"/>
		<path class="st24" d="M1228.45,606.34c0,0-18.53,4.5-18.53,26.22c0,12.74,7.67,26.22,19.81,26.22"/>
		<path class="st24" d="M1246.48,605.72c0,0-18.53,4.5-18.53,26.22c0,12.74,7.67,26.22,19.81,26.22"/>
		<path class="st25" d="M1426.28,608.02c0,0-12.98,4.33-12.98,25.27c0,12.27,5.37,25.27,13.88,25.27"/>
		<path class="st26" d="M1442.76,607.36c0,0-13.69,4.33-13.69,25.27c0,12.27,5.66,25.27,14.63,25.27"/>
		<path class="st1" d="M1536.84,658.09h-361.11c-1.74,0-6.41,0.33-6.41,0.33c-5.88,0-10.64,2.92-10.64,8.3l0,0
			c0,5.38,4.76,8.3,10.64,8.3l3.54,0.72c1.86,4.85,3.37,9.82,4.54,14.81c1.53,6.49,2.55,13.16,2.94,19.85h-16.54
			c-3.7,0-6.7,4.91-6.7,8.3l0,0c0,3.39,3,6.14,6.7,6.14h16.54c-0.02,0.24-0.03,0.48-0.04,0.72h356.55
			c20.35,0,36.84-15.11,36.84-33.74v0C1573.68,673.19,1557.19,658.09,1536.84,658.09z"/>
		<path class="st23" d="M1435.64,658.07h-22.24v0.31c18.66,1.65,33.25,16.05,33.25,33.58v0c0,17.6-14.72,32.05-33.5,33.6h22.49
			c20.35,0,36.84-15.11,36.84-33.74v0C1472.48,673.17,1455.98,658.07,1435.64,658.07z"/>
		<path class="st23" d="M1514.25,658.12h-22.24v0.31c18.66,1.65,33.25,16.05,33.25,33.58v0c0,17.6-14.72,32.05-33.5,33.6h22.49
			c20.35,0,36.84-15.11,36.84-33.74v0C1551.09,673.23,1534.6,658.12,1514.25,658.12z"/>
		<path class="st27" d="M1377.44,658.06c0,0,35.47,3.61,35.47,31.05c0,17.33-14.19,35.38-44.93,35.38"/>
		<path class="st27" d="M1468.64,658.54c0,0,35.47,3.61,35.47,31.05c0,17.33-14.19,35.38-44.93,35.38"/>
		<path class="st27" d="M1530.76,658.31c0,0,35.47,3.61,35.47,31.05c0,17.33-14.19,35.38-44.93,35.38"/>
		<path class="st28" d="M1358.26,675.03H1169.2c0.77,11.92,0.31,24.18-3.84,35.38h192.89c10.81,0,19.57-7.92,19.57-17.69l0,0
			C1377.83,682.95,1369.07,675.03,1358.26,675.03z"/>
		<path class="st28" d="M1444.72,615.82h59.83c-0.24,11.68-0.1,23.68,1.22,34.66h-61.05c-3.42,0-6.19-7.76-6.19-17.33v0
			C1438.53,623.58,1441.3,615.82,1444.72,615.82z"/>
		<line class="st29" x1="1168.93" y1="685.86" x2="1224.11" y2="685.86"/>
		<line class="st29" x1="1237.9" y1="685.5" x2="1258.4" y2="685.5"/>
		<line class="st29" x1="1271.8" y1="685.5" x2="1313.58" y2="685.5"/>
		<line class="st29" x1="1325.41" y1="685.5" x2="1344.33" y2="685.5"/>
		<line class="st29" x1="1356.15" y1="685.5" x2="1377.44" y2="685.5"/>
		<line class="st29" x1="1169.32" y1="694.16" x2="1181.93" y2="694.16"/>
		<line class="st29" x1="1192.18" y1="694.16" x2="1244.21" y2="694.16"/>
		<line class="st29" x1="1248.94" y1="694.16" x2="1269.44" y2="694.16"/>
		<line class="st29" x1="1275.74" y1="694.16" x2="1331.71" y2="694.16"/>
		<line class="st29" x1="1339.6" y1="694.16" x2="1377.44" y2="694.16"/>
		<line class="st29" x1="1167.74" y1="703.55" x2="1218.2" y2="703.55"/>
		<line class="st29" x1="1229.23" y1="703.55" x2="1267.07" y2="703.55"/>
		<line class="st29" x1="1278.11" y1="703.55" x2="1373.49" y2="703.55"/>
		<line class="st27" x1="1446.81" y1="645.07" x2="1464.67" y2="645.07"/>
		<line class="st27" x1="1476.59" y1="645.07" x2="1487.96" y2="645.07"/>
		<line class="st27" x1="1442.08" y1="637.12" x2="1461.22" y2="637.12"/>
		<line class="st27" x1="1468.09" y1="637.12" x2="1490.16" y2="637.12"/>
		<line class="st27" x1="1494.89" y1="637.12" x2="1505.14" y2="637.12"/>
		<line class="st27" x1="1491.74" y1="645.07" x2="1505.14" y2="645.07"/>
		<line class="st27" x1="1505.14" y1="632.79" x2="1484.65" y2="632.79"/>
		<line class="st27" x1="1480.7" y1="632.79" x2="1474.4" y2="632.79"/>
		<line class="st27" x1="1472.03" y1="632.79" x2="1441.29" y2="632.79"/>
		<line class="st27" x1="1442.87" y1="627.74" x2="1453.9" y2="627.74"/>
		<line class="st27" x1="1457.84" y1="627.74" x2="1476.76" y2="627.74"/>
		<line class="st27" x1="1479.13" y1="627.74" x2="1499.62" y2="627.74"/>
		<line class="st27" x1="1501.99" y1="627.74" x2="1504.35" y2="627.74"/>
		<line class="st27" x1="1504.35" y1="623.41" x2="1480.7" y2="623.41"/>
		<line class="st27" x1="1477.55" y1="623.41" x2="1462.57" y2="623.41"/>
		<line class="st27" x1="1459.42" y1="623.41" x2="1443.65" y2="623.41"/>
		<line class="st27" x1="1452.33" y1="619.8" x2="1468.09" y2="619.8"/>
		<line class="st27" x1="1473.61" y1="619.8" x2="1494.89" y2="619.8"/>
		<path class="st1" d="M1489.18,496.61c-25.42-53.34-63.26-68.51-63.26-68.51s0,0.03,0,0.08c-2.4-1.27-5.19-2.21-8.41-2.74
			c-17.75-2.96-26.26-4.12-34.69-3.88c-7.24,0.21-25.45,0.73-33.92,0.44c-12.85-0.44-40.18,3.63-47.89,10.67
			c0,0-37.48,22.15-57.97,66.2c-13.85,29.75,2.27,39.72,59.91,41.88c4.04,0.15,7.98,0.01,11.8-0.35c0.61,3.03,1.1,5.54,1.43,7.32
			c6.07,32.79,88.54,32.96,97.09,1.11c0.96-3.58,1.96-7.19,2.98-10.81c4.2,0.46,8.55,0.65,13.03,0.48
			C1486.91,536.33,1503.3,526.25,1489.18,496.61z"/>
		<g>
			<path class="st30" d="M1389.55,420.97l-7.35-37.89l-32.68,5.23l-4.51,33.08c-4.35,0.39-8.92,1.15-13.32,2.09
				c1.19,9.73,16.02,17.42,34.16,17.42c18.74,0,33.95-8.21,34.23-18.4C1396.35,421.82,1392.69,421.45,1389.55,420.97z"/>
		</g>
		<path class="st31" d="M1373.42,411.7c4.3-3.5,8.16-7.81,11.7-12.59l-3.1-16l-32.68,5.23l-4.36,32.03
			C1354.73,422.02,1365.38,418.24,1373.42,411.7z"/>
		<g>
			<path class="st32" d="M1325.23,424.12c0,0,7.89,19.47,31.32,22.04c23.42,2.57,39.02-2.53,51.63-22.02"/>
			<line class="st32" x1="1366.2" y1="446.8" x2="1367.35" y2="466.54"/>
			<ellipse class="st16" cx="1374.28" cy="453.01" rx="2.76" ry="2.53"/>
			<ellipse class="st16" cx="1374.28" cy="463.84" rx="2.76" ry="2.53"/>
			<path class="st27" d="M1274.34,491.64c0,0,6.34,3.75,25.35,11.98s28,9.04,28,9.04"/>
			<path class="st27" d="M1299.31,459.87c0,0,0.82,11.61,7.17,20.58c6.35,8.97,7.58,19.82,7.58,19.82"/>
			<path class="st27" d="M1457.86,489.39c0,0-6.34,3.75-25.35,11.98c-19.01,8.23-28,9.04-28,9.04"/>
			<path class="st27" d="M1432.89,457.62c0,0-0.82,11.61-7.17,20.58c-6.35,8.97-7.58,19.82-7.58,19.82"/>
		</g>
		<g>
			<path class="st30" d="M1399.07,368.79c-2.77-0.94-5.96,0.04-8.59,2.3c-2.81-14.34-13.23-24.99-25.65-24.99
				c-12.56,0-23.06,10.88-25.74,25.45c-2.64-2.26-5.82-3.24-8.59-2.3c-4.61,1.56-6.33,7.81-3.84,13.94
				c2.48,6.14,8.23,9.84,12.84,8.28c0.56-0.19,1.08-0.46,1.56-0.78c5.41,12.2,17.79,20.83,23.78,20.93
				c7.45,0.12,19.19-8.74,24.11-21.15c0.36,0.21,0.74,0.39,1.14,0.53c4.61,1.56,10.35-2.14,12.84-8.28
				C1405.4,376.6,1403.68,370.35,1399.07,368.79z"/>
		</g>
		<path class="st16" d="M1356.55,395.61c0.09,2.26,3.93,4.08,8.67,4.08c4.74,0,8.58-1.82,8.67-4.08c0,0-2.36,1.07-9.45,1.07
			C1359.7,396.68,1356.55,395.61,1356.55,395.61z"/>
		<line class="st33" x1="1362.46" y1="403.78" x2="1366.79" y2="403.56"/>
		<path class="st31" d="M1391.19,340.22c-7.67-6.64-15.42-7.99-26.77-8.15c-24.2-0.33-37.73,10.31-33.11,29.6
			c1.87,7.82,8.19,18.73,8.19,18.73c-0.48,0.76-0.6-12.56,3.1-18.48c5.12,0.71,10.74,0.37,18.51-1.15
			c7.88-1.54,14.68-3.99,19.02-6.59c1.88,0.12,3.6,2.27,5.06,4.16c3.33,4.33,5.33,24.52,5.33,24.52s6.64-15.57,7.01-21.2
			C1398.22,351.42,1395.96,344.35,1391.19,340.22z"/>
		<path class="st34" d="M1385.32,350.49c0,0-11.04,10.11-26.8,13c-9.59,1.76-21.28,2.17-21.28,2.17"/>
		<path class="st35" d="M1344.33,371.43c0,0,2.82-3.29,6.53-3.81s5.87,0,5.87,0"/>
		<path class="st35" d="M1382.31,368.5c0,0-2.82-3.29-6.53-3.81c-3.71-0.52-5.87,0-5.87,0"/>
		<path class="st36" d="M1330.14,354.82c0,0,11.82,5.05,30.74,0c19.81-5.29,32.99-11.59,32.99-11.59"/>
		<path class="st36" d="M1332.85,344.65c0,0,13.11,6.05,26.46,4.39c17.98-2.24,31.89-8.82,31.89-8.82"/>
		<path class="st33" d="M1361.86,372.75c0,0,1.01,8.47-0.34,12.43c-1.35,3.96-2.22,6.47-2.22,6.47l4.73,0.72"/>
		<ellipse class="st37" cx="1352.04" cy="379.04" rx="1.97" ry="2.73"/>
		<ellipse class="st37" cx="1376.43" cy="378.44" rx="1.97" ry="2.73"/>
		<path class="st38" d="M1348.42,376.82c0,0,0.61-1.66,3-1.78c2.39-0.13,3.36,1.69,3.36,1.69"/>
		<path class="st38" d="M1379.61,376.25c0,0-0.61-1.66-3-1.78c-2.39-0.13-3.36,1.69-3.36,1.69"/>
		<ellipse class="st39" cx="1350.62" cy="378.64" rx="10.26" ry="9.4"/>
		<ellipse class="st39" cx="1376.65" cy="378.86" rx="10.26" ry="9.4"/>
		<path class="st40" d="M1360.88,377.2c0.87-0.68,1.59-0.72,2.81-0.72c1.04,0,2.01,0.3,2.82,0.81"/>
		<path class="st7" d="M1247.87,383.39c14.57,0.62,24.02,0.65,24.02,0.65"/>
		<path class="st7" d="M1201.86,379.24c9.08,1.05,17.26,1.89,24.66,2.53"/>
		<path class="st7" d="M1133.22,372.61c11.94,0.01,23.9,0.79,35.71,2.42"/>
		<path class="st7" d="M1058.4,382.28c15.8-4.12,32.3-7.03,49.04-8.52"/>
		<path class="st7" d="M1020.64,394.92c4.97-2.07,10.07-4.01,15.28-5.83"/>
		<path class="st7" d="M980.69,417.5c7.53-5.66,15.77-11.03,24.61-15.58"/>
		<path class="st7" d="M955.97,439.24c2.12-2.15,4.37-4.35,6.75-6.57"/>
		<path class="st7" d="M944.87,451.22c1.01-1.16,2.08-2.37,3.2-3.62"/>
		<path class="st7" d="M933.22,465.82c0,0,0.89-1.29,2.6-3.53"/>
		<path class="st7" d="M1116.68,346.86c10.23,0.01,20.47,0.66,30.59,2"/>
		<path class="st7" d="M1052.6,354.87c13.54-3.41,27.66-5.82,42-7.06"/>
		<path class="st7" d="M1020.26,365.35c4.26-1.71,8.63-3.33,13.09-4.83"/>
		<path class="st7" d="M986.04,384.06c6.45-4.69,13.51-9.14,21.08-12.91"/>
		<path class="st7" d="M1641.37,723.95c-2.36,1.23-4.75,2.42-7.16,3.56"/>
		<path class="st7" d="M1660.35,712.83c-3.5,2.29-7.08,4.49-10.72,6.59"/>
		<path class="st7" d="M1708.29,678.49c-9.81,9.2-20.68,17.81-32.38,25.5"/>
		<path class="st7" d="M1730.63,657.68c-3.07,3.2-6.28,6.35-9.63,9.44"/>
		<path class="st7" d="M1744.82,639.24c-1.83,2.72-3.78,5.4-5.86,8.01"/>
		<path class="st7" d="M1751.98,627.32c-0.98,1.83-2.01,3.67-3.1,5.49"/>
		<path class="st7" d="M1719.24,698.13c-5.1,4.83-10.48,9.47-16.09,13.9"/>
		<path class="st7" d="M1732.96,684.02c-2.38,2.66-4.84,5.29-7.37,7.87"/>
		<path class="st7" d="M1675.63,731.36c-4.42,2.55-8.94,4.99-13.56,7.29"/>
		<path class="st7" d="M1697.66,717.03c-3.7,2.7-7.51,5.32-11.42,7.84"/>
		<path class="st41" d="M1344.09,314.38v21.84c0,0,5.69,1.63,16.44,1.63c10.75,0,23.12-2.59,23.12-2.59v-20.88H1344.09z"/>
		<path class="st41" d="M1409.44,314.98h-92.19c-0.94,0-1.7-0.76-1.7-1.7v-1.66c0-0.94,0.76-1.7,1.7-1.7h92.19
			c0.94,0,1.7,0.76,1.7,1.7v1.66C1411.14,314.22,1410.38,314.98,1409.44,314.98z"/>
		<line class="st42" x1="1343.54" y1="315.11" x2="1384.14" y2="315.11"/>
		<polygon class="st1" points="1326.59,348.68 1322.65,345.07 1319.26,348.68 1319.26,314.67 1326.59,314.67 		"/>
		<path class="st22" d="M1438.43,839.65h-303.8c-21.28,0-38.53-17.25-38.53-38.53V763.4c0-21.28,17.25-38.53,38.53-38.53h303.8
			V839.65z"/>
		<path class="st23" d="M1136.62,788.3v-12.04c0-26.48,21.88-48.27,49.98-51.06h30.94c1.13-0.07,2.26-0.13,3.4-0.14v-0.02h-53.91
			c-28.1,2.79-49.98,24.58-49.98,51.06v12.04c0,28.37,25.11,51.37,56.09,51.37h15.43C1159.53,837.57,1136.62,815.39,1136.62,788.3z"
			/>
		<path class="st23" d="M1194,788.37v-12.04c0-26.48,21.88-48.27,49.98-51.06h30.94c1.13-0.07,2.26-0.13,3.4-0.14v-0.02h-53.91
			c-28.1,2.79-49.98,24.58-49.98,51.06v12.04c0,28.37,25.11,51.37,56.09,51.37h15.43C1216.9,837.64,1194,815.46,1194,788.37z"/>
		<path class="st24" d="M1226.35,787.93V775.9c0-26.48,21.88-48.27,49.98-51.06h30.94c1.13-0.07,2.26-0.13,3.4-0.14v-0.02h-53.91
			c-28.1,2.79-49.98,24.58-49.98,51.06v12.04c0,28.37,25.11,51.37,56.09,51.37h15.43C1249.26,837.21,1226.35,815.03,1226.35,787.93z
			"/>
		<path class="st43" d="M1164.64,788.34V776.3c0-26.48,21.88-48.27,49.98-51.06h30.94c1.13-0.07,2.26-0.13,3.4-0.14v-0.02h-53.91
			c-28.1,2.79-49.98,24.58-49.98,51.06v12.04c0,28.37,25.11,51.37,56.09,51.37h15.43C1187.55,837.61,1164.64,815.43,1164.64,788.34z
			"/>
		<path class="st41" d="M1554.95,764.87c0.41-7.34,1.68-14.73,5.47-21.11h39.62c5.7,0,10.32-4.23,10.32-9.45
			c0-5.22-4.62-9.45-10.32-9.45h-38.37h-93.06h-164.09c-33.24,0-60.19,24.68-60.19,55.12v0.28c0,32.79,29.02,59.37,64.82,59.37
			h156.05c0.03,0,0.06,0,0.09,0h131.43c5.7,0,10.32-4.23,10.32-9.45c0-5.22-4.62-9.45-10.32-9.45h-34.97
			c-1.05-1.98-1.94-4-2.67-6.05c-3.01-6.6-5.31-13.67-4.95-20.55c-0.06-0.26-0.13-0.52-0.19-0.78c-1.21-5.61-2.21-12.59-0.39-18.49
			C1553.72,771.53,1554.13,768.14,1554.95,764.87z"/>
		<path class="st28" d="M1579.16,776.45c0.18-10.96,1.55-22.49,5.94-32.83h-274.36c-23.9,0-43.28,17.29-43.28,38.63v0
			c0,21.33,19.38,38.63,43.28,38.63h273.03C1579.64,806.45,1578.92,791.29,1579.16,776.45z"/>
		<path class="st44" d="M1560.72,755.88"/>
		<path class="st44" d="M1275.48,759.53"/>
		<line class="st45" x1="1297.82" y1="809.68" x2="1367.98" y2="809.68"/>
		<line class="st45" x1="1387.68" y1="809.68" x2="1404.24" y2="809.68"/>
		<line class="st45" x1="1425.52" y1="809.68" x2="1494.89" y2="809.68"/>
		<line class="st45" x1="1517.76" y1="809.68" x2="1561.11" y2="809.68"/>
		<line class="st44" x1="1278.11" y1="793.08" x2="1333.29" y2="793.08"/>
		<line class="st44" x1="1349.06" y1="793.08" x2="1472.03" y2="793.08"/>
		<line class="st44" x1="1482.28" y1="793.08" x2="1579.24" y2="793.08"/>
		<line class="st44" x1="1269.83" y1="780.08" x2="1412.91" y2="780.08"/>
		<line class="st44" x1="1423.16" y1="780.08" x2="1446.81" y2="780.08"/>
		<line class="st44" x1="1456.27" y1="780.08" x2="1531.16" y2="780.08"/>
		<line class="st44" x1="1541.41" y1="780.08" x2="1579.24" y2="780.08"/>
		<line class="st44" x1="1275.74" y1="765.64" x2="1333.29" y2="765.64"/>
		<line class="st44" x1="1344.33" y1="765.64" x2="1427.89" y2="765.64"/>
		<line class="st44" x1="1434.98" y1="765.64" x2="1498.05" y2="765.64"/>
		<line class="st44" x1="1505.93" y1="765.64" x2="1543.77" y2="765.64"/>
		<line class="st44" x1="1553.23" y1="765.64" x2="1579.24" y2="765.64"/>
		<line class="st29" x1="1293.09" y1="754.09" x2="1400.3" y2="754.09"/>
		<line class="st44" x1="1408.97" y1="754.09" x2="1458.63" y2="754.09"/>
		<line class="st44" x1="1466.52" y1="754.09" x2="1580.82" y2="754.09"/>
		<path class="st16" d="M1245.78,574.32c0,0,34.7,30.22,49.11,38.16c14.41,7.93,57.31-4.16,57.31-4.16s-4.88-36-33.79-37.26
			S1245.78,574.32,1245.78,574.32z"/>
		<path class="st16" d="M1466.12,586.94c0,0-9.46,9.39-42,19.01c-14.93,4.41-57.31-2.97-57.31-2.97s4.88-25.75,33.79-26.65
			C1429.51,575.42,1466.12,586.94,1466.12,586.94z"/>
		
			<ellipse transform="matrix(0.5203 -0.854 0.854 0.5203 175.3926 1542.2203)" class="st46" cx="1460.47" cy="614.99" rx="13.89" ry="30.37"/>
		<line class="st47" x1="1450.47" y1="608.45" x2="1447.03" y2="614.57"/>
		<line class="st47" x1="1457.3" y1="610.81" x2="1453.02" y2="617.29"/>
		<line class="st47" x1="1463.99" y1="613.87" x2="1460.12" y2="619.53"/>
		<path class="st16" d="M1443.77,593.97c-30.48-15.96-71.23-37.72-103.42-47.21c-49.95-14.73-92.42-22.21-101.8,4.46
			s24.73,37.24,89.72,50.31c33.82,6.8,62.7,6.8,110.53,12.69C1443.85,608.7,1444.6,600.01,1443.77,593.97z"/>
		<path class="st41" d="M1428.53,560.23h-122.68c-1.61,0-2.91-1.3-2.91-2.91v-2.85c0-1.61,1.3-2.91,2.91-2.91h122.68
			c1.61,0,2.91,1.3,2.91,2.91v2.85C1431.44,558.93,1430.13,560.23,1428.53,560.23z"/>
		<path class="st41" d="M1423.26,551.57h-112.14c-4.52,0-8.18-3.66-8.18-8.18v-61.57c0-4.52,3.66-8.18,8.18-8.18h112.14
			c4.52,0,8.18,3.66,8.18,8.18v61.57C1431.44,547.9,1427.77,551.57,1423.26,551.57z"/>
		<path class="st48" d="M1302.55,485.98c0-3.94,3.49-7.14,7.8-7.14h112.9c4.31,0,7.8,3.2,7.8,7.14"/>
		<path class="st46" d="M1309.24,608.94c5.79,11.93-22.44,22.49-37.94,27.49c-15.5,5-30.27,3.3-33-3.8
			c-2.73-7.1,7.62-16.9,23.12-21.9C1276.91,605.73,1302.03,594.08,1309.24,608.94z"/>
		<line class="st47" x1="1276.53" y1="614.46" x2="1279.09" y2="620.94"/>
		<line class="st47" x1="1283.07" y1="611.49" x2="1285.34" y2="618.77"/>
		<line class="st47" x1="1290.07" y1="609.09" x2="1291.97" y2="615.54"/>
		<path class="st16" d="M1474.3,560.72c-6.02-23.7-30.72-30.81-102.3-1.51c-22.61,9.26-57.08,28.52-77.55,41.49
			c-0.83,2.27,2.64,15.69,8.21,22.7c41.25-7.56,67.12-10.59,92.43-15.08C1439.84,600.39,1482.55,593.21,1474.3,560.72z"/>
		<g>
			<path class="st49" d="M1252.79,579.99c0,0,39.85,13.71,48.6,16.59"/>
			<path class="st49" d="M1384.79,552.79c0,0-19.8,8.31-38.77,18.89c-18.97,10.58-52.01,29.4-52.01,29.4"/>
			<path class="st49" d="M1445.01,598.12c0,0-61.87,13.6-142.72,24.93"/>
		</g>
		<ellipse class="st24" cx="1365.89" cy="513" rx="16.93" ry="15.51"/>
		<g>
			<path class="st27" d="M1329.58,374.47c0,0,2.91,0.27,4.8,2.86c1.89,2.6,3.16,6.68,3.16,6.68"/>
			<path class="st27" d="M1399.97,374c0,0-2.91,0.27-4.8,2.86s-3.16,6.68-3.16,6.68"/>
		</g>
	</g>
	<text transform="matrix(1.0918 0 0 1 245.7461 474.4136)" class="st50 st51 st52">No 1. Online </text>
	<text transform="matrix(1.0918 0 0 1 248.4355 546.6084)" class="st50 st51 st53">English School</text>
	<line class="st54" x1="256.92" y1="391.2" x2="755.54" y2="391.2"/>
	<g>
		<path class="st0" d="M340.12,368.49h-19.25v-44.84l-21.77,32.72h-2.17l-21.77-32.72v44.84h-19.25v-77.12h19.25l22.85,34.26
			l22.85-34.26h19.25V368.49z"/>
		<path class="st55" d="M403.87,356.38h-31.27l-4.21,12.12h-21.05l28.63-77.12h24.54l28.63,77.12h-21.05L403.87,356.38z
			 M398.09,339.85l-9.86-28.31l-9.86,28.31H398.09z"/>
		<path class="st55" d="M430.33,350.98l16.6-8.81c3.01,6.39,8.18,10.69,17.68,10.69c9.14,0,11.43-3.3,11.43-6.28
			c0-4.74-4.81-6.61-17.44-9.8c-12.51-3.19-24.78-8.7-24.78-23.47c0-14.87,13.71-23.47,28.27-23.47c13.83,0,24.66,6.06,30.79,17.41
			l-16.24,8.7c-2.89-5.51-6.86-8.92-14.55-8.92c-6.01,0-9.02,2.75-9.02,5.84c0,3.53,2.04,5.95,15.16,9.58
			c12.75,3.53,27.06,7.6,27.06,23.91c0,14.87-12.99,23.69-31.27,23.69C446.32,370.04,435.02,362.33,430.33,350.98z"/>
		<path class="st55" d="M558.42,308.34h-21.65v60.15h-19.25v-60.15h-21.65v-16.97h62.55V308.34z"/>
		<path class="st55" d="M619.77,351.53v16.97h-52.92v-77.12h52.32v16.97h-33.08v12.78h30.07v16.74h-30.07v13.66H619.77z"/>
		<path class="st55" d="M658.98,343.16h-9.14v25.34h-19.25v-77.12h33.68c16,0,28.87,11.79,28.87,26.44
			c0,9.47-6.25,18.07-15.52,22.36l17.92,28.31h-20.69L658.98,343.16z M649.83,327.73h14.43c5.29,0,9.62-4.3,9.62-9.91
			s-4.33-9.91-9.62-9.91h-14.43V327.73z"/>
		<path class="st0" d="M754.33,291.39v77.1h-19.24v-58.49l-14.91,3.75l-4.69-15.09l22.01-7.27H754.33z"/>
		<polygon class="st55" points="261.67,287.63 223.09,286.49 248.84,260.16 287.42,261.31 		"/>
		<path class="st55" d="M271.21,281.56l-8.15,8.33l-11.46-0.34l4.02,8.61c0.87,1.86,5.99,1.63,11.44-0.5
			c5.45-2.13,9.17-5.37,8.3-7.22L271.21,281.56z"/>
		<path class="st0" d="M257.08,270.46L257.08,270.46c-0.4-0.37-1.05-0.37-1.45,0l-15.64,15.55c-0.13,0.12-0.22,0.26-0.26,0.41
			c-0.03,0.09-0.05,0.19-0.05,0.29v30.02c0,0.52,0.46,0.94,1.02,0.94l0,0c0.57,0,1.02-0.42,1.02-0.94v-29.66l15.35-15.28
			C257.48,271.42,257.48,270.83,257.08,270.46z"/>
		<path class="st55" d="M245.56,323.82c0-0.09,0.01-0.18,0.01-0.28c0-5.4-2.21-9.77-4.94-9.77c-2.73,0-4.94,4.37-4.94,9.77
			c0,0.09,0.01,0.18,0.01,0.28c0,0,0.61,1.79,4.71,1.79C244.24,325.61,245.56,323.82,245.56,323.82z"/>
	</g>
	<g>
		<linearGradient id="SVGID_1_" gradientUnits="userSpaceOnUse" x1="1726.1779" y1="155.2106" x2="-316.5037" y2="155.2106">
			<stop  offset="0" style="stop-color:#FFFFFF;stop-opacity:0"/>
			<stop  offset="0.0391" style="stop-color:#F6FCFE;stop-opacity:0.0391"/>
			<stop  offset="0.3832" style="stop-color:#AEE7F9;stop-opacity:0.3832"/>
			<stop  offset="0.6692" style="stop-color:#79D7F5;stop-opacity:0.6692"/>
			<stop  offset="0.8828" style="stop-color:#58CDF2;stop-opacity:0.8828"/>
			<stop  offset="1" style="stop-color:#4CC9F1"/>
		</linearGradient>
		<path class="st56" d="M0,3.67v142.41c78.5-1.29,216.47-1.63,424.34,4.31c354.01,10.12,597.44,54.03,1018.87,127.45
			c187.13,32.6,391.01,30.26,476.79,27.34V3.67H0z"/>
		<path class="st57" d="M0,3.67v93.96c110.39-1.48,299.02-2.27,520.24,4.05c354.01,10.12,597.44,54.03,1018.87,127.45
			c135.17,23.55,279.07,28.86,380.9,28.9V3.67H0z"/>
		<linearGradient id="SVGID_2_" gradientUnits="userSpaceOnUse" x1="0" y1="139.9641" x2="1920" y2="139.9641">
			<stop  offset="0" style="stop-color:#FFFFFF;stop-opacity:0"/>
			<stop  offset="0.2546" style="stop-color:#D3B3E9;stop-opacity:0.2546"/>
			<stop  offset="0.5211" style="stop-color:#AA6BD3;stop-opacity:0.5211"/>
			<stop  offset="0.7432" style="stop-color:#8B36C3;stop-opacity:0.7432"/>
			<stop  offset="0.9091" style="stop-color:#7815BA;stop-opacity:0.9091"/>
			<stop  offset="1" style="stop-color:#7109B6"/>
		</linearGradient>
		<path class="st58" d="M0,3.67v111.59c81.31-0.97,212.37-0.75,400.98,4.64c354.01,10.12,597.44,54.03,1018.87,127.45
			c207.21,36.1,434.97,29.35,500.15,26.42V3.67H0z"/>
	</g>
	<g>
		<linearGradient id="SVGID_3_" gradientUnits="userSpaceOnUse" x1="-109.9082" y1="883.7014" x2="1932.7733" y2="883.7014">
			<stop  offset="0" style="stop-color:#FFFFFF;stop-opacity:0"/>
			<stop  offset="0.0391" style="stop-color:#F6FCFE;stop-opacity:0.0391"/>
			<stop  offset="0.3832" style="stop-color:#AEE7F9;stop-opacity:0.3832"/>
			<stop  offset="0.6692" style="stop-color:#79D7F5;stop-opacity:0.6692"/>
			<stop  offset="0.8828" style="stop-color:#58CDF2;stop-opacity:0.8828"/>
			<stop  offset="1" style="stop-color:#4CC9F1"/>
		</linearGradient>
		<path class="st59" d="M1920,884.69c-56.67,3.4-292.11,13.74-505.72-32.52C992.85,760.9,749.42,706.31,395.41,693.74
			C211.05,687.19,81.67,686.78,0,687.89v392.1h1920V884.69z"/>
		<path class="st57" d="M1920,1079.99v-92.67c-93.27,3.21-284.43,3.58-460.72-34.6c-421.42-91.27-664.86-145.86-1018.87-158.43
			C217.54,786.37,75.01,787.43,0,789.29v290.69H1920z"/>
		<linearGradient id="SVGID_4_" gradientUnits="userSpaceOnUse" x1="-166.4329" y1="910.1243" x2="2000.4369" y2="910.1243">
			<stop  offset="0" style="stop-color:#FFFFFF;stop-opacity:0"/>
			<stop  offset="0.2546" style="stop-color:#D3B3E9;stop-opacity:0.2546"/>
			<stop  offset="0.5211" style="stop-color:#AA6BD3;stop-opacity:0.5211"/>
			<stop  offset="0.7432" style="stop-color:#8B36C3;stop-opacity:0.7432"/>
			<stop  offset="0.9091" style="stop-color:#7815BA;stop-opacity:0.9091"/>
			<stop  offset="1" style="stop-color:#7109B6"/>
		</linearGradient>
		<path class="st60" d="M1920,1079.99V939.27c-89.29,3.48-287.7,5.27-470.18-34.25C1028.4,813.75,784.96,759.16,430.96,746.58
			c-213.84-7.6-353.71-6.93-430.96-5.22v338.62H1920z"/>
	</g>
</g>
</svg>
